<?xml version="1.0" encoding="UTF-8" standalone="no"?>
<svg width="23px" height="14px" viewBox="0 0 23 14" version="1.1" xmlns="http://www.w3.org/2000/svg" xmlns:xlink="http://www.w3.org/1999/xlink" xmlns:sketch="http://www.bohemiancoding.com/sketch/ns">
    <!-- Generator: Sketch 3.3 (11970) - http://www.bohemiancoding.com/sketch -->
    <title>Checkmark 1</title>
    <desc>Created with Sketch.</desc>
    <defs></defs>
    <g id="Page-1" stroke="none" stroke-width="1" fill="none" fill-rule="evenodd" sketch:type="MSPage">
        <g id="V17---Dhanur" sketch:type="MSArtboardGroup" transform="translate(-57.000000, -1356.000000)" fill="#5FC3A2">
            <g id="Explanation" sketch:type="MSLayerGroup" transform="translate(0.000000, 888.000000)">
                <g id="List" transform="translate(57.000000, 459.000000)" sketch:type="MSShapeGroup">
                    <path d="M19.7644542,9.21950738 C19.4185986,8.92573027 18.846148,8.92675033 18.5062554,9.22307759 L8.60763,17.7064017 C8.26177441,18.0022189 7.69528681,18.003239 7.34943122,17.7069117 L3.74179967,14.6258223 C3.39594408,14.3310251 2.82945648,14.3310251 2.4836009,14.6263323 L0.25939169,16.527213 C-0.0864638967,16.8240503 -0.0864638967,17.3085785 0.25939169,17.6054158 L5.9063786,22.4603886 C6.25223419,22.7572259 6.93798234,23 7.42695058,23 L8.45855431,23 C8.95348558,23 9.6332707,22.7577359 9.97912629,22.4614086 L21.9767373,12.1735994 C22.3225929,11.8772722 22.3225929,11.393764 21.9767373,11.0989668 L19.7644542,9.21950738" id="Checkmark-1"></path>
                </g>
            </g>
        </g>
    </g>
</svg>