<?xml version="1.0" encoding="UTF-8" standalone="no"?>
<svg width="130px" height="130px" viewBox="0 0 130 130" version="1.1" xmlns="http://www.w3.org/2000/svg" xmlns:xlink="http://www.w3.org/1999/xlink" xmlns:sketch="http://www.bohemiancoding.com/sketch/ns">
    <!-- Generator: Sketch Beta 3.4 (15009) - http://www.bohemiancoding.com/sketch -->
    <title>svg</title>
    <desc>Created with Sketch Beta.</desc>
    <defs></defs>
    <g id="Page-1" stroke="none" stroke-width="1" fill="none" fill-rule="evenodd" sketch:type="MSPage">
        <g id="Solar-web-7a" sketch:type="MSArtboardGroup" transform="translate(-770.000000, -1122.000000)">
            <g id="We-cut-the-time-it-t-+-Clock-+-Page-1-+-compass" sketch:type="MSLayerGroup" transform="translate(687.000000, 1122.000000)">
                <g id="compass" transform="translate(83.000000, 0.000000)" sketch:type="MSShapeGroup">
                    <circle id="Oval-33" stroke="#7F93A5" stroke-width="6.52799989" fill="#FFFFFF" cx="65" cy="66" r="61"></circle>
                    <path d="M68.8087782,27.1644442 L62.5357779,18.5964438 L62.5357779,27.1644442 L60.8357778,27.1644442 L60.8357778,15.8254437 L62.5867779,15.8254437 L68.7577782,24.189444 L68.7577782,15.8254437 L70.4577782,15.8254437 L70.4577782,27.1644442 L68.8087782,27.1644442 Z" id="N" fill="#111111"></path>
                    <path d="M106.924667,71.2199997 L106.924667,59.8809992 L114.540667,59.8809992 L114.540667,61.3769993 L108.624667,61.3769993 L108.624667,64.6919994 L114.421667,64.6919994 L114.421667,66.1879995 L108.624667,66.1879995 L108.624667,69.7239997 L114.540667,69.7239997 L114.540667,71.2199997 L106.924667,71.2199997 Z" id="E" fill="#111111"></path>
                    <path d="M65.2875558,116.835111 C64.2675506,116.835111 63.389226,116.670779 62.6525557,116.342111 C61.9158853,116.013443 61.3038914,115.577114 60.8165556,115.033111 L61.7855556,113.724111 C62.1708909,114.15478 62.663886,114.528776 63.2645557,114.846111 C63.8652254,115.163446 64.5622184,115.322111 65.3555558,115.322111 C65.8088914,115.322111 66.1942209,115.268278 66.5115558,115.160611 C66.8288908,115.052944 67.0867215,114.916945 67.2850559,114.752611 C67.4833902,114.588277 67.6250554,114.401278 67.7100559,114.191611 C67.7950563,113.981943 67.8375559,113.775112 67.8375559,113.571111 C67.8375559,113.276443 67.7638899,113.027112 67.6165559,112.823111 C67.4692218,112.61911 67.2680571,112.449111 67.0130558,112.313111 C66.7580546,112.17711 66.4662241,112.058111 66.1375558,111.956111 C65.8088875,111.85411 65.4632243,111.757778 65.1005558,111.667111 C64.6472201,111.553777 64.1882247,111.423445 63.7235557,111.276111 C63.2588867,111.128777 62.8367242,110.936112 62.4570557,110.698111 C62.0773871,110.460109 61.7685568,110.154112 61.5305556,109.780111 C61.2925544,109.406109 61.1735556,108.930113 61.1735556,108.35211 C61.1735556,107.887441 61.2727213,107.456779 61.4710556,107.06011 C61.6693899,106.663442 61.9442205,106.320612 62.2955556,106.03161 C62.6468907,105.742609 63.0690532,105.518778 63.5620557,105.36011 C64.0550582,105.201443 64.5962195,105.12211 65.1855558,105.12211 C66.0695602,105.12211 66.8515524,105.258109 67.5315559,105.53011 C68.2115593,105.802112 68.8065534,106.193108 69.3165559,106.70311 L68.3305559,107.96111 C67.8998871,107.496441 67.3983921,107.159278 66.8260558,106.94961 C66.2537196,106.739943 65.6615588,106.63511 65.0495558,106.63511 C64.4148859,106.63511 63.9020577,106.782442 63.5110557,107.07711 C63.1200537,107.371779 62.9245557,107.757108 62.9245557,108.23311 C62.9245557,108.493778 62.9953883,108.70911 63.1370557,108.879111 C63.2787231,109.049111 63.4713878,109.199277 63.7150557,109.329611 C63.9587236,109.459945 64.2392208,109.570443 64.5565557,109.661111 C64.8738907,109.751778 65.2082207,109.842443 65.5595558,109.933111 C66.0242248,110.057778 66.4945534,110.19661 66.9705558,110.349611 C67.4465582,110.502611 67.8772206,110.706609 68.2625559,110.961611 C68.6478912,111.216612 68.962388,111.539609 69.2060559,111.930611 C69.4497238,112.321613 69.571556,112.817441 69.571556,113.418111 C69.571556,113.860113 69.4922234,114.287942 69.3335559,114.701611 C69.1748885,115.11528 68.9227243,115.477943 68.5770559,115.789611 C68.2313875,116.101279 67.7865586,116.353443 67.2425559,116.546111 C66.6985531,116.738778 66.0468929,116.835111 65.2875558,116.835111 L65.2875558,116.835111 Z" id="S" fill="#111111"></path>
                    <path d="M24.7894449,71.2199997 L22.4264448,62.4649994 L20.0804447,71.2199997 L18.2614446,71.2199997 L15.0144445,59.8809992 L16.9184445,59.8809992 L19.2644446,68.9759996 L21.7464447,59.8809992 L23.1234448,59.8809992 L25.5884449,68.9759996 L27.934445,59.8809992 L29.8384451,59.8809992 L26.6084449,71.2199997 L24.7894449,71.2199997 Z" id="W" fill="#111111"></path>
                    <g id="Triangle-1-+-Triangle-1-Copy" transform="translate(65.398272, 66.480070) rotate(-322.000000) translate(-65.398272, -66.480070) translate(56.398272, 22.480070)">
                        <polygon id="Triangle-1-Copy" opacity="0.68358209" fill="#000000" transform="translate(9.133333, 65.575000) rotate(-180.000000) translate(-9.133333, -65.575000) " points="9.13333333 43.7166667 17.2666667 87.4333333 1 87.4333333 "></polygon>
                        <polygon id="Triangle-1" fill="#EE5151" points="9.13333333 5.68434189e-14 17.2666667 43.7166667 1 43.7166667 "></polygon>
                        <circle id="Oval-35" fill="#D8D8D8" cx="9.082054" cy="43.2393835" r="8.5"></circle>
                    </g>
                </g>
            </g>
        </g>
    </g>
</svg>