<?xml version="1.0" encoding="UTF-8" standalone="no"?>
<svg xmlns="http://www.w3.org/2000/svg" enable-background="new -1121 379 400 73" id="domino-cont" version="1.1" viewBox="-1121 379 400 73" x="0px" y="0px">
  <g id="Layer_1">
    <g id="domino" transform="translate(0.000000, 28.271111)">
      <path d="M-1091.2,419.3v-2.8c-2.8,3.3-7.1,5.5-12.7,5.5c-10.5,0-16.4-7.7-16.4-16.4                         c0-8.7,5.9-16.4,16.4-16.4c5.6,0,9.9,2.2,12.7,5.5v-13.4c0-2.2,3.7-2.2,3.7,0v38C-1087.5,421.5-1091.2,421.5-1091.2,419.3                         M-1103.9,392.5c-7.8,0-12.7,5.6-12.7,13.1c0,7.5,4.9,13.1,12.7,13.1c7.8,0,12.7-5.6,12.7-13.1                         C-1091.2,398-1096,392.5-1103.9,392.5" fill="#5EC3A2" id="Fill-1" />
      <path d="M-1062.1,421.9c-9.6,0-14.9-7.7-14.9-16.4c0-8.7,5.4-16.4,14.9-16.4c9.6,0,14.9,7.7,14.9,16.4                         C-1047.1,414.3-1052.5,421.9-1062.1,421.9                         M-1062.1,392.5c-7.1,0-11.5,5.6-11.5,13.1c0,7.5,4.4,13.1,11.5,13.1                         c7.1,0,11.5-5.6,11.5-13.1C-1050.5,398-1054.9,392.5-1062.1,392.5" fill="#5EC3A2" id="Fill-2" />
      <path d="M-995.4,419.3v-19.4c0-4.1-3.7-7.4-8.3-7.4c-4.6,0-8.4,3.3-8.4,7.3v19.5c0,2.2-3.7,2.2-3.7,0                         v-19.4c0-4.1-3.7-7.4-8.3-7.4c-4.6,0-8.4,3.3-8.4,7.3v19.5c0,2.2-3.7,2.2-3.7,0v-27.5c0-2.2,3.7-2.2,3.7,0v0.3                         c2.2-1.9,5.1-3,8.3-3c4.3,0,8.1,2,10.2,5c2.2-3,5.9-5,10.2-5c6.7,0,12.1,4.8,12.1,10.6v19.5C-991.6,421.5-995.4,421.5-995.4,419.3                         " fill="#5EC3A2" id="Fill-3" />
      <path d="M-979.2,419.3v-27.5c0-2.2,3.7-2.2,3.7,0v27.5C-975.4,421.5-979.2,421.5-979.2,419.3" fill="#5EC3A2" id="Fill-4" />
      <path d="M-936.2,419.3v-16.9c0-5.5-5-9.9-11.2-9.9c-6.2,0-11.2,4.4-11.2,9.9v16.9c0,2.2-3.7,2.2-3.7,0                          v-27.5c0-2.2,3.7-2.2,3.7,0v1.9c2.8-2.8,6.7-4.5,11.2-4.5c8.2,0,14.9,6,14.9,13.2v16.9C-932.5,421.5-936.2,421.5-936.2,419.3" fill="#5EC3A2" id="Fill-5" />
      <path d="M-907.7,421.9c-9.6,0-14.9-7.7-14.9-16.4c0-8.7,5.4-16.4,14.9-16.4c9.6,0,14.9,7.7,14.9,16.4                         C-892.7,414.3-898.1,421.9-907.7,421.9                         M-907.7,392.5c-7.1,0-11.5,5.6-11.5,13.1c0,7.5,4.4,13.1,11.5,13.1                         c7.1,0,11.5-5.6,11.5-13.1C-896.1,398-900.5,392.5-907.7,392.5" fill="#5EC3A2" id="Fill-6" />
    </g>
  </g>
  <g id="dominos-cont">
    <g id="dominos">
      <g id="dom-1" style="-webkit-transform-origin: 60% 100% 0px; transform-origin: 60% 100% 0px; text-indent: 46px; -webkit-transform: rotate(46deg);">
        <path d="M-877.3,405.4c0.2-1,1.3-1.7,2.4-1.5l5.9,0.9c1.1,0.2,1.8,1.1,1.6,2.2l-8.4,43.3                              c-0.2,1-1.3,1.7-2.4,1.5l-5.9-0.9c-1.1-0.2-1.8-1.1-1.6-2.2L-877.3,405.4L-877.3,405.4z" fill="#5EC3A2" id="Rectangle-6" />
      </g>
      <g id="dom-2" style="-webkit-transform-origin: 100% 100% 0px; transform-origin: 100% 100% 0px; text-indent: 52px; -webkit-transform: rotate(52deg);">
        <path d="M-862,397.6h6c1.1,0,2,0.9,2,2v50c0,1.1-0.9,2-2,2h-6c-1.1,0-2-0.9-2-2v-50                             C-864,398.5-863.1,397.6-862,397.6z" fill="#5EC3A2" id="Rectangle-2" />
      </g>
      <g id="dom-3" style="-webkit-transform-origin: 100% 100% 0px; transform-origin: 100% 100% 0px; text-indent: 55px; -webkit-transform: rotate(55deg);">
        <path d="M-845.7,390.8h6c1.1,0,2,0.9,2,2v56.7c0,1.1-0.9,2-2,2h-6c-1.1,0-2-0.9-2-2v-56.7                             C-847.7,391.7-846.8,390.8-845.7,390.8z" fill="#5EC3A2" id="Rectangle-3" />
      </g>
      <g id="dom-4" style="-webkit-transform-origin: 100% 100% 0px; transform-origin: 100% 100% 0px; text-indent: 65px; -webkit-transform: rotate(65deg);">
        <path d="M-829.4,384.1h6c1.1,0,2,0.9,2,2v63.4c0,1.1-0.9,2-2,2h-6c-1.1,0-2-0.9-2-2v-63.4                             C-831.4,385-830.5,384.1-829.4,384.1z" fill="#5EC3A2" id="Rectangle-4" />
      </g>
      <g id="dom-5" style="-webkit-transform-origin: 100% 100% 0px; transform-origin: 100% 100% 0px; text-indent: 90px; -webkit-transform: rotate(90deg);">
        <path d="M-813.5,379.5h6c1.1,0,2,0.9,2,2v68c0,1.1-0.9,2-2,2h-6c-1.1,0-2-0.9-2-2v-68                             C-815.5,380.4-814.6,379.5-813.5,379.5z" fill="#5EC3A2" id="Rectangle-5" />
      </g>
    </g>
  </g>
</svg>