<?xml version="1.0" encoding="UTF-8" standalone="no"?>
<svg width="127px" height="127px" viewBox="0 0 127 127" version="1.1" xmlns="http://www.w3.org/2000/svg" xmlns:xlink="http://www.w3.org/1999/xlink" xmlns:sketch="http://www.bohemiancoding.com/sketch/ns">
    <!-- Generator: bin/sketchtool 1.4 (305) - http://www.bohemiancoding.com/sketch -->
    <title>listen</title>
    <desc>Created with bin/sketchtool.</desc>
    <defs></defs>
    <g id="Page-1" stroke="none" stroke-width="1" fill="none" fill-rule="evenodd" sketch:type="MSPage">
        <g id="icons" sketch:type="MSArtboardGroup" transform="translate(-154.000000, -92.000000)">
            <g id="listen" sketch:type="MSLayerGroup" transform="translate(154.000000, 92.000000)">
                <path d="M63.5,0.95 C97.989375,0.95 126.05,29.010625 126.05,63.5 C126.05,97.989375 97.989375,126.05 63.5,126.05 C29.010625,126.05 0.95,97.989375 0.95,63.5 C0.95,29.010625 29.010625,0.95 63.5,0.95 L63.5,0.95 Z" id="Shape" fill="#77BDCE" sketch:type="MSShapeGroup"></path>
                <path d="M43.939225,28.030675 C48.13355,27.238375 50.882275,31.96785 52.974225,35.230875 C55.010575,38.400075 57.51605,42.118325 56.504825,46.24315 C55.941875,48.5575 53.849925,49.818925 52.2688,51.1846 C50.708525,52.5329 48.331625,53.77 47.754775,55.8411 C46.81305,59.201425 48.873725,62.72855 50.14905,64.7371 C53.0472,69.27545 56.55,73.365525 61.022325,77.01775 C63.18725,78.79 66.193125,81.156475 69.20595,80.54835 C73.706075,79.6379 74.894525,74.088325 79.794275,73.34815 C84.457725,72.642725 87.613025,76.0239 90.247075,78.2896 C92.783825,80.482325 96.877375,83.290125 96.599375,87.0466 C96.43605,89.204575 94.7055,90.54245 93.2043,91.845575 C91.678775,93.1765 90.3409,94.67075 88.83275,95.654175 C85.180525,98.038025 80.70125,99.205625 75.55825,99.045775 C70.516025,98.8894 66.498925,97.176225 62.85365,95.2337 C55.726425,91.43205 50.09345,86.084025 44.787125,80.1244 C39.567675,74.26555 34.74785,67.32945 32.082525,59.660125 C28.75695,50.083025 30.5153,40.2453 35.898075,34.10845 C36.808525,33.06595 38.247175,31.978275 39.5642,30.859325 C40.87775,29.7369 42.094,28.378175 43.939225,28.030675 L43.939225,28.030675 Z" id="Shape" fill="#FFFFFF" sketch:type="MSShapeGroup"></path>
            </g>
        </g>
    </g>
</svg>