<?xml version="1.0" encoding="UTF-8" standalone="no"?>
<svg width="100px" height="100px" viewBox="0 0 100 100" version="1.1" xmlns="http://www.w3.org/2000/svg" xmlns:xlink="http://www.w3.org/1999/xlink" xmlns:sketch="http://www.bohemiancoding.com/sketch/ns">
    <!-- Generator: Sketch 3.3.2 (12043) - http://www.bohemiancoding.com/sketch -->
    <title>06-no-pressure</title>
    <desc>This browser can't display SVG's :(.</desc>
    <defs></defs>
    <g id="Page-1" stroke="none" stroke-width="1" fill="none" fill-rule="evenodd" sketch:type="MSPage">
        <g id="Homepage" sketch:type="MSArtboardGroup" transform="translate(-253.000000, -2736.000000)">
            <g id="why-customers-love-us" sketch:type="MSLayerGroup" transform="translate(20.000000, 2150.000000)">
                <g id="no-pressure" transform="translate(233.000000, 586.000000)" sketch:type="MSShapeGroup">
                    <g id="06-no-pressure">
                        <path d="M50,0 C22.386,0 0,22.386 0,50 C0,77.614 22.386,100 50,100 C77.614,100 100,77.614 100,50 C100,22.386 77.614,0 50,0 L50,0 Z M50,66 C41.164,66 34,58.837 34,50 C34,41.164 41.164,34 50,34 C58.836,34 66,41.164 66,50 C66,58.837 58.836,66 50,66 L50,66 Z" id="Shape" fill="#E89C25"></path>
                        <path d="M50,0 C22.386,0 0,22.386 0,50 C0,53.284 0.326,56.491 0.931,59.599 C4.209,61.088 7.838,62.379 11,67 C17.997,77.227 26.759,64.211 27,57 C27.167,51.995 31.434,50.087 34.031,49.386 C34.356,40.836 41.371,34 50,34 C58.836,34 66,41.164 66,50 C66,51.936 65.639,53.781 65.01,55.499 C68.213,56.479 71.572,54.275 72,52 C72.81,47.69 76.373,44.178 86,58 C92.41,67.204 97.377,57.129 99.979,50.8 L100,50 C100,22.386 77.614,0 50,0 L50,0 Z" id="Shape" fill="#F8BEB6"></path>
                        <path d="M50.01,75.797 C43.155,75.797 36.297,72.318 32.016,67 C35.379,73.949 42.172,79.004 50.01,79.004 C57.85,79.004 64.643,73.949 68.005,67 C63.724,72.317 56.867,75.797 50.01,75.797 L50.01,75.797 Z" id="Shape" fill="#EBAB45"></path>
                        <path d="M49.986,9.698 C62.47,9.698 74.961,15.651 82.991,24.825 C76.519,13.466 64.168,5.783 49.986,5.783 C35.805,5.783 23.454,13.466 16.982,24.825 C25.013,15.651 37.502,9.698 49.986,9.698 L49.986,9.698 Z" id="Shape" fill="#FACEC8"></path>
                        <path d="M17.732,54.987 C17.182,54.052 15.963,53.733 15.01,54.272 C14.057,54.811 13.731,56.005 14.281,56.939 L17.27,62.012 C17.82,62.946 19.039,63.266 19.992,62.727 C20.945,62.188 21.272,60.994 20.721,60.06 L17.732,54.987 L17.732,54.987 Z M40.937,5.333 C40.674,4.371 39.667,3.8 38.687,4.058 L33.363,5.459 C32.383,5.717 31.801,6.706 32.064,7.668 C32.327,8.63 33.334,9.201 34.314,8.943 L39.638,7.543 C40.618,7.285 41.199,6.296 40.937,5.333 L40.937,5.333 Z" id="Shape" fill="#E4776E"></path>
                        <path d="M33.364,20.056 L27.48,21.625 C26.397,21.914 25.777,23.115 26.097,24.309 C26.416,25.502 27.554,26.235 28.637,25.946 L34.521,24.377 C35.604,24.088 36.224,22.886 35.904,21.694 C35.584,20.5 34.447,19.768 33.364,20.056 L33.364,20.056 Z M76.984,27.992 C76.982,26.885 76.091,25.987 74.994,25.988 C73.896,25.988 73.008,26.885 73.008,27.993 L73.015,34.008 C73.016,35.115 73.907,36.013 75.005,36.012 C76.103,36.012 76.992,35.114 76.99,34.007 L76.984,27.992 L76.984,27.992 Z" id="Shape" fill="#51B8DA"></path>
                        <path d="M94.924,43.428 L93.246,37.517 C92.937,36.429 91.754,35.783 90.602,36.075 C89.451,36.367 88.767,37.485 89.076,38.573 L90.752,44.485 C91.061,45.573 92.244,46.218 93.397,45.927 C94.549,45.635 95.232,44.517 94.924,43.428 L94.924,43.428 Z M11.495,18.529 C10.474,17.92 9.2,18.228 8.648,19.216 L5.654,24.581 C5.103,25.569 5.483,26.863 6.504,27.471 C7.525,28.079 8.799,27.771 9.35,26.784 L12.345,21.418 C12.896,20.431 12.516,19.137 11.495,18.529 L11.495,18.529 Z M59.035,18.276 L53.963,21.237 C53.028,21.782 52.717,23.006 53.268,23.969 C53.819,24.933 55.022,25.273 55.956,24.728 L61.028,21.767 C61.962,21.222 62.273,19.998 61.723,19.035 C61.172,18.07 59.969,17.731 59.035,18.276 L59.035,18.276 Z" id="Shape" fill="#75C9BA"></path>
                        <path d="M15.991,35.272 C15.038,34.733 13.82,35.053 13.269,35.987 L10.28,41.06 C9.73,41.995 10.056,43.188 11.009,43.728 C11.962,44.267 13.181,43.947 13.731,43.013 L16.72,37.939 C17.271,37.006 16.944,35.812 15.991,35.272 L15.991,35.272 Z M75.029,12.271 L69.939,9.271 C69.001,8.719 67.803,9.046 67.262,10.003 C66.721,10.959 67.042,12.183 67.98,12.734 L73.07,15.734 C74.007,16.286 75.205,15.959 75.746,15.002 C76.287,14.047 75.967,12.824 75.029,12.271 L75.029,12.271 Z" id="Shape" fill="#F4F4F4"></path>
                        <path d="M50,28 C38.954,28 30,36.954 30,48 C30,59.046 38.954,68 50,68 C61.046,68 70,59.046 70,48 C70,36.954 61.046,28 50,28 L50,28 Z M50,66 C41.164,66 34,58.837 34,50 C34,41.164 41.164,34 50,34 C58.836,34 66,41.164 66,50 C66,58.837 58.836,66 50,66 L50,66 Z" id="Shape" fill="#D08C21"></path>
                        <path d="M50,94.681 C23.278,94.681 1.455,73.718 0.072,47.341 C0.025,48.221 0,49.107 0,50 C0,77.614 22.386,100 50,100 C77.614,100 100,77.614 100,50 C100,49.107 99.975,48.221 99.929,47.34 C98.546,73.718 76.722,94.681 50,94.681 L50,94.681 Z" id="Shape" fill="#D69022"></path>
                        <g id="Group" transform="translate(5.000000, 19.000000)" fill="#64AB9E">
                            <path d="M56.027,1.768 L50.955,4.729 C50.021,5.274 48.818,4.935 48.267,3.97 C48.168,3.798 48.107,3.616 48.063,3.433 C47.932,3.931 47.989,4.483 48.267,4.97 C48.818,5.934 50.021,6.274 50.955,5.729 L56.027,2.768 C56.795,2.32 57.131,1.415 56.926,0.572 C56.799,1.061 56.49,1.497 56.027,1.768 L56.027,1.768 Z M7.345,1.418 L4.35,6.784 C3.799,7.771 2.525,8.079 1.504,7.471 C0.962,7.148 0.607,6.629 0.47,6.067 C0.246,6.96 0.644,7.958 1.504,8.471 C2.525,9.079 3.799,8.771 4.35,7.784 L7.345,2.418 C7.603,1.956 7.65,1.427 7.529,0.932 C7.487,1.099 7.432,1.263 7.345,1.418 L7.345,1.418 Z M88.396,25.927 C87.244,26.218 86.06,25.573 85.751,24.485 L84.075,18.573 L84.073,18.561 C83.989,18.884 83.977,19.228 84.075,19.573 L85.751,25.485 C86.06,26.573 87.243,27.218 88.396,26.927 C89.544,26.636 90.226,25.525 89.925,24.44 C89.743,25.138 89.185,25.727 88.396,25.927 L88.396,25.927 Z" id="Shape"></path>
                        </g>
                        <g id="Group" transform="translate(26.000000, 21.000000)" fill="#459DBA">
                            <path d="M8.521,2.376 L2.637,3.945 C1.554,4.234 0.416,3.501 0.097,2.308 L0.075,2.18 C-0.003,2.537 -0.007,2.921 0.097,3.308 C0.416,4.501 1.554,5.234 2.637,4.945 L8.521,3.376 C9.566,3.098 10.17,1.97 9.926,0.821 C9.764,1.566 9.253,2.182 8.521,2.376 L8.521,2.376 Z M49.005,14.012 C47.906,14.012 47.016,13.115 47.015,12.008 L47.009,6.982 L47.008,6.993 L47.015,13.008 C47.016,14.115 47.907,15.013 49.005,15.012 C50.103,15.012 50.992,14.114 50.99,13.007 L50.989,12.017 C50.986,13.12 50.1,14.012 49.005,14.012 L49.005,14.012 Z" id="Shape"></path>
                        </g>
                        <g id="Group" transform="translate(10.000000, 10.000000)" fill="#D3D3D3">
                            <path d="M65.746,4.004 C65.205,4.961 64.007,5.288 63.07,4.736 L57.98,1.736 C57.511,1.46 57.197,1.016 57.067,0.521 C56.86,1.365 57.205,2.28 57.98,2.736 L63.07,5.736 C64.007,6.288 65.205,5.961 65.746,5.004 C66.017,4.525 66.071,3.981 65.942,3.486 C65.898,3.663 65.84,3.838 65.746,4.004 L65.746,4.004 Z M6.721,26.94 L3.732,32.014 C3.182,32.948 1.963,33.268 1.01,32.729 C0.536,32.461 0.218,32.031 0.085,31.552 C-0.133,32.38 0.217,33.28 1.01,33.729 C1.963,34.268 3.182,33.948 3.732,33.014 L6.721,27.94 C6.998,27.47 7.052,26.935 6.917,26.449 C6.872,26.617 6.813,26.783 6.721,26.94 L6.721,26.94 Z" id="Shape"></path>
                        </g>
                        <g id="Group" transform="translate(14.000000, 5.000000)" fill="#C5675F">
                            <path d="M5.991,56.728 C5.038,57.267 3.82,56.947 3.269,56.013 L0.28,50.94 C0.187,50.783 0.128,50.617 0.084,50.45 C-0.051,50.935 0.003,51.471 0.28,51.94 L3.269,57.013 C3.819,57.947 5.038,58.267 5.991,57.728 C6.784,57.28 7.135,56.379 6.916,55.551 C6.783,56.029 6.465,56.46 5.991,56.728 L5.991,56.728 Z M26.922,0.295 C26.75,0.883 26.284,1.373 25.638,1.543 L20.314,2.943 C19.348,3.197 18.358,2.643 18.079,1.706 C17.99,2.01 17.975,2.34 18.064,2.668 C18.327,3.63 19.334,4.201 20.314,3.943 L25.638,2.543 C26.618,2.285 27.2,1.296 26.937,0.333 L26.922,0.295 L26.922,0.295 Z" id="Shape"></path>
                        </g>
                        <g id="Group" transform="translate(0.000000, 47.000000)" fill="#DFABA3">
                            <path d="M99.929,0.343 C99.846,1.931 99.684,3.498 99.456,5.044 C99.64,4.618 99.814,4.201 99.979,3.8 L100,3 C100,2.11 99.975,1.226 99.929,0.348 L99.929,0.343 L99.929,0.343 Z M0.215,7.552 L0.24,7.881 C0.397,9.477 0.629,11.05 0.93,12.599 L2.506,13.304 C1.154,9.19 0.308,4.848 0.072,0.34 C0.025,1.221 0,2.107 0,3 C0,3.831 0.022,4.657 0.062,5.479 C0.098,6.174 0.152,6.864 0.215,7.552 L0.215,7.552 Z" id="Shape"></path>
                        </g>
                        <path d="M50,28 C38.954,28 30,36.954 30,48 C30,49.051 30.105,50.074 30.261,51.081 C31.525,50.203 32.928,49.684 34.031,49.386 C34.356,40.836 41.371,34 50,34 C58.836,34 66,41.164 66,50 C66,51.936 65.639,53.781 65.01,55.499 C66.231,55.872 67.473,55.781 68.569,55.402 C69.482,53.11 70,50.617 70,48 C70,36.954 61.046,28 50,28 L50,28 Z" id="Shape" fill="#DFABA3"></path>
                        <g id="Group" transform="translate(0.000000, 48.000000)" fill="#D69022">
                            <path d="M34.031,1.386 C31.434,2.087 27.167,3.995 27,9 C26.759,16.211 17.997,29.227 11,19 C7.838,14.379 4.209,13.088 0.931,11.599 L1.147,12.681 C4.425,14.17 7.838,15.379 11,20 C17.997,30.227 26.759,17.211 27,10 C27.167,4.995 31.393,3.085 33.99,2.384 L34.031,1.386 L34.031,1.386 Z M99.979,2.8 C97.377,9.129 92.41,19.204 86,10 C76.373,-3.822 72.81,-0.31 72,4 C71.586,6.205 68.117,8.317 65.006,7.556 C64.912,7.868 64.742,8.174 64.631,8.478 C67.834,9.457 71.572,7.275 72,5 C72.81,0.69 76.373,-2.822 86,11 C92.41,20.204 97.377,10.129 99.979,3.8 L100,3 L99.987,2.496 L99.979,2.8 L99.979,2.8 Z" id="Shape"></path>
                        </g>
                        <path d="M34,50 L34.031,49.386 C32.927,49.684 31.525,50.203 30.261,51.081 C30.307,51.378 30.338,51.68 30.397,51.972 C31.609,51.16 32.933,50.669 33.99,50.384 L34.003,50.07 L34,50 L34,50 Z M2.889,61.462 C2.753,61.08 2.633,60.691 2.506,60.304 L0.93,59.599 L1.09,60.4 L1.156,60.685 L2.889,61.462 L2.889,61.462 Z M65.006,55.556 C64.948,55.747 64.864,55.937 64.78,56.124 L64.692,56.331 L64.63,56.477 C65.78,56.829 66.998,56.768 68.109,56.447 C68.286,56.068 68.454,55.686 68.607,55.296 C67.487,55.709 66.221,55.853 65.006,55.556 L65.006,55.556 Z M99.987,50.496 L99.979,50.8 C99.814,51.201 99.639,51.618 99.456,52.044 C99.375,52.594 99.275,53.138 99.176,53.682 C99.454,53.057 99.713,52.446 99.953,51.865 C99.97,51.411 99.982,50.957 99.987,50.5 L99.987,50.496 L99.987,50.496 Z" id="Shape" fill="#BB7E1E"></path>
                    </g>
                </g>
            </g>
        </g>
    </g>
</svg>