<?xml version="1.0" encoding="UTF-8" standalone="no"?>
<svg width="100px" height="100px" viewBox="0 0 100 100" version="1.1" xmlns="http://www.w3.org/2000/svg" xmlns:xlink="http://www.w3.org/1999/xlink" xmlns:sketch="http://www.bohemiancoding.com/sketch/ns">
    <!-- Generator: Sketch 3.3.2 (12043) - http://www.bohemiancoding.com/sketch -->
    <title>05-on-your-side</title>
    <desc>Created with Sketch.</desc>
    <defs></defs>
    <g id="Page-1" stroke="none" stroke-width="1" fill="none" fill-rule="evenodd" sketch:type="MSPage">
        <g id="Homepage" sketch:type="MSArtboardGroup" transform="translate(-253.000000, -2556.000000)">
            <g id="why-customers-love-us" sketch:type="MSLayerGroup" transform="translate(20.000000, 2150.000000)">
                <g id="on-your-side" transform="translate(233.000000, 406.000000)" sketch:type="MSShapeGroup">
                    <g id="05-on-your-side">
                        <path d="M50,0 C77.614,0 100,22.386 100,50 C100,77.614 77.614,100 50,100 C22.386,100 0,77.614 0,50 C0,22.386 22.386,0 50,0 L50,0 Z" id="Shape" fill="#324D5B"></path>
                        <g id="Group" transform="translate(9.000000, 3.000000)" fill="#C2C1BF">
                            <path d="M18.791,2.203 L51,14.046 L51,10.054 L23.779,0.045 C22.069,0.673 20.408,1.4 18.791,2.203 L18.791,2.203 Z M51,37 L51,33.008 L2.451,15.157 C1.619,16.163 0.836,17.209 0.084,18.279 L51,37 L51,37 Z" id="Shape"></path>
                        </g>
                        <path d="M75.501,24.002 C74.935,29.1 72.102,31.935 67,32.502 C72.102,33.068 74.935,35.902 75.501,41.002 C76.068,35.902 78.901,33.068 84.002,32.502 C78.901,31.936 76.068,29.1 75.501,24.002 L75.501,24.002 Z M25.502,33.002 C24.935,38.1 22.101,40.935 17.001,41.502 C22.102,42.068 24.935,44.902 25.502,50.001 C26.068,44.902 28.901,42.068 34.002,41.502 C28.901,40.936 26.068,38.1 25.502,33.002 L25.502,33.002 Z" id="Shape" fill="#EFC75E"></path>
                        <path d="M70,62 L14,62 L14,84.68 C23.095,94.118 35.857,100 50,100 C57.113,100 63.874,98.505 70,95.828 L70,62 L70,62 Z" id="Shape" fill="#CB4E44"></path>
                        <path d="M68,96.647 C68.674,96.386 69.341,96.115 70,95.828 L70,62 L68,62 L68,96.647 L68,96.647 Z" id="Shape" fill="#B6463D"></path>
                        <path d="M0.942,40.335 C0.33,43.463 0,46.692 0,50 C0,66.588 8.083,81.28 20.52,90.376 L67.233,73.022 C69.143,72.312 70.063,70.568 70.006,68.853 L70.006,63.005 L65.006,63.005 L0.942,40.335 L0.942,40.335 Z" id="Shape" fill="#D9D8D7"></path>
                        <path d="M68,72.643 C69.336,71.828 69.999,70.421 70,69.007 L70,63.006 L68,63.006 L68,72.643 L68,72.643 Z" id="Shape" fill="#C3C2C1"></path>
                        <path d="M67.223,58.978 L2.337,34.869 C0.822,39.643 0,44.725 0,50 C0,64.259 5.978,77.112 15.553,86.221 L67.223,67.023 C70.935,65.644 70.935,60.356 67.223,58.978 L67.223,58.978 Z" id="Shape" fill="#F2F1EF"></path>
                        <path d="M26.812,58.478 C22.577,57.715 19.893,55.506 20.818,53.541 L21.655,51.762 C22.58,49.797 19.896,47.586 15.66,46.824 L0.362,44.073 C0.135,45.993 0.005,47.942 0.002,49.923 L0.002,50.077 C0.014,57.897 1.824,65.295 5.036,71.883 C8.874,72.309 12.438,71.345 13.283,69.55 L13.562,68.957 C14.487,66.992 18.67,66.017 22.906,66.778 C27.142,67.54 31.324,66.564 32.25,64.599 L32.808,63.413 C33.732,61.449 31.049,59.238 26.812,58.478 L26.812,58.478 Z" id="Shape" fill="#E4E3E1"></path>
                        <g id="Group" transform="translate(47.000000, 8.000000)" fill="#A1A09F">
                            <path d="M0,0.274 L0,4.266 L2,5.001 L2,1.01 L0,0.274 Z M0,23.228 L0,27.22 L2,27.956 L2,23.963 L0,23.228 Z" id="Shape"></path>
                        </g>
                        <g id="Group" transform="translate(19.000000, 7.000000)" fill="#E4E7E7">
                            <path d="M70.001,42.502 C67.301,42.201 65.801,40.7 65.5,38.001 C65.201,40.7 63.701,42.201 61,42.502 C63.701,42.801 65.201,44.302 65.5,47.001 C65.801,44.302 67.301,42.801 70.001,42.502 L70.001,42.502 Z M48.5,12.001 C48.801,9.301 50.301,7.801 53.001,7.501 C50.301,7.2 48.801,5.699 48.5,3.001 C48.201,5.699 46.701,7.2 44,7.501 C46.701,7.801 48.201,9.302 48.5,12.001 L48.5,12.001 Z M3.5,7.002 C3.8,4.302 5.3,2.801 8,2.502 C6.375,2.321 5.192,1.697 4.437,0.647 C3.243,1.397 2.078,2.189 0.955,3.036 C2.429,3.732 3.284,5.048 3.5,7.002 L3.5,7.002 Z M73.5,22.002 C73.647,20.678 74.087,19.647 74.812,18.899 C74.158,17.713 73.456,16.558 72.71,15.433 C71.966,16.614 70.733,17.308 69,17.501 C71.701,17.801 73.201,19.302 73.5,22.002 L73.5,22.002 Z" id="Shape"></path>
                        </g>
                        <path d="M50,8.8817842e-16 L49,0.025 L49,62 C49,64.762 51.238,66 54,66 L56,66 C58.762,66 61,64.762 61,62 L61,1.229 C57.459,0.434 53.781,0 50,0 L50,8.8817842e-16 Z" id="Shape" fill="#4ABEE5"></path>
                        <path d="M59,0.824 L59,63 C59,64.229 58.54,65.14 57.805,65.79 C59.672,65.338 61,64.123 61,62 L61,1.229 C60.338,1.08 59.672,0.946 59,0.824 L59,0.824 Z" id="Shape" fill="#42ABCE"></path>
                        <g id="Group" transform="translate(0.000000, 12.000000)" fill="#D9D8D7">
                            <path d="M51.475,24.065 L0.243,42.918 C0.368,44.201 0.553,45.467 0.773,46.72 L52.771,27.583 C53.51,27.312 54,26.609 54,25.824 C54,24.52 52.7,23.614 51.475,24.065 L51.475,24.065 Z M51.475,1.092 L3.906,18.597 C3.273,20.099 2.712,21.638 2.226,23.211 L52.772,4.61 C53.51,4.338 54,3.636 54,2.851 C54,1.546 52.7,0.641 51.475,1.092 L51.475,1.092 Z" id="Shape"></path>
                        </g>
                    </g>
                </g>
            </g>
        </g>
    </g>
</svg>