<?xml version="1.0" encoding="utf-8"?>
<!-- Generator: Adobe Illustrator 19.0.0, SVG Export Plug-In . SVG Version: 6.00 Build 0)  -->
<!DOCTYPE svg PUBLIC "-//W3C//DTD SVG 1.1//EN" "http://www.w3.org/Graphics/SVG/1.1/DTD/svg11.dtd">
<svg version="1.1" id="Layer_1" xmlns="http://www.w3.org/2000/svg" xmlns:xlink="http://www.w3.org/1999/xlink" x="0px" y="0px"
	 viewBox="0 0 792 612" style="enable-background:new 0 0 792 612;" xml:space="preserve">
<style type="text/css">
	.st0{fill:#00CCFF;}
	.st1{fill:#666666;}
</style>
<path class="st0" d="M488.3,154.8l10.7,3.8l-4.9,10.3l10.3-4.9l3.8,10.7L512,164l10.3,4.9l-4.9-10.3l10.7-3.8l-10.7-3.8l4.9-10.3
	l-10.3,4.9l-3.8-10.7l-3.8,10.7l-10.3-4.9L499,151L488.3,154.8z M413.1,142.4C413.1,142.4,413.1,142.4,413.1,142.4 M456.5,177.6
	c16.3,5.6,33.7,8.8,51.8,8.8c18.2,0,35.6-3.2,51.8-8.8H456.5z M409.5,348.8c18.9-18.7,31.8-42.7,36.8-69c2.6-13.5,3.1-27,1.5-40.3
	c25.3-3.7,47.7-19.3,59.9-41.8c0.2-0.3,0.1-0.7-0.2-0.9c-0.3-0.2-0.7-0.3-1-0.1c-15.8,10.3-34.2,15.2-53.1,14.2
	c-13.9-0.7-27-4.6-39.1-11.4c-0.3-0.2-0.7-0.1-0.9,0.1c-0.2,0.3-0.3,0.6-0.1,1c14.7,24,21.2,51.5,18.6,79.6
	c-2.6,29-14.4,55.5-34.2,76.9c-0.3,0.3-0.3,0.8,0,1.1c0.2,0.2,0.4,0.3,0.6,0.3l45.8,0c0.3,0,0.5-0.2,0.5-0.5c0-0.2-0.1-0.4-0.3-0.5
	L409.5,348.8z M335.4,247.2c10-0.5,18.5,7.2,19.1,17.2c0,0,2.8,37.2-3.3,69.3c-2.7,12.4-8.6,26.6-20.8,33.2
	c-0.3,0.2-0.5,0.5-0.4,0.8c0.1,0.3,0.4,0.6,0.7,0.6c21.3,0,41.2-10.6,53.2-28.3c20-26.3,30.6-57.7,30.6-90.8
	c0-14.5-2.1-28.8-6.2-42.7c-2.7-8.8-2.9-14.8-2.9-14.9c0-21.7,17.7-39.3,39.4-39.3c0.2,0,0.4-0.1,0.5-0.2c0.1-0.1,0.2-0.3,0.2-0.5
	c-0.1-1.6-0.7-2.8-1.9-3.8c-4.6-3.7-16.1-1.6-16.6-1.5c0,0-6.8,1.2-14-3.7c-5.7-3.9-12.5-6.1-19.9-6.1c-9.6,0-18.3,3.8-24.6,10
	c-8.9,8.5-13.9,21.6-14.8,38.8c0,22.4-24.3,35.9-29.1,38.3c-16.3,8.6-30.8,22.3-39.8,38.9c-0.2,0.4-0.1,0.8,0.2,1.1
	c0.3,0.3,0.8,0.3,1.1,0.1C301,253.8,317.9,248.3,335.4,247.2z M451.7,351.9h-2.4v-0.8h5.7v0.8h-2.4v6.5h-0.8V351.9z M456.7,351.2
	h0.8l2.6,4l2.6-4h0.8v7.3h-0.8v-5.9l-2.6,3.9h0l-2.6-3.9v5.9h-0.8V351.2z"/>
<g id="XMLID_94_">
	<path id="XMLID_347_" class="st1" d="M279.8,435c0,1.3-0.9,2.2-2.1,2.2c-1.3,0-2.2-0.9-2.2-2.2v-8.3c-3.9,6-9.7,11.3-18.8,11.3
		c-11,0-22.2-8.9-22.2-23.7v-0.2c0-14.8,11.2-23.9,22.2-23.9c9.1,0,15,5.2,18.8,10.9v-27.6c0-1.3,0.9-2.2,2.1-2.2
		c1.2,0,2.2,0.9,2.2,2.2V435z M239.2,413.9v0.2c0,12,8.3,19.7,17.9,19.7c9.5,0,18.6-8,18.6-19.6V414c0-11.7-9.1-19.6-18.6-19.6
		C247.2,394.4,239.2,401.6,239.2,413.9z"/>
	<path id="XMLID_344_" class="st1" d="M290.6,414.3v-0.2c0-12.8,9.9-23.9,23.5-23.9c13.5,0,23.3,10.9,23.3,23.7v0.2
		c0,12.8-9.9,23.9-23.5,23.9C300.5,438,290.6,427,290.6,414.3z M332.7,414.3v-0.2c0-11-8.2-19.8-18.8-19.8
		c-10.8,0-18.6,8.9-18.6,19.6v0.2c0,11,8.2,19.8,18.8,19.8C325,433.8,332.7,425,332.7,414.3z"/>
	<path id="XMLID_342_" class="st1" d="M347.4,393.1c0-1.3,0.9-2.2,2.1-2.2c1.2,0,2.2,0.9,2.2,2.2v6.3c2.9-4.7,7.1-9.2,15.2-9.2
		c8,0,12.9,4.6,15.4,9.8c2.9-5.1,7.9-9.8,16.5-9.8c10.8,0,17.5,7.6,17.5,19V435c0,1.3-0.9,2.2-2.1,2.2c-1.3,0-2.2-0.9-2.2-2.2v-25.2
		c0-9.8-5.1-15.6-13.5-15.6c-7.7,0-14.4,5.9-14.4,16.1V435c0,1.3-0.9,2.2-2.1,2.2c-1.3,0-2.2-0.9-2.2-2.2v-25.5
		c0-9.5-5.2-15.3-13.3-15.3c-8.1,0-14.6,7.2-14.6,16.4V435c0,1.3-0.9,2.2-2.1,2.2c-1.3,0-2.2-0.9-2.2-2.2V393.1z"/>
	<path id="XMLID_340_" class="st1" d="M431.3,393.1c0-1.3,0.9-2.2,2.1-2.2c1.2,0,2.2,0.9,2.2,2.2V435c0,1.3-0.9,2.2-2.1,2.2
		c-1.3,0-2.2-0.9-2.2-2.2V393.1z"/>
	<path id="XMLID_338_" class="st1" d="M452,393.1c0-1.3,0.9-2.2,2.1-2.2c1.2,0,2.2,0.9,2.2,2.2v6.6c3-5.4,8.1-9.6,16.5-9.6
		c11.5,0,18.2,7.9,18.2,18.8v26c0,1.3-0.9,2.2-2.1,2.2c-1.3,0-2.2-0.9-2.2-2.2v-25.2c0-9.4-5.3-15.6-14.5-15.6
		c-8.9,0-15.8,6.8-15.8,16.3V435c0,1.3-0.9,2.2-2.1,2.2c-1.3,0-2.2-0.9-2.2-2.2V393.1z"/>
	<path id="XMLID_334_" class="st1" d="M501.9,414.3v-0.2c0-12.8,9.9-23.9,23.5-23.9c13.5,0,23.3,10.9,23.3,23.7v0.2
		c0,12.8-9.9,23.9-23.5,23.9C511.8,438,501.9,427,501.9,414.3z M544.1,414.3v-0.2c0-11-8.2-19.8-18.8-19.8
		c-10.8,0-18.6,8.9-18.6,19.6v0.2c0,11,8.2,19.8,18.8,19.8C536.3,433.8,544.1,425,544.1,414.3z"/>
</g>
</svg>
