<?xml version="1.0" standalone="no"?><!DOCTYPE svg PUBLIC "-//W3C//DTD SVG 1.1//EN" "http://www.w3.org/Graphics/SVG/1.1/DTD/svg11.dtd"><svg width="100%" height="100%" viewBox="0 0 57 59" version="1.1" xmlns="http://www.w3.org/2000/svg" xmlns:xlink="http://www.w3.org/1999/xlink" xml:space="preserve" style="fill-rule:evenodd;clip-rule:evenodd;stroke-linejoin:round;stroke-miterlimit:1.41421;"><path id="comman_end" d="M54.186,0.295l0,8.285c-2.626,1.419 -4.596,3.975 -5.909,7.67c-1.313,3.695 -1.97,8.566 -1.97,14.612l0,2.575l10.693,0l0,24.858l-24.988,0l0,-18.587c0,-11.272 1.839,-20.192 5.516,-26.761c3.677,-6.569 9.229,-10.786 16.658,-12.652ZM22.174,0.295l0,8.285c-2.627,1.419 -4.596,3.975 -5.91,7.67c-1.313,3.695 -1.969,8.566 -1.969,14.612l0,2.575l10.693,0l0,24.858l-24.988,0l0,-18.587c0,-11.272 1.838,-20.192 5.515,-26.761c3.677,-6.569 9.23,-10.786 16.659,-12.652Z" style="fill:#666;fill-opacity:0.447059;"/></svg>