<?xml version="1.0" encoding="UTF-8" standalone="no"?>
<svg width="128px" height="128px" viewBox="0 0 128 128" version="1.1" xmlns="http://www.w3.org/2000/svg" xmlns:xlink="http://www.w3.org/1999/xlink" xmlns:sketch="http://www.bohemiancoding.com/sketch/ns">
    <!-- Generator: bin/sketchtool 1.4 (305) - http://www.bohemiancoding.com/sketch -->
    <title>serve</title>
    <desc>Created with bin/sketchtool.</desc>
    <defs></defs>
    <g id="Page-1" stroke="none" stroke-width="1" fill="none" fill-rule="evenodd" sketch:type="MSPage">
        <g id="icons" sketch:type="MSArtboardGroup" transform="translate(-374.000000, -92.000000)">
            <g id="serve" sketch:type="MSLayerGroup" transform="translate(374.000000, 92.000000)">
                <circle id="Oval" fill="#77BDCE" sketch:type="MSShapeGroup" cx="64" cy="64" r="64"></circle>
                <path d="M37.17,80.166 L28.507,80.166 C28.029,80.406 27.537,80.592 27.052,80.689 L27.052,85.88 L37.17,85.88 L37.17,80.166 L37.17,80.166 Z" id="Shape" fill="#686868" sketch:type="MSShapeGroup"></path>
                <rect id="Rectangle-path" fill="#686868" sketch:type="MSShapeGroup" x="49.42" y="80.166" width="42.167" height="5.715"></rect>
                <path d="M91.253,72.203 L32.625,72.203 L31.835,76.066 C31.557,78.263 29.207,80.255 27.053,80.689 L27.053,80.748 L91.253,80.748 L91.253,72.203 L91.253,72.203 Z" id="Shape" fill="#545454" sketch:type="MSShapeGroup"></path>
                <path d="M98.95,80.689 L98.95,85.878 L90.95,85.878 L90.95,80.689 C88.79,80.257 86.44,78.267 86.17,76.068 L85.38,72.209 L93.38,72.209 L94.17,76.068 C94.44,78.267 96.79,80.257 98.95,80.689 L98.95,80.689 Z" id="Shape" fill="#545454" sketch:type="MSShapeGroup"></path>
                <rect id="Rectangle-path" fill="#686868" sketch:type="MSShapeGroup" x="36.864" y="80.716" width="12.917" height="5.164"></rect>
                <path d="M93.358,66.31 L93.186,64.902 C92.973,63.527 92.825,62.569 92.573,60.957 C90.349,45.877 77.056,39.34 63.75,39.342 C50.441,39.344 36.15,45.87 33.925,60.957 C33.675,62.568 33.336,64.976 33.336,64.976 L33.169,66.31 C33.002,68.173 31.646,69.986 29.717,70.374 L29.717,75.02 L38.919,75.02 L38.919,74.332 L49.419,74.332 L49.419,75.02 L96.78,75.02 L96.78,70.374 C94.853,69.986 93.581,68.451 93.358,66.31 L93.358,66.31 Z" id="Shape" fill="#EAD57D" sketch:type="MSShapeGroup"></path>
                <path d="M61.27,43.148 C57.14,45.877 54.3,51.017 53.93,60.959 C53.83,63.667 53.39,66.218 53.39,66.218 C53.02,68.077 51.65,69.988 49.72,70.378 L49.72,75.017 L38.72,75.017 L38.72,70.378 C40.65,69.987 42,68.177 42.17,66.308 L42.34,64.978 C42.34,64.978 42.67,62.568 42.93,60.959 C44.43,50.738 51.47,44.448 59.99,41.459 C62.29,40.908 62.7,41.658 61.27,43.148 L61.27,43.148 Z" id="Shape" fill="#EAD57D" sketch:type="MSShapeGroup"></path>
                <path d="M58.157,31.002 C58.344,33.516 60.437,35.5 63.001,35.5 C65.563,35.5 67.657,33.516 67.844,31.002 L58.157,31.002 L58.157,31.002 Z" id="Shape" fill="#EAD57D" sketch:type="MSShapeGroup"></path>
            </g>
        </g>
    </g>
</svg>