<?xml version="1.0" standalone="no"?>
<!DOCTYPE svg PUBLIC "-//W3C//DTD SVG 1.1//EN" "http://www.w3.org/Graphics/SVG/1.1/DTD/svg11.dtd" >
<svg xmlns="http://www.w3.org/2000/svg" xmlns:xlink="http://www.w3.org/1999/xlink" version="1.1">
<metadata></metadata>
<defs>
<font id="proxima_nova_amedium" horiz-adv-x="1144" >
<font-face units-per-em="2048" ascent="1618" descent="-430" />
<missing-glyph horiz-adv-x="528" />
<glyph unicode="&#xfb01;" horiz-adv-x="1083" d="M29 0zM29 827v162h164v66q0 160 83.5 245.5t217.5 85.5q96 0 161 -36l-43 -138q-35 23 -88 23q-70 0 -108.5 -45t-38.5 -135v-66h201v-162h-201v-827h-184v827h-164zM725 1239q0 49 35.5 83t83.5 34q49 0 83.5 -34t34.5 -83t-34.5 -84t-83.5 -35q-47 0 -83 35t-36 84z M753 0v989h185v-989h-185z" />
<glyph unicode="&#xfb02;" horiz-adv-x="1173" d="M29 0zM29 827v162h164v66q0 160 83.5 245.5t217.5 85.5q96 0 161 -36l-43 -138q-35 23 -88 23q-70 0 -108.5 -45t-38.5 -135v-66h201v-162h-201v-827h-184v827h-164zM753 219v1147h185v-1106q0 -53 24.5 -87t71.5 -34q33 0 58.5 11.5t39.5 27.5l49 -139 q-29 -29 -74.5 -46.5t-117.5 -17.5q-119 0 -177.5 63.5t-58.5 180.5z" />
<glyph unicode="&#xfb03;" horiz-adv-x="1689" d="M29 0zM29 827v162h164v66q0 160 83.5 245.5t217.5 85.5q96 0 161 -36l-43 -138q-39 23 -88 23q-70 0 -108.5 -45t-38.5 -135v-66h201v-162h-201v-827h-184v827h-164zM635 827v162h164v66q0 160 83.5 245.5t217.5 85.5q96 0 161 -36l-43 -138q-35 23 -88 23 q-70 0 -108.5 -45t-38.5 -135v-66h201v-162h-201v-827h-184v827h-164zM1331 1239q0 49 35.5 83t83.5 34q49 0 83.5 -34t34.5 -83t-34.5 -84t-83.5 -35q-47 0 -83 35t-36 84zM1359 0v989h185v-989h-185z" />
<glyph unicode="&#xfb04;" horiz-adv-x="1779" d="M29 0zM29 827v162h164v66q0 160 83.5 245.5t217.5 85.5q96 0 161 -36l-43 -138q-39 23 -88 23q-70 0 -108.5 -45t-38.5 -135v-66h201v-162h-201v-827h-184v827h-164zM635 827v162h164v66q0 160 83.5 245.5t217.5 85.5q96 0 161 -36l-43 -138q-35 23 -88 23 q-70 0 -108.5 -45t-38.5 -135v-66h201v-162h-201v-827h-184v827h-164zM1359 219v1147h185v-1106q0 -53 24.5 -87t71.5 -34q33 0 58.5 11.5t39.5 27.5l49 -139q-29 -29 -74.5 -46.5t-117.5 -17.5q-119 0 -177.5 63.5t-58.5 180.5z" />
<glyph horiz-adv-x="0" />
<glyph horiz-adv-x="682" />
<glyph horiz-adv-x="0" />
<glyph horiz-adv-x="0" />
<glyph unicode="&#xd;" horiz-adv-x="0" />
<glyph unicode=" "  horiz-adv-x="528" />
<glyph unicode="&#x09;" horiz-adv-x="528" />
<glyph unicode="&#xa0;" horiz-adv-x="528" />
<glyph unicode="!" horiz-adv-x="487" d="M117 106q0 53 35.5 90t89.5 37q53 0 91 -36.5t38 -90.5q0 -51 -38 -88.5t-91 -37.5t-89 37.5t-36 88.5zM129 1366h227l-34 -967h-158z" />
<glyph unicode="&#x22;" horiz-adv-x="739" d="M104 1280q0 43 31 74.5t76 31.5t76.5 -31.5t31.5 -74.5q0 -6 -3 -28.5t-7 -56.5t-10 -75l-12 -82l-31 -217h-88q-18 119 -33 217q-6 41 -11 82t-10 75t-7.5 56.5t-2.5 28.5zM422 1280q0 43 30.5 74.5t77.5 31.5q43 0 74 -31.5t31 -74.5q0 -6 -3 -28.5t-7 -56.5t-10.5 -75 t-12.5 -82l-31 -217h-86q-18 119 -32 217q-6 41 -11.5 82t-10.5 75t-7 56.5t-2 28.5z" />
<glyph unicode="#" horiz-adv-x="1224" d="M41 362l41 125h215l127 390h-215l37 122h221l121 367h145l-121 -367h215l121 367h146l-123 -367h213l-37 -122h-217l-131 -390h221l-37 -125h-225l-121 -362h-145l124 362h-219l-121 -362h-145l121 362h-211zM440 487h215l129 390h-215z" />
<glyph unicode="$" horiz-adv-x="1226" d="M80 193l117 157q59 -66 148 -119t206 -69v446q-78 20 -155 47t-137 71t-98 108.5t-38 162.5q0 78 30.5 145.5t87 119t135.5 83t175 39.5v189h145v-191q127 -12 228.5 -60t179.5 -126l-119 -152q-59 63 -133 100.5t-156 51.5v-401q80 -23 158 -50.5t140.5 -73.5 t101.5 -115t39 -169q0 -74 -25 -143.5t-78 -125t-136 -93t-200 -45.5v-185h-145v182q-158 10 -275.5 68.5t-195.5 147.5zM334 1012q0 -74 61.5 -113t155.5 -65v368q-98 -10 -157.5 -61t-59.5 -129zM696 162q63 8 106.5 28.5t71 49t40 62.5t12.5 67q0 43 -17.5 74.5t-48.5 55 t-73 41t-91 31.5v-409z" />
<glyph unicode="%" horiz-adv-x="1513" d="M61 1047q0 72 24 134t68 108t105 71.5t135 25.5q76 0 137.5 -25.5t105.5 -71.5t68.5 -108.5t24.5 -133.5q0 -72 -24.5 -133.5t-68.5 -106.5t-105.5 -70.5t-137.5 -25.5q-74 0 -135 25.5t-105 70.5t-68 106.5t-24 133.5zM201 1047q0 -92 53 -155t139 -63t140.5 62.5 t54.5 155.5q0 96 -54.5 157.5t-140.5 61.5t-139 -61.5t-53 -157.5zM264 0l873 1366h125l-875 -1366h-123zM784 311q0 72 25 134.5t69 108.5t105 71.5t135 25.5t135.5 -25.5t105.5 -71.5t68.5 -108.5t24.5 -134.5t-24.5 -133t-68.5 -106t-105.5 -71t-135.5 -26t-135 26 t-105 71t-69 106.5t-25 132.5zM924 311q0 -94 54 -155.5t140 -61.5t140.5 61.5t54.5 155.5q0 96 -54.5 157.5t-140.5 61.5t-140 -61t-54 -158z" />
<glyph unicode="&#x26;" horiz-adv-x="1316" d="M68 360q0 80 24.5 140.5t65.5 108.5t95 86t114 69q-45 78 -73 154.5t-28 148.5q0 68 28 126t75 101t112.5 67.5t141.5 24.5q68 0 127 -18t103 -53t68.5 -86t24.5 -117q0 -78 -29.5 -135t-77.5 -101.5t-110.5 -78t-126.5 -66.5q37 -53 76 -100t70 -82q39 -45 75.5 -87 t73.5 -83q53 78 88 158.5t53 140.5l154 -70q-35 -82 -81 -171t-107 -173q61 -66 126.5 -129t139.5 -135h-246q-29 25 -63.5 58.5t-73.5 72.5q-76 -70 -171 -113t-216 -43q-90 0 -169 25t-137.5 73t-92 119.5t-33.5 167.5zM264 375q0 -59 21.5 -106.5t56.5 -79t82 -48 t96 -16.5q76 0 141.5 31.5t120.5 83.5q-55 59 -103 111t-77 87q-41 47 -81 99.5t-79 107.5q-78 -47 -128 -110.5t-50 -159.5zM453 1063q0 -51 20.5 -106.5t54.5 -114.5q51 25 97.5 51.5t80 57t54 68.5t20.5 85q0 70 -43 106.5t-106 36.5q-74 0 -126 -51t-52 -133z" />
<glyph unicode="'" horiz-adv-x="421" d="M104 1280q0 43 31 74.5t76 31.5t76.5 -31.5t31.5 -74.5q0 -6 -3 -28.5t-7 -56.5t-10 -75l-12 -82l-31 -217h-88q-18 119 -33 217q-6 41 -11 82t-10 75t-7.5 56.5t-2.5 28.5z" />
<glyph unicode="(" horiz-adv-x="536" d="M88 498q0 123 20.5 245.5t58.5 238.5t93 222.5t127 198.5l113 -84q-49 -96 -89 -190.5t-67 -192.5t-41 -205.5t-14 -232.5t14 -232.5t41 -206t67 -191.5t89 -190l-113 -86q-72 92 -127 199t-93 222.5t-58.5 238.5t-20.5 246z" />
<glyph unicode=")" horiz-adv-x="536" d="M35 -322q51 96 90 189.5t66.5 192t42 206t14.5 232.5t-14.5 232.5t-42 205.5t-66.5 192.5t-90 190.5l112 84q143 -184 222.5 -421t79.5 -484q0 -123 -20.5 -246t-58.5 -238.5t-94.5 -222t-128.5 -199.5z" />
<glyph unicode="*" horiz-adv-x="702" d="M63 979l207 104l-207 107l52 90l194 -125l-10 231h104l-12 -231l195 125l51 -90l-205 -107l205 -104l-51 -90l-195 127l12 -232h-104l10 232l-194 -127z" />
<glyph unicode="+" horiz-adv-x="1024" d="M59 629v123h385v415h136v-415h385v-123h-385v-430h-136v430h-385z" />
<glyph unicode="," horiz-adv-x="487" d="M115 109q0 53 35.5 88.5t89.5 35.5q57 0 100 -44t43 -126q0 -100 -51 -187t-129 -142l-86 71q49 31 90 85.5t49 105.5q-4 0 -13.5 -2t-17.5 -2q-47 0 -78.5 32.5t-31.5 84.5z" />
<glyph unicode="-" horiz-adv-x="614" d="M61 416v159h492v-159h-492z" />
<glyph unicode="." horiz-adv-x="487" d="M115 106q0 53 36.5 90t90.5 37q53 0 91 -36.5t38 -90.5q0 -53 -38 -91t-91 -38t-90 38t-37 91z" />
<glyph unicode="/" horiz-adv-x="626" d="M0 -41l485 1448h142l-486 -1448h-141z" />
<glyph unicode="0" horiz-adv-x="1257" d="M94 682q0 127 31 253t95.5 226.5t165.5 162.5t243 62q141 0 242.5 -62t166 -162.5t95 -226.5t30.5 -253t-30.5 -253t-95 -227.5t-166 -164t-242.5 -62.5t-242.5 62.5t-166 164t-95.5 227.5t-31 253zM303 682q0 -100 16.5 -194.5t55.5 -168t101.5 -117.5t152.5 -44 t152.5 44t100.5 117.5t55 168t17 194.5t-17 194.5t-55 167t-100.5 116.5t-152.5 44t-152.5 -44t-101.5 -116.5t-55.5 -167t-16.5 -194.5z" />
<glyph unicode="1" horiz-adv-x="735" d="M37 991l366 375h181v-1366h-205v1098l-221 -232z" />
<glyph unicode="2" horiz-adv-x="1210" d="M96 1169q86 106 216 161.5t274 55.5q92 0 178 -25.5t152.5 -77.5t106.5 -129t40 -179q0 -100 -46 -196.5t-129 -193t-199 -196.5t-257 -209h637v-180h-963v162q193 147 333.5 263t232.5 211t137 177t45 162q0 59 -22.5 103t-60.5 72t-86 41t-97 13q-123 0 -215 -46 t-156 -122z" />
<glyph unicode="3" horiz-adv-x="1157" d="M53 199l115 133q66 -78 165 -126t216 -48q141 0 221 62.5t80 170.5q0 115 -86 165t-236 50h-86t-61 -2v187q16 -2 61 -2.5t86 -0.5q61 0 116.5 12.5t96.5 37t64.5 62.5t23.5 91q0 51 -22.5 91t-62 68t-93 41t-114.5 13q-109 0 -195 -40t-162 -117l-108 127 q78 92 197.5 152t285.5 60q104 0 192.5 -24.5t152 -72.5t99 -115.5t35.5 -153.5q0 -72 -27.5 -126t-70.5 -93t-95.5 -63.5t-103.5 -32.5q49 -4 104.5 -27t102.5 -65t79 -102t32 -140q0 -86 -35 -159t-99.5 -125t-156.5 -82t-209 -30q-178 0 -307 65.5t-195 158.5z" />
<glyph unicode="4" horiz-adv-x="1165" d="M61 328v168l574 870h280v-858h189v-180h-189v-328h-204v328h-650zM264 508h447v672z" />
<glyph unicode="5" horiz-adv-x="1218" d="M125 190l121 140q68 -84 160 -128t212 -44q68 0 122.5 20.5t93 56t60 85t21.5 104.5q0 123 -79.5 195.5t-212.5 72.5q-90 0 -165 -28.5t-143 -94.5l-147 47v750h864v-180h-659v-436q49 49 131 84.5t182 35.5q86 0 165 -28.5t139.5 -85t96 -138t35.5 -186.5 q0 -104 -37.5 -189t-104.5 -144.5t-158.5 -91.5t-200.5 -32q-176 0 -296 57.5t-200 157.5z" />
<glyph unicode="6" horiz-adv-x="1220" d="M94 680q0 143 36 271t107.5 225.5t180 153.5t256.5 56q129 0 224 -43t161 -114l-101 -156q-53 59 -117.5 95t-166.5 36q-92 0 -163 -41t-117 -110.5t-69.5 -158.5t-23.5 -183v-23.5t2 -21.5q23 35 60.5 70.5t87 64t106.5 47t121 18.5q92 0 174 -27.5t144.5 -83t98 -137 t35.5 -190.5q0 -92 -34.5 -174t-98 -144.5t-154.5 -98.5t-204 -36q-147 0 -250.5 57.5t-169 155t-95.5 224.5t-30 268zM305 508q6 -59 25.5 -121.5t58.5 -114t97.5 -83t142.5 -31.5q74 0 129 24.5t92 62.5t55.5 85t18.5 92q0 68 -23.5 119t-64.5 83.5t-94.5 49t-114.5 16.5 q-96 0 -182.5 -50t-139.5 -132z" />
<glyph unicode="7" horiz-adv-x="1071" d="M59 1186v180h959v-141l-545 -1225h-225l532 1186h-721z" />
<glyph unicode="8" horiz-adv-x="1204" d="M96 348q0 68 25.5 124t68.5 101t100.5 78t121.5 54q-59 18 -111.5 45.5t-93.5 67.5t-64.5 93.5t-23.5 118.5q0 92 42 159.5t111.5 112t155.5 64.5t176 20q86 0 173 -20t155.5 -64.5t111.5 -112t43 -159.5q0 -66 -24.5 -119t-64.5 -93t-94 -67.5t-111 -45.5 q63 -20 120.5 -53.5t100.5 -78.5t68.5 -101t25.5 -124q0 -90 -40 -158.5t-109.5 -116.5t-161 -73t-193.5 -25q-104 0 -196.5 25t-161 72t-109.5 116.5t-41 159.5zM303 373q0 -49 23.5 -89t65.5 -68t96.5 -43t115.5 -15q59 0 113.5 15t95.5 43t65.5 68t24.5 89 q0 59 -34.5 103t-84 73t-99.5 44t-81 19q-33 -4 -84 -19t-99 -44t-83 -73t-35 -103zM326 999q0 -55 31.5 -93t75.5 -62.5t92 -38t79 -19.5q31 6 78 19.5t91 38t76 62.5t32 93q0 49 -21.5 87t-59.5 64t-88 40t-108 14q-121 0 -199.5 -53t-78.5 -152z" />
<glyph unicode="9" horiz-adv-x="1220" d="M88 936q0 92 35 174t98.5 143.5t154.5 98.5t204 37q147 0 250.5 -57.5t170 -155t96 -225.5t29.5 -269q0 -143 -35.5 -271t-108.5 -224.5t-181.5 -153t-253.5 -56.5q-129 0 -224.5 43t-160.5 115l98 154q53 -59 118.5 -94t168.5 -35q98 0 168.5 43t116 112.5t67 157.5 t21.5 178v47q-25 -35 -63 -70.5t-87 -65.5t-107.5 -48t-119.5 -18q-92 0 -175 27.5t-144.5 83t-98.5 138t-37 191.5zM297 942q0 -68 23.5 -119t64.5 -83.5t94.5 -49t114.5 -16.5q94 0 180 49t139 133q-4 59 -24.5 121.5t-58 113t-97 83t-143.5 32.5q-74 0 -128 -24.5 t-91 -62.5t-55.5 -85t-18.5 -92z" />
<glyph unicode=":" horiz-adv-x="487" d="M115 106q0 53 36.5 90t90.5 37q53 0 91 -36.5t38 -90.5q0 -53 -38 -91t-91 -38t-90 38t-37 91zM115 874q0 53 36.5 91.5t90.5 38.5q53 0 91 -38t38 -92q0 -51 -38 -88.5t-91 -37.5t-90 37.5t-37 88.5z" />
<glyph unicode=";" horiz-adv-x="487" d="M115 113q0 53 35.5 90t89.5 37q57 0 100 -44t43 -128q0 -100 -51 -187.5t-129 -142.5l-86 72q49 31 90 86t49 106q-4 -2 -13.5 -4t-17.5 -2q-47 0 -78.5 32.5t-31.5 84.5zM115 874q0 53 36.5 91.5t90.5 38.5q53 0 91 -38t38 -92q0 -51 -38 -88.5t-91 -37.5t-90 37.5 t-37 88.5z" />
<glyph unicode="&#x3c;" horiz-adv-x="1024" d="M59 618v134l906 436v-148l-760 -356l760 -354v-146z" />
<glyph unicode="=" horiz-adv-x="1024" d="M59 426v123h906v-123h-906zM59 819v123h906v-123h-906z" />
<glyph unicode="&#x3e;" horiz-adv-x="1024" d="M59 184v146l758 354l-758 356v148l906 -436v-134z" />
<glyph unicode="?" horiz-adv-x="942" d="M33 1180q76 98 188.5 152t255.5 54q94 0 170 -24.5t129 -67.5t81 -101t28 -126q0 -63 -19.5 -112.5t-52.5 -87.5t-73 -69.5t-78 -58.5q-31 -23 -60 -44t-50.5 -43.5t-34.5 -49.5t-13 -59q0 -25 13 -51.5t36 -45.5l-152 -57q-76 74 -75 172q0 51 16 91t44 72t61.5 58.5 t68.5 51.5q31 20 59.5 41.5t50 45t35 52t13.5 63.5q0 68 -53.5 118t-163.5 50q-104 0 -178 -42t-127 -113zM332 106q0 53 37 90t90 37t91 -36.5t38 -90.5q0 -53 -38 -91t-91 -38t-90 38t-37 91z" />
<glyph unicode="@" horiz-adv-x="1603" d="M72 500q0 166 67.5 312t179 256t259 174.5t307.5 64.5q145 0 264 -51.5t204 -138.5t131 -204.5t46 -248.5q0 -123 -34 -215.5t-86 -152.5t-118.5 -91t-130.5 -31q-90 0 -137 49t-53 113l-2 12q-53 -76 -137 -125t-179 -49q-145 0 -230 93t-85 243q0 106 41 198.5 t107.5 162t152.5 109.5t176 40q98 0 163.5 -44t96.5 -108l25 121h168l-115 -538q-2 -10 -3 -22.5t-1 -22.5q0 -51 26.5 -77t63.5 -26q31 0 67.5 18.5t68.5 61.5t54.5 111.5t22.5 169.5q0 125 -41 229t-116.5 180t-181 118t-236.5 42q-147 0 -280.5 -60.5t-233 -161 t-159 -232.5t-59.5 -275q0 -123 44 -228.5t122 -182.5t184.5 -121t233.5 -44q109 0 202 30t177 83l39 -55q-96 -61 -203.5 -95t-222.5 -34q-139 0 -258 49t-206 136t-136 205t-49 253zM512 522q0 -94 51.5 -154.5t145.5 -60.5q49 0 92 15.5t77.5 40t63.5 55.5t49 59l58 273 q-8 20 -24.5 44.5t-41.5 45t-57.5 34t-75.5 13.5q-72 0 -134.5 -31t-107.5 -82t-70.5 -116.5t-25.5 -135.5z" />
<glyph unicode="A" horiz-adv-x="1363" d="M10 0l543 1366h256l543 -1366h-234l-110 283h-654l-110 -283h-234zM414 465h534l-268 692z" />
<glyph unicode="B" horiz-adv-x="1306" d="M152 0v1366h641q92 0 163.5 -26.5t120.5 -72.5t75 -110.5t26 -138.5q0 -66 -19.5 -119t-52.5 -93t-76 -65.5t-90 -35.5q55 -8 103.5 -39t84 -76t56 -102.5t20.5 -118.5q0 -80 -26.5 -147.5t-76.5 -117t-124 -77t-168 -27.5h-657zM356 180h408q109 0 169 57.5t60 157.5 q0 43 -14 81t-43 66.5t-72 46t-100 17.5h-408v-426zM356 786h398q104 0 158.5 56.5t54.5 142.5t-54.5 143.5t-158.5 57.5h-398v-400z" />
<glyph unicode="C" horiz-adv-x="1390" d="M94 682q0 158 55.5 288t150.5 223t224 144.5t279 51.5q98 0 178 -23t146.5 -61.5t117.5 -92t92 -112.5l-174 -92q-53 86 -148 142t-212 56q-106 0 -197.5 -39t-158 -108.5t-104.5 -165.5t-38 -211t38 -211t104.5 -165.5t157.5 -108.5t198 -39q117 0 212 56t148 142 l174 -92q-41 -59 -93 -112.5t-117.5 -92.5t-145.5 -61.5t-178 -22.5q-150 0 -279 51.5t-224 144.5t-150.5 223t-55.5 288z" />
<glyph unicode="D" horiz-adv-x="1443" d="M152 0v1366h487q160 0 291 -51t223 -143.5t143.5 -217.5t51.5 -272t-51.5 -273t-143.5 -216.5t-223 -141.5t-291 -51h-487zM356 180h283q119 0 211 40t155.5 107.5t97.5 159t34 195.5t-33 196.5t-95.5 161t-155.5 107.5t-214 39h-283v-1006z" />
<glyph unicode="E" horiz-adv-x="1173" d="M152 0v1366h917v-180h-713v-400h699v-180h-699v-426h713v-180h-917z" />
<glyph unicode="F" horiz-adv-x="1138" d="M152 0v1366h917v-180h-713v-400h699v-180h-699v-606h-204z" />
<glyph unicode="G" horiz-adv-x="1513" d="M94 682q0 160 55.5 290t151.5 223t225 143.5t277 50.5q96 0 176 -20.5t146.5 -57.5t120.5 -86t97 -107l-165 -96q-59 78 -156.5 131t-218.5 53q-106 0 -197.5 -39t-158 -108.5t-104.5 -165.5t-38 -211t38 -211t104.5 -167t157.5 -109.5t198 -38.5q96 0 170 31.5t128 84 t87 121t45 144.5h-522v180h745q0 -166 -45 -303.5t-130 -235.5t-210 -151.5t-285 -53.5q-141 0 -266 51.5t-220 143.5t-150.5 223t-55.5 291z" />
<glyph unicode="H" horiz-adv-x="1468" d="M152 0v1366h204v-573h756v573h205v-1366h-205v610h-756v-610h-204z" />
<glyph unicode="I" horiz-adv-x="509" d="M152 0v1366h204v-1366h-204z" />
<glyph unicode="J" horiz-adv-x="978" d="M20 125l99 156q43 -49 101.5 -86t144.5 -37q119 0 187.5 72.5t68.5 193.5v942h204v-944q0 -115 -33.5 -199t-94 -139t-142.5 -82t-176 -27q-109 0 -198 35t-161 115z" />
<glyph unicode="K" horiz-adv-x="1251" d="M152 0v1366h204v-678l572 678h254l-564 -647l609 -719h-254l-488 594l-129 -145v-449h-204z" />
<glyph unicode="L" horiz-adv-x="1050" d="M152 0v1366h204v-1186h621v-180h-825z" />
<glyph unicode="M" horiz-adv-x="1683" d="M152 0v1366h292l398 -965l397 965h293v-1366h-205v1069l-442 -1069h-86l-443 1069v-1069h-204z" />
<glyph unicode="N" horiz-adv-x="1462" d="M152 0v1366h210l744 -1008v1008h205v-1366h-199l-756 1032v-1032h-204z" />
<glyph unicode="O" horiz-adv-x="1566" d="M94 682q0 152 50.5 282t141.5 224t217 147.5t279 53.5q154 0 280 -53.5t217 -147.5t141 -224t50 -282t-50 -282t-141 -224t-217 -147.5t-280 -53.5t-279.5 53.5t-216.5 147.5t-141.5 224t-50.5 282zM305 682q0 -113 34 -208t95.5 -165.5t149 -110.5t198.5 -40 q109 0 197 40t150.5 110.5t96.5 165.5t34 208t-34 209t-96.5 165.5t-150.5 109.5t-197 40q-111 0 -198.5 -40t-149 -109.5t-95.5 -165.5t-34 -209z" />
<glyph unicode="P" horiz-adv-x="1222" d="M152 0v1366h575q104 0 186 -34t137.5 -91t84 -133t28.5 -162t-28.5 -161.5t-85 -133t-137.5 -91.5t-185 -34h-371v-526h-204zM356 707h344q111 0 181.5 65.5t70.5 173.5q0 109 -70.5 174.5t-181.5 65.5h-344v-479z" />
<glyph unicode="Q" horiz-adv-x="1566" d="M94 682q0 152 50.5 282t141.5 224t217 147.5t279 53.5q154 0 280 -53.5t217 -147.5t141 -224t50 -282q0 -150 -48 -276.5t-136 -221.5l121 -133l-141 -121l-125 138q-78 -45 -167.5 -69t-191.5 -24q-154 0 -279.5 53.5t-216.5 147.5t-141.5 224t-50.5 282zM305 682 q0 -113 34 -208t95.5 -165.5t149 -110.5t198.5 -40q129 0 228 55l-183 201l144 121l180 -201q53 70 81 158t28 190q0 113 -34 209t-96.5 165.5t-150.5 109.5t-197 40q-111 0 -198.5 -40t-149 -109.5t-95.5 -165.5t-34 -209z" />
<glyph unicode="R" horiz-adv-x="1265" d="M152 0v1366h575q98 0 178 -29.5t138.5 -85t90 -133.5t31.5 -172q0 -92 -28.5 -162.5t-75.5 -121t-108.5 -79t-127.5 -36.5l351 -547h-238l-326 526h-256v-526h-204zM356 707h344q111 0 182.5 65.5t71.5 173.5q0 109 -71.5 174.5t-182.5 65.5h-344v-479z" />
<glyph unicode="S" horiz-adv-x="1208" d="M68 193l116 157q70 -78 178.5 -135t251.5 -57q82 0 139.5 19.5t93.5 49t51 67.5t15 75q0 53 -26.5 90t-72.5 61.5t-105.5 43t-124.5 34.5q-82 20 -166 47t-152.5 70t-111.5 110.5t-43 171.5q0 84 35.5 156t99 124t152.5 80.5t196 28.5q160 0 282.5 -49t215.5 -141 l-119 -152q-78 84 -181.5 122t-213.5 38q-115 0 -185.5 -53t-70.5 -139q0 -47 25.5 -78t69.5 -54.5t101 -40t121 -32.5q84 -23 170 -50.5t155.5 -73.5t113.5 -116.5t44 -179.5q0 -80 -28.5 -154.5t-91 -131t-161 -91.5t-235.5 -35q-184 0 -317 59.5t-221 158.5z" />
<glyph unicode="T" horiz-adv-x="1173" d="M61 1186v180h1051v-180h-422v-1186h-205v1186h-424z" />
<glyph unicode="U" horiz-adv-x="1454" d="M152 535v831h206v-825q0 -176 94.5 -279.5t274.5 -103.5t273.5 103.5t93.5 279.5v825h206v-829q0 -127 -35.5 -230.5t-107.5 -177.5t-179.5 -114t-250.5 -40t-250.5 40t-180.5 114t-108.5 176.5t-35.5 229.5z" />
<glyph unicode="V" horiz-adv-x="1363" d="M10 1366h234l436 -1143l438 1143h234l-543 -1366h-256z" />
<glyph unicode="W" horiz-adv-x="1828" d="M20 1366h230l282 -1096l299 1096h166l297 -1096l283 1096h229l-389 -1366h-219l-285 1055l-282 -1055h-219z" />
<glyph unicode="X" horiz-adv-x="1343" d="M14 0l525 700l-494 666h248l379 -524l377 524h247l-489 -664l520 -702h-246l-409 557l-410 -557h-248z" />
<glyph unicode="Y" horiz-adv-x="1294" d="M10 1366h236l401 -610l397 610h238l-532 -795v-571h-205v571z" />
<glyph unicode="Z" horiz-adv-x="1202" d="M94 0v168l733 1018h-733v180h998v-168l-734 -1018h748v-180h-1012z" />
<glyph unicode="[" horiz-adv-x="520" d="M86 -389v1778h399v-132h-260v-1515h260v-131h-399z" />
<glyph unicode="\" horiz-adv-x="626" d="M0 1407h141l486 -1448h-142z" />
<glyph unicode="]" horiz-adv-x="520" d="M35 -258h260v1515h-260v132h399v-1778h-399v131z" />
<glyph unicode="^" horiz-adv-x="888" d="M39 682l338 684h137l336 -684h-143l-263 553l-260 -553h-145z" />
<glyph unicode="_" horiz-adv-x="1155" d="M-6 -82h1167v-131h-1167v131z" />
<glyph unicode="`" horiz-adv-x="477" d="M0 1434h182l295 -295h-135z" />
<glyph unicode="a" horiz-adv-x="1183" d="M86 494q0 119 33 215t91 163.5t140 104.5t178 37t180.5 -44t143.5 -124v143h184v-989h-184v141q-55 -74 -140 -120t-184 -46q-96 0 -178 36t-140 102.5t-91 163t-33 217.5zM279 494q0 -78 20 -142.5t59 -111.5t94.5 -74t125.5 -27q86 0 160.5 42t113.5 102v419 q-39 59 -113.5 102.5t-160.5 43.5q-70 0 -125.5 -26.5t-94.5 -74t-59 -112t-20 -141.5z" />
<glyph unicode="b" horiz-adv-x="1183" d="M147 0v1366h185v-520q59 80 142 124t181 44q96 0 177 -37t139.5 -104.5t91.5 -164t33 -214.5q0 -121 -33 -217.5t-91.5 -163t-139 -102.5t-177.5 -36q-100 0 -184 46.5t-139 119.5v-141h-185zM332 283q37 -59 113.5 -101.5t160.5 -42.5q70 0 125 27t94 74t59.5 111.5 t20.5 142.5t-20.5 143t-59.5 112.5t-94 74t-125 26.5q-84 0 -160.5 -44t-113.5 -104v-419z" />
<glyph unicode="c" horiz-adv-x="1015" d="M86 496q0 111 37 206t103.5 164.5t158.5 108.5t205 39q141 0 229 -51.5t142 -122.5l-123 -113q-86 123 -240 123q-74 0 -132 -26.5t-100 -74t-64.5 -113t-22.5 -140.5q0 -78 22.5 -142.5t64.5 -112.5t100 -75t132 -27q150 0 240 123l123 -112q-53 -72 -141.5 -123.5 t-229.5 -51.5q-113 0 -205 40t-158.5 110t-103.5 165t-37 206z" />
<glyph unicode="d" horiz-adv-x="1183" d="M86 494q0 119 33 215t91 163.5t140 104.5t178 37t180.5 -44t143.5 -124v520h184v-1366h-184v141q-55 -74 -140 -120t-184 -46q-96 0 -178 36t-140 102.5t-91 163t-33 217.5zM279 494q0 -78 20 -142.5t59 -111.5t94.5 -74t125.5 -27q86 0 160.5 42t113.5 102v422 q-39 59 -113.5 102t-160.5 43q-70 0 -125.5 -26.5t-94.5 -74t-59 -113t-20 -142.5z" />
<glyph unicode="e" horiz-adv-x="1146" d="M86 496q0 106 37 201.5t102.5 165t156.5 110.5t200 41q111 0 199.5 -41t151 -113t96.5 -170t34 -211v-45h-782q6 -63 30.5 -118.5t67.5 -97.5t103.5 -66.5t133.5 -24.5q78 0 158 29.5t135 87.5l86 -121q-74 -72 -175 -110t-222 -38q-111 0 -205 38t-161.5 105.5 t-106.5 164t-39 213.5zM279 567h604q-2 49 -19.5 101.5t-54.5 95.5t-93.5 70.5t-133.5 27.5q-74 0 -129.5 -26.5t-93 -69.5t-57 -95.5t-23.5 -103.5z" />
<glyph unicode="f" horiz-adv-x="606" d="M29 827v162h164v66q0 160 83.5 245.5t217.5 85.5q96 0 161 -36l-43 -138q-39 23 -88 23q-70 0 -108.5 -45t-38.5 -135v-66h201v-162h-201v-827h-184v827h-164z" />
<glyph unicode="g" horiz-adv-x="1181" d="M86 504q0 119 33 213t91 160.5t139 101.5t177 35q98 0 182.5 -44t143.5 -124v143h184v-950q0 -127 -43 -212t-111.5 -136t-156.5 -71.5t-180 -20.5q-125 0 -221.5 31.5t-184.5 115.5l88 135q61 -72 138 -101.5t180 -29.5q57 0 112.5 14.5t98.5 48t69.5 88t26.5 132.5v129 q-57 -74 -141 -122t-185 -48q-96 0 -177 34.5t-139 100.5t-91 161t-33 216zM279 504q0 -78 20 -141.5t59 -109.5t94.5 -71.5t125.5 -25.5q84 0 159.5 44t114.5 103v402q-39 59 -114.5 102t-159.5 43q-70 0 -125.5 -25.5t-94.5 -71.5t-59 -109.5t-20 -139.5z" />
<glyph unicode="h" horiz-adv-x="1146" d="M147 0v1366h185v-516q25 31 61.5 59.5t81.5 52t97.5 38t109.5 14.5q317 0 317 -316v-698h-184v637q0 123 -57.5 168t-153.5 45q-86 0 -158.5 -44t-113.5 -99v-707h-185z" />
<glyph unicode="i" horiz-adv-x="477" d="M119 1239q0 49 35.5 83t83.5 34q49 0 83.5 -34t34.5 -83t-34.5 -84t-83.5 -35q-47 0 -83 35t-36 84zM147 0v989h185v-989h-185z" />
<glyph unicode="j" horiz-adv-x="477" d="M-90 -389l22 153q14 -4 33 -6t35 -2q63 0 105 38t42 128v1067h185v-1067q0 -154 -78.5 -238.5t-230.5 -84.5q-63 0 -113 12zM119 1239q0 49 35.5 83t83.5 34q49 0 83.5 -34t34.5 -83t-34.5 -84t-83.5 -35q-47 0 -83 35t-36 84z" />
<glyph unicode="k" horiz-adv-x="1064" d="M147 0v1366h185v-879l477 502h231l-426 -448l430 -541h-233l-330 426l-149 -152v-274h-185z" />
<glyph unicode="l" horiz-adv-x="567" d="M147 219v1147h185v-1106q0 -53 24.5 -87t71.5 -34q33 0 58.5 11.5t39.5 27.5l49 -139q-29 -29 -74.5 -46.5t-117.5 -17.5q-119 0 -177.5 63.5t-58.5 180.5z" />
<glyph unicode="m" horiz-adv-x="1679" d="M147 0v989h185v-139q14 23 46 51.5t74 53t93 42t106 17.5q113 0 179.5 -52.5t89.5 -132.5q20 35 55 68t79 59.5t94 42t105 15.5q137 0 209 -75t72 -224v-715h-184v659q0 86 -40 138.5t-132 52.5q-37 0 -74 -12.5t-70 -32t-58.5 -45t-43.5 -51.5v-709h-184v659 q0 86 -40 138.5t-135 52.5q-37 0 -71.5 -12.5t-66.5 -33t-58.5 -46t-44.5 -51.5v-707h-185z" />
<glyph unicode="n" d="M147 0v989h185v-139q25 31 60.5 59.5t80.5 52t98.5 38t110.5 14.5q158 0 237.5 -81t79.5 -239v-694h-184v633q0 123 -57.5 170t-153.5 47q-86 0 -158.5 -44t-113.5 -99v-707h-185z" />
<glyph unicode="o" horiz-adv-x="1171" d="M86 496q0 106 35 200.5t99.5 165t157.5 111.5t208 41q117 0 209 -41t156.5 -111.5t99 -165t34.5 -200.5q0 -109 -34.5 -203t-99 -165t-156.5 -112t-209 -41q-115 0 -208 41t-157.5 112t-99.5 165t-35 203zM279 496q0 -72 20 -136.5t59 -113.5t96.5 -78t131.5 -29t131 29 t96 78t59.5 113.5t20.5 136.5q0 70 -20.5 134t-59.5 113.5t-96.5 78t-130.5 28.5q-74 0 -131.5 -28.5t-96.5 -78t-59 -114t-20 -133.5z" />
<glyph unicode="p" horiz-adv-x="1177" d="M147 -377v1366h185v-141q53 74 138 120t185 46q96 0 177 -36t139.5 -102.5t91.5 -163t33 -216.5q0 -121 -33 -217.5t-91.5 -164t-139.5 -103.5t-177 -36q-98 0 -181 43t-142 125v-520h-185zM332 285q37 -59 112.5 -102.5t161.5 -43.5q70 0 124 27t93 74t59.5 112.5 t20.5 143.5q0 76 -20.5 141t-59.5 112.5t-93 74t-124 26.5q-84 0 -160.5 -43t-113.5 -102v-420z" />
<glyph unicode="q" horiz-adv-x="1177" d="M82 496q0 121 31.5 217t90 162.5t139.5 102.5t177 36q102 0 187.5 -46t138.5 -120v141h184v-1366h-184v520q-59 -82 -143.5 -125t-182.5 -43q-96 0 -177 36t-139.5 103.5t-90 164t-31.5 217.5zM274 496q0 -78 20.5 -143.5t58.5 -112.5t93 -74t125 -27q84 0 161 43 t114 103v420q-18 31 -48 56t-67 45.5t-78 32t-82 11.5q-70 0 -125 -26.5t-93 -74t-58.5 -113t-20.5 -140.5z" />
<glyph unicode="r" horiz-adv-x="692" d="M147 0v989h185v-151q57 74 141 124t182 50v-187q-29 6 -63 6q-35 0 -74 -12t-74.5 -31.5t-65.5 -46t-46 -53.5v-688h-185z" />
<glyph unicode="s" horiz-adv-x="958" d="M61 129l89 135q51 -55 141 -98t190 -43q104 0 158.5 43t54.5 108q0 35 -19.5 58.5t-52 41t-76.5 29t-91 21.5q-63 14 -128 32.5t-117 50.5t-86 83t-34 131q0 59 24.5 112.5t73 93.5t119 63.5t160.5 23.5q129 0 221 -41t156 -101l-82 -129q-43 53 -121 87t-172 34 t-148.5 -39t-54.5 -98q0 -31 18.5 -52.5t50.5 -35.5t73 -25.5t88 -21.5q63 -14 130.5 -33.5t122 -53.5t89 -87t34.5 -139q0 -63 -25.5 -119t-76.5 -96.5t-125 -64.5t-172 -24q-125 0 -230.5 38t-181.5 116z" />
<glyph unicode="t" horiz-adv-x="626" d="M20 827v162h164v271h185v-271h200v-162h-200v-567q0 -53 24.5 -87t71.5 -34q33 0 59.5 11.5t40.5 27.5l47 -139q-29 -29 -74.5 -46.5t-117.5 -17.5q-117 0 -176.5 63.5t-59.5 180.5v608h-164z" />
<glyph unicode="u" d="M147 291v698h185v-637q0 -123 56 -168t153 -45q86 0 159.5 42t114.5 98v710h184v-989h-184v135q-57 -61 -147 -110.5t-205 -49.5q-315 0 -316 316z" />
<glyph unicode="v" horiz-adv-x="1017" d="M2 989h197l309 -776l309 776h199l-408 -989h-198z" />
<glyph unicode="w" horiz-adv-x="1523" d="M16 989h193l225 -753l248 753h160l248 -753l225 753h192l-311 -989h-190l-244 760l-244 -760h-190z" />
<glyph unicode="x" horiz-adv-x="1005" d="M16 0l371 508l-348 481h209l256 -356l254 356h209l-351 -481l373 -508h-209l-276 385l-279 -385h-209z" />
<glyph unicode="y" d="M135 -254l88 135q57 -70 136 -100.5t165 -30.5q137 0 214 75t77 212v125q-57 -63 -147 -111.5t-205 -48.5q-315 0 -316 313v674h185v-610q0 -123 56 -168t153 -45q86 0 159.5 42t114.5 97v684h184v-952q0 -111 -36.5 -193t-101 -137t-152 -81.5t-185.5 -26.5 q-125 0 -218 35.5t-171 111.5z" />
<glyph unicode="z" horiz-adv-x="970" d="M100 0v141l516 686h-516v162h760v-137l-520 -692h528v-160h-768z" />
<glyph unicode="{" horiz-adv-x="548" d="M10 442v115q53 0 80 42t27 99v400q0 68 22.5 121t61.5 91t87 58.5t101 20.5h125v-132h-125q-53 0 -93 -44t-40 -115v-416q0 -66 -21.5 -113t-72.5 -69q51 -23 72.5 -70t21.5 -113v-415q0 -72 40 -116t93 -44h125v-131h-125q-53 0 -101 20.5t-87 57.5t-61.5 90t-22.5 121 v401q0 57 -27 99t-80 42z" />
<glyph unicode="|" horiz-adv-x="434" d="M152 -41v1448h131v-1448h-131z" />
<glyph unicode="}" horiz-adv-x="548" d="M35 -258h125q55 0 94 44t39 116v415q0 66 21.5 113t72.5 70q-51 23 -72.5 69.5t-21.5 112.5v416q0 72 -39 115.5t-94 43.5h-125v132h125q51 0 101 -20.5t88 -58.5t61.5 -91.5t23.5 -120.5v-400q0 -57 26.5 -99t80.5 -42v-115q-53 0 -80 -42t-27 -99v-401 q0 -68 -23.5 -121t-61.5 -90t-88 -57.5t-101 -20.5h-125v131z" />
<glyph unicode="~" horiz-adv-x="1034" d="M53 874q8 92 25.5 180.5t50.5 157t85 110.5t130 42q55 0 92 -21.5t62.5 -54.5t43 -75t31.5 -80q23 -61 46.5 -106.5t70.5 -45.5q35 0 61.5 29.5t45 81t31 122t18.5 152.5l133 -16q-8 -92 -24.5 -180.5t-49.5 -157t-84 -110.5t-131 -42q-55 0 -93 21.5t-63.5 54.5t-42 74 t-30.5 82q-10 31 -21.5 57.5t-25 47t-29.5 32.5t-41 12q-35 0 -61.5 -29.5t-45 -82t-30.5 -122t-19 -149.5z" />
<glyph unicode="&#xa1;" horiz-adv-x="487" d="M117 883q0 51 35.5 89t89.5 38q53 0 91 -38t38 -89q0 -53 -38 -90t-91 -37t-89 37t-36 90zM131 -377l33 965h158l36 -965h-227z" />
<glyph unicode="&#xa2;" horiz-adv-x="1015" d="M86 496q0 100 30.5 188t86 155.5t133.5 111.5t174 57v149h141v-147q113 -10 187.5 -58.5t122.5 -111.5l-123 -113q-74 100 -187 119v-703q113 18 187 119l123 -112q-47 -66 -122 -113t-188 -57v-185h-141v187q-96 12 -174 56t-133.5 111.5t-86 155.5t-30.5 191zM279 496 q0 -129 61 -223.5t170 -122.5v688q-109 -29 -170 -121t-61 -221z" />
<glyph unicode="&#xa3;" horiz-adv-x="1079" d="M41 549v127h195q-23 29 -45.5 56.5t-40.5 58.5q-23 41 -38.5 86t-15.5 100q0 88 39 162.5t103.5 130t150.5 86t178 30.5q147 0 259 -59t171 -174l-163 -98q-27 66 -92.5 114t-153.5 48q-55 0 -104.5 -16.5t-86.5 -48.5t-58.5 -77t-21.5 -102q0 -82 34 -138.5t75 -109.5 l37 -49h305v-127h-244q10 -37 11 -74q0 -88 -44.5 -152.5t-105.5 -105.5q49 16 107 16q49 0 84.5 -12t70.5 -28q31 -14 62.5 -25.5t72.5 -11.5q68 0 118 25.5t73 54.5l84 -164q-41 -43 -110.5 -71t-172.5 -28q-72 0 -119 16.5t-88 35.5q-35 16 -71.5 28.5t-89.5 12.5 t-115 -23t-125 -57l-72 147q123 53 190.5 131t67.5 166q0 33 -8 61.5t-20 57.5h-283z" />
<glyph unicode="&#xa4;" horiz-adv-x="1239" d="M53 1139l113 108l158 -157q59 41 132.5 63.5t161.5 22.5q174 0 295 -86l158 157l113 -110l-158 -158q92 -127 92 -297t-92 -297l158 -154l-113 -110l-156 151q-59 -41 -134 -63.5t-163 -22.5q-90 0 -164.5 23.5t-134.5 64.5l-151 -153l-113 110l154 154q-88 129 -88 297 q0 84 22.5 160t67.5 137zM307 682q0 -66 20.5 -125t60.5 -105t98 -73t132 -27q76 0 134.5 27t97.5 73t59.5 105t20.5 125q0 63 -20.5 122.5t-59.5 104.5t-97.5 72t-134.5 27q-74 0 -132 -27t-98 -72t-60.5 -104.5t-20.5 -122.5z" />
<glyph unicode="&#xa5;" horiz-adv-x="1294" d="M10 1366h236l401 -610l397 610h238l-451 -672h418v-123h-499v-202h499v-123h-499v-246h-205v246h-498v123h498v202h-498v123h414z" />
<glyph unicode="&#xa6;" horiz-adv-x="434" d="M152 -41v647h131v-647h-131zM152 760v647h131v-647h-131z" />
<glyph unicode="&#xa7;" horiz-adv-x="966" d="M63 -6l87 119q25 -27 57.5 -53.5t74.5 -47t90 -33t101 -12.5q98 0 159.5 41t61.5 119q0 39 -20.5 65.5t-55 45t-80.5 32t-96 25.5q-61 16 -123.5 35.5t-113.5 51.5t-83 81t-32 127q0 53 19.5 95t50 75t71.5 54.5t84 33.5q-104 35 -164.5 95.5t-60.5 160.5 q0 57 25.5 108.5t75 90t119 61t157.5 22.5q143 0 233.5 -44t141.5 -99l-80 -110q-53 59 -131 89.5t-156 30.5q-94 0 -151.5 -41t-57.5 -108q0 -35 19.5 -57.5t52.5 -39t76 -27.5t92 -24q63 -14 128.5 -32.5t118 -52t86 -86t33.5 -134.5q0 -86 -46 -153.5t-138 -108.5 q84 -33 134 -90t50 -160q0 -72 -29.5 -129t-82.5 -96t-126 -59.5t-161 -20.5q-152 0 -248 48t-162 112zM266 610q0 -43 22.5 -70.5t60.5 -46t87 -31.5t101 -26q74 33 114.5 77t40.5 110q0 41 -18.5 70.5t-49 50t-69.5 34t-78 23.5q-121 -33 -166 -80t-45 -111z" />
<glyph unicode="&#xa8;" horiz-adv-x="569" d="M-35 1241q0 45 31 76t76 31t75.5 -31t30.5 -76t-30.5 -76.5t-75.5 -31.5t-76 31.5t-31 76.5zM389 1241q0 45 32 76t77 31t76.5 -31t31.5 -76t-31.5 -76.5t-76.5 -31.5t-77 31.5t-32 76.5z" />
<glyph unicode="&#xa9;" horiz-adv-x="1593" d="M90 684q0 147 55.5 275t151.5 224.5t225 152t275 55.5q147 0 275 -55.5t224.5 -152t151.5 -224.5t55 -275q0 -145 -55 -274t-151.5 -225.5t-224.5 -152t-275 -55.5q-145 0 -274.5 55.5t-225.5 152t-151.5 225.5t-55.5 274zM156 684q0 -133 50 -249t138 -204t204 -138 t249 -50q131 0 247.5 50t204.5 138t138.5 204t50.5 249q0 131 -50.5 248t-138.5 205t-204.5 138t-247.5 50q-133 0 -249 -50t-204 -138t-138 -205t-50 -248zM377 686q0 94 33.5 173t91 137.5t135.5 91t166 32.5q96 0 172 -35.5t129 -99.5l-57 -53q-41 53 -107 85t-137 32 q-70 0 -132.5 -27t-109.5 -74t-74.5 -113.5t-27.5 -148.5q0 -80 27.5 -147.5t74.5 -115.5t109.5 -76t132.5 -28q74 0 139.5 33t106.5 86l55 -53q-55 -66 -130 -101.5t-171 -35.5q-88 0 -166 33.5t-135.5 92t-91 138.5t-33.5 174z" />
<glyph unicode="&#xaa;" horiz-adv-x="778" d="M78 864q0 53 19.5 93t52 66t73.5 39t82 13q78 0 130 -24.5t87 -61.5v105q0 59 -45 93t-110 34q-53 0 -105.5 -22.5t-93.5 -70.5l-57 91q57 55 126.5 81.5t149.5 26.5q53 0 102.5 -12t87 -40t60 -73t22.5 -110v-424h-137v69q-35 -37 -87 -61.5t-130 -24.5q-41 0 -82 13.5 t-73.5 41t-52 66.5t-19.5 92zM215 864q0 -57 42 -90t103 -33q47 0 91.5 18.5t70.5 53.5v102q-27 35 -70.5 53.5t-91.5 18.5q-61 0 -103 -33.5t-42 -89.5z" />
<glyph unicode="&#xab;" horiz-adv-x="950" d="M61 498l328 362h178l-327 -362l327 -369h-178zM383 498l328 362h178l-328 -362l328 -369h-178z" />
<glyph unicode="&#xac;" horiz-adv-x="1038" d="M59 819v123h906v-516h-127v393h-779z" />
<glyph unicode="&#xad;" horiz-adv-x="614" d="M61 416v159h492v-159h-492z" />
<glyph unicode="&#xae;" horiz-adv-x="1011" d="M72 952q0 90 33.5 170t93 138.5t138.5 92t169 33.5t170 -33.5t138 -92t92 -138.5t34 -170t-34 -168.5t-92 -138t-138 -93.5t-170 -34t-169 34t-138.5 93.5t-93 138t-33.5 168.5zM131 952q0 -78 29.5 -145.5t80 -118.5t119 -80.5t146.5 -29.5t145.5 29.5t118.5 80.5 t80 118.5t29 145.5t-29 146.5t-80 119t-118.5 79t-145.5 28.5t-146.5 -28.5t-119 -79t-80 -119t-29.5 -146.5zM340 702v498h203q63 0 110 -41t47 -110q0 -41 -15 -70t-36.5 -46.5t-43 -24.5t-32.5 -7l134 -199h-82l-129 197h-90v-197h-66zM406 961h137q33 0 61.5 24.5 t28.5 63.5q0 41 -29 66.5t-61 25.5h-137v-180z" />
<glyph unicode="&#xaf;" horiz-adv-x="743" d="M0 1165v113h743v-113h-743z" />
<glyph unicode="&#xb0;" horiz-adv-x="606" d="M45 1128q0 53 20.5 100.5t55.5 82.5t81 55t99 20t100.5 -20t82 -55t55 -82.5t20.5 -100.5t-20.5 -100t-55 -82t-82 -54.5t-100.5 -19.5t-99 19.5t-81 54.5t-55.5 82t-20.5 100zM158 1128q0 -59 42 -102t101 -43t103.5 43t44.5 102t-44.5 103.5t-103.5 44.5t-101 -44 t-42 -104z" />
<glyph unicode="&#xb1;" horiz-adv-x="1024" d="M59 0v123h906v-123h-906zM59 664v122h385v418h136v-418h385v-122h-385v-431h-136v431h-385z" />
<glyph unicode="&#xb2;" horiz-adv-x="798" d="M92 862zM92 1562q55 66 139 98.5t170 32.5q59 0 114.5 -15t97.5 -46t67 -77t25 -107q0 -117 -106.5 -228.5t-287.5 -240.5h400v-117h-611v106q123 86 210 154t142.5 123t82 101t26.5 91q0 72 -49 106t-115 34q-76 0 -136 -33t-91 -74z" />
<glyph unicode="&#xb3;" horiz-adv-x="798" d="M80 848zM80 979l76 92q41 -51 105.5 -79t129.5 -28q86 0 132 35t46 94q0 74 -58 101.5t-144 27.5h-52.5t-33.5 -2v119q12 -2 35.5 -2h48.5q86 0 139 26.5t53 92.5q0 59 -51 90t-123 31q-129 0 -221 -97l-72 87q49 53 125 89.5t182 36.5q137 0 219 -59t82 -160 q0 -43 -16 -75.5t-43 -56t-58.5 -38t-64.5 -20.5q31 -2 64.5 -15.5t63.5 -38t49.5 -60.5t19.5 -85q0 -104 -84 -170.5t-232 -66.5q-115 0 -195.5 37.5t-121.5 93.5z" />
<glyph unicode="&#xb4;" horiz-adv-x="477" d="M0 1139l295 295h182l-342 -295h-135z" />
<glyph unicode="&#xb5;" horiz-adv-x="1173" d="M147 -377v1366h185v-637q0 -117 56 -166t155 -49q86 0 158.5 43t113.5 99v710h184v-739q0 -51 24 -81t67 -30q20 0 40 4l13 -157q-41 -10 -92 -11q-100 0 -154.5 46.5t-73.5 130.5q-51 -74 -131 -125.5t-174 -51.5q-78 0 -122 26t-64 60v-438h-185z" />
<glyph unicode="&#xb6;" horiz-adv-x="919" d="M55 1014q0 74 28 137t76 111.5t111.5 76t137.5 27.5h380v-1571h-102v1469h-176v-1469h-102v867q-74 0 -137.5 27.5t-111.5 75.5t-76 111.5t-28 137.5z" />
<glyph unicode="&#xb7;" horiz-adv-x="487" d="M115 500q0 53 36.5 91t90.5 38q53 0 91 -38t38 -91q0 -51 -38 -89t-91 -38t-90 38t-37 89z" />
<glyph unicode="&#xb8;" horiz-adv-x="428" d="M0 -332l41 86q39 -31 82 -45t84 -14q47 0 84 19.5t37 60.5q0 66 -74 65q-45 0 -72 -30l-78 43l64 170h102l-53 -134q33 23 76 23q59 0 97 -38t38 -101q0 -78 -62.5 -123t-154.5 -45q-68 0 -124 19.5t-87 43.5z" />
<glyph unicode="&#xb9;" horiz-adv-x="512" d="M25 862zM25 1442l237 239h127v-819h-145v633l-135 -141z" />
<glyph unicode="&#xba;" horiz-adv-x="829" d="M76 989q0 70 23.5 131.5t67.5 107.5t106.5 72.5t140.5 26.5q80 0 142 -26.5t106.5 -72.5t68 -107.5t23.5 -131.5t-23.5 -131t-68 -107t-106.5 -73t-142 -27q-78 0 -140.5 27t-106.5 73t-67.5 107.5t-23.5 130.5zM219 989q0 -98 50.5 -160.5t144.5 -62.5t145 62.5 t51 160.5q0 96 -51 158.5t-145 62.5t-144.5 -62.5t-50.5 -158.5z" />
<glyph unicode="&#xbb;" horiz-adv-x="950" d="M61 129l328 369l-328 362h179l327 -362l-327 -369h-179zM383 129l328 369l-328 362h178l328 -362l-328 -369h-178z" />
<glyph unicode="&#xbc;" horiz-adv-x="1613" d="M25 0zM25 1127l237 239h127v-819h-145v633l-135 -141zM238 0l872 1366h127l-874 -1366h-125zM887 197v102l344 520h200v-506h115v-116h-115v-197h-143v197h-401zM1030 313h258v381z" />
<glyph unicode="&#xbd;" horiz-adv-x="1687" d="M25 0zM25 1127l237 239h127v-819h-145v633l-135 -141zM238 0l872 1366h127l-874 -1366h-125zM979 700q55 66 139 98.5t170 32.5q59 0 114.5 -15t97.5 -46t67 -77t25 -107q0 -117 -106.5 -228.5t-287.5 -240.5h400v-117h-611v106q123 86 210 154t142.5 123t82 101t26.5 91 q0 72 -49 106t-115 34q-76 0 -136 -33t-91 -74z" />
<glyph unicode="&#xbe;" horiz-adv-x="1822" d="M80 0zM80 664l76 92q41 -51 105.5 -79t129.5 -28q86 0 132 35t46 94q0 74 -58 101.5t-144 27.5h-52.5t-33.5 -2v119q12 -2 35.5 -2h48.5q86 0 139 26.5t53 92.5q0 59 -51 90t-123 31q-129 0 -221 -97l-72 87q49 53 125 89.5t182 36.5q137 0 219 -59t82 -160 q0 -43 -16 -75.5t-43 -56t-58.5 -38t-64.5 -20.5q31 -2 64.5 -15.5t63.5 -38t49.5 -60.5t19.5 -85q0 -104 -84 -170.5t-232 -66.5q-115 0 -195.5 37.5t-121.5 93.5zM447 0l872 1366h127l-874 -1366h-125zM1096 197v102l344 520h200v-506h115v-116h-115v-197h-143v197h-401z M1239 313h258v381z" />
<glyph unicode="&#xbf;" horiz-adv-x="808" d="M55 -82q0 63 20.5 112.5t52.5 87.5t72 68.5t79 59.5q63 45 111 89t48 107q0 25 -14 51.5t-37 45.5l154 55q76 -70 75 -170q0 -51 -17 -91t-45 -72t-61.5 -58.5t-68.5 -50.5q-61 -43 -109.5 -88.5t-48.5 -114.5q0 -68 54.5 -118t164.5 -50q104 0 177 42t129 114l118 -134 q-76 -96 -189.5 -150t-254.5 -54q-96 0 -172 24.5t-128 67.5t-81 101t-29 126zM354 881q0 53 37 91t90 38t91 -38t38 -91q0 -51 -37.5 -88t-91.5 -37q-53 0 -90 36.5t-37 88.5z" />
<glyph unicode="&#xc0;" horiz-adv-x="1363" d="M10 0l543 1366h256l543 -1366h-234l-110 283h-654l-110 -283h-234zM10 0zM326 1776h182l295 -295h-135zM414 465h534l-268 692z" />
<glyph unicode="&#xc1;" horiz-adv-x="1363" d="M10 0l543 1366h256l543 -1366h-234l-110 283h-654l-110 -283h-234zM10 0zM414 465h534l-268 692zM561 1481l295 295h182l-342 -295h-135z" />
<glyph unicode="&#xc2;" horiz-adv-x="1363" d="M10 0l543 1366h256l543 -1366h-234l-110 283h-654l-110 -283h-234zM10 0zM401 1481l193 295h172l198 -295h-121l-163 207l-160 -207h-119zM414 465h534l-268 692z" />
<glyph unicode="&#xc3;" horiz-adv-x="1363" d="M10 0l543 1366h256l543 -1366h-234l-110 283h-654l-110 -283h-234zM10 0zM356 1489q0 123 52 198.5t153 75.5q59 0 93 -32.5t60 -67.5q23 -29 43.5 -51.5t51.5 -22.5q39 0 64.5 38t25.5 124h106q0 -123 -52.5 -198.5t-152.5 -75.5q-61 0 -95 32.5t-60 67.5 q-20 29 -41 51.5t-51 22.5q-39 0 -66 -38t-27 -124h-104zM414 465h534l-268 692z" />
<glyph unicode="&#xc4;" horiz-adv-x="1363" d="M10 0l543 1366h256l543 -1366h-234l-110 283h-654l-110 -283h-234zM10 0zM362 1583q0 45 31 76t76 31t75.5 -31t30.5 -76t-30.5 -76.5t-75.5 -31.5t-76 31.5t-31 76.5zM414 465h534l-268 692zM786 1583q0 45 32 76t77 31t76.5 -31t31.5 -76t-31.5 -76.5t-76.5 -31.5 t-77 31.5t-32 76.5z" />
<glyph unicode="&#xc5;" horiz-adv-x="1363" d="M10 0l543 1366h256l543 -1366h-234l-110 283h-654l-110 -283h-234zM10 0zM414 465h534l-268 692zM477 1618q0 43 16.5 79.5t44 65.5t64.5 45.5t80 16.5t80 -16.5t64.5 -45.5t43 -65.5t15.5 -79.5t-15.5 -80t-43 -65.5t-64.5 -45t-80 -16.5t-80 16.5t-64.5 45t-44 65.5 t-16.5 80zM569 1618q0 -47 33 -81t80 -34t79.5 34t32.5 81t-32.5 79.5t-79.5 32.5t-80 -32.5t-33 -79.5z" />
<glyph unicode="&#xc6;" horiz-adv-x="1951" d="M6 0l846 1366h997v-180h-712v-400h698v-180h-698v-426h712v-180h-917v283h-520l-174 -283h-232zM510 465h422v692z" />
<glyph unicode="&#xc7;" horiz-adv-x="1390" d="M94 682q0 158 55.5 288t150.5 223t224 144.5t279 51.5q98 0 178 -23t146.5 -61.5t117.5 -92t92 -112.5l-174 -92q-53 86 -148 142t-212 56q-106 0 -197.5 -39t-158 -108.5t-104.5 -165.5t-38 -211t38 -211t104.5 -165.5t157.5 -108.5t198 -39q117 0 212 56t148 142 l174 -92q-39 -59 -89 -110.5t-112.5 -89t-139 -62.5t-169.5 -27l-30 -77q33 23 75 22q59 0 97.5 -38t38.5 -101q0 -78 -62.5 -123t-154.5 -45q-68 0 -124.5 19.5t-86.5 43.5l41 86q39 -31 81.5 -45t83.5 -14q47 0 84 19.5t37 60.5q0 66 -73 65q-45 0 -72 -30l-78 43l43 119 q-135 12 -251 68t-201 147.5t-133 215.5t-48 271z" />
<glyph unicode="&#xc8;" horiz-adv-x="1173" d="M152 0v1366h917v-180h-713v-400h699v-180h-699v-426h713v-180h-917zM152 0zM254 1776h182l295 -295h-135z" />
<glyph unicode="&#xc9;" horiz-adv-x="1173" d="M152 0v1366h917v-180h-713v-400h699v-180h-699v-426h713v-180h-917zM152 0zM489 1481l295 295h182l-342 -295h-135z" />
<glyph unicode="&#xca;" horiz-adv-x="1173" d="M152 0v1366h917v-180h-713v-400h699v-180h-699v-426h713v-180h-917zM152 0zM328 1481l193 295h172l198 -295h-121l-163 207l-160 -207h-119z" />
<glyph unicode="&#xcb;" horiz-adv-x="1173" d="M152 0v1366h917v-180h-713v-400h699v-180h-699v-426h713v-180h-917zM152 0zM289 1583q0 45 31 76t76 31t75.5 -31t30.5 -76t-30.5 -76.5t-75.5 -31.5t-76 31.5t-31 76.5zM713 1583q0 45 32 76t77 31t76.5 -31t31.5 -76t-31.5 -76.5t-76.5 -31.5t-77 31.5t-32 76.5z" />
<glyph unicode="&#xcc;" horiz-adv-x="509" d="M-100 1776h182l295 -295h-135zM0 0zM152 0v1366h204v-1366h-204z" />
<glyph unicode="&#xcd;" horiz-adv-x="509" d="M137 0zM137 1481l295 295h182l-342 -295h-135zM152 0v1366h204v-1366h-204z" />
<glyph unicode="&#xce;" horiz-adv-x="509" d="M-23 1481l193 295h172l198 -295h-121l-163 207l-160 -207h-119zM0 0zM152 0v1366h204v-1366h-204z" />
<glyph unicode="&#xcf;" horiz-adv-x="509" d="M-62 1583q0 45 31 76t76 31t75.5 -31t30.5 -76t-30.5 -76.5t-75.5 -31.5t-76 31.5t-31 76.5zM0 0zM152 0v1366h204v-1366h-204zM362 1583q0 45 32 76t77 31t76.5 -31t31.5 -76t-31.5 -76.5t-76.5 -31.5t-77 31.5t-32 76.5z" />
<glyph unicode="&#xd0;" horiz-adv-x="1499" d="M20 598v150h187v618h487q160 0 291 -51t223 -143.5t143.5 -217.5t51.5 -272t-51.5 -273t-143.5 -216.5t-223 -141.5t-291 -51h-487v598h-187zM412 180h282q119 0 211 40t155.5 107.5t97.5 159t34 195.5t-33 196.5t-95.5 161t-155.5 107.5t-214 39h-282v-438h338v-150 h-338v-418z" />
<glyph unicode="&#xd1;" horiz-adv-x="1462" d="M152 0v1366h210l744 -1008v1008h205v-1366h-199l-756 1032v-1032h-204zM152 0zM403 1489q0 123 52 198.5t153 75.5q59 0 93 -32.5t60 -67.5q23 -29 43.5 -51.5t51.5 -22.5q39 0 64.5 38t25.5 124h106q0 -123 -52.5 -198.5t-152.5 -75.5q-61 0 -95 32.5t-60 67.5 q-20 29 -41 51.5t-51 22.5q-39 0 -66 -38t-27 -124h-104z" />
<glyph unicode="&#xd2;" horiz-adv-x="1566" d="M94 0zM94 682q0 152 50.5 282t141.5 224t217 147.5t279 53.5q154 0 280 -53.5t217 -147.5t141 -224t50 -282t-50 -282t-141 -224t-217 -147.5t-280 -53.5t-279.5 53.5t-216.5 147.5t-141.5 224t-50.5 282zM305 682q0 -113 34 -208t95.5 -165.5t149 -110.5t198.5 -40 q109 0 197 40t150.5 110.5t96.5 165.5t34 208t-34 209t-96.5 165.5t-150.5 109.5t-197 40q-111 0 -198.5 -40t-149 -109.5t-95.5 -165.5t-34 -209zM428 1776h182l295 -295h-135z" />
<glyph unicode="&#xd3;" horiz-adv-x="1566" d="M94 0zM94 682q0 152 50.5 282t141.5 224t217 147.5t279 53.5q154 0 280 -53.5t217 -147.5t141 -224t50 -282t-50 -282t-141 -224t-217 -147.5t-280 -53.5t-279.5 53.5t-216.5 147.5t-141.5 224t-50.5 282zM305 682q0 -113 34 -208t95.5 -165.5t149 -110.5t198.5 -40 q109 0 197 40t150.5 110.5t96.5 165.5t34 208t-34 209t-96.5 165.5t-150.5 109.5t-197 40q-111 0 -198.5 -40t-149 -109.5t-95.5 -165.5t-34 -209zM664 1481l295 295h182l-342 -295h-135z" />
<glyph unicode="&#xd4;" horiz-adv-x="1566" d="M94 0zM94 682q0 152 50.5 282t141.5 224t217 147.5t279 53.5q154 0 280 -53.5t217 -147.5t141 -224t50 -282t-50 -282t-141 -224t-217 -147.5t-280 -53.5t-279.5 53.5t-216.5 147.5t-141.5 224t-50.5 282zM305 682q0 -113 34 -208t95.5 -165.5t149 -110.5t198.5 -40 q109 0 197 40t150.5 110.5t96.5 165.5t34 208t-34 209t-96.5 165.5t-150.5 109.5t-197 40q-111 0 -198.5 -40t-149 -109.5t-95.5 -165.5t-34 -209zM506 1481l193 295h172l198 -295h-121l-163 207l-160 -207h-119z" />
<glyph unicode="&#xd5;" horiz-adv-x="1566" d="M94 0zM94 682q0 152 50.5 282t141.5 224t217 147.5t279 53.5q154 0 280 -53.5t217 -147.5t141 -224t50 -282t-50 -282t-141 -224t-217 -147.5t-280 -53.5t-279.5 53.5t-216.5 147.5t-141.5 224t-50.5 282zM305 682q0 -113 34 -208t95.5 -165.5t149 -110.5t198.5 -40 q109 0 197 40t150.5 110.5t96.5 165.5t34 208t-34 209t-96.5 165.5t-150.5 109.5t-197 40q-111 0 -198.5 -40t-149 -109.5t-95.5 -165.5t-34 -209zM459 1489q0 123 52 198.5t153 75.5q59 0 93 -32.5t60 -67.5q23 -29 43.5 -51.5t51.5 -22.5q39 0 64.5 38t25.5 124h106 q0 -123 -52.5 -198.5t-152.5 -75.5q-61 0 -95 32.5t-60 67.5q-20 29 -41 51.5t-51 22.5q-39 0 -66 -38t-27 -124h-104z" />
<glyph unicode="&#xd6;" horiz-adv-x="1566" d="M94 0zM94 682q0 152 50.5 282t141.5 224t217 147.5t279 53.5q154 0 280 -53.5t217 -147.5t141 -224t50 -282t-50 -282t-141 -224t-217 -147.5t-280 -53.5t-279.5 53.5t-216.5 147.5t-141.5 224t-50.5 282zM305 682q0 -113 34 -208t95.5 -165.5t149 -110.5t198.5 -40 q109 0 197 40t150.5 110.5t96.5 165.5t34 208t-34 209t-96.5 165.5t-150.5 109.5t-197 40q-111 0 -198.5 -40t-149 -109.5t-95.5 -165.5t-34 -209zM463 1583q0 45 31 76t76 31t75.5 -31t30.5 -76t-30.5 -76.5t-75.5 -31.5t-76 31.5t-31 76.5zM887 1583q0 45 32 76t77 31 t76.5 -31t31.5 -76t-31.5 -76.5t-76.5 -31.5t-77 31.5t-32 76.5z" />
<glyph unicode="&#xd7;" horiz-adv-x="1024" d="M125 383l301 301l-301 299l88 88l299 -301l299 301l88 -88l-299 -299l299 -301l-88 -86l-299 299l-299 -299z" />
<glyph unicode="&#xd8;" horiz-adv-x="1566" d="M94 682q0 152 50.5 282t141.5 224t217 147.5t279 53.5q98 0 184.5 -23t159.5 -63l45 63h158l-96 -137q113 -96 175 -236.5t62 -310.5q0 -152 -50 -282t-141 -224t-217 -147.5t-280 -53.5q-102 0 -192 24t-168 69l-47 -68h-158l100 145q-106 96 -164.5 233.5t-58.5 303.5z M305 682q0 -113 33 -208t94 -165l586 838q-51 29 -110.5 44t-125.5 15q-111 0 -198.5 -40t-149 -109.5t-95.5 -165.5t-34 -209zM532 225q109 -67 250 -67q109 0 197 40t150.5 110.5t96.5 165.5t34 208q0 117 -37 215t-103 170z" />
<glyph unicode="&#xd9;" horiz-adv-x="1454" d="M152 0zM152 535v831h206v-825q0 -176 94.5 -279.5t274.5 -103.5t273.5 103.5t93.5 279.5v825h206v-829q0 -127 -35.5 -230.5t-107.5 -177.5t-179.5 -114t-250.5 -40t-250.5 40t-180.5 114t-108.5 176.5t-35.5 229.5zM371 1776h182l295 -295h-135z" />
<glyph unicode="&#xda;" horiz-adv-x="1454" d="M152 0zM152 535v831h206v-825q0 -176 94.5 -279.5t274.5 -103.5t273.5 103.5t93.5 279.5v825h206v-829q0 -127 -35.5 -230.5t-107.5 -177.5t-179.5 -114t-250.5 -40t-250.5 40t-180.5 114t-108.5 176.5t-35.5 229.5zM606 1481l295 295h182l-342 -295h-135z" />
<glyph unicode="&#xdb;" horiz-adv-x="1454" d="M152 0zM152 535v831h206v-825q0 -176 94.5 -279.5t274.5 -103.5t273.5 103.5t93.5 279.5v825h206v-829q0 -127 -35.5 -230.5t-107.5 -177.5t-179.5 -114t-250.5 -40t-250.5 40t-180.5 114t-108.5 176.5t-35.5 229.5zM451 1481l193 295h172l198 -295h-121l-163 207 l-160 -207h-119z" />
<glyph unicode="&#xdc;" horiz-adv-x="1454" d="M152 0zM152 535v831h206v-825q0 -176 94.5 -279.5t274.5 -103.5t273.5 103.5t93.5 279.5v825h206v-829q0 -127 -35.5 -230.5t-107.5 -177.5t-179.5 -114t-250.5 -40t-250.5 40t-180.5 114t-108.5 176.5t-35.5 229.5zM409 1583q0 45 31 76t76 31t75.5 -31t30.5 -76 t-30.5 -76.5t-75.5 -31.5t-76 31.5t-31 76.5zM833 1583q0 45 32 76t77 31t76.5 -31t31.5 -76t-31.5 -76.5t-76.5 -31.5t-77 31.5t-32 76.5z" />
<glyph unicode="&#xdd;" horiz-adv-x="1294" d="M10 0zM10 1366h236l401 -610l397 610h238l-532 -795v-571h-205v571zM524 1481l295 295h182l-342 -295h-135z" />
<glyph unicode="&#xde;" horiz-adv-x="1222" d="M152 0v1366h204v-238h371q104 0 186 -33.5t137.5 -92t84 -134t28.5 -161.5t-28.5 -161t-85 -132.5t-137.5 -90t-185 -32.5h-371v-291h-204zM356 471h344q111 0 181.5 64.5t70.5 173.5q0 104 -70.5 170.5t-181.5 66.5h-344v-475z" />
<glyph unicode="&#xdf;" horiz-adv-x="1249" d="M147 0v1008q0 78 29 147.5t82 120.5t130 80.5t173 29.5q74 0 141.5 -18t119.5 -53t83 -85t31 -114q0 -47 -15.5 -82t-40 -62.5t-54 -49t-60.5 -41.5q-49 -35 -88 -69t-39 -85q0 -31 17.5 -51.5t47 -34.5t68.5 -25.5t82 -21.5q61 -14 124.5 -32.5t116 -52.5t85 -88 t32.5 -140q0 -61 -25.5 -118t-74.5 -97.5t-121.5 -65.5t-169.5 -25q-74 0 -131 12.5t-102 34t-83 51t-71 62.5l88 129q43 -57 122 -98t177 -41q109 0 161 46t52 105q0 35 -18.5 58.5t-50 41t-73.5 30t-87 24.5q-59 14 -119.5 32.5t-110 50.5t-81 82t-31.5 128q0 47 15.5 83 t40 65.5t55 52t61.5 43.5q47 31 80 59.5t33 67.5q0 31 -17.5 55.5t-44.5 40.5t-61.5 24.5t-67.5 8.5q-94 0 -159.5 -56.5t-65.5 -158.5v-1008h-185z" />
<glyph unicode="&#xe0;" horiz-adv-x="1183" d="M86 0zM86 494q0 119 33 215t91 163.5t140 104.5t178 37t180.5 -44t143.5 -124v143h184v-989h-184v141q-55 -74 -140 -120t-184 -46q-96 0 -178 36t-140 102.5t-91 163t-33 217.5zM221 1434h182l295 -295h-135zM279 494q0 -78 20 -142.5t59 -111.5t94.5 -74t125.5 -27 q86 0 160.5 42t113.5 102v419q-39 59 -113.5 102.5t-160.5 43.5q-70 0 -125.5 -26.5t-94.5 -74t-59 -112t-20 -141.5z" />
<glyph unicode="&#xe1;" horiz-adv-x="1183" d="M86 0zM86 494q0 119 33 215t91 163.5t140 104.5t178 37t180.5 -44t143.5 -124v143h184v-989h-184v141q-55 -74 -140 -120t-184 -46q-96 0 -178 36t-140 102.5t-91 163t-33 217.5zM279 494q0 -78 20 -142.5t59 -111.5t94.5 -74t125.5 -27q86 0 160.5 42t113.5 102v419 q-39 59 -113.5 102.5t-160.5 43.5q-70 0 -125.5 -26.5t-94.5 -74t-59 -112t-20 -141.5zM457 1139l295 295h182l-342 -295h-135z" />
<glyph unicode="&#xe2;" horiz-adv-x="1183" d="M86 0zM86 494q0 119 33 215t91 163.5t140 104.5t178 37t180.5 -44t143.5 -124v143h184v-989h-184v141q-55 -74 -140 -120t-184 -46q-96 0 -178 36t-140 102.5t-91 163t-33 217.5zM279 494q0 -78 20 -142.5t59 -111.5t94.5 -74t125.5 -27q86 0 160.5 42t113.5 102v419 q-39 59 -113.5 102.5t-160.5 43.5q-70 0 -125.5 -26.5t-94.5 -74t-59 -112t-20 -141.5zM326 1139l193 295h172l198 -295h-121l-163 207l-160 -207h-119z" />
<glyph unicode="&#xe3;" horiz-adv-x="1183" d="M86 0zM86 494q0 119 33 215t91 163.5t140 104.5t178 37t180.5 -44t143.5 -124v143h184v-989h-184v141q-55 -74 -140 -120t-184 -46q-96 0 -178 36t-140 102.5t-91 163t-33 217.5zM279 494q0 -78 20 -142.5t59 -111.5t94.5 -74t125.5 -27q86 0 160.5 42t113.5 102v419 q-39 59 -113.5 102.5t-160.5 43.5q-70 0 -125.5 -26.5t-94.5 -74t-59 -112t-20 -141.5zM281 1147q0 123 52 198.5t153 75.5q59 0 93 -32.5t60 -67.5q23 -29 43.5 -51.5t51.5 -22.5q39 0 64.5 38t25.5 124h106q0 -123 -52.5 -198.5t-152.5 -75.5q-61 0 -95 32.5t-60 67.5 q-20 29 -41 51.5t-51 22.5q-39 0 -66 -38t-27 -124h-104z" />
<glyph unicode="&#xe4;" horiz-adv-x="1183" d="M86 0zM86 494q0 119 33 215t91 163.5t140 104.5t178 37t180.5 -44t143.5 -124v143h184v-989h-184v141q-55 -74 -140 -120t-184 -46q-96 0 -178 36t-140 102.5t-91 163t-33 217.5zM279 494q0 -78 20 -142.5t59 -111.5t94.5 -74t125.5 -27q86 0 160.5 42t113.5 102v419 q-39 59 -113.5 102.5t-160.5 43.5q-70 0 -125.5 -26.5t-94.5 -74t-59 -112t-20 -141.5zM287 1241q0 45 31 76t76 31t75.5 -31t30.5 -76t-30.5 -76.5t-75.5 -31.5t-76 31.5t-31 76.5zM711 1241q0 45 32 76t77 31t76.5 -31t31.5 -76t-31.5 -76.5t-76.5 -31.5t-77 31.5 t-32 76.5z" />
<glyph unicode="&#xe5;" horiz-adv-x="1183" d="M86 0zM86 494q0 119 33 215t91 163.5t140 104.5t178 37t180.5 -44t143.5 -124v143h184v-989h-184v141q-55 -74 -140 -120t-184 -46q-96 0 -178 36t-140 102.5t-91 163t-33 217.5zM279 494q0 -78 20 -142.5t59 -111.5t94.5 -74t125.5 -27q86 0 160.5 42t113.5 102v419 q-39 59 -113.5 102.5t-160.5 43.5q-70 0 -125.5 -26.5t-94.5 -74t-59 -112t-20 -141.5zM401 1311q0 43 16.5 79.5t44 65.5t64.5 45.5t80 16.5t80 -16.5t64.5 -45.5t43 -65.5t15.5 -79.5t-15.5 -80t-43 -65.5t-64.5 -45t-80 -16.5t-80 16.5t-64.5 45t-44 65.5t-16.5 80z M493 1311q0 -47 33 -81t80 -34t79.5 34t32.5 81t-32.5 79.5t-79.5 32.5t-80 -32.5t-33 -79.5z" />
<glyph unicode="&#xe6;" horiz-adv-x="1902" d="M86 494q0 119 33 215t91 163.5t140 104.5t178 37t180.5 -44t143.5 -124v143h184v-186q53 94 139.5 152.5t208.5 58.5q100 0 181.5 -41t137.5 -113t86 -170t30 -211v-45h-783q6 -63 31 -118.5t68 -96.5t102 -64.5t133 -23.5q80 0 159 29.5t136 87.5l86 -125 q-63 -66 -151.5 -107t-196.5 -41q-141 0 -230.5 60.5t-136.5 146.5v-182h-184v141q-55 -74 -140 -120t-184 -46q-96 0 -178 36t-140 102.5t-91 163t-33 217.5zM279 494q0 -78 20 -142.5t59 -111.5t94.5 -74t125.5 -27q86 0 160.5 42t113.5 102v419q-39 59 -113.5 102.5 t-160.5 43.5q-70 0 -125.5 -26.5t-94.5 -74t-59 -112t-20 -141.5zM1036 567h604q-2 49 -20 101.5t-55 95.5t-93.5 70.5t-134.5 27.5q-74 0 -129 -26.5t-92 -69.5t-57.5 -95.5t-22.5 -103.5z" />
<glyph unicode="&#xe7;" horiz-adv-x="1015" d="M86 496q0 111 37 206t103.5 164.5t158.5 108.5t205 39q141 0 229 -51.5t142 -122.5l-123 -113q-86 123 -240 123q-74 0 -132 -26.5t-100 -74t-64.5 -113t-22.5 -140.5q0 -78 22.5 -142.5t64.5 -112.5t100 -75t132 -27q150 0 240 123l123 -112q-51 -68 -129 -116t-201 -57 l-33 -83q33 23 76 22q59 0 97 -38t38 -101q0 -78 -62.5 -123t-154.5 -45q-68 0 -124 19.5t-87 43.5l41 86q39 -31 82 -45t84 -14q47 0 84 19.5t37 60.5q0 66 -74 65q-45 0 -72 -30l-78 43l45 123q-100 10 -182 53t-140 110.5t-90 157.5t-32 195z" />
<glyph unicode="&#xe8;" horiz-adv-x="1146" d="M86 0zM86 496q0 106 37 201.5t102.5 165t156.5 110.5t200 41q111 0 199.5 -41t151 -113t96.5 -170t34 -211v-45h-782q6 -63 30.5 -118.5t67.5 -97.5t103.5 -66.5t133.5 -24.5q78 0 158 29.5t135 87.5l86 -121q-74 -72 -175 -110t-222 -38q-111 0 -205 38t-161.5 105.5 t-106.5 164t-39 213.5zM227 1434h182l295 -295h-135zM279 567h604q-2 49 -19.5 101.5t-54.5 95.5t-93.5 70.5t-133.5 27.5q-74 0 -129.5 -26.5t-93 -69.5t-57 -95.5t-23.5 -103.5z" />
<glyph unicode="&#xe9;" horiz-adv-x="1146" d="M86 0zM86 496q0 106 37 201.5t102.5 165t156.5 110.5t200 41q111 0 199.5 -41t151 -113t96.5 -170t34 -211v-45h-782q6 -63 30.5 -118.5t67.5 -97.5t103.5 -66.5t133.5 -24.5q78 0 158 29.5t135 87.5l86 -121q-74 -72 -175 -110t-222 -38q-111 0 -205 38t-161.5 105.5 t-106.5 164t-39 213.5zM279 567h604q-2 49 -19.5 101.5t-54.5 95.5t-93.5 70.5t-133.5 27.5q-74 0 -129.5 -26.5t-93 -69.5t-57 -95.5t-23.5 -103.5zM463 1139l295 295h182l-342 -295h-135z" />
<glyph unicode="&#xea;" horiz-adv-x="1146" d="M86 0zM86 496q0 106 37 201.5t102.5 165t156.5 110.5t200 41q111 0 199.5 -41t151 -113t96.5 -170t34 -211v-45h-782q6 -63 30.5 -118.5t67.5 -97.5t103.5 -66.5t133.5 -24.5q78 0 158 29.5t135 87.5l86 -121q-74 -72 -175 -110t-222 -38q-111 0 -205 38t-161.5 105.5 t-106.5 164t-39 213.5zM279 567h604q-2 49 -19.5 101.5t-54.5 95.5t-93.5 70.5t-133.5 27.5q-74 0 -129.5 -26.5t-93 -69.5t-57 -95.5t-23.5 -103.5zM303 1139l193 295h172l198 -295h-121l-163 207l-160 -207h-119z" />
<glyph unicode="&#xeb;" horiz-adv-x="1146" d="M86 0zM86 496q0 106 37 201.5t102.5 165t156.5 110.5t200 41q111 0 199.5 -41t151 -113t96.5 -170t34 -211v-45h-782q6 -63 30.5 -118.5t67.5 -97.5t103.5 -66.5t133.5 -24.5q78 0 158 29.5t135 87.5l86 -121q-74 -72 -175 -110t-222 -38q-111 0 -205 38t-161.5 105.5 t-106.5 164t-39 213.5zM264 1241q0 45 31 76t76 31t75.5 -31t30.5 -76t-30.5 -76.5t-75.5 -31.5t-76 31.5t-31 76.5zM279 567h604q-2 49 -19.5 101.5t-54.5 95.5t-93.5 70.5t-133.5 27.5q-74 0 -129.5 -26.5t-93 -69.5t-57 -95.5t-23.5 -103.5zM688 1241q0 45 32 76t77 31 t76.5 -31t31.5 -76t-31.5 -76.5t-76.5 -31.5t-77 31.5t-32 76.5z" />
<glyph unicode="&#xec;" horiz-adv-x="477" d="M-117 1434h182l295 -295h-135zM0 0zM147 0v989h185v-989h-185z" />
<glyph unicode="&#xed;" horiz-adv-x="477" d="M119 0zM119 1139l295 295h182l-342 -295h-135zM147 0v989h185v-989h-185z" />
<glyph unicode="&#xee;" horiz-adv-x="477" d="M-41 1139l193 295h172l198 -295h-121l-163 207l-160 -207h-119zM0 0zM147 0v989h185v-989h-185z" />
<glyph unicode="&#xef;" horiz-adv-x="477" d="M-80 1241q0 45 31 76t76 31t75.5 -31t30.5 -76t-30.5 -76.5t-75.5 -31.5t-76 31.5t-31 76.5zM0 0zM147 0v989h185v-989h-185zM344 1241q0 45 32 76t77 31t76.5 -31t31.5 -76t-31.5 -76.5t-76.5 -31.5t-77 31.5t-32 76.5z" />
<glyph unicode="&#xf0;" horiz-adv-x="1171" d="M86 473q0 106 34 197.5t93 157t141 103.5t181 38q98 0 178 -43t145 -140q-53 98 -137 184.5t-189 162.5l-294 -132l-39 97l235 102q-37 25 -73.5 47.5t-73.5 44.5l102 152q61 -37 120.5 -77t115.5 -83l217 96l41 -94l-168 -74q82 -72 150.5 -150.5t117.5 -166.5 t75.5 -184.5t26.5 -202.5q0 -115 -34.5 -213t-99 -169t-157 -111t-208.5 -40q-113 0 -205 38t-157.5 104.5t-101.5 158t-36 197.5zM279 473q0 -68 20 -128t59 -106t96.5 -73t131.5 -27t131 27t96 73t59.5 106.5t20.5 127.5q0 66 -20.5 126t-59.5 106.5t-96.5 74t-130.5 27.5 q-74 0 -131.5 -27.5t-96.5 -74t-59 -106.5t-20 -126z" />
<glyph unicode="&#xf1;" d="M147 0v989h185v-139q25 31 60.5 59.5t80.5 52t98.5 38t110.5 14.5q158 0 237.5 -81t79.5 -239v-694h-184v633q0 123 -57.5 170t-153.5 47q-86 0 -158.5 -44t-113.5 -99v-707h-185zM147 0zM250 1147q0 123 52 198.5t153 75.5q59 0 93 -32.5t60 -67.5q23 -29 43.5 -51.5 t51.5 -22.5q39 0 64.5 38t25.5 124h106q0 -123 -52.5 -198.5t-152.5 -75.5q-61 0 -95 32.5t-60 67.5q-20 29 -41 51.5t-51 22.5q-39 0 -66 -38t-27 -124h-104z" />
<glyph unicode="&#xf2;" horiz-adv-x="1171" d="M86 0zM86 496q0 106 35 200.5t99.5 165t157.5 111.5t208 41q117 0 209 -41t156.5 -111.5t99 -165t34.5 -200.5q0 -109 -34.5 -203t-99 -165t-156.5 -112t-209 -41q-115 0 -208 41t-157.5 112t-99.5 165t-35 203zM231 1434h182l295 -295h-135zM279 496q0 -72 20 -136.5 t59 -113.5t96.5 -78t131.5 -29t131 29t96 78t59.5 113.5t20.5 136.5q0 70 -20.5 134t-59.5 113.5t-96.5 78t-130.5 28.5q-74 0 -131.5 -28.5t-96.5 -78t-59 -114t-20 -133.5z" />
<glyph unicode="&#xf3;" horiz-adv-x="1171" d="M86 0zM86 496q0 106 35 200.5t99.5 165t157.5 111.5t208 41q117 0 209 -41t156.5 -111.5t99 -165t34.5 -200.5q0 -109 -34.5 -203t-99 -165t-156.5 -112t-209 -41q-115 0 -208 41t-157.5 112t-99.5 165t-35 203zM279 496q0 -72 20 -136.5t59 -113.5t96.5 -78t131.5 -29 t131 29t96 78t59.5 113.5t20.5 136.5q0 70 -20.5 134t-59.5 113.5t-96.5 78t-130.5 28.5q-74 0 -131.5 -28.5t-96.5 -78t-59 -114t-20 -133.5zM467 1139l295 295h182l-342 -295h-135z" />
<glyph unicode="&#xf4;" horiz-adv-x="1171" d="M86 0zM86 496q0 106 35 200.5t99.5 165t157.5 111.5t208 41q117 0 209 -41t156.5 -111.5t99 -165t34.5 -200.5q0 -109 -34.5 -203t-99 -165t-156.5 -112t-209 -41q-115 0 -208 41t-157.5 112t-99.5 165t-35 203zM279 496q0 -72 20 -136.5t59 -113.5t96.5 -78t131.5 -29 t131 29t96 78t59.5 113.5t20.5 136.5q0 70 -20.5 134t-59.5 113.5t-96.5 78t-130.5 28.5q-74 0 -131.5 -28.5t-96.5 -78t-59 -114t-20 -133.5zM305 1139l193 295h172l198 -295h-121l-163 207l-160 -207h-119z" />
<glyph unicode="&#xf5;" horiz-adv-x="1171" d="M86 0zM86 496q0 106 35 200.5t99.5 165t157.5 111.5t208 41q117 0 209 -41t156.5 -111.5t99 -165t34.5 -200.5q0 -109 -34.5 -203t-99 -165t-156.5 -112t-209 -41q-115 0 -208 41t-157.5 112t-99.5 165t-35 203zM262 1147q0 123 52 198.5t153 75.5q59 0 93 -32.5 t60 -67.5q23 -29 43.5 -51.5t51.5 -22.5q39 0 64.5 38t25.5 124h106q0 -123 -52.5 -198.5t-152.5 -75.5q-61 0 -95 32.5t-60 67.5q-20 29 -41 51.5t-51 22.5q-39 0 -66 -38t-27 -124h-104zM279 496q0 -72 20 -136.5t59 -113.5t96.5 -78t131.5 -29t131 29t96 78t59.5 113.5 t20.5 136.5q0 70 -20.5 134t-59.5 113.5t-96.5 78t-130.5 28.5q-74 0 -131.5 -28.5t-96.5 -78t-59 -114t-20 -133.5z" />
<glyph unicode="&#xf6;" horiz-adv-x="1171" d="M86 0zM86 496q0 106 35 200.5t99.5 165t157.5 111.5t208 41q117 0 209 -41t156.5 -111.5t99 -165t34.5 -200.5q0 -109 -34.5 -203t-99 -165t-156.5 -112t-209 -41q-115 0 -208 41t-157.5 112t-99.5 165t-35 203zM266 1241q0 45 31 76t76 31t75.5 -31t30.5 -76 t-30.5 -76.5t-75.5 -31.5t-76 31.5t-31 76.5zM279 496q0 -72 20 -136.5t59 -113.5t96.5 -78t131.5 -29t131 29t96 78t59.5 113.5t20.5 136.5q0 70 -20.5 134t-59.5 113.5t-96.5 78t-130.5 28.5q-74 0 -131.5 -28.5t-96.5 -78t-59 -114t-20 -133.5zM690 1241q0 45 32 76 t77 31t76.5 -31t31.5 -76t-31.5 -76.5t-76.5 -31.5t-77 31.5t-32 76.5z" />
<glyph unicode="&#xf7;" horiz-adv-x="1046" d="M59 629v123h928v-123h-928zM420 301q0 43 30.5 74t71.5 31q43 0 74 -31t31 -74q0 -41 -31 -70.5t-74 -29.5q-41 0 -71.5 29.5t-30.5 70.5zM420 1071q0 43 30.5 73t71.5 30q43 0 74 -30t31 -73q0 -41 -31 -72.5t-74 -31.5q-41 0 -71.5 31.5t-30.5 72.5z" />
<glyph unicode="&#xf8;" horiz-adv-x="1171" d="M86 496q0 106 35 200.5t99.5 165t157.5 111.5t208 41q84 0 154.5 -21.5t127.5 -60.5l47 57h127l-98 -121q68 -72 104.5 -167t36.5 -205q0 -109 -34.5 -203t-99 -165t-157 -112t-208.5 -41q-86 0 -160 24t-133 64l-51 -63h-125l102 127q-66 72 -99.5 166t-33.5 203z M279 496q0 -127 59 -222l422 521q-35 27 -79 41t-95 14q-74 0 -131.5 -28.5t-96.5 -78t-59 -113.5t-20 -134zM403 201q37 -29 82.5 -45.5t100.5 -16.5q74 0 131 29t96 78t59.5 113.5t20.5 136.5q0 131 -66 227z" />
<glyph unicode="&#xf9;" d="M147 0zM147 291v698h185v-637q0 -123 56 -168t153 -45q86 0 159.5 42t114.5 98v710h184v-989h-184v135q-57 -61 -147 -110.5t-205 -49.5q-315 0 -316 316zM215 1434h182l295 -295h-135z" />
<glyph unicode="&#xfa;" d="M147 0zM147 291v698h185v-637q0 -123 56 -168t153 -45q86 0 159.5 42t114.5 98v710h184v-989h-184v135q-57 -61 -147 -110.5t-205 -49.5q-315 0 -316 316zM451 1139l295 295h182l-342 -295h-135z" />
<glyph unicode="&#xfb;" d="M147 0zM147 291v698h185v-637q0 -123 56 -168t153 -45q86 0 159.5 42t114.5 98v710h184v-989h-184v135q-57 -61 -147 -110.5t-205 -49.5q-315 0 -316 316zM291 1139l193 295h172l198 -295h-121l-163 207l-160 -207h-119z" />
<glyph unicode="&#xfc;" d="M147 0zM147 291v698h185v-637q0 -123 56 -168t153 -45q86 0 159.5 42t114.5 98v710h184v-989h-184v135q-57 -61 -147 -110.5t-205 -49.5q-315 0 -316 316zM252 1241q0 45 31 76t76 31t75.5 -31t30.5 -76t-30.5 -76.5t-75.5 -31.5t-76 31.5t-31 76.5zM676 1241q0 45 32 76 t77 31t76.5 -31t31.5 -76t-31.5 -76.5t-76.5 -31.5t-77 31.5t-32 76.5z" />
<glyph unicode="&#xfd;" d="M135 0zM135 -254l88 135q57 -70 136 -100.5t165 -30.5q137 0 214 75t77 212v125q-57 -63 -147 -111.5t-205 -48.5q-315 0 -316 313v674h185v-610q0 -123 56 -168t153 -45q86 0 159.5 42t114.5 97v684h184v-952q0 -111 -36.5 -193t-101 -137t-152 -81.5t-185.5 -26.5 q-125 0 -218 35.5t-171 111.5zM451 1139l295 295h182l-342 -295h-135z" />
<glyph unicode="&#xfe;" horiz-adv-x="1177" d="M147 -377v1743h185v-518q53 74 138 120t185 46q96 0 177 -36t139.5 -102.5t91.5 -163t33 -216.5q0 -121 -33 -217.5t-91.5 -164t-139.5 -103.5t-177 -36q-98 0 -181 43t-142 125v-520h-185zM332 285q37 -59 112.5 -102.5t161.5 -43.5q70 0 124 27t93 74t59.5 112.5 t20.5 143.5q0 76 -20.5 141t-59.5 112.5t-93 74t-124 26.5q-84 0 -160.5 -43t-113.5 -102v-420z" />
<glyph unicode="&#xff;" d="M135 0zM135 -254l88 135q57 -70 136 -100.5t165 -30.5q137 0 214 75t77 212v125q-57 -63 -147 -111.5t-205 -48.5q-315 0 -316 313v674h185v-610q0 -123 56 -168t153 -45q86 0 159.5 42t114.5 97v684h184v-952q0 -111 -36.5 -193t-101 -137t-152 -81.5t-185.5 -26.5 q-125 0 -218 35.5t-171 111.5zM252 1241q0 45 31 76t76 31t75.5 -31t30.5 -76t-30.5 -76.5t-75.5 -31.5t-76 31.5t-31 76.5zM676 1241q0 45 32 76t77 31t76.5 -31t31.5 -76t-31.5 -76.5t-76.5 -31.5t-77 31.5t-32 76.5z" />
<glyph unicode="&#x152;" horiz-adv-x="2250" d="M94 682q0 154 49.5 283t137.5 222t210.5 146t272.5 53q68 0 135.5 -15t129 -46t113.5 -76t89 -106v223h915v-180h-710v-400h696v-180h-696v-426h710v-180h-915v221q-37 -61 -89 -107t-113.5 -77t-129.5 -46.5t-135 -15.5q-150 0 -272.5 53.5t-210.5 147.5t-137.5 223 t-49.5 283zM305 682q0 -113 34 -209t96.5 -165.5t151.5 -109.5t201 -40q150 0 266.5 76.5t176.5 226.5v442q-59 152 -176 226.5t-267 74.5q-113 0 -201.5 -39t-151 -108.5t-96.5 -165.5t-34 -209z" />
<glyph unicode="&#x153;" horiz-adv-x="1951" d="M86 496q0 106 35 200.5t99.5 165t157.5 111.5t208 41q88 0 154.5 -28t115.5 -67.5t82 -86t51 -84.5q18 39 51 86t82 87t115 66.5t152 26.5q111 0 199.5 -41t151 -113t95.5 -170t33 -211v-45h-781q6 -63 31 -118.5t68 -97.5t102.5 -66.5t132.5 -24.5q80 0 159 29.5 t136 87.5l86 -121q-76 -72 -177 -110t-220 -38q-92 0 -160.5 26t-119 64.5t-84 86t-54.5 88.5q-20 -39 -52 -85t-80 -86t-114.5 -67t-154.5 -27q-115 0 -208 41t-157.5 112t-99.5 165t-35 203zM279 496q0 -74 21.5 -139.5t61 -113.5t96 -77t128.5 -29t129 29t97 77 t60.5 113.5t20.5 139.5t-20.5 138t-60.5 112.5t-97.5 76t-128.5 27.5q-72 0 -128.5 -27.5t-96 -76t-61 -113t-21.5 -137.5zM1085 567h605q-2 49 -20.5 101.5t-55.5 95.5t-93.5 70.5t-134.5 27.5q-74 0 -129 -26.5t-92 -69.5t-57.5 -95.5t-22.5 -103.5z" />
<glyph unicode="&#x178;" horiz-adv-x="1294" d="M10 0zM10 1366h236l401 -610l397 610h238l-532 -795v-571h-205v571zM330 1583q0 45 31 76t76 31t75.5 -31t30.5 -76t-30.5 -76.5t-75.5 -31.5t-76 31.5t-31 76.5zM754 1583q0 45 32 76t77 31t76.5 -31t31.5 -76t-31.5 -76.5t-76.5 -31.5t-77 31.5t-32 76.5z" />
<glyph unicode="&#x2c6;" horiz-adv-x="563" d="M0 1139l193 295h172l198 -295h-121l-163 207l-160 -207h-119z" />
<glyph unicode="&#x2dc;" horiz-adv-x="649" d="M0 1147q0 123 52 198.5t153 75.5q59 0 93 -32.5t60 -67.5q23 -29 43.5 -51.5t51.5 -22.5q39 0 64.5 38t25.5 124h106q0 -123 -52.5 -198.5t-152.5 -75.5q-61 0 -95 32.5t-60 67.5q-20 29 -41 51.5t-51 22.5q-39 0 -66 -38t-27 -124h-104z" />
<glyph unicode="&#x2000;" horiz-adv-x="912" />
<glyph unicode="&#x2001;" horiz-adv-x="1825" />
<glyph unicode="&#x2002;" horiz-adv-x="912" />
<glyph unicode="&#x2003;" horiz-adv-x="1825" />
<glyph unicode="&#x2004;" horiz-adv-x="608" />
<glyph unicode="&#x2005;" horiz-adv-x="456" />
<glyph unicode="&#x2006;" horiz-adv-x="304" />
<glyph unicode="&#x2007;" horiz-adv-x="304" />
<glyph unicode="&#x2008;" horiz-adv-x="228" />
<glyph unicode="&#x2009;" horiz-adv-x="365" />
<glyph unicode="&#x200a;" horiz-adv-x="101" />
<glyph unicode="&#x2010;" horiz-adv-x="614" d="M61 416v159h492v-159h-492z" />
<glyph unicode="&#x2011;" horiz-adv-x="614" d="M61 416v159h492v-159h-492z" />
<glyph unicode="&#x2012;" horiz-adv-x="614" d="M61 416v159h492v-159h-492z" />
<glyph unicode="&#x2013;" horiz-adv-x="1214" d="M61 416v159h1092v-159h-1092z" />
<glyph unicode="&#x2014;" horiz-adv-x="1705" d="M61 416v159h1584v-159h-1584z" />
<glyph unicode="&#x2018;" horiz-adv-x="485" d="M92 1059q0 100 50.5 186t127.5 141l86 -69q-49 -31 -89 -85t-50 -108q4 2 13.5 3t17.5 1q47 0 79.5 -32.5t32.5 -83.5t-36.5 -88t-87.5 -37q-57 0 -100.5 45t-43.5 127z" />
<glyph unicode="&#x2019;" horiz-adv-x="485" d="M115 1260q0 53 35.5 89.5t89.5 36.5q57 0 100 -43.5t43 -125.5q0 -102 -51 -189.5t-129 -140.5l-86 69q49 31 90 86.5t49 106.5q-4 -2 -13.5 -4t-17.5 -2q-47 0 -78.5 32.5t-31.5 84.5z" />
<glyph unicode="&#x201a;" horiz-adv-x="487" d="M115 109q0 53 35.5 88.5t89.5 35.5q57 0 100 -44t43 -126q0 -100 -51 -187t-129 -142l-86 71q49 31 90 85.5t49 105.5q-4 0 -13.5 -2t-17.5 -2q-47 0 -78.5 32.5t-31.5 84.5z" />
<glyph unicode="&#x201c;" horiz-adv-x="837" d="M102 1059q0 100 50.5 186t128.5 141l88 -69q-49 -31 -91 -85t-51 -108q4 2 13.5 3t19.5 1q47 0 78 -32.5t31 -83.5t-36 -88t-89 -37q-57 0 -99.5 45t-42.5 127zM457 1059q0 100 49 186t127 141l88 -69q-49 -31 -90 -85t-49 -108q8 4 30 4q47 0 79 -32.5t32 -83.5t-36 -88 t-89 -37q-57 0 -99 45t-42 127z" />
<glyph unicode="&#x201d;" horiz-adv-x="837" d="M115 1260q0 53 35.5 89.5t89.5 36.5q57 0 100 -43.5t43 -125.5q0 -102 -51 -189.5t-129 -140.5l-86 69q49 31 90 86.5t49 106.5q-4 -2 -13.5 -4t-17.5 -2q-47 0 -78.5 32.5t-31.5 84.5zM467 1260q0 53 37 89.5t88 36.5q57 0 100 -43.5t43 -125.5q0 -102 -50 -189.5 t-128 -140.5l-86 69q49 31 89 86.5t50 106.5q-4 -2 -13 -4t-17 -2q-47 0 -80 32.5t-33 84.5z" />
<glyph unicode="&#x201e;" horiz-adv-x="839" d="M115 109q0 53 35.5 88.5t89.5 35.5q57 0 100 -44t43 -126q0 -100 -51 -187t-129 -142l-86 71q49 31 90 85.5t49 105.5q-4 0 -13.5 -2t-17.5 -2q-47 0 -78.5 32.5t-31.5 84.5zM467 109q0 53 37 88.5t88 35.5q57 0 100 -44t43 -126q0 -100 -50 -187t-128 -142l-86 71 q49 31 89 85.5t50 105.5q-4 0 -13 -2t-17 -2q-47 0 -80 32.5t-33 84.5z" />
<glyph unicode="&#x2022;" horiz-adv-x="733" d="M141 496q0 47 18.5 88t49.5 71.5t72 49t88 18.5t88 -18.5t71.5 -49t49 -71.5t18.5 -88t-18.5 -88t-49 -72t-71.5 -48.5t-88 -17.5t-88 17.5t-72 48.5t-49.5 72t-18.5 88z" />
<glyph unicode="&#x2026;" horiz-adv-x="1458" d="M115 106q0 53 36.5 90t90.5 37q53 0 90 -37t37 -90q0 -51 -37 -88.5t-90 -37.5t-90 37.5t-37 88.5zM600 106q0 53 37 90t90 37t91 -37t38 -90q0 -51 -38 -88.5t-91 -37.5t-90 37.5t-37 88.5zM1087 106q0 53 37 90t90 37t90 -37t37 -90q0 -51 -36.5 -88.5t-90.5 -37.5 q-53 0 -90 37.5t-37 88.5z" />
<glyph unicode="&#x202f;" horiz-adv-x="365" />
<glyph unicode="&#x2039;" horiz-adv-x="628" d="M61 498l328 362h178l-327 -362l327 -369h-178z" />
<glyph unicode="&#x203a;" horiz-adv-x="628" d="M61 129l328 369l-328 362h179l327 -362l-327 -369h-179z" />
<glyph unicode="&#x205f;" horiz-adv-x="456" />
<glyph unicode="&#x20ac;" horiz-adv-x="1431" d="M57 477v123h86q-4 20 -4 39.5v42.5v43t4 43h-86v123h109q33 113 97.5 205t153.5 157.5t198.5 100.5t232.5 35q98 0 178 -23t146.5 -61.5t117.5 -92t92 -112.5l-174 -92q-53 86 -148 142t-212 56q-162 0 -285 -85t-176 -230h586v-123h-617q-6 -43 -6 -86q0 -23 1 -42 t3 -40h619v-123h-588q53 -147 176 -233t287 -86q117 0 212 56t148 142l174 -92q-41 -59 -93 -112.5t-117.5 -92.5t-145.5 -61.5t-178 -22.5q-123 0 -233.5 35t-199.5 100.5t-153.5 158.5t-95.5 208h-109z" />
<glyph unicode="&#x2122;" horiz-adv-x="929" d="M35 1313v53h311v-53h-127v-398h-57v398h-127zM420 915v451h88l131 -328l131 328h88v-451h-57v373l-154 -373h-16l-154 373v-373h-57z" />
<glyph unicode="&#x25fc;" horiz-adv-x="993" d="M0 0v993h993v-993h-993z" />
</font>
</defs>
</svg>
