<svg xmlns="http://www.w3.org/2000/svg" width="263" height="100" viewBox="0 -36.5 263 100"><path fill="#005A78" d="M38.99-3.682l-4.044 5.55c-2.024 2.821-1.398 7.757 1.366 9.75l7.494 5.408c1.277.938 1.396 1.856.787 2.829l1.085.816 3.79-5.261c2.345-3.232 2.143-7.658-1.34-10.202L40.575-.293c-.904-.653-1.004-1.582-.501-2.628l-1.084-.761zm6.488-24.608l-6.287 8.704c-2.957 4.062-1.881 11.042 2.151 14.014l10.339 7.593c2.093 1.527 2.377 5.452.845 7.475l.87.653L60.538.1c3.207-4.499 3.016-11.179-2.015-14.819l-11.065-8.035c-1.548-1.13-2.323-3.05-1.026-4.868l-.954-.668zM28.891 26.29h8.335l1.492 5.069h13.631l1.479-5.069h8.335l-1.086-3.714H29.986l-1.095 3.714zm.633 23.085h-5v-4.184h5c3.669 0 3.448 4.184 0 4.184zm17.108 0h-4.976v-4.184h4.984c3.684 0 3.455 4.184-.008 4.184zm17.133 0h-5.001v-4.184h5.001c3.673 0 3.452 4.184 0 4.184zm-34.586-7.466h-4.654v-3.908h4.474c2.809 0 2.907 3.908.18 3.908zm17.124 0h-4.646v-3.908h4.474c2.795 0 2.898 3.908.172 3.908zm17.117 0h-4.656v-3.908h4.479c2.804 0 2.903 3.908.177 3.908zm-27.358 5.127c-.354-2.406-1.317-2.985-3.262-3.83 1.468-.865 2.368-2.122 2.368-3.851 0-3.468-2.829-4.862-5.919-4.862H20.62v18.34h8.55c3.639 0 7.515-1.592 6.892-5.797zm17.122 0c-.354-2.406-1.321-2.985-3.262-3.83 1.469-.865 2.363-2.122 2.363-3.851 0-3.468-2.824-4.862-5.913-4.862H37.75v18.34h8.543c3.639 0 7.514-1.592 6.891-5.797zm17.118 0c-.358-2.406-1.326-2.985-3.257-3.83 1.469-.865 2.362-2.122 2.362-3.851 0-3.468-2.839-4.862-5.914-4.862h-8.619v18.34h8.537c3.653 0 7.514-1.592 6.891-5.797zm1.648 5.188c0-.068 0-.138-.028-.196-.01-.059-.048-.117-.099-.157-.044-.077-.103-.108-.189-.147-.075-.039-.174-.079-.297-.127-.106-.039-.202-.079-.261-.118-.068-.021-.121-.06-.151-.088-.04-.03-.059-.069-.069-.1-.01-.038-.019-.069-.019-.127 0-.039.009-.079.019-.119.011-.039.04-.077.069-.097.03-.021.074-.041.132-.059.05-.011.128-.011.203-.011.098 0 .2.011.279.069.084.02.152.078.23.137l.152-.206c-.099-.049-.192-.108-.288-.147-.095-.039-.212-.059-.365-.059-.103 0-.192 0-.27.04-.083.019-.153.058-.211.106-.064.039-.104.108-.145.159-.027.066-.038.146-.038.216 0 .087.011.156.029.205.009.059.05.098.098.158.056.06.113.107.192.137.083.05.182.09.295.118.099.038.177.078.24.099.06.038.108.098.163.117.028.03.059.068.077.098.021.05.021.079.021.139 0 .118-.039.215-.123.255-.078.068-.201.108-.338.108-.113 0-.212-.04-.315-.078-.089-.039-.182-.109-.251-.188l-.161.177c.084.089.191.157.313.216.109.06.25.079.402.079.109 0 .212 0 .301-.04.085-.039.161-.079.212-.116.062-.061.113-.128.151-.188.031-.107.04-.167.04-.265zm2.217.55v-2.083h-.256l-.502 1.257c-.02.039-.028.071-.048.1-.01.038-.02.066-.029.117-.01.02-.03.059-.039.118-.016.019-.025.058-.025.078 0-.021-.01-.06-.029-.078-.02-.049-.029-.088-.039-.118-.01-.051-.021-.079-.04-.117-.02-.028-.028-.061-.039-.1l-.516-1.257h-.271v2.083h.221v-1.631c0 .02.01.05.021.077 0 .04.02.06.029.1.011.029.02.06.03.098.009.039.02.06.044.078l.56 1.337.566-1.337c.008-.019.028-.059.037-.078.01-.038.02-.068.03-.098.009-.04.028-.06.039-.1 0-.027.015-.058.015-.077v1.631h.241z"/><g fill="#005A78"><path d="M190.099 6.167c.619-.23 1.149-.555 1.562-.977.393-.423.705-.923.912-1.499.207-.604.305-1.257.305-1.969 0-1.591-.393-2.8-1.14-3.596-.775-.805-2.033-1.193-3.781-1.193h-1.76v9.592h1.632c.865-.019 1.611-.128 2.27-.358zm-76.202 19.514h-4.283v4.048h4.283c.786 0 1.361-.177 1.745-.529.367-.375.558-.886.558-1.505 0-1.346-.761-2.014-2.303-2.014zm49.118-26.769c0-.711-.216-1.237-.619-1.537-.422-.305-1.011-.453-1.759-.453h-4.321V.945h4.321c1.592 0 2.378-.663 2.378-2.033zm-49.446-.01c-.163-.441-.276-.825-.354-1.124-.079.299-.202.683-.354 1.124-.137.422-.3.865-.472 1.326l-1.065 2.859h3.781L114.039.228c-.172-.461-.332-.914-.47-1.326z"/><path d="M250.512-36.044H89.649v98.572h160.862c6.259 0 11.308-5.068 11.308-11.324v-75.921c0-6.254-5.048-11.327-11.307-11.327zM199.5-6.127h3.3V9.566h-3.3V-6.127zm-16.603 0h5.177c1.18 0 2.27.133 3.271.413 1.002.27 1.866.728 2.604 1.346.727.639 1.297 1.43 1.72 2.436.421.998.628 2.215.628 3.645 0 1.375-.235 2.564-.718 3.545-.472.998-1.109 1.823-1.896 2.457-.805.624-1.708 1.095-2.729 1.4-1.021.299-2.053.452-3.104.452h-4.941V-6.127h-.012zm-14.321 0h11.512v3.07h-8.173v2.706h6.856v3.055h-6.856v3.783h8.527v3.079h-11.847V-6.127h-.019zm-49.477 35.972c-.27.629-.651 1.161-1.153 1.572-.496.452-1.101.766-1.812.974-.693.226-1.48.324-2.343.324h-7.324V17.026h7.382c1.572 0 2.815.354 3.734 1.061.922.718 1.384 1.73 1.384 3.065 0 .688-.146 1.286-.441 1.817-.3.531-.722.942-1.258 1.237.643.295 1.181.718 1.61 1.297.424.569.644 1.278.644 2.142-.001.826-.142 1.572-.423 2.2zm-1.557-20.279l-1.311-3.492h-6.042l-1.302 3.492h-3.552l6.342-15.693h3.206l6.288 15.693h-3.629zM134.724 25.8c0 2.278-.575 4.045-1.725 5.295-1.153 1.247-2.756 1.876-4.818 1.876-.963 0-1.847-.168-2.652-.482-.815-.306-1.488-.756-2.062-1.375-.574-.599-1.007-1.365-1.316-2.229-.314-.885-.477-1.907-.477-3.045v-8.812h3.231V25.8c0 1.266.291 2.258.875 3.004.584.727 1.39 1.09 2.412 1.09 1.026 0 1.832-.352 2.436-1.069.595-.727.874-1.71.874-2.967v-8.816h3.223V25.8zm-5.757-15.993c-1.095 0-2.072-.192-2.958-.575-.873-.378-1.639-.933-2.282-1.625-.635-.708-1.126-1.552-1.479-2.534-.343-.998-.511-2.118-.511-3.36 0-1.198.183-2.309.541-3.281.364-.997.863-1.852 1.508-2.554.647-.717 1.43-1.257 2.318-1.669.903-.394 1.891-.605 2.985-.605.763 0 1.469.079 2.092.271 1.459.393 2.987 1.43 3.966 2.535l-2.295 2.215c-.825-1.066-2.577-1.892-3.812-1.892-.614 0-1.168.118-1.66.359-.485.255-.908.595-1.228 1.036-.323.452-.584.968-.766 1.572-.172.614-.251 1.277-.251 1.999 0 .708.079 1.371.251 1.975.182.595.432 1.115.775 1.558.339.461.742.814 1.238 1.056.491.24 1.035.393 1.66.393 1.257 0 3.34-.953 4.002-2.008l2.343 2.083c-.975 1.955-4.444 3.051-6.437 3.051zm20.216 20.207c-.273.619-.638 1.129-1.158 1.571-.531.442-1.18.786-1.965 1.031-.795.227-1.748.354-2.849.354-1.355 0-2.583-.256-3.675-.767-1.1-.512-1.984-1.198-2.583-2.084l2.328-2.022c.56.648 1.18 1.119 1.887 1.395.688.256 1.453.413 2.219.413.983 0 1.69-.139 2.123-.394.471-.274.688-.708.688-1.306 0-.266-.049-.481-.138-.659-.099-.186-.265-.354-.53-.538-.235-.169-.628-.326-1.081-.463-.48-.177-1.08-.314-1.847-.473-.746-.178-1.425-.362-2.023-.589-.628-.227-1.159-.52-1.602-.846-.451-.353-.796-.784-1.051-1.315-.245-.521-.374-1.159-.374-1.945 0-.706.167-1.355.473-1.925.274-.562.688-1.047 1.218-1.449.53-.394 1.139-.692 1.827-.902.688-.213 1.454-.326 2.26-.326 1.257 0 2.348.231 3.29.653.934.433 1.818 1.052 2.563 1.809l-2.317 2.22c-.511-.53-1.07-.943-1.66-1.208-.6-.266-1.248-.414-1.994-.414-.432 0-.786.04-1.081.148-.285.06-.511.177-.696.314-.207.138-.326.254-.402.441-.08.167-.119.336-.119.521 0 .246.068.473.157.62.099.187.274.324.529.471.236.147.57.246.983.384.413.117.942.235 1.592.403.629.146 1.276.323 1.915.53.639.205 1.208.479 1.729.834.5.354.934.815 1.257 1.376.324.569.472 1.258.472 2.102-.021.729-.129 1.415-.365 2.035zm-4.951-20.207c-1.081 0-2.082-.192-2.946-.575-.884-.378-1.651-.933-2.299-1.625-.629-.708-1.12-1.552-1.475-2.534-.334-.998-.52-2.118-.52-3.36 0-1.198.186-2.309.54-3.281.374-.997.884-1.852 1.512-2.554.629-.717 1.435-1.257 2.318-1.669.895-.394 1.887-.605 2.987-.605.767 0 1.453.079 2.091.271 1.465.393 2.997 1.43 3.979 2.535l-2.308 2.215c-.825-1.066-2.583-1.892-3.821-1.892-.618 0-1.159.118-1.65.359-.49.255-.903.595-1.228 1.036-.333.452-.6.968-.756 1.572-.158.604-.255 1.277-.255 1.999 0 .708.097 1.371.255 1.975.176.595.423 1.115.766 1.558.334.461.746.814 1.247 1.056.481.25 1.052.393 1.66.393 1.238 0 3.321-.953 3.988-2.008l2.358 2.083c-.981 1.955-4.439 3.051-6.443 3.051zm11.129 22.908h-3.212V17.026h3.212v15.689zm.954-23.149h-3.301V-6.127h7.712c.756 0 1.503.099 2.19.294.697.197 1.307.511 1.828.943.51.413.922.924 1.217 1.538.305.624.472 1.351.472 2.195 0 1.174-.275 2.151-.806 2.907-.511.742-1.709 1.444-2.751 1.847l3.675 5.958h-3.832l-3.437-5.525-2.968-.127v5.663h.001zm15.453 23.149h-2.878l-5.935-8.567c-.196-.293-.393-.618-.628-.952-.207-.344-.373-.619-.491-.824v.679c.02.273.02.598.02.942 0 .314 0 .646.02.981 0 .324.02.609.02.845v6.896h-3.183V17.026h3.105l5.697 8.291c.195.303.412.618.628.953.217.343.393.629.49.825 0-.147 0-.374-.019-.639v-.953c0-.354-.019-.667-.019-1.011 0-.325-.02-.6-.02-.825v-6.642h3.182v15.688h.011zm15.354 0h-11.827V17.026h11.473V20.1h-8.174v2.703h6.888v3.055h-6.888v3.792h8.537v3.065h-.009zm12.79-2.701c-.226.619-.619 1.129-1.14 1.571-.512.442-1.179.786-1.965 1.031-.786.227-1.739.354-2.838.354-1.347 0-2.585-.256-3.686-.767-1.1-.512-1.964-1.198-2.583-2.084l2.318-2.022c.58.648 1.209 1.119 1.915 1.395.688.274 1.435.413 2.201.413.982 0 1.689-.139 2.142-.394.462-.274.668-.708.668-1.306 0-.266-.049-.481-.138-.659-.078-.186-.274-.354-.53-.538-.245-.169-.608-.326-1.081-.463-.472-.177-1.08-.314-1.845-.473-.729-.178-1.396-.362-2.024-.589-.629-.227-1.17-.52-1.612-.846-.441-.353-.786-.784-1.021-1.315-.256-.521-.395-1.159-.395-1.945 0-.706.168-1.355.463-1.925.284-.562.718-1.047 1.228-1.449.521-.394 1.139-.692 1.837-.902.679-.213 1.444-.326 2.25-.326 1.257 0 2.357.231 3.301.653.942.433 1.808 1.052 2.572 1.809l-2.337 2.22c-.511-.53-1.062-.943-1.66-1.208-.58-.266-1.238-.414-1.983-.414-.442 0-.778.04-1.092.148-.285.06-.512.177-.707.314-.177.138-.304.254-.392.441-.071.167-.118.336-.118.521 0 .246.058.473.166.62.107.187.246.324.521.471.236.147.57.246 1.004.384.392.117.931.235 1.571.403.638.146 1.274.323 1.914.53.64.205 1.218.479 1.738.834.511.354.943.815 1.257 1.376.314.569.474 1.258.474 2.102-.02.729-.138 1.415-.393 2.035zm13.85 0c-.235.619-.618 1.129-1.157 1.571-.512.442-1.16.786-1.955 1.031-.796.227-1.74.354-2.84.354-1.354 0-2.573-.256-3.692-.767-1.081-.512-1.936-1.198-2.555-2.084l2.318-2.022c.56.648 1.178 1.119 1.885 1.395.709.274 1.455.413 2.222.413.982 0 1.688-.139 2.15-.394.442-.274.658-.708.658-1.306 0-.266-.039-.481-.138-.659-.089-.186-.255-.354-.511-.538-.257-.169-.629-.326-1.091-.463-.479-.177-1.069-.314-1.847-.473-.735-.178-1.424-.362-2.023-.589-.618-.227-1.169-.52-1.611-.846-.452-.353-.795-.784-1.051-1.315-.235-.521-.354-1.159-.354-1.945 0-.706.147-1.355.442-1.925.305-.562.697-1.047 1.237-1.449.521-.394 1.13-.692 1.827-.902.708-.213 1.444-.326 2.25-.326 1.258 0 2.358.231 3.3.653.944.433 1.808 1.052 2.574 1.809l-2.328 2.22c-.521-.53-1.07-.943-1.659-1.208-.59-.266-1.269-.414-1.995-.414-.432 0-.795.04-1.071.148-.293.06-.549.177-.717.314-.186.138-.314.254-.393.441-.068.167-.128.336-.128.521 0 .246.07.473.167.62.088.187.275.324.521.471.245.147.59.246.981.384.412.117.963.235 1.592.403.648.146 1.298.323 1.926.53.629.205 1.208.479 1.718.834.522.354.934.815 1.259 1.376.324.569.501 1.258.501 2.102-.037.729-.175 1.415-.412 2.035zm4.451-33.052h-4.744V9.556h-3.311V-3.038h-4.745v-3.09h12.789v3.09h.011zm13.959 12.604h-11.837V-6.127h11.503v3.07h-8.174v2.706h6.857v3.055h-6.857v3.783h8.528v3.079h-.02zm15.167-4.309c-.49.998-1.118 1.823-1.905 2.457-.796.624-1.709 1.095-2.731 1.4-1.012.299-2.043.452-3.104.452h-4.933V-6.127h5.168c1.179 0 2.27.133 3.281.413 1.003.27 1.857.728 2.594 1.346.747.639 1.297 1.43 1.729 2.436.423.998.619 2.215.619 3.645 0 1.374-.246 2.563-.718 3.544z"/><path d="M239.716-3.078h-1.737v9.592h1.62c.854 0 1.62-.117 2.259-.348.629-.23 1.15-.555 1.562-.977.412-.423.719-.923.934-1.499.196-.604.304-1.257.304-1.969 0-1.591-.402-2.8-1.169-3.596-.767-.814-2.024-1.203-3.773-1.203zM115.298 22.498c.27-.294.403-.629.403-1.06 0-.512-.163-.887-.463-1.122-.304-.255-.805-.393-1.512-.393h-4.103v2.987h4.263c.666.001 1.142-.136 1.412-.412z"/></g><path fill="#005A78" d="M88.198-34.596v95.682H11.797c-5.442 0-9.858-4.44-9.858-9.883v-75.921c0-5.442 4.425-9.868 9.858-9.868h76.401m1.451-1.458H11.797C5.559-36.044.481-30.97.481-24.728v75.921c0 6.257 5.069 11.325 11.316 11.325h77.852v-98.562z"/></svg>