<?xml version="1.0" encoding="UTF-8" standalone="no"?>
<svg viewBox="0 0 33 33" version="1.1" xmlns="http://www.w3.org/2000/svg" xmlns:xlink="http://www.w3.org/1999/xlink" xmlns:sketch="http://www.bohemiancoding.com/sketch/ns">
    <!-- Generator: Sketch 3.4.3 (16044) - http://www.bohemiancoding.com/sketch -->
    <title>domino-with-circle</title>
    <desc>Created with Sketch.</desc>
    <defs></defs>
    <g id="Page-1" stroke="none" stroke-width="1" fill="none" fill-rule="evenodd" sketch:type="MSPage">
        <g id="Footer-md" sketch:type="MSArtboardGroup" transform="translate(-439.000000, -822.000000)" fill="#000000">
            <g id="domino-with-circle" sketch:type="MSLayerGroup" transform="translate(439.000000, 822.000000)">
                <g id="Domino_w_x2F__circle" sketch:type="MSShapeGroup">
                    <path d="M16.32,-1.52766688e-13 C7.3066,-1.52766688e-13 3.90798505e-14,7.3066 3.90798505e-14,16.32 C3.90798505e-14,25.3334 7.3066,32.64 16.32,32.64 C25.3334,32.64 32.64,25.3334 32.64,16.32 C32.64,7.3066 25.3334,-1.52766688e-13 16.32,-1.52766688e-13 Z M19.2311243,22.5940693 L19.0048367,22.5940693 L19.0048367,22.5312195 L19.5328412,22.5312195 L19.5328412,22.5940693 L19.3065536,22.5940693 L19.3065536,23.1282927 L19.2311243,23.1282927 L19.2311243,22.5940693 L19.2311243,22.5940693 Z M19.6970107,22.5312195 L19.7724399,22.5312195 L20.0164757,22.8572529 L20.2605114,22.5312195 L20.3359406,22.5312195 L20.3359406,23.1282927 L20.2605114,23.1282927 L20.2605114,22.6451348 L20.0164757,22.9633119 L20.0120387,22.9633119 L19.7680029,22.6451348 L19.7680029,23.1243646 L19.6925737,23.1243646 L19.6925737,22.5312195 L19.6970107,22.5312195 Z M21.8800212,9.80806162 L22.6742466,10.0594608 L22.3148485,10.7311682 L23.0735777,10.412991 L23.3575466,11.1161232 L23.6415154,10.412991 L24.4002447,10.7311682 L24.0408466,10.0594608 L24.835072,9.80806162 L24.0408466,9.55666239 L24.4002447,8.88495507 L23.6415154,9.20313222 L23.3575466,8.5 L23.0735777,9.20313222 L22.3148485,8.88495507 L22.6742466,9.55666239 L21.8800212,9.80806162 L21.8800212,9.80806162 Z M16.320931,8.99494223 C16.320931,8.99494223 16.295431,8.99494223 16.320931,8.99494223 L16.320931,8.99494223 Z M19.5239672,11.3007445 C20.7263978,11.6699872 22.0175686,11.8781772 23.3619836,11.8781772 C24.7063986,11.8781772 25.9975694,11.6699872 27.2,11.3007445 L19.5239672,11.3007445 L19.5239672,11.3007445 Z M16.0453489,22.5233633 C17.447445,21.297792 18.4014029,19.7226187 18.774112,17.9981772 C18.9649036,17.1143517 19.0003997,16.2265982 18.8850373,15.3545571 C20.7618939,15.1110141 22.4168998,14.0897047 23.3264875,12.6127343 C23.3397985,12.5930937 23.3353615,12.5655969 23.3131765,12.5498845 C23.2954284,12.534172 23.2643693,12.5302439 23.2421843,12.5459564 C22.0708128,13.2215918 20.7086497,13.543697 19.3109906,13.4808472 C18.2816035,13.4337099 17.3098976,13.1823107 16.418058,12.7345058 C16.3958729,12.7227214 16.3648138,12.7266496 16.3470658,12.742362 C16.3293177,12.7580745 16.3248807,12.7855712 16.3381918,12.8052118 C17.42526,14.376457 17.9044574,16.1794608 17.7181029,18.0217458 C17.5273113,19.9229525 16.6487827,21.6631065 15.1845683,23.0615148 C15.1623833,23.0811553 15.1623833,23.1125802 15.1845683,23.1322208 C15.1978794,23.1440051 15.2111904,23.1479332 15.2289385,23.1479332 L18.6188165,23.1479332 C18.6365646,23.1479332 18.6543126,23.1322208 18.6543126,23.1165083 C18.6543126,23.1007959 18.6454386,23.0890116 18.6276906,23.0850834 L16.0453489,22.5233633 L16.0453489,22.5233633 Z M10.5567636,15.8652118 C11.2977448,15.8298588 11.9278007,16.3326573 11.9677338,16.9886521 C11.9677338,16.9886521 12.1762734,19.4280103 11.7236981,21.5295507 C11.5195954,22.3465982 11.0892052,23.2736329 10.1840545,23.7057253 C10.1618694,23.7175096 10.1485584,23.7371502 10.1529954,23.7607189 C10.1574324,23.7842875 10.1796175,23.8 10.2062395,23.8 C11.7858162,23.8 13.2589046,23.104724 14.1463072,21.9459307 C15.6282696,20.2214891 16.413621,18.1631579 16.413621,15.9909114 C16.413621,15.0403081 16.2583255,14.1014891 15.9521716,13.1901669 C15.752506,12.6127343 15.739195,12.2159949 15.739195,12.2159949 C15.739195,10.794018 17.0481139,9.63522465 18.6587496,9.63522465 C18.6720607,9.63522465 18.6898087,9.63129653 18.6986828,9.6195122 C18.7075568,9.61165597 18.7164308,9.59594352 18.7164308,9.58415918 C18.7119938,9.48202824 18.6631867,9.39953787 18.5744464,9.33275995 C18.2327964,9.08921694 17.3808898,9.2267009 17.3453937,9.23062901 C17.3453937,9.23062901 16.8440113,9.30919127 16.3115697,8.99101412 C15.8944904,8.73568678 15.3842339,8.58641849 14.8384813,8.58641849 C14.1285592,8.58641849 13.4851923,8.83781772 13.0148689,9.24634146 C12.3537539,9.80020539 11.9854818,10.6604621 11.9144896,11.7917587 C11.9144896,13.2608729 10.1174993,14.1446983 9.75810122,14.305751 C8.55123364,14.8713992 7.47303944,15.7709371 6.80748746,16.8550963 C6.79417642,16.878665 6.79861343,16.9100899 6.8207985,16.9258023 C6.84298357,16.9454429 6.87847967,16.9454429 6.90510175,16.9336585 C8.00991803,16.2973042 9.25671873,15.939846 10.5567636,15.8652118 L10.5567636,15.8652118 Z" id="Shape"></path>
                </g>
            </g>
        </g>
    </g>
</svg>