<?xml version="1.0" encoding="UTF-8" standalone="no"?>
<svg width="142px" height="40px" viewBox="0 0 142 40" version="1.1" xmlns="http://www.w3.org/2000/svg" xmlns:xlink="http://www.w3.org/1999/xlink" xmlns:sketch="http://www.bohemiancoding.com/sketch/ns">
    <!-- Generator: Sketch 3.3.2 (12043) - http://www.bohemiancoding.com/sketch -->
    <title>00-domino-logo-gold</title>
    <desc>This browser can't display SVG's :(.</desc>
    <defs></defs>
    <g id="Page-1" stroke="none" stroke-width="1" fill="none" fill-rule="evenodd" sketch:type="MSPage">
        <g id="Homepage" sketch:type="MSArtboardGroup" transform="translate(-105.000000, -10.000000)">
            <g id="viewport-1" sketch:type="MSLayerGroup" transform="translate(20.000000, -115.000000)">
                <g id="navbar" transform="translate(0.000000, 115.000000)" sketch:type="MSShapeGroup">
                    <g id="00-domino-logo-gold" transform="translate(85.000000, 10.000000)">
                        <g id="domino" transform="translate(51.651302, 11.428571)">
                            <path d="M11.4623797,17.6669553 L11.4623797,16.420202 C10.4000686,17.8704185 8.73411316,18.8268398 6.57860815,18.8268398 C2.52895812,18.8268398 0.259930227,15.4634921 0.259930227,11.6366522 C0.259930227,7.80952381 2.52895812,4.44646465 6.57860815,4.44646465 C8.73411316,4.44646465 10.4000686,5.402886 11.4623797,6.85310245 L11.4623797,0.996536797 C11.4623797,0.038961039 12.8984299,0.038961039 12.8984299,0.996536797 L12.8984299,17.6669553 C12.8984299,18.6233766 11.4623797,18.6233766 11.4623797,17.6669553 M6.57860815,5.8966811 C3.56238809,5.8966811 1.69569444,8.33131313 1.69569444,11.6366522 C1.69569444,14.9419913 3.56238809,17.3766234 6.57860815,17.3766234 C9.59568607,17.3766234 11.4623797,14.9419913 11.4623797,11.6366522 C11.4623797,8.33131313 9.59568607,5.8966811 6.57860815,5.8966811" id="Fill-1"></path>
                            <path d="M23.2384486,18.8265512 C19.1876548,18.8265512 16.9186269,15.4634921 16.9186269,11.6363636 C16.9186269,7.80952381 19.1876548,4.44617605 23.2384486,4.44617605 C27.2892424,4.44617605 29.5582703,7.80952381 29.5582703,11.6363636 C29.5582703,15.4634921 27.2892424,18.8265512 23.2384486,18.8265512 M23.2384486,5.8963925 C20.2222285,5.8963925 18.3555349,8.33102453 18.3555349,11.6363636 C18.3555349,14.9417027 20.2222285,17.3774892 23.2384486,17.3774892 C26.2543827,17.3774892 28.1210764,14.9417027 28.1210764,11.6363636 C28.1210764,8.33102453 26.2543827,5.8963925 23.2384486,5.8963925" id="Fill-2"></path>
                            <path d="M49.2623541,17.6669553 L49.2623541,9.14314574 C49.2623541,7.34574315 47.8265899,5.8966811 46.074563,5.8966811 C44.2925111,5.8966811 42.8567469,7.34574315 42.8567469,9.11428571 L42.8567469,17.6669553 C42.8567469,18.6233766 41.4209826,18.6233766 41.4209826,17.6669553 L41.4209826,9.14314574 C41.4209826,7.34574315 39.9837887,5.8966811 38.2317617,5.8966811 C36.4508536,5.8966811 35.0139456,7.34574315 35.0139456,9.11428571 L35.0139456,17.6669553 C35.0139456,18.6233766 33.5781814,18.6233766 33.5781814,17.6669553 L33.5781814,5.60634921 C33.5781814,4.64992785 35.0139456,4.64992785 35.0139456,5.60634921 L35.0139456,5.75093795 C35.8472093,4.93910534 36.9678545,4.44646465 38.2031665,4.44646465 C39.8694079,4.44646465 41.3051721,5.31630592 42.1381499,6.62077922 C42.9714135,5.31630592 44.4083216,4.44646465 46.044824,4.44646465 C48.6309725,4.44646465 50.6984043,6.53391053 50.6984043,9.11428571 L50.6984043,17.6669553 C50.6984043,18.6233766 49.2623541,18.6233766 49.2623541,17.6669553" id="Fill-3"></path>
                            <path d="M55.4935308,17.6669553 L55.4935308,5.60634921 C55.4935308,4.64992785 56.9304388,4.64992785 56.9304388,5.60634921 L56.9304388,17.6669553 C56.9304388,18.6233766 55.4935308,18.6233766 55.4935308,17.6669553" id="Fill-4"></path>
                            <path d="M72.0103953,17.6669553 L72.0103953,10.2453102 C72.0103953,7.83867244 70.0853675,5.8966811 67.7019589,5.8966811 C65.3171205,5.8966811 63.3920927,7.83867244 63.3920927,10.2453102 L63.3920927,17.6669553 C63.3920927,18.6233766 61.9563284,18.6233766 61.9563284,17.6669553 L61.9563284,5.60634921 C61.9563284,4.64992785 63.3920927,4.64992785 63.3920927,5.60634921 L63.3920927,6.41847042 C64.4555476,5.2005772 65.9782412,4.44646465 67.7019589,4.44646465 C70.8611549,4.44646465 73.4464455,7.05569986 73.4464455,10.2453102 L73.4464455,17.6669553 C73.4464455,18.6233766 72.0103953,18.6233766 72.0103953,17.6669553" id="Fill-5"></path>
                            <path d="M83.556273,18.8265512 C79.5054791,18.8265512 77.2364512,15.4634921 77.2364512,11.6363636 C77.2364512,7.80952381 79.5054791,4.44617605 83.556273,4.44617605 C87.606209,4.44617605 89.8760947,7.80952381 89.8760947,11.6363636 C89.8760947,15.4634921 87.606209,18.8265512 83.556273,18.8265512 M83.556273,5.8963925 C80.5403389,5.8963925 78.6725014,8.33102453 78.6725014,11.6363636 C78.6725014,14.9417027 80.5403389,17.3774892 83.556273,17.3774892 C86.572493,17.3774892 88.4391867,14.9417027 88.4391867,11.6363636 C88.4391867,8.33102453 86.572493,5.8963925 83.556273,5.8963925" id="Fill-6"></path>
                        </g>
                        <g id="Logo">
                            <path d="M34.0690672,28.3086567 C34.1402416,26.8680597 35.3612745,25.7576119 36.7970206,25.8287761 C38.2333619,25.9000597 39.3390638,27.126209 39.2682465,28.5665672 C39.1974292,30.0072836 37.9762773,31.1168955 36.539936,31.0454925 C35.1041898,30.9743284 33.9980119,29.7490149 34.0690672,28.3086567" id="Fill-7"></path>
                            <path d="M36.0977743,21.7254925 C35.6090755,20.4595821 36.2357192,19.0357015 37.4978142,18.5459104 C38.7589571,18.0552836 40.1778023,18.6848955 40.6668582,19.950209 C41.1550809,21.2162388 40.5285562,22.6396418 39.2666992,23.1299104 C38.0051993,23.6195821 36.5863541,22.9910448 36.0977743,21.7254925" id="Fill-8"></path>
                            <path d="M35.2474907,14.8299701 C34.3473375,13.9333731 34.3429337,12.4741493 35.2372549,11.5719403 C36.1316952,10.6696119 37.5861276,10.6648358 38.4855666,11.5622687 C39.3850057,12.4597015 39.3890524,13.9180896 38.4953263,14.8200597 C37.6010051,15.7232239 36.1468108,15.7275224 35.2474907,14.8299701" id="Fill-9"></path>
                            <path d="M31.6214075,8.84298507 C30.5145154,8.42137313 29.9584509,7.17946269 30.379546,6.06853731 C30.8008791,4.95808955 32.039289,4.40143284 33.1461811,4.82376119 C34.25224,5.24585075 34.8080665,6.48835821 34.3870904,7.59808955 C33.9659953,8.70841791 32.7275854,9.26555224 31.6214075,8.84298507" id="Fill-10"></path>
                            <path d="M25.8186745,4.8438209 C24.7203519,4.90519403 23.781517,4.06185075 23.7206974,2.96095522 C23.6599969,1.85922388 24.5004017,0.917492537 25.5984863,0.856716418 C26.6958567,0.795343284 27.6348106,1.63916418 27.6956302,2.7401791 C27.7563307,3.84119403 26.9160449,4.78340299 25.8186745,4.8438209" id="Fill-11"></path>
                            <path d="M18.8343044,3.57504478 C17.9315328,4.03976119 16.8240456,3.68262687 16.3606982,2.77659701 C15.8973508,1.87092537 16.2539366,0.759880597 17.1570654,0.294925373 C18.05948,-0.169552239 19.1669672,0.18758209 19.6301955,1.09325373 C20.0934239,1.99952239 19.7375522,3.10997015 18.8343044,3.57504478" id="Fill-12"></path>
                            <path d="M11.8906395,5.30531343 C11.3074382,6.03283582 10.2470832,6.14770149 9.52212843,5.56214925 C8.79788775,4.97755224 8.68338988,3.91331343 9.26659109,3.18686567 C9.84955425,2.4599403 10.9100283,2.34435821 11.6348641,2.92955224 C12.3592238,3.51510448 12.4737216,4.57850746 11.8906395,5.30531343" id="Fill-13"></path>
                            <path d="M4.34746744,10.8687761 C3.52991457,10.6519403 3.04300107,9.81050746 3.25949964,8.99080597 C3.47611723,8.17038806 4.31426068,7.68167164 5.13169453,7.89850746 C5.94877133,8.11558209 6.43604189,8.95653731 6.21930527,9.77683582 C6.00340181,10.5973731 5.16513934,11.0860896 4.34746744,10.8687761 Z" id="Fill-14"></path>
                            <path d="M2.84875936,16.2396418 C2.97051749,16.9935522 2.45956182,17.7030448 1.70842247,17.8249552 C0.956568999,17.9467463 0.249348271,17.4341493 0.128304265,16.6803582 C0.00714123926,15.9265672 0.517858867,15.216597 1.26923626,15.0951642 C2.02025659,14.9737313 2.72723927,15.4859701 2.84875936,16.2396418" id="Fill-15"></path>
                            <path d="M2.41266769,23.5782687 C2.78294094,24.1463881 2.62392935,24.9079403 2.05774809,25.279403 C1.49168586,25.6509851 0.732215066,25.4911045 0.362060831,24.9225075 C-0.00797438385,24.3548657 0.151156231,23.5936716 0.717337484,23.2220896 C1.28363776,22.8506269 2.04275149,23.0100299 2.41266769,23.5782687" id="Fill-16"></path>
                            <path d="M5.03481172,30.5060299 C5.53219904,30.8278209 5.67538088,31.4934925 5.3545012,31.9921194 C5.03338347,32.4915821 4.37020039,32.6348657 3.87281307,32.3124776 C3.37530674,31.990806 3.23236293,31.3254925 3.55359968,30.8261493 C3.87400328,30.3276418 4.53766245,30.184 5.03481172,30.5060299" id="Fill-17"></path>
                            <path d="M10.2985002,35.7873433 C10.7998152,35.865194 11.1431897,36.3364776 11.0654693,36.8395224 C10.9872727,37.3424478 10.5179742,37.6866866 10.0161832,37.608597 C9.51510622,37.5305075 9.17185065,37.0591045 9.24969016,36.5567761 C9.32729162,36.0532537 9.79718517,35.7093731 10.2985002,35.7873433" id="Fill-18"></path>
                            <path d="M17.3119112,38.4605373 C17.719676,38.3497313 18.140295,38.5912836 18.2509842,39.0009552 C18.3616734,39.4101493 18.1206566,39.8321194 17.7122967,39.9432836 C17.3044129,40.0540896 16.883913,39.8124179 16.7732238,39.4027463 C16.6626536,38.9936716 16.9037894,38.5720597 17.3119112,38.4605373" id="Fill-19"></path>
                            <path d="M24.85913,38.0120597 C25.1212134,37.7977313 25.5068404,37.8372537 25.7207205,38.1006567 C25.9343626,38.3634627 25.8950857,38.750209 25.6326452,38.9648955 C25.3707998,39.1788657 24.9848158,39.1394627 24.7710547,38.8765373 C24.5574126,38.6136119 24.5971655,38.2266269 24.85913,38.0120597" id="Fill-20"></path>
                            <path d="M29.5629452,33.5527164 C30.2488613,32.1897313 31.9075331,31.6441791 33.2659158,32.3328955 C34.6244176,33.0217313 35.168699,34.6853731 34.4807597,36.048597 C33.7946056,37.4103881 32.1362908,37.9565373 30.7780271,37.2671045 C29.4198824,36.5781493 28.8761961,34.9145075 29.5629452,33.5527164" id="Fill-21"></path>
                        </g>
                    </g>
                </g>
            </g>
        </g>
    </g>
</svg>