<?xml version="1.0" encoding="UTF-8" standalone="no"?>
<svg width="1361px" height="656px" viewBox="0 0 1361 656" version="1.1" xmlns="http://www.w3.org/2000/svg" xmlns:xlink="http://www.w3.org/1999/xlink" xmlns:sketch="http://www.bohemiancoding.com/sketch/ns">
    <!-- Generator: Sketch 3.3 (11970) - http://www.bohemiancoding.com/sketch -->
    <title>Drawings</title>
    <desc>Created with Sketch.</desc>
    <defs></defs>
    <g id="Page-1" stroke="none" stroke-width="1" fill="none" fill-rule="evenodd" sketch:type="MSPage">
        <g id="V17---Dhanur" sketch:type="MSArtboardGroup" transform="translate(-79.000000, -1895.000000)" stroke="#FFFAF1">
            <g id="Calculator" sketch:type="MSLayerGroup" transform="translate(1.000000, 1636.000000)">
                <g id="Drawings" transform="translate(79.000000, 260.000000)" sketch:type="MSShapeGroup">
                    <g id="Sun" transform="translate(657.500000, 135.500000) scale(-1, 1) translate(-657.500000, -135.500000) translate(507.000000, 0.000000)" stroke-width="2.87769784">
                        <path d="M144.388489,88.8678191 C133.956835,90.237234 123.23741,92.7598404 115.035971,99.318617 C104.244604,107.967553 99.5683453,122.310372 98.3453237,136.14867 C97.6258993,144.293085 97.9136691,152.653723 100.719424,160.365691 C105.539568,173.483245 117.625899,183.357447 131.223022,186.528723 C144.820144,189.7 159.496403,186.456649 171.223022,178.816755 C182.158273,171.681383 190.791367,160.293617 192.302158,147.320213 C193.669065,135.788298 189.352518,124.256383 183.021583,114.598404 C175.611511,103.426862 165.323741,94.1292553 153.453237,87.9308511" id="Shape" stroke-dasharray="410.138854980469"></path>
                        <path d="M109.71223,197.916489 C98.4892086,216.8 87.9856115,236.115957 78.3453237,255.864362" id="Shape" stroke-dasharray="91.4868087768555"></path>
                        <path d="M78.705036,145.950798 C52.0143885,147.824734 25.5395683,152.797872 0,160.653989" id="Shape" stroke-dasharray="111.526496887207"></path>
                        <path d="M85.6115108,78.4170213 C77.2661871,67.2454787 66.9784173,57.5154255 55.3956835,49.8034574" id="Shape" stroke-dasharray="58.0743598937988"></path>
                        <path d="M139.136691,63.7138298 C132.446043,39.1364362 118.129496,16.7212766 98.7769784,0.216223404" id="Shape" stroke-dasharray="106.005783081055"></path>
                        <path d="M192.877698,79.3539894 C210.431655,64.4345745 232.302158,54.7045213 255.107914,51.4611702" id="Shape" stroke-dasharray="96.01051330566411"></path>
                        <path d="M221.366906,124.328457 C248.129496,122.742819 275.179856,127.283511 300,137.446011" id="Shape" stroke-dasharray="111.727821350098"></path>
                        <path d="M191.294964,184.871011 C203.021583,212.187234 210.791367,241.233245 214.100719,270.783777" id="Shape" stroke-dasharray="123.788467407227"></path>
                        <path d="M157.410072,217.016223 C155.395683,224.22367 153.381295,231.431117 151.366906,238.638564" id="Shape" stroke-dasharray="31.15380859375"></path>
                        <path d="M70.0719424,182.348404 C64.028777,186.096277 57.9856115,189.844149 51.942446,193.592021" id="Shape" stroke-dasharray="29.6378211975098"></path>
                        <path d="M77.8417266,117.409309 C71.7985612,117.121011 65.7553957,116.832713 59.7122302,116.544415" id="Shape" stroke-dasharray="25.228551864624"></path>
                        <path d="M171.151079,58.4523936 C174.892086,51.5332447 178.633094,44.6140957 182.374101,37.6949468" id="Shape" stroke-dasharray="32.7536277770996"></path>
                        <path d="M203.23741,106.165691 C212.086331,104.147606 221.007194,102.706117 230.071942,101.841223" id="Shape" stroke-dasharray="37.8057670593262"></path>
                        <path d="M222.230216,165.915426 C224.820144,168.221809 227.410072,170.528191 230,172.834574" id="Shape" stroke-dasharray="14.4499082565308"></path>
                        <path d="M119.208633,130.526862 C118.633094,129.734043 119.136691,128.652926 119.640288,127.860106 C120.503597,126.490691 121.510791,125.121277 122.805755,124.112234 C124.748201,122.670745 127.266187,122.310372 129.640288,122.022074 C132.589928,121.733777 135.755396,121.589628 138.201439,123.24734" id="Shape" stroke-dasharray="33.1524887084961"></path>
                        <path d="M159.208633,122.166223 C158.776978,120.364362 160.28777,118.634574 161.942446,117.769681 C165.395683,115.967819 169.784173,116.184043 173.021583,118.346277" id="Shape" stroke-dasharray="23.8706436157227"></path>
                        <path d="M120.791367,159.2125 C122.014388,155.104255 124.676259,151.500532 128.273381,149.194149" id="Shape" stroke-dasharray="17.7287521362305"></path>
                        <path d="M125.755396,155.17633 C133.741007,162.167553 144.604317,166.203723 155.035971,164.401862 C165.467626,162.6 174.820144,154.095213 176.18705,143.57234" id="Shape" stroke-dasharray="88.06256103515631"></path>
                        <path d="M173.021583,142.707447 C174.892086,141.914628 177.194245,142.130851 178.848921,143.428191" id="Shape" stroke-dasharray="8.549491882324221"></path>
                    </g>
                    <g id="Scene-Base" transform="translate(10.000000, 342.000000)" stroke-width="2.27308603">
                        <path d="M956.969219,157.311883 C1002.48777,108.544059 1045.50592,56.125777 1085.79637,0.570383912" id="Shape" stroke-dasharray="356.467987060547"></path>
                        <path d="M1214.794,157.311883 C1169.27545,108.544059 1126.2573,56.125777 1085.96685,0.570383912" id="Shape" stroke-dasharray="356.467956542969"></path>
                        <path d="M975.722178,142.595978 C985.610103,195.242413 995.157064,247.945887 1004.36306,300.64936" id="Shape" stroke-dasharray="281.648132324219"></path>
                        <path d="M1202.12155,145.447898 C1192.23362,198.094333 1182.68666,250.797806 1173.48066,303.50128" id="Shape" stroke-dasharray="281.648071289063"></path>
                        <path d="M1053.57537,216.175503 C1058.06472,244.124314 1061.588,272.130165 1064.0884,300.193053" id="Shape" stroke-dasharray="148.488098144531"></path>
                        <path d="M1059.82636,213.893967 C1078.18153,214.578428 1097.04815,214.749543 1115.17601,214.920658 C1115.8011,217.202194 1118.01736,218.856307 1117.16496,221.080804 C1116.25572,224.046801 1116.14207,226.328336 1116.02841,229.351371 C1116.25572,239.960512 1115.8011,249.771115 1116.02841,260.437294 C1116.93765,272.586472 1117.0513,285.477148 1118.24467,297.911517" id="Shape" stroke-dasharray="244.145217895508"></path>
                        <path d="M807.513812,152.683273 C815.92423,150.230622 824.90292,151.257313 833.597474,152.112889 C874.910813,156.276691 916.508287,157.303382 957.992107,155.192962" id="Shape" stroke-dasharray="265.3837890625"></path>
                        <path d="M807.513812,148.642048 C823.141279,129.705302 839.109708,111.053748 855.4191,92.6873857 C871.614838,74.3780622 888.151539,56.4109689 904.972376,38.6720293 C914.405683,28.7473492 923.952644,18.8797075 933.61326,9.1261426" id="Shape" stroke-dasharray="330.364868164063"></path>
                        <path d="M937.647987,10.8372943 C970.721389,5.8749543 1004.19258,4.16380256 1037.60695,2.45265082 C1053.57537,1.65411335 1069.5438,0.798537477 1085.45541,0" id="Shape" stroke-dasharray="260.897399902344"></path>
                        <path d="M831.949487,156.855576 C838.996054,206.307861 848.088398,255.360878 858.999211,303.786472" id="Shape" stroke-dasharray="262.031463623047"></path>
                        <path d="M0,305.326508 C150.364641,309.490311 301.013418,310.631079 451.093923,311.258501 C540.767167,311.828885 630.497238,312.456307 720.170481,310.688117 C766.484609,310.117733 812.798737,307.722121 858.885556,304.014625" id="Shape" stroke-dasharray="1511.8291015625"></path>
                        <path d="M1173.48066,303.444241 C1199.16654,307.436929 1225.30702,307.03766 1251.33386,306.581353 C1297.93212,305.782815 1344.53039,304.984278 1391.12865,304.18574 C1407.43804,303.900548 1423.80426,303.615356 1439.82952,300.592322" id="Shape" stroke-dasharray="469.363800048828"></path>
                    </g>
                    <g id="Offsite-Solar" transform="translate(0.000000, 400.000000)" stroke-width="2.25263981">
                        <path d="M1184.32538,49.4352941 C1221.21236,63.8164706 1257.2546,80.1076471 1294.42315,94.7135294 C1328.21275,108.757647 1360.31287,121.678235 1396.3551,130.666471 C1399.1709,131.228235 1401.9867,132.351765 1404.8025,133.475294 C1416.0657,136.845882 1427.89206,139.092941 1439.54947,140.834412" id="Shape" stroke-dasharray="482.609558105469"></path>
                        <path d="M331.701212,151.339412 C346.456003,122.352353 362.39343,95.0505882 379.513492,69.6588235" id="Shape" stroke-dasharray="168.476867675781"></path>
                        <path d="M397.647243,72.4676471 C382.948768,98.4211765 368.475557,122.745588 354.22761,149.878824" id="Shape" stroke-dasharray="157.91194152832"></path>
                        <path d="M416.062573,74.1529412 C404.799374,99.9941176 391.846695,124.711765 377.317169,148.923824" id="Shape" stroke-dasharray="149.935180664063"></path>
                        <path d="M439.884239,74.7147059 C427.888932,98.1402941 415.499413,121.172647 403.222526,144.205" id="Shape" stroke-dasharray="139.78630065918"></path>
                        <path d="M346.906531,123.026471 C368.137661,124.767941 390.213531,125.947647 411.444662,127.576765" id="Shape" stroke-dasharray="114.886894226074"></path>
                        <path d="M363.23817,97.3590807 C384.300352,98.8196689 405.756746,97.0781983 426.818928,97.1905513" id="Shape" stroke-dasharray="112.937576293945"></path>
                        <path d="M379.569808,69.6588235 C400.181463,70.67 420.511537,70.67 440.728979,72.1867647" id="Shape" stroke-dasharray="108.700828552246"></path>
                        <path d="M331.701212,151.676471 C339.47282,152.069706 347.244427,152.519118 355.07235,153.024706" id="Shape" stroke-dasharray="41.5696868896484"></path>
                        <path d="M417.301525,141.957941 C429.972624,117.127941 444.614783,92.9720588 460.214314,69.6588235" id="Shape" stroke-dasharray="149.652786254883"></path>
                        <path d="M478.235432,72.4676471 C468.549081,89.6014706 458.637466,106.566765 449.007431,123.700588 C446.304263,128.531765 443.601095,133.419118 440.954243,138.306471" id="Shape" stroke-dasharray="134.607177734375"></path>
                        <path d="M496.988659,74.1529412 C487.809151,94.3764706 478.235432,113.476471 467.422761,132.745" id="Shape" stroke-dasharray="116.803901672363"></path>
                        <path d="M520.528745,74.7147059 C511.180289,91.3991176 502.73289,109.375588 493.328119,126.340882" id="Shape" stroke-dasharray="103.825309753418"></path>
                        <path d="M427.438404,123.026471 C448.331639,124.655588 469.168557,125.779118 490.118107,127.408235" id="Shape" stroke-dasharray="111.573684692383"></path>
                        <path d="M443.770043,97.3590807 C464.832225,98.8196689 486.288619,97.0781983 507.350802,97.1905513" id="Shape" stroke-dasharray="112.937576293945"></path>
                        <path d="M460.101682,69.6588235 C480.713336,70.67 501.04341,70.67 521.260853,72.1867647" id="Shape" stroke-dasharray="108.700828552246"></path>
                        <path d="M505.717638,122.857941 C515.798201,104.769118 526.49824,86.7926471 538.324599,69.6588235" id="Shape" stroke-dasharray="111.040435791016"></path>
                        <path d="M556.627298,72.4676471 C548.57411,87.0735294 540.689871,101.117647 532.186156,115.274118" id="Shape" stroke-dasharray="87.697868347168"></path>
                        <path d="M575.380524,74.1529412 C570.762612,84.9388235 565.694173,95.5 560.344153,105.948824" id="Shape" stroke-dasharray="62.593879699707"></path>
                        <path d="M599.033242,74.7147059 C594.97849,82.4670588 590.867423,90.1632353 586.812671,97.9155882" id="Shape" stroke-dasharray="46.6538429260254"></path>
                        <path d="M522.049276,97.3590807 C543.111459,98.8196689 564.567853,97.0781983 585.630035,97.1905513" id="Shape" stroke-dasharray="112.93758392334"></path>
                        <path d="M538.380915,69.6588235 C558.992569,70.67 579.322644,70.67 599.540086,72.1867647" id="Shape" stroke-dasharray="108.700843811035"></path>
                        <path d="M405.475166,70.7823529 C412.796246,58.4235294 420.455221,46.2332353 428.508408,34.2676471" id="Shape" stroke-dasharray="76.8078231811523"></path>
                        <path d="M446.247947,37.0764706 C439.602659,48.2555882 433.295268,59.6594118 426.875244,71.0070588" id="Shape" stroke-dasharray="69.51080322265631"></path>
                        <path d="M465.451701,38.7617647 C459.594838,52.4126471 453.005866,65.7264706 446.022683,78.8717647" id="Shape" stroke-dasharray="79.3211212158203"></path>
                        <path d="M489.160735,39.3235294 C483.867032,49.2667647 478.854908,59.3223529 473.617521,69.2655882" id="Shape" stroke-dasharray="60.0225143432617"></path>
                        <path d="M412.233086,61.9679042 C433.295268,63.4284925 454.751662,61.6870219 475.813844,61.7993748" id="Shape" stroke-dasharray="112.937591552734"></path>
                        <path d="M428.001564,34.2676471 C448.613219,35.2788235 468.943293,35.2788235 489.160735,36.7955882" id="Shape" stroke-dasharray="108.700828552246"></path>
                        <path d="M487.133359,68.9847059 C494.116543,57.1876471 501.437622,45.6152941 509.096598,34.2676471" id="Shape" stroke-dasharray="73.0876083374023"></path>
                        <path d="M527.399296,37.0764706 C520.922957,48.0308824 514.784513,59.1538235 508.533438,70.2205882" id="Shape" stroke-dasharray="67.8486633300781"></path>
                        <path d="M545.645679,38.7617647 C540.746187,50.1655882 535.396167,61.2885294 529.651936,72.2991176 C528.075088,75.3326471 526.49824,78.3661765 524.865076,81.3997059" id="Shape" stroke-dasharray="84.4211959838867"></path>
                        <path d="M569.467345,39.3235294 C563.723113,49.2105882 558.767305,59.5470588 553.586234,69.715" id="Shape" stroke-dasharray="61.0181427001953"></path>
                        <path d="M492.764959,61.9679042 C513.827141,63.4284925 535.283535,61.6870219 556.345718,61.7993748" id="Shape" stroke-dasharray="112.937591552734"></path>
                        <path d="M509.096598,34.2676471 C529.708252,35.2788235 550.038326,35.2788235 570.255768,36.7955882" id="Shape" stroke-dasharray="108.700843811035"></path>
                        <path d="M565.412593,69.0408824 C572.564724,57.3561765 579.604224,45.6152941 587.263199,34.2676471" id="Shape" stroke-dasharray="73.0619354248047"></path>
                        <path d="M605.565898,37.0764706 C599.371138,48.0308824 593.063747,58.9291176 586.812671,69.8273529" id="Shape" stroke-dasharray="67.1401672363281"></path>
                        <path d="M624.544388,38.7617647 C618.969104,51.2891176 613.112241,63.6479412 606.804849,75.8382353 C605.059054,79.265 603.256942,82.6917647 601.45483,86.0623529" id="Shape" stroke-dasharray="93.67286682128911"></path>
                        <path d="M648.253422,39.3235294 C639.862339,55.0529412 631.414939,70.7823529 623.418068,86.4555882" id="Shape" stroke-dasharray="94.78553771972661"></path>
                        <path d="M571.044192,61.9679042 C592.106375,63.4284925 613.562769,61.6870219 634.624951,61.7993748" id="Shape" stroke-dasharray="112.937530517578"></path>
                        <path d="M587.375831,34.2676471 C607.987485,35.2788235 628.31756,35.2788235 648.535002,36.7955882" id="Shape" stroke-dasharray="108.700828552246"></path>
                        <path d="M454.470082,34.6047059 C461.453266,22.8638235 468.718029,11.3476471 476.377004,0" id="Shape" stroke-dasharray="72.8644104003906"></path>
                        <path d="M494.454439,2.24705882 C488.484943,12.7520588 482.459132,23.2570588 476.43332,33.7620588" id="Shape" stroke-dasharray="64.5849609375"></path>
                        <path d="M513.545561,3.93235294 C508.251858,16.235 502.394994,28.3129412 496.143919,40.2223529" id="Shape" stroke-dasharray="71.627555847168"></path>
                        <path d="M537.198279,5.05588235 C532.12984,14.6620588 527.117716,24.2120588 522.049276,33.8182353" id="Shape" stroke-dasharray="57.8364372253418"></path>
                        <path d="M460.664842,27.1384925 C481.727024,28.5990807 503.183418,26.8576101 524.2456,26.969963" id="Shape" stroke-dasharray="112.937591552734"></path>
                        <path d="M476.43332,0 C497.044975,1.01117647 517.375049,1.01117647 537.592491,2.52794118" id="Shape" stroke-dasharray="108.700828552246"></path>
                        <path d="M535.565115,33.9305882 C542.435667,22.4144118 549.587798,11.1229412 557.077826,0" id="Shape" stroke-dasharray="71.4750289916992"></path>
                        <path d="M575.15526,2.24705882 C569.129449,12.8644118 563.047321,23.4817647 556.965194,34.0429412" id="Shape" stroke-dasharray="65.16796875"></path>
                        <path d="M594.359014,3.93235294 C589.290575,15.6732353 583.715291,27.2455882 577.802112,38.5932353" id="Shape" stroke-dasharray="68.3616409301758"></path>
                        <path d="M617.730153,5.05588235 C612.661713,14.6620588 607.649589,24.2120588 602.58115,33.8182353" id="Shape" stroke-dasharray="57.8364372253418"></path>
                        <path d="M541.196715,27.1384925 C562.258897,28.5990807 583.715291,26.8576101 604.777474,26.969963" id="Shape" stroke-dasharray="112.937530517578"></path>
                        <path d="M556.965194,0 C577.576848,1.01117647 597.906922,1.01117647 618.124364,2.52794118" id="Shape" stroke-dasharray="108.700843811035"></path>
                        <path d="M613.844349,34.0991176 C620.7149,22.5267647 627.923348,11.1229412 635.469691,0" id="Shape" stroke-dasharray="71.8374481201172"></path>
                        <path d="M653.603442,2.24705882 C647.521314,12.9767647 641.382871,23.6502941 635.244427,34.38" id="Shape" stroke-dasharray="65.8377380371094"></path>
                        <path d="M672.4693,3.93235294 C662.782949,26.1220588 651.51975,48.0308824 639.186547,69.0408824" id="Shape" stroke-dasharray="130.174880981445"></path>
                        <path d="M696.347282,5.05588235 C687.055143,22.6952941 677.706688,40.3908824 668.414548,58.0302941 C665.824013,62.9738235 663.233477,67.9173529 660.586625,72.8608824" id="Shape" stroke-dasharray="136.384628295898"></path>
                        <path d="M644.818146,56.1764706 C652.533438,56.6820588 660.192413,57.2438235 667.851388,57.8055882" id="Shape" stroke-dasharray="41.0028228759766"></path>
                        <path d="M619.475948,27.1384925 C640.538131,28.5990807 661.994525,26.8576101 683.056707,26.969963" id="Shape" stroke-dasharray="112.937591552734"></path>
                        <path d="M635.807587,0 C656.419241,1.01117647 676.749316,1.01117647 696.966758,2.52794118" id="Shape" stroke-dasharray="108.700828552246"></path>
                        <path d="M885.400078,8.44023719 C876.952679,8.27170778 868.448964,9.67611954 860.114196,11.2490607 C817.989832,19.1699431 776.541259,31.0231784 736.669535,46.6964137 C702.429409,58.4934725 668.921392,71.0770019 634.343371,82.7055313 C622.517012,86.6378842 611.816973,90.5702372 599.990614,95.0643548 C583.658975,100.682002 567.327337,105.17612 550.995698,111.355531 C545.364099,113.040825 540.295659,113.60259 534.664059,115.287884 C518.895581,120.343767 504.253422,124.27612 487.921783,128.208472 C487.358623,128.208472 486.232303,129.332002 485.669144,129.332002 C456.384826,135.511414 430.479468,141.690825 401.195151,146.746708 C370.221353,152.364355 340.937036,156.296708 309.963238,160.229061 C275.610481,163.599649 242.384044,167.532002 208.031287,170.90259 C138.199452,177.082002 69.4939382,182.699649 0,190.845237" id="Shape" stroke-dasharray="1613.54016113281"></path>
                    </g>
                </g>
            </g>
        </g>
    </g>
</svg>