<?xml version="1.0" encoding="UTF-8" standalone="no"?>
<svg style="overflow: visible;" width="128px" height="128px" viewBox="0 0 128 128" version="1.1" xmlns="http://www.w3.org/2000/svg" xmlns:xlink="http://www.w3.org/1999/xlink" xmlns:sketch="http://www.bohemiancoding.com/sketch/ns">
    <!-- Generator: bin/sketchtool 1.4 (305) - http://www.bohemiancoding.com/sketch -->
    <title>free</title>
    <desc>Created with bin/sketchtool.</desc>
    <defs></defs>
    <g id="Page-1" stroke="none" stroke-width="1" fill="none" fill-rule="evenodd" sketch:type="MSPage">
        <g id="icons" sketch:type="MSArtboardGroup" transform="translate(-594.000000, -92.000000)">
            <g id="free" sketch:type="MSLayerGroup" transform="translate(594.000000, 92.000000)">
                <circle id="Oval-Copy" stroke="#E46868" stroke-width="10" sketch:type="MSShapeGroup" cx="64" cy="64" r="64"></circle>
                <path d="M41,85.9097561 C41,84.1569018 41.6476402,82.4040738 42.94294,80.6512195 C44.2382399,78.8983652 45.7388696,78.0219512 47.4448743,78.0219512 C48.6453961,78.0219512 50.6988894,79.0392175 53.6054159,81.0737805 C56.5119423,83.1083435 59.1972797,84.3447133 61.6615087,84.7829268 L61.6615087,69.5707317 C59.3868358,68.6943046 57.5860801,67.9743931 56.2591876,67.4109756 C54.9322951,66.8475582 53.2895004,65.9867944 51.3307544,64.8286585 C49.3720083,63.6705227 47.8555824,62.4811037 46.7814313,61.2603659 C45.7072803,60.039628 44.7595141,58.474603 43.9381044,56.5652439 C43.1166948,54.6558848 42.7059961,52.543101 42.7059961,50.2268293 C42.7059961,44.6552567 44.4909557,40.2731867 48.0609284,37.0804878 C51.6309012,33.8877889 56.1643826,31.9158574 61.6615087,31.1646341 L61.6615087,28.5353659 C61.6615087,27.8467445 62.009023,27.252035 62.7040619,26.7512195 C63.3991008,26.250404 64.2520904,26 65.2630561,26 C66.1476511,26 66.9690484,26.2660542 67.7272727,26.7981707 C68.485497,27.3302872 68.8646035,27.9093465 68.8646035,28.5353659 L68.8646035,30.8829268 C70.6337935,30.9455288 72.3713648,31.1020313 74.0773694,31.352439 C75.7833741,31.6028468 77.5841298,32.0097533 79.4796905,32.5731707 C81.3752513,33.1365882 82.9074732,33.9817017 84.0764023,35.1085366 C85.2453314,36.2353715 85.8297872,37.5499925 85.8297872,39.052439 C85.8297872,40.6800894 85.3085159,42.3703164 84.2659574,44.1231707 C83.223399,45.876025 81.7859537,46.752439 79.9535783,46.752439 C79.0689833,46.752439 77.5683536,46.2203305 75.4516441,45.1560976 C73.3349346,44.0918646 71.1392764,43.4658546 68.8646035,43.2780488 L68.8646035,56.9878049 C70.9497203,57.8016301 72.7188838,58.5215416 74.172147,59.147561 C75.6254102,59.7735804 77.2682049,60.6812949 79.1005803,61.8707317 C80.9329556,63.0601685 82.4019932,64.3121885 83.5077369,65.6268293 C84.6134807,66.94147 85.5612469,68.6003965 86.3510638,70.6036585 C87.1408808,72.6069206 87.5357834,74.8292561 87.5357834,77.2707317 C87.5357834,82.9675082 85.8456004,87.5686817 82.4651838,91.0743902 C79.0847671,94.5800988 74.5512857,96.8024343 68.8646035,97.7414634 L68.8646035,100.464634 C68.8646035,101.090654 68.485497,101.669713 67.7272727,102.201829 C66.9690484,102.733946 66.1476511,103 65.2630561,103 C64.2520904,103 63.3991008,102.749596 62.7040619,102.24878 C62.009023,101.747965 61.6615087,101.153255 61.6615087,100.464634 L61.6615087,98.1170732 C56.0380119,97.9292674 51.1886084,96.6146464 47.1131528,94.1731707 C43.0376972,91.7316951 41,88.9772511 41,85.9097561 L41,85.9097561 Z M55.5435203,47.8182927 C55.5435203,50.0719625 57.5654214,52.043894 61.6092843,53.7341463 L61.6092843,42.5597561 C57.5654214,43.3735813 55.5435203,45.1264093 55.5435203,47.8182927 L55.5435203,47.8182927 Z M66.9168279,83.6890244 C70.7711347,82.8125972 72.6982592,80.8406657 72.6982592,77.7731707 C72.6982592,75.1438893 70.7711347,72.9215538 66.9168279,71.1060976 L66.9168279,83.6890244 Z" id="$" fill="#000000" sketch:type="MSShapeGroup"></path>
                <rect id="Rectangle-3" fill="#E46868" sketch:type="MSShapeGroup" transform="translate(67.000000, 63.500000) rotate(40.000000) translate(-67.000000, -63.500000) " x="62" y="3" width="10" height="121"></rect>
            </g>
        </g>
    </g>
</svg>