<?xml version="1.0" encoding="UTF-8" standalone="no"?>
<svg width="78px" height="77px" viewBox="0 0 78 77" version="1.1" xmlns="http://www.w3.org/2000/svg" xmlns:xlink="http://www.w3.org/1999/xlink" xmlns:sketch="http://www.bohemiancoding.com/sketch/ns">
    <!-- Generator: Sketch 3.3 (11970) - http://www.bohemiancoding.com/sketch -->
    <title>Free Icon</title>
    <desc>Created with Sketch.</desc>
    <defs></defs>
    <g id="Page-1" stroke="none" stroke-width="1" fill="none" fill-rule="evenodd" sketch:type="MSPage">
        <g id="V17---Dhanur" sketch:type="MSArtboardGroup" transform="translate(-130.000000, -3617.000000)" stroke="#FFFAF1" stroke-width="2">
            <g id="Concierge-Form" sketch:type="MSLayerGroup" transform="translate(0.000000, 3526.000000)">
                <g id="Highlights" transform="translate(129.000000, 90.000000)" sketch:type="MSShapeGroup">
                    <g id="Free" transform="translate(2.000000, 0.000000)">
                        <g id="Free-Icon" transform="translate(0.000000, 3.000000)">
                            <path d="M0,31.3745929 L10.6173387,22.4915776 L11.808871,15.7506173 L13.0233871,8.43916604 L26.8826613,8.43916604 L37.5,-1.3500312e-13 L48.1173387,8.43916604 L61.9766129,8.43916604 L64.3826613,22.4915776 L75,31.3745929 L68.0697581,43.3416367 L70.4770161,56.950199 L57.4524194,61.675746 L50.5233871,73.6439959 L37.5,68.9172428 L24.4766129,73.6439959 L17.546371,61.675746 L4.52177419,56.950199 L6.92903226,43.3416367 L0.618164062,32.0771484" id="Shape"></path>
                            <path d="M60.8366935,32.2132428 L53.578629,32.2132428 L53.578629,44.2743633 L60.8366935,44.2743633" id="Shape"></path>
                            <path d="M60.8366935,38 L53.578629,38" id="Shape"></path>
                            <path d="M48.3366935,32.2132428 L41.078629,32.2132428 L41.078629,44.2743633 L48.3366935,44.2743633" id="Shape-3"></path>
                            <path d="M48.3366935,38 L41.078629,38" id="Shape-2"></path>
                            <path d="M23.3366935,32.2132428 L16.078629,32.2132428 L16.078629,42.1962788 L16.078629,45.3702606" id="Shape-5"></path>
                            <path d="M27.8430939,45.3702611 L27.8430939,32.3350637 L35.0891113,32.3350637 L35.0421906,38.5798273 L29.0912628,38.5798273 L35.0891113,45.2188836" id="Path-148"></path>
                            <path d="M23.3366935,38 L16.078629,38" id="Shape-4"></path>
                        </g>
                    </g>
                </g>
            </g>
        </g>
    </g>
</svg>