<svg width="149" height="64" viewBox="0 0 149 64" version="2.0" xmlns="http://www.w3.org/2000/svg" xmlns:xlink="http://www.w3.org/1999/xlink" xmlns:figma="http://www.figma.com/figma/ns">
<title>heat pump &#38; car</title>
<desc>Created using Figma (9000)</desc>
<g id="Canvas" transform="translate(-865 210)" fill="#00CCFF" figma:type="canvas">
<g id="heat pump &#38; car" style="mix-blend-mode:normal;" figma:type="vector">
<use xlink:href="#path0_fill" transform="translate(865 -210)" style="mix-blend-mode:normal;"/>
<use xlink:href="#path1_fill" transform="translate(865 -210)" style="mix-blend-mode:normal;"/>
<use xlink:href="#path2_fill" transform="translate(865 -210)" style="mix-blend-mode:normal;"/>
<use xlink:href="#path3_fill" transform="translate(865 -210)" style="mix-blend-mode:normal;"/>
<use xlink:href="#path4_fill" transform="translate(865 -210)" style="mix-blend-mode:normal;"/>
<use xlink:href="#path5_fill" transform="translate(865 -210)" style="mix-blend-mode:normal;"/>
<use xlink:href="#path6_fill" transform="translate(865 -210)" style="mix-blend-mode:normal;"/>
<use xlink:href="#path7_fill" transform="translate(865 -210)" style="mix-blend-mode:normal;"/>
<use xlink:href="#path8_fill" transform="translate(865 -210)" style="mix-blend-mode:normal;"/>
<use xlink:href="#path9_fill" transform="translate(865 -210)" style="mix-blend-mode:normal;"/>
<use xlink:href="#path10_fill" transform="translate(865 -210)" style="mix-blend-mode:normal;"/>
<use xlink:href="#path11_fill" transform="translate(865 -210)" style="mix-blend-mode:normal;"/>
<use xlink:href="#path12_fill" transform="translate(865 -210)" style="mix-blend-mode:normal;"/>
<use xlink:href="#path13_fill" transform="translate(865 -210)" style="mix-blend-mode:normal;"/>
</g>
</g>
<defs>
<path id="path0_fill" d="
M 128.307 64
C 123.888 64 120.307 60.4183 120.307 56
C 120.307 51.5817 123.888 48 128.307 48
C 132.725 48 136.307 51.5817 136.307 56
C 136.307 60.4183 132.725 64 128.307 64
Z
M 128.307 62
C 130.543 62 132.494 60.7763 133.526 58.9619
C 133.872 58.3537 134.114 57.6791 134.23 56.9619
C 134.28 56.6487 134.307 56.3274 134.307 56
C 134.307 52.6863 131.62 50 128.307 50
C 124.993 50 122.307 52.6863 122.307 56
C 122.307 56.3274 122.333 56.6487 122.383 56.9619
C 122.499 57.6791 122.742 58.3537 123.087 58.9619
C 124.119 60.7763 126.07 62 128.307 62
Z"/>
<path id="path1_fill" fill-rule="evenodd" d="
M 100.752 39
L 103.852 39
C 104.44 39 104.97 39.3662 105.196 39.9257
C 105.421 40.4867 105.297 41.1313 104.88 41.5605
L 93.2441 53.5605
C 92.9621 53.8521 92.5901 54 92.215 54
C 91.9059 54 91.5949 53.8989 91.3329 53.6923
C 90.7539 53.2354 90.5914 52.4077 90.9529 51.7558
L 95.5274 43.5
L 90.761 43.5
C 90.2425 43.5 89.763 43.2158 89.5032 42.7528
C 89.2427 42.2901 89.2412 41.7202 89.4983 41.2558
L 95.3165 30.7558
C 95.575 30.2886 96.0572 30 96.5792 30
L 103.852 30
C 104.388 30 104.881 30.3047 105.134 30.7924
C 105.387 31.2803 105.36 31.872 105.062 32.3319
L 100.752 39
Z
M 92.2156 52.5
L 97.511 42.9433
C 97.511 42.9433 97.511 42.8042 97.511 42.75
C 97.511 42.3354 97.1858 42 96.7838 42
L 90.761 42
L 96.5792 31.5
L 103.852 31.5
L 98.837 39.2578
C 98.837 39.2578 98.6701 39.5683 98.6701 39.75
C 98.6701 40.1646 98.9954 40.5 99.3974 40.5
L 103.852 40.5
L 92.2156 52.5
Z"/>
<path id="path2_fill" d="
M 64.2365 35.5082
C 65.729 34.5384 67.2516 33.5182 68.8399 32.5024
C 69.4946 32.0838 70.1604 31.6659 70.8399 31.2526
C 72.1682 30.4447 73.5487 29.6543 75 28.9102
C 75.6518 28.576 76.3179 28.2511 77 27.9381
C 82.0616 25.6156 88.0033 23.9493 95.5151 24
C 104.208 23.9765 112.466 26.5862 121.578 33.544
C 127.387 37.9392 132.124 40.0412 135.651 41.2328
C 137.441 41.8351 138.947 42.2257 140.153 42.5846
C 141.346 42.9383 142.082 43.1825 142.67 43.5918
C 142.734 43.634 142.77 43.6597 142.833 43.7085
C 144.283 44.8209 145.403 47.6442 145.951 51.0888
C 146.216 52.7352 146.319 54.2864 146.306 55.659
C 146.302 56.1581 146.281 56.5933 146.251 56.9619
C 142.258 56.9619 138.25 56.9619 134.23 56.9619
C 134.114 57.6791 133.872 58.3537 133.526 58.9619
C 138.342 58.9619 143.144 58.9619 147.921 58.9619
C 148.852 56.3251 148.295 45.3781 144.05 42.1216
C 143.961 42.053 143.87 41.9878 143.777 41.9261
C 140.569 39.7937 134.017 40.481 122.788 31.9513
C 113.386 24.8105 104.514 22 95.5151 22
C 80.1638 22 70.9568 28.7569 63.1469 33.8311
C 57.5 37.5 54.339 28.6174 54.339 51.8539
C 54.339 59.3294 61.1221 59.0603 67.1809 58.9749
C 66.8343 58.369 66.5904 57.697 66.4727 56.9823
C 65.7816 56.9917 65.1076 57.0003 64.4542 56.9976
C 62.6721 56.9904 61.0439 56.8998 59.6447 56.5158
C 58.461 56.2036 57.8009 55.884 57.2374 55.1231
C 57.2055 55.0837 57.1739 55.0427 57.1428 55
C 56.6972 54.3888 56.339 53.4345 56.339 51.8539
C 56.339 51.4881 56.3397 51.1308 56.3412 50.7818
C 56.3441 50.0824 56.3501 49.4163 56.3592 48.7818
C 56.4167 44.7496 56.597 41.9912 56.8978 40.0559
C 57.2747 37.6129 57.7635 37.152 57.8392 37.0942
C 57.9589 37.0028 58.0482 36.986 59.4732 36.9256
C 60.6264 36.8757 62.4035 36.6334 64.2365 35.5082
Z"/>
<path id="path3_fill" d="
M 78.3159 56.9619
C 78.2004 57.6791 77.9577 58.3537 77.6118 58.9619
C 92.6889 58.9619 107.934 58.9619 123.087 58.9619
C 122.742 58.3537 122.499 57.6791 122.383 56.9619
C 107.697 56.9619 92.9299 56.9619 78.3159 56.9619
Z"/>
<path id="path4_fill" d="
M 26.8813 49.9182
C 38.2216 49.9182 47.4146 40.6383 47.4146 29.1909
C 47.4146 17.7436 38.2216 8.46364 26.8813 8.46364
C 15.5411 8.46364 6.34802 17.7436 6.34802 29.1909
C 6.34802 40.6383 15.5411 49.9182 26.8813 49.9182
Z
M 26.8813 47.9182
C 16.6634 47.9182 8.34802 39.5515 8.34802 29.1909
C 8.34802 18.8304 16.6634 10.4636 26.8813 10.4636
C 37.0993 10.4636 45.4146 18.8304 45.4146 29.1909
C 45.4146 39.5515 37.0993 47.9182 26.8813 47.9182
Z"/>
<path id="path5_fill" d="
M 26.6375 32.4597
C 26.4251 32.4597 26.2176 32.4377 26.0172 32.3959
C 25.5572 32.2999 25.1343 32.0993 24.7733 31.8194
C 24.5792 31.6689 24.4031 31.4955 24.2486 31.3031
C 23.8093 30.7561 23.5456 30.0556 23.5456 29.2919
C 23.5456 28.54 23.8013 27.8493 24.2285 27.306
C 24.277 27.2443 24.3277 27.1845 24.3805 27.1268
C 24.9447 26.5097 25.7472 26.1242 26.6375 26.1242
C 27.2872 26.1242 27.8901 26.3295 28.3877 26.6802
C 28.5384 26.7863 28.6794 26.9058 28.8091 27.037
C 29.3773 27.6114 29.7295 28.4095 29.7295 29.2919
C 29.7295 29.5434 29.7009 29.788 29.6468 30.0226
C 29.5694 30.3584 29.4399 30.6736 29.2674 30.9586
C 28.9849 31.4256 28.5871 31.8118 28.1148 32.0754
C 27.6759 32.3205 27.1726 32.4597 26.6375 32.4597
Z
M 21.4843 29.2919
C 21.4843 32.2078 23.7915 34.5715 26.6375 34.5715
C 29.4836 34.5715 31.7908 32.2078 31.7908 29.2919
C 31.7908 26.3761 29.4836 24.0123 26.6375 24.0123
C 23.7915 24.0123 21.4843 26.3761 21.4843 29.2919
Z"/>
<path id="path6_fill" fill-rule="evenodd" d="
M 30.9618 14.7466
C 30.2028 14.5693 29.434 14.5091 28.8497 14.5091
C 26.7669 14.5091 23.0399 15.5909 21.9298 18.2738
C 21.8819 18.3895 21.8389 18.5082 21.8011 18.6299
C 21.0238 21.1327 21.7776 24.4981 22.9702 26.2323
C 23.2642 26.6598 23.5849 26.9882 23.9159 27.1801
C 24.0603 27.1624 24.2162 27.1447 24.3805 27.1268
C 24.9447 26.5097 25.7472 26.1242 26.6375 26.1242
C 27.2872 26.1242 27.8901 26.3295 28.3877 26.6802
C 28.4944 26.6618 28.59 26.6431 28.6723 26.6243
C 28.741 26.6086 28.8006 26.5927 28.8497 26.5767
C 28.8369 26.5267 28.8307 26.4724 28.8308 26.4142
C 28.8309 26.1672 28.9422 25.8488 29.1315 25.4788
C 30.145 23.4986 33.3931 20.0392 33.7836 18.1294
C 34.2055 16.0652 32.6065 15.1308 30.9618 14.7466
Z
M 23.7654 19.2703
C 23.9775 18.5872 24.6147 17.9137 25.7298 17.3771
C 26.8628 16.8132 27.9539 16.6119 28.8497 16.6209
C 29.6659 16.618 30.6015 16.6921 31.3536 17.0936
C 31.7103 17.2562 31.7186 17.2306 31.778 17.3985
C 31.7817 17.4035 31.785 17.4074 31.7878 17.4105
C 31.7873 17.4151 31.787 17.4209 31.7871 17.4283
C 31.8129 17.543 31.8136 17.5041 31.766 17.6965
C 31.7462 17.7937 31.6676 17.9991 31.4912 18.3265
C 31.3819 18.5291 31.2351 18.7784 31.0415 19.0777
C 30.5678 19.8121 29.9718 20.609 29.3608 21.4333
C 28.7497 22.2577 28.1103 23.1301 27.651 23.884
C 27.498 24.1379 27.3392 24.4309 27.2055 24.7125
C 26.9954 24.7373 26.7535 24.7643 26.48 24.7927
C 25.8794 24.8552 25.2244 24.917 24.6253 24.9782
C 24.5915 24.9256 24.5553 24.8647 24.5119 24.7891
C 24.2316 24.3199 24.0363 23.8349 23.8538 23.1462
C 23.4835 21.7796 23.4382 20.3236 23.7654 19.2703
Z"/>
<path id="path7_fill" fill-rule="evenodd" d="
M 29.5097 37.7297
C 29.2976 38.4128 28.6603 39.0863 27.5453 39.6229
C 26.4123 40.1868 25.3212 40.3881 24.4254 40.3791
C 23.6092 40.382 22.6735 40.3079 21.9215 39.9064
C 21.5648 39.7438 21.5564 39.7694 21.4971 39.6015
C 21.4933 39.5965 21.4901 39.5925 21.4873 39.5895
C 21.4878 39.5849 21.488 39.5791 21.4879 39.5717
C 21.4622 39.457 21.4614 39.4959 21.509 39.3035
C 21.5289 39.2063 21.6074 39.0009 21.7839 38.6735
C 21.8932 38.4709 22.0399 38.2216 22.2336 37.9223
C 22.7073 37.1879 23.3033 36.391 23.9142 35.5667
C 24.5254 34.7423 25.1648 33.8699 25.6241 33.116
C 25.7575 32.8946 25.8954 32.6433 26.0172 32.3959
C 25.5572 32.2999 25.1343 32.0993 24.7733 31.8194
C 24.5792 31.6689 24.4031 31.4955 24.2486 31.3031
C 23.8093 30.7561 23.5456 30.0556 23.5456 29.2919
C 23.5456 28.54 23.8013 27.8493 24.2285 27.306
C 24.2018 27.1547 24.1752 27.0218 24.1487 26.9121
C 24.1318 26.842 24.1149 26.7814 24.0982 26.7315
C 24.0496 26.7457 23.9968 26.7533 23.94 26.7546
C 23.699 26.7601 23.3858 26.6533 23.0204 26.4678
C 21.065 25.4749 17.6153 22.2267 15.7428 21.8704
C 13.7189 21.4852 12.8436 23.1443 12.5061 24.8376
C 12.3503 25.6191 12.3091 26.4079 12.3224 27.0063
C 12.3698 29.1397 13.5104 32.9324 16.1537 34.0083
C 16.2677 34.0547 16.3845 34.0961 16.5042 34.132
C 18.5661 34.7516 21.1951 34.2555 22.9724 33.336
C 21.6188 35.2144 19.7792 37.4633 19.4915 38.8706
C 19.0695 40.9348 20.6686 41.8692 22.3132 42.2534
C 23.0723 42.4307 23.8411 42.4909 24.4254 42.4909
C 26.5082 42.4909 30.2352 41.4091 31.3453 38.7262
C 31.3932 38.6105 31.4362 38.4918 31.474 38.3701
C 32.1462 36.2056 31.6733 33.3959 30.7617 31.5541
C 32.733 32.7855 35.7924 35.7117 37.533 36.0852
C 39.5478 36.5175 40.4597 34.8793 40.8348 33.1943
C 41.0079 32.4166 41.0666 31.629 41.0666 31.0304
C 41.0666 28.8965 40.0107 25.0781 37.392 23.9408
C 37.279 23.8918 37.1632 23.8477 37.0444 23.809
C 34.6015 23.0126 31.3166 23.7849 29.6239 25.0068
C 29.2066 25.308 28.8861 25.6365 28.6988 25.9756
C 28.7351 26.2869 28.7718 26.6499 28.8091 27.037
C 29.3773 27.6114 29.7295 28.4095 29.7295 29.2919
C 29.7295 29.5434 29.7009 29.788 29.6468 30.0226
C 29.5694 30.3584 29.4399 30.6736 29.2674 30.9586
C 28.9849 31.4256 28.5871 31.8118 28.1148 32.0754
C 28.2961 32.0575 28.4753 32.0396 28.6498 32.0217
C 28.6835 32.0744 28.7198 32.1353 28.7631 32.2109
C 29.0435 32.6801 29.2388 33.1651 29.4213 33.8538
C 29.7916 35.2204 29.8369 36.6764 29.5097 37.7297
Z
M 17.0843 32.1055
C 16.4129 31.9038 15.7411 31.2665 15.1921 30.1366
C 14.616 28.989 14.3947 27.876 14.3832 26.9582
C 14.3617 26.1223 14.4127 25.1623 14.7874 24.3829
C 14.938 24.0138 14.9128 24.0058 15.0753 23.9412
C 15.08 23.9373 15.0838 23.9339 15.0868 23.9309
C 15.0912 23.9313 15.0969 23.9314 15.1041 23.9312
C 15.2155 23.9022 15.1775 23.9023 15.3663 23.9467
C 15.4616 23.9648 15.6638 24.0406 15.9873 24.2139
C 16.1875 24.3212 16.4342 24.4658 16.7307 24.6573
C 17.4581 25.1258 18.2492 25.7181 19.0675 26.3251
C 19.8859 26.9323 20.7517 27.5673 21.4979 28.0206
C 21.7491 28.1715 22.0387 28.3275 22.3165 28.458
C 22.3455 28.6726 22.3773 28.9198 22.4113 29.1993
C 22.486 29.813 22.5612 30.4825 22.6346 31.0947
C 22.584 31.1305 22.5254 31.1691 22.4526 31.2152
C 22.0012 31.513 21.5323 31.7241 20.8645 31.9267
C 19.5393 32.3371 18.1196 32.4166 17.0843 32.1055
Z
M 36.4194 25.8214
C 37.0861 26.0387 37.7435 26.6916 38.2672 27.834
C 38.8177 28.9947 39.0141 30.1126 39.0053 31.0304
C 39.0082 31.8666 38.9359 32.8252 38.5439 33.5956
C 38.3852 33.9611 38.4102 33.9697 38.2463 34.0304
C 38.2415 34.0343 38.2376 34.0376 38.2346 34.0405
C 38.2302 34.04 38.2245 34.0397 38.2172 34.0398
C 38.1053 34.0662 38.1432 34.067 37.9555 34.0182
C 37.8606 33.9979 37.6601 33.9174 37.3406 33.7366
C 37.1428 33.6247 36.8994 33.4743 36.6073 33.2759
C 35.8905 32.7906 35.1127 32.18 34.3081 31.5541
C 33.5034 30.9279 32.6519 30.2728 31.9161 29.8023
C 31.6683 29.6455 31.3822 29.4828 31.1074 29.3459
C 31.0831 29.1307 31.0568 28.8828 31.0291 28.6026
C 30.9681 27.9872 30.9078 27.3162 30.848 26.7024
C 30.8994 26.6678 30.9588 26.6307 31.0326 26.5862
C 31.4906 26.299 31.9639 26.0989 32.6362 25.9119
C 33.9701 25.5326 35.3912 25.4862 36.4194 25.8214
Z"/>
<path id="path8_fill" d="
M 54.3066 8.21819
L 66.8399 8.21819
C 67.9445 8.21819 68.8399 9.11362 68.8399 10.2182
L 68.8399 32.5024
C 69.4946 32.0838 70.1604 31.6659 70.8399 31.2526
L 70.8399 10.2182
C 70.8399 8.00905 69.0491 6.21819 66.8399 6.21819
L 54.3066 6.21819
C 52.0975 6.21819 50.3066 8.00905 50.3066 10.2182
L 50.3066 46.7818
C 50.3066 48.9909 52.0975 50.7818 54.3066 50.7818
L 56.3412 50.7818
C 56.3441 50.0824 56.3501 49.4163 56.3592 48.7818
L 54.3066 48.7818
C 53.2021 48.7818 52.3066 47.8864 52.3066 46.7818
L 52.3066 10.2182
C 52.3066 9.11362 53.2021 8.21819 54.3066 8.21819
Z"/>
<path id="path9_fill" d="
M 64.3926 56
C 64.3926 56.3378 64.4136 56.6708 64.4542 56.9976
C 64.9453 60.9451 68.3122 64 72.3926 64
C 76.8109 64 80.3926 60.4183 80.3926 56
C 80.3926 53.2917 79.0469 50.8977 76.9875 49.4504
C 76.3815 49.0244 75.7136 48.6804 75 48.4345
L 75 49
C 75 49.5203 74.9338 50.0252 74.8093 50.5066
C 75.4553 50.7912 76.0416 51.1864 76.5442 51.6682
C 77.6834 52.7603 78.3926 54.2973 78.3926 56
C 78.3926 56.3274 78.3664 56.6487 78.3159 56.9619
C 78.2004 57.6791 77.9577 58.3537 77.6118 58.9619
C 76.5799 60.7763 74.6292 62 72.3926 62
C 70.1614 62 68.2147 60.7821 67.1809 58.9749
C 66.8343 58.369 66.5904 57.697 66.4727 56.9823
C 66.42 56.6627 66.3926 56.3345 66.3926 56
C 66.3926 55.6593 66.421 55.3252 66.4756 55
L 64.4545 55
C 64.4137 55.3276 64.3926 55.6613 64.3926 56
Z"/>
<path id="path10_fill" d="
M 66.8399 50.7818
L 66.3286 50.7818
C 65.327 51.9447 64.6542 53.3989 64.4545 55
L 66.4756 55
C 66.9517 52.1623 69.4196 50 72.3926 50
C 73.2524 50 74.0699 50.1808 74.8093 50.5066
C 74.9338 50.0252 75 49.5203 75 49
L 75 48.4345
C 74.1827 48.1529 73.3055 48 72.3926 48
C 71.7688 48 71.1616 48.0714 70.5788 48.2065
C 70.0047 49.7122 68.5472 50.7818 66.8399 50.7818
Z"/>
<path id="path11_fill" d="
M 70.5788 48.2065
C 68.8968 48.5964 67.4182 49.5168 66.3286 50.7818
L 66.8399 50.7818
C 68.5472 50.7818 70.0047 49.7122 70.5788 48.2065
Z"/>
<path id="path12_fill" d="
M 59.6447 56.5158
C 58.461 56.2036 57.8009 55.884 57.2374 55.1231
C 57.2055 55.0837 57.1739 55.0427 57.1428 55
L 8 55
C 4.68629 55 2 52.3137 2 49
L 2 8
C 2 4.68629 4.68629 2 8 2
L 69 2
C 72.3137 2 75 4.68629 75 8
L 75 28.9102
C 75.6518 28.576 76.3179 28.2511 77 27.9381
L 77 8
C 77 3.58172 73.4183 0 69 0
L 8 0
C 3.58172 0 0 3.58172 0 8
L 0 49
C 0 53.4183 3.58172 57 8 57
L 69 57
C 69.265 57 69.5271 56.9871 69.7855 56.9619
C 69.4148 56.9619 69.0442 56.9619 68.6738 56.9619
C 67.9246 56.9619 67.1895 56.9726 66.4727 56.9823
C 66.42 56.6627 66.3926 56.3345 66.3926 56
C 66.3926 55.6593 66.421 55.3252 66.4756 55
L 64.4545 55
C 64.4137 55.3276 64.3926 55.6613 64.3926 56
C 64.3926 56.3378 64.4136 56.6708 64.4542 56.9976
C 62.6721 56.9904 61.0439 56.8998 59.6447 56.5158
Z"/>
<path id="path13_fill" d="
M 75 49
C 75 49.5203 74.9338 50.0252 74.8093 50.5066
C 75.4553 50.7912 76.0416 51.1864 76.5442 51.6682
C 76.7917 50.9685 76.9446 50.2241 76.9875 49.4504
C 76.3815 49.0244 75.7136 48.6804 75 48.4345
L 75 49
Z"/>
</defs>
</svg>
