<?xml version="1.0" encoding="UTF-8" standalone="no"?>
<svg width="13px" height="16px" viewBox="0 0 13 16" version="1.1" xmlns="http://www.w3.org/2000/svg" xmlns:xlink="http://www.w3.org/1999/xlink">
    <!-- Generator: Sketch 40.1 (33804) - http://www.bohemiancoding.com/sketch -->
    <title>document</title>
    <desc>Created with Sketch.</desc>
    <defs></defs>
    <g id="sign-up-flow" stroke="none" stroke-width="1" fill="none" fill-rule="evenodd">
        <g id="Icons" transform="translate(-138.000000, -44.000000)" fill="#00CCFF">
            <path d="M148.675192,60 L139.498721,60 C138.719074,60 138.086957,59.3770435 138.086957,58.6086957 L138.086957,45.3913043 C138.086957,44.6229565 138.719074,44 139.498721,44 L146.195074,44 L146.197545,44 L146.204604,44 L146.204604,44 C146.317545,44 146.413898,44.056 146.478486,44.1373913 L149.947545,47.5561739 C150.030486,47.6198261 150.086957,47.7147826 150.086957,47.826087 L150.086957,47.826087 L150.086957,47.8333913 L150.086957,47.8351304 L150.086957,58.6086957 C150.086957,59.3770435 149.454839,60 148.675192,60 L148.675192,60 Z M146.557545,45.176 L146.557545,47.4782609 L148.893662,47.4782609 L146.557545,45.176 L146.557545,45.176 Z M149.381074,48.173913 L146.204604,48.173913 C146.009427,48.173913 145.851662,48.018087 145.851662,47.826087 L145.851662,44.6956522 L139.498721,44.6956522 C139.109074,44.6956522 138.792839,45.0073043 138.792839,45.3913043 L138.792839,58.6086957 C138.792839,58.9926957 139.109074,59.3043478 139.498721,59.3043478 L148.675192,59.3043478 C149.064839,59.3043478 149.381074,58.9926957 149.381074,58.6086957 L149.381074,48.173913 L149.381074,48.173913 Z M147.263427,57.2173913 L140.910486,57.2173913 C140.715309,57.2173913 140.557545,57.061913 140.557545,56.8695652 C140.557545,56.6775652 140.715309,56.5217391 140.910486,56.5217391 L147.263427,56.5217391 C147.458604,56.5217391 147.616368,56.6775652 147.616368,56.8695652 C147.616368,57.061913 147.458604,57.2173913 147.263427,57.2173913 L147.263427,57.2173913 Z M147.263427,54.4347826 L140.910486,54.4347826 C140.715309,54.4347826 140.557545,54.2793043 140.557545,54.0869565 C140.557545,53.8949565 140.715309,53.7391304 140.910486,53.7391304 L147.263427,53.7391304 C147.458604,53.7391304 147.616368,53.8949565 147.616368,54.0869565 C147.616368,54.2793043 147.458604,54.4347826 147.263427,54.4347826 L147.263427,54.4347826 Z M147.263427,51.6521739 L140.910486,51.6521739 C140.715309,51.6521739 140.557545,51.4966957 140.557545,51.3043478 C140.557545,51.1123478 140.715309,50.9565217 140.910486,50.9565217 L147.263427,50.9565217 C147.458604,50.9565217 147.616368,51.1123478 147.616368,51.3043478 C147.616368,51.4966957 147.458604,51.6521739 147.263427,51.6521739 L147.263427,51.6521739 Z" id="document"></path>
        </g>
    </g>
</svg>