<?xml version="1.0" encoding="UTF-8" standalone="no"?>
<svg width="16px" height="16px" viewBox="0 0 16 16" version="1.1" xmlns="http://www.w3.org/2000/svg" xmlns:xlink="http://www.w3.org/1999/xlink">
    <!-- Generator: Sketch 40.1 (33804) - http://www.bohemiancoding.com/sketch -->
    <title>housing</title>
    <desc>Created with Sketch.</desc>
    <defs></defs>
    <g id="sign-up-flow" stroke="none" stroke-width="1" fill="none" fill-rule="evenodd">
        <g id="Icons" transform="translate(-56.000000, -44.000000)" fill="#C1C1C1">
            <path d="M57.0564579,51.108643 L57.0256014,51.1414585 L57.0066547,51.1864887 L57,51.2398289 L56.9999202,58.8524844 L57.0018413,58.8972245 L57.0136399,58.9403191 L57.0360252,58.9778253 L70.9315458,58.9936322 L70.96891,58.9703664 L70.9885108,58.932123 L70.9983974,58.8886607 L70.9992584,51.2531473 L70.9976568,51.2107201 L70.9869417,51.1687998 L70.9668352,51.1311049 L64.0147506,45.0195948 L57.0564579,51.108643 Z M64.088802,44.0040061 L64.1550942,44.0123004 L64.2208598,44.0250522 L64.2859409,44.0423179 L64.3501269,44.0640975 L64.4131544,44.0903346 L64.4748656,44.121142 L64.5350499,44.1564069 L64.5934438,44.1961857 L64.6498369,44.2404785 L71.6150421,50.36715 L71.6595353,50.4085651 L71.7015536,50.4523501 L71.7410973,50.4983355 L71.7780081,50.5463522 L71.812339,50.5964002 L71.8439317,50.6482537 L71.8728391,50.7018563 L71.8989031,50.7569825 L71.9221238,50.8135756 L71.9424485,50.8714665 L71.9597719,50.9305987 L71.9740939,50.9907465 L71.9853094,51.0518535 L71.9934182,51.1137505 L71.9983151,51.1762681 L72,51.2394064 L72,58.8714665 L71.998631,58.929583 L71.9945239,58.9868532 L71.9878368,59.0433335 L71.9785696,59.098911 L71.9668276,59.1535293 L71.9526108,59.2070756 L71.9360773,59.2594933 L71.9172269,59.3107262 L71.8961124,59.3607177 L71.8728918,59.4094115 L71.8475122,59.4566383 L71.8201318,59.5024544 L71.7907506,59.5466907 L71.7595264,59.5892908 L71.7264066,59.6302545 L71.6915493,59.6694691 L71.6549543,59.7068216 L71.6167271,59.7422558 L71.5769728,59.7757716 L71.5356916,59.8072561 L71.4929361,59.8365965 L71.4488641,59.8637928 L71.4034232,59.8886757 L71.3568239,59.9113017 L71.3089608,59.9315014 L71.2600447,59.9492185 L71.2100755,59.964453 L71.1591058,59.9770355 L71.107241,59.9869661 L71.0545864,59.9941319 L71.0010893,59.9984766 L70.9469077,60 L57.0530923,60 L56.9989107,59.9984766 L56.9454136,59.9941319 L56.8927063,59.9869661 L56.8408416,59.9770355 L56.7899245,59.964453 L56.7399553,59.9492185 L56.6909865,59.9315014 L56.6431761,59.9113017 L56.5965241,59.8886757 L56.5511359,59.8637928 L56.5070113,59.8365965 L56.4643084,59.8072561 L56.4230272,59.7757716 L56.3832203,59.7422558 L56.344993,59.7068216 L56.3084507,59.6694691 L56.2735934,59.6302545 L56.2404736,59.5892908 L56.2091968,59.5466907 L56.1798682,59.5024544 L56.1524878,59.4566383 L56.1271082,59.4094115 L56.1038349,59.3607177 L56.0827731,59.3107262 L56.0639227,59.2594933 L56.0473365,59.2070756 L56.0331724,59.1535293 L56.0213778,59.098911 L56.0121632,59.0433335 L56.0054234,58.9868532 L56.001369,58.929583 L56,58.8714665 L56,51.2394064 L56.0016323,51.1762681 L56.0065292,51.1137505 L56.014638,51.0518535 L56.0259061,50.9907465 L56.0401755,50.9305987 L56.0575515,50.8714665 L56.0778762,50.8135756 L56.1010969,50.7569825 L56.1271609,50.7018563 L56.1560683,50.6482537 L56.187661,50.5964002 L56.2219919,50.5463522 L56.2589027,50.4983355 L56.2983937,50.4523501 L56.3404121,50.4085651 L56.3849052,50.36715 L63.3317866,44.2562772 L63.3686975,44.225244 L63.4258277,44.1824748 L63.4848009,44.144163 L63.5455117,44.1103651 L63.6076968,44.0810811 L63.6711456,44.056311 L63.7356475,44.0360548 L63.8009919,44.0203126 L63.8669681,44.0090278 L63.9333656,44.002257 L63.9999737,44 L64.088802,44.0040061 Z M62,59 L66,59 L65,60 L65,54 L66,55 L62,55 L63,54 L63,60 L62,59 Z M62,60 L62,54 L66,54 L66,60 L62,60 Z" id="housing"></path>
        </g>
    </g>
</svg>