<?xml version="1.0" encoding="UTF-8"?>
<svg width="32px" height="29px" viewBox="0 0 32 29" version="1.1" xmlns="http://www.w3.org/2000/svg" xmlns:xlink="http://www.w3.org/1999/xlink">
    <!-- Generator: Sketch 40.1 (33804) - http://www.bohemiancoding.com/sketch -->
    <title>Group 7</title>
    <desc>Created with Sketch.</desc>
    <defs></defs>
    <g id="Marketing" stroke-width="1" fill="none" fill-rule="evenodd">
        <g id="Group-7">
            <path fill='#c1c1c1' d="M16.137,0.116 L16.179,0.117 L16.222,0.119 L16.264,0.123 L16.306,0.127 L16.348,0.131 L16.39,0.137 L16.431,0.144 L16.473,0.151 L16.515,0.16 L16.556,0.169 L16.597,0.179 L16.638,0.19 L16.679,0.202 L16.72,0.215 L16.76,0.229 L16.8,0.244 L16.84,0.259 L16.88,0.276 L16.919,0.293 L16.958,0.311 L16.997,0.33 L17.035,0.35 L17.073,0.371 L17.111,0.393 L17.149,0.415 L17.185,0.439 L17.222,0.463 L17.258,0.488 L17.294,0.515 L17.329,0.542 L17.364,0.57 L30.557,11.4 L30.6,11.436 L30.642,11.473 L30.682,11.512 L30.722,11.551 L30.76,11.591 L30.797,11.632 L30.832,11.674 L30.867,11.718 L30.9,11.761 L30.932,11.806 L30.963,11.852 L30.992,11.898 L31.02,11.945 L31.047,11.993 L31.072,12.042 L31.096,12.091 L31.119,12.141 L31.141,12.191 L31.16,12.242 L31.179,12.294 L31.196,12.346 L31.212,12.398 L31.226,12.452 L31.239,12.505 L31.251,12.559 L31.261,12.613 L31.269,12.668 L31.276,12.723 L31.281,12.778 L31.285,12.834 L31.288,12.89 L31.288,12.946 L31.288,26.472 L31.288,26.524 L31.286,26.575 L31.283,26.626 L31.278,26.677 L31.272,26.727 L31.265,26.777 L31.257,26.826 L31.248,26.875 L31.237,26.924 L31.225,26.972 L31.212,27.02 L31.198,27.067 L31.183,27.114 L31.167,27.16 L31.15,27.205 L31.131,27.251 L31.112,27.295 L31.091,27.339 L31.07,27.383 L31.047,27.425 L31.023,27.468 L30.999,27.509 L30.973,27.55 L30.947,27.59 L30.919,27.63 L30.891,27.669 L30.862,27.707 L30.832,27.744 L30.801,27.781 L30.769,27.817 L30.736,27.852 L30.703,27.886 L30.668,27.92 L30.633,27.953 L30.597,27.984 L30.561,28.015 L30.523,28.046 L30.485,28.075 L30.446,28.103 L30.407,28.131 L30.366,28.157 L30.325,28.183 L30.284,28.207 L30.242,28.231 L30.199,28.253 L30.155,28.275 L30.111,28.295 L30.067,28.315 L30.022,28.333 L29.976,28.351 L29.93,28.367 L29.883,28.382 L29.836,28.396 L29.788,28.409 L29.74,28.421 L29.691,28.432 L29.642,28.441 L29.593,28.449 L29.543,28.456 L29.493,28.462 L29.442,28.466 L29.391,28.47 L29.34,28.471 L29.288,28.472 L2.902,28.472 L2.85,28.471 L2.799,28.47 L2.748,28.466 L2.697,28.462 L2.647,28.456 L2.597,28.449 L2.548,28.441 L2.499,28.432 L2.45,28.421 L2.402,28.409 L2.354,28.396 L2.307,28.382 L2.26,28.367 L2.214,28.351 L2.168,28.333 L2.123,28.315 L2.079,28.295 L2.035,28.275 L1.991,28.253 L1.948,28.231 L1.906,28.207 L1.865,28.183 L1.824,28.157 L1.783,28.131 L1.744,28.103 L1.705,28.075 L1.667,28.046 L1.63,28.015 L1.593,27.984 L1.557,27.953 L1.522,27.92 L1.487,27.886 L1.454,27.852 L1.421,27.817 L1.389,27.781 L1.358,27.744 L1.328,27.707 L1.299,27.669 L1.271,27.63 L1.243,27.59 L1.217,27.55 L1.191,27.509 L1.167,27.468 L1.143,27.425 L1.121,27.383 L1.099,27.339 L1.078,27.295 L1.059,27.251 L1.04,27.205 L1.023,27.16 L1.007,27.114 L0.992,27.067 L0.978,27.02 L0.965,26.972 L0.953,26.924 L0.942,26.875 L0.933,26.826 L0.925,26.777 L0.918,26.727 L0.912,26.677 L0.908,26.626 L0.904,26.575 L0.902,26.524 L0.902,26.472 L0.902,12.946 L0.902,12.89 L0.905,12.834 L0.909,12.778 L0.914,12.723 L0.921,12.668 L0.93,12.613 L0.939,12.559 L0.951,12.505 L0.964,12.452 L0.978,12.398 L0.994,12.346 L1.011,12.294 L1.03,12.242 L1.05,12.191 L1.071,12.141 L1.094,12.091 L1.118,12.042 L1.143,11.993 L1.17,11.945 L1.198,11.898 L1.227,11.852 L1.258,11.806 L1.29,11.761 L1.323,11.718 L1.358,11.674 L1.393,11.632 L1.43,11.591 L1.468,11.551 L1.508,11.512 L1.548,11.473 L1.59,11.436 L1.633,11.4 L14.826,0.57 L14.861,0.542 L14.896,0.515 L14.932,0.488 L14.968,0.463 L15.005,0.439 L15.042,0.415 L15.079,0.393 L15.117,0.371 L15.155,0.35 L15.193,0.33 L15.232,0.311 L15.271,0.293 L15.31,0.276 L15.35,0.259 L15.39,0.244 L15.43,0.229 L15.47,0.215 L15.511,0.202 L15.552,0.19 L15.593,0.179 L15.634,0.169 L15.676,0.16 L15.717,0.151 L15.759,0.144 L15.801,0.137 L15.842,0.131 L15.884,0.127 L15.926,0.123 L15.969,0.119 L16.011,0.117 L16.053,0.116 L16.095,0.115 L16.137,0.116 L16.137,0.116 Z M16.087,2.122 L2.913,12.937 L2.902,12.946 L2.902,12.96 L2.902,26.459 L2.902,26.472 L2.915,26.472 L29.275,26.472 L29.288,26.472 L29.288,26.459 L29.288,12.96 L29.288,12.946 L29.288,12.946 L29.277,12.937 L16.103,2.122 L16.095,2.116 L16.087,2.122 L16.087,2.122 Z" id="Shape" fill="#000000"></path>
            <rect id="Rectangle-path" stroke="#c1c1c1" stroke-width="2" x="13" y="18" width="6" height="9"></rect>
        </g>
    </g>
</svg>