<?xml version="1.0" encoding="UTF-8" standalone="no"?>
<svg width="16px" height="16px" viewBox="0 0 16 16" version="1.1" xmlns="http://www.w3.org/2000/svg" xmlns:xlink="http://www.w3.org/1999/xlink">
    <!-- Generator: Sketch 40.1 (33804) - http://www.bohemiancoding.com/sketch -->
    <title>interests</title>
    <desc>Created with Sketch.</desc>
    <defs></defs>
    <g id="sign-up-flow" stroke="none" stroke-width="1" fill="none" fill-rule="evenodd">
        <g id="Icons" transform="translate(-36.000000, -44.000000)" fill="#C1C1C1">
            <path d="M44.0313248,44.0006015 L44.0624926,44.0023513 L44.0933991,44.0052495 L44.1240963,44.0093507 L44.1544797,44.0144909 L44.1846017,44.0207794 L44.2143576,44.0282162 L44.2437998,44.0366373 L44.2728235,44.0461521 L44.3014813,44.0567605 L44.3297206,44.0683532 L44.3575416,44.0809301 L44.3848397,44.0945461 L44.411667,44.1090917 L44.4379715,44.1246215 L44.463753,44.1411356 L44.4889592,44.1585247 L44.5135902,44.176898 L44.5375936,44.1960916 L44.5609696,44.2162147 L44.5836656,44.2372128 L44.6056819,44.2590312 L44.626966,44.2816697 L44.6475179,44.3051285 L44.6673378,44.3294076 L44.6863732,44.3545069 L44.7045719,44.380317 L44.7219339,44.4068927 L44.7384591,44.434234 L44.7540954,44.4622861 L44.7688426,44.4910492 L44.7826485,44.5204684 L46.7165736,48.8395136 L51.2424532,49.4280617 L51.2735165,49.432655 L51.3042137,49.4384514 L51.3345448,49.4453414 L51.3645099,49.453325 L51.3940567,49.4624023 L51.423185,49.4725186 L51.4518427,49.4836738 L51.4800298,49.4958681 L51.5077462,49.5091012 L51.5349397,49.523264 L51.5616102,49.5384111 L51.5877054,49.5544877 L51.6132254,49.5715487 L51.6381179,49.5894299 L51.6623828,49.6082953 L51.6860202,49.6279811 L51.7089778,49.648487 L51.7312555,49.6698679 L51.7528011,49.6920143 L51.7736145,49.7150356 L51.7936435,49.7387679 L51.8129404,49.7632656 L51.8314006,49.7884743 L51.849024,49.8144485 L51.8658108,49.8410789 L51.8817085,49.8684202 L51.8967695,49.8964176 L51.9108369,49.9250166 L51.9240152,49.9542717 L51.9362523,49.9841284 L51.9474957,50.0145319 L51.9576933,50.0455369 L51.9668449,50.0769247 L51.9748461,50.1084218 L51.981749,50.140083 L51.9875538,50.1717989 L51.992208,50.2036788 L51.9958164,50.235504 L51.9982743,50.2674386 L51.9996862,50.2993185 L52,50.3311438 L51.9992679,50.3629143 L51.9974375,50.3945755 L51.9945613,50.4260726 L51.9906392,50.4574604 L51.9856711,50.4886841 L51.9796572,50.5196344 L51.9726497,50.550366 L51.9645962,50.5808242 L51.9554969,50.6109543 L51.9454562,50.6407563 L51.9343696,50.6702301 L51.9222895,50.6992666 L51.909268,50.7279202 L51.8952529,50.7560817 L51.8802442,50.7838058 L51.8642942,50.810983 L51.8473506,50.8376681 L51.8294657,50.8637516 L51.8106917,50.8892337 L51.7909242,50.9141142 L51.7702676,50.9383386 L51.7486697,50.9618521 L51.7261828,50.9847094 L48.3954556,54.2425854 L49.2587431,58.9253242 L49.2641295,58.9576415 L49.2683654,58.9899589 L49.2714508,59.0222763 L49.273438,59.054539 L49.274327,59.0866923 L49.2741178,59.118791 L49.2728105,59.1507803 L49.2704572,59.1826055 L49.2670057,59.214212 L49.2625083,59.2456544 L49.2569651,59.2768235 L49.2503759,59.3077738 L49.2427931,59.338396 L49.2342167,59.3686901 L49.2245944,59.3986562 L49.2139785,59.4282394 L49.2024213,59.4573852 L49.1898181,59.4861482 L49.176326,59.5144191 L49.1618926,59.5422525 L49.1464655,59.5694844 L49.1301494,59.5962242 L49.112892,59.6224171 L49.0947456,59.6479538 L49.0757102,59.6728891 L49.0557335,59.6971681 L49.0349201,59.7207363 L49.0132699,59.7436483 L48.9907307,59.76574 L48.9673548,59.7871209 L48.9431422,59.8076815 L48.9181451,59.8274766 L48.8924159,59.8462327 L48.8662684,59.8639499 L48.8395979,59.8805733 L48.812509,59.8961579 L48.7850018,59.9106487 L48.7571285,59.924046 L48.7288891,59.9363495 L48.7002837,59.9476141 L48.6714691,59.9577851 L48.6423407,59.9668624 L48.6129509,59.9747914 L48.5834041,59.9816814 L48.5536482,59.9874777 L48.5237354,59.9921804 L48.4937181,59.9957894 L48.4635961,59.9983048 L48.4334218,59.9997266 L48.4031952,60 L48.3729687,59.9991798 L48.3427421,59.9972659 L48.3126201,59.9942583 L48.2825504,59.9901571 L48.2525853,59.9849076 L48.2227248,59.9785644 L48.1930735,59.9710729 L48.1635791,59.9624878 L48.1343461,59.952809 L48.1053223,59.9419818 L48.0766123,59.9300064 L48.0481638,59.9169372 L48.0200813,59.9027198 L47.9923649,59.8874087 L44,57.5818837 L40.0076351,59.8874087 L39.9799187,59.9027198 L39.9518362,59.9169372 L39.9233877,59.9300064 L39.8946777,59.9419818 L39.8657062,59.952809 L39.8364209,59.9624878 L39.8069265,59.9710729 L39.7772752,59.9785644 L39.747467,59.9849076 L39.7174496,59.9901571 L39.6873799,59.9942583 L39.6572579,59.9972659 L39.6270313,59.9991798 L39.5968048,60 L39.5665782,59.9997266 L39.5364039,59.9983048 L39.5062819,59.9957894 L39.4762646,59.9921804 L39.4463518,59.9874777 L39.4165959,59.9816814 L39.3870491,59.9747914 L39.3576593,59.9668624 L39.3285832,59.9577851 L39.2997163,59.9476141 L39.2711632,59.9363495 L39.2429238,59.924046 L39.2149982,59.9106487 L39.187491,59.8961579 L39.1604021,59.8805733 L39.1337839,59.8639499 L39.1075841,59.8462327 L39.0818549,59.8274766 L39.0568578,59.8076815 L39.0326452,59.7871209 L39.0092693,59.76574 L38.9867301,59.7436483 L38.9650799,59.7207363 L38.9442665,59.6971681 L38.9243421,59.6728891 L38.9052544,59.6479538 L38.887108,59.6224171 L38.8698506,59.5962242 L38.8535345,59.5694844 L38.8381597,59.5422525 L38.823674,59.5144191 L38.8101819,59.4861482 L38.797631,59.4573852 L38.7860215,59.4282394 L38.7754056,59.3986562 L38.7658356,59.3686901 L38.7572069,59.338396 L38.7496241,59.3077738 L38.7430349,59.2768235 L38.7374917,59.2456544 L38.7329943,59.214212 L38.7295428,59.1826055 L38.7271895,59.1507803 L38.7258822,59.118791 L38.725673,59.0866923 L38.726562,59.054539 L38.7285492,59.0222763 L38.7316346,58.9899589 L38.7358705,58.9576415 L38.7412569,58.9253242 L39.6045444,54.2425854 L36.2738172,50.9847094 L36.2513303,50.9618521 L36.2297324,50.9383386 L36.2090758,50.9141142 L36.1893083,50.8892337 L36.1705343,50.8637516 L36.1526494,50.8376681 L36.1357058,50.810983 L36.1197558,50.7838058 L36.1047471,50.7560817 L36.090732,50.7279202 L36.0777105,50.6992666 L36.0656304,50.6702301 L36.0545438,50.6407563 L36.0445031,50.6109543 L36.0354038,50.5808242 L36.0273503,50.550366 L36.0203428,50.5196344 L36.0143289,50.4886841 L36.0093608,50.4574604 L36.0054387,50.4260726 L36.0025625,50.3945755 L36.0007321,50.3629143 L36,50.3311438 L36.0003138,50.2993185 L36.0017257,50.2674386 L36.0041836,50.235504 L36.007792,50.2036788 L36.0124462,50.1717989 L36.018251,50.140083 L36.0251539,50.1084218 L36.0331551,50.0769247 L36.0423067,50.0455369 L36.0525566,50.0145319 L36.0637477,49.9841284 L36.0759848,49.9542717 L36.0891631,49.9250166 L36.1032305,49.8964176 L36.1182915,49.8684202 L36.1341892,49.8410789 L36.150976,49.8144485 L36.1685994,49.7884743 L36.1870596,49.7632656 L36.2063565,49.7387679 L36.2263855,49.7150356 L36.2471989,49.6920143 L36.2687445,49.6698679 L36.2910222,49.648487 L36.3139798,49.6279811 L36.3376172,49.6082953 L36.3618821,49.5894299 L36.3868269,49.5715487 L36.4122946,49.5544877 L36.4383898,49.5384111 L36.4650603,49.523264 L36.4922538,49.5091012 L36.5199702,49.4958681 L36.5481573,49.4836738 L36.576815,49.4725186 L36.6059433,49.4624023 L36.6354901,49.453325 L36.6654552,49.4453414 L36.6957863,49.4384514 L36.7264835,49.432655 L36.7575468,49.4280617 L41.2834787,48.8395136 L43.2173515,44.5204684 L43.2311574,44.4910492 L43.2459046,44.4622861 L43.2615409,44.434234 L43.2780661,44.4068927 L43.2954281,44.380317 L43.3136268,44.3545069 L43.3326622,44.3294076 L43.3524821,44.3051285 L43.373034,44.2816697 L43.3943181,44.2590312 L43.4163344,44.2372128 L43.4390304,44.2162147 L43.4624064,44.1960916 L43.4864098,44.176898 L43.5110408,44.1585247 L43.536247,44.1411356 L43.5620285,44.1246215 L43.588333,44.1090917 L43.6151603,44.0945461 L43.6425107,44.0809301 L43.6702794,44.0683532 L43.6985187,44.0567605 L43.7271765,44.0461521 L43.7562525,44.0366373 L43.7856424,44.0282162 L43.8154506,44.0207794 L43.8455203,44.0144909 L43.8759037,44.0093507 L43.9066009,44.0052495 L43.9375074,44.0023513 L43.9686752,44.0006015 L44,44 L44.0313248,44.0006015 Z M42.2306998,49.3032215 L42.1934134,49.3786287 L42.1506883,49.4508096 L42.1027337,49.5192722 L42.0498634,49.5836882 L41.9923388,49.6435656 L41.9305783,49.6986309 L41.8649479,49.748556 L41.7957615,49.7929583 L41.7234897,49.8316188 L41.6486031,49.864319 L41.5714678,49.89084 L41.4926591,49.9110178 L41.412543,49.9247432 L37.2717646,50.4632568 L40.3190524,53.4438923 L40.3761064,53.5042071 L40.4285584,53.5690059 L40.4760423,53.6378512 L40.5182445,53.7103603 L40.5549556,53.7860409 L40.5859666,53.8645104 L40.611016,53.9452218 L40.6300514,54.0277377 L40.642916,54.111566 L40.6495052,54.1961599 L40.6497666,54.2810272 L40.643805,54.3656758 L40.6315156,54.4495588 L39.8417027,58.7338806 L43.4943587,56.6245019 L43.566892,56.5863882 L43.64204,56.5542895 L43.7193322,56.5283153 L43.7982978,56.508739 L43.8784662,56.4956151 L43.959419,56.4890532 L44.040581,56.4890532 L44.1215338,56.4956151 L44.2017022,56.508739 L44.2806678,56.5283153 L44.35796,56.5542895 L44.433108,56.5863882 L44.5056413,56.6245019 L48.1582973,58.7338806 L47.3684844,54.4495588 L47.356195,54.3656758 L47.3502334,54.2810272 L47.3504948,54.1961599 L47.357084,54.111566 L47.3699486,54.0277377 L47.388984,53.9452218 L47.4140334,53.8645104 L47.4450444,53.7860409 L47.4817555,53.7103603 L47.52401,53.6378512 L47.5714416,53.5690059 L47.6238936,53.5042071 L47.6809999,53.4438923 L50.7282354,50.4632568 L46.587457,49.9247432 L46.5073932,49.9110178 L46.4285322,49.89084 L46.3513969,49.864319 L46.2765103,49.8316188 L46.2042385,49.7929583 L46.1351044,49.748556 L46.0694217,49.6986309 L46.0076612,49.6435656 L45.9501366,49.5836882 L45.8972663,49.5192722 L45.8493117,49.4508096 L45.8065866,49.3786287 L45.7693525,49.3032215 L44,45.3516976 L42.2306998,49.3032215 Z" id="interests"></path>
        </g>
    </g>
</svg>