<svg xmlns="http://www.w3.org/2000/svg" xmlns:xlink="http://www.w3.org/1999/xlink" width="18" height="8" viewBox="0 0 18 8" version="1.1"><title>i-key</title><g id="Canvas" transform="translate(-207 -25)"><g id="i-key0" mix-blend-mode="normal"><use xlink:href="#i-key" transform="translate(207 25)" mix-blend-mode="normal"/></g></g><defs><path id="i-key" fill-rule="evenodd" d="M16 4C16 5.1 15.1 6 14 6 12.9 6 12 5.1 12 4 12 2.9 12.9 2 14 2 15.1 2 16 2.9 16 4ZM18 4C18 6.21 16.21 8 14 8 12.13 8 10.57 6.72 10.12 4.99 10.08 5 10.04 5 10 5L7 5 7 7 5 7 5 5 3 5 3 7 1 7 1 5C0.45 5 0 4.55 0 4 0 3.45 0.45 3 1 3L10 3C10.04 3 10.08 3 10.12 3.01 10.57 1.28 12.13 0 14 0 16.21 0 18 1.79 18 4Z"/></defs></svg>
