<?xml version="1.0" encoding="UTF-8" standalone="no"?>
<svg width="18px" height="15px" viewBox="0 0 18 15" version="1.1" xmlns="http://www.w3.org/2000/svg" xmlns:xlink="http://www.w3.org/1999/xlink">
    <!-- Generator: Sketch 40.1 (33804) - http://www.bohemiancoding.com/sketch -->
    <title>like</title>
    <desc>Created with Sketch.</desc>
    <defs></defs>
    <g id="sign-up-flow" stroke="none" stroke-width="1" fill="none" fill-rule="evenodd" stroke-linecap="round" stroke-linejoin="round">
        <g id="Icons" transform="translate(-55.000000, -68.000000)" stroke="#00CCFF">
            <path d="M56.3276941,73.826887 L60.2964341,73.826887 C60.5148968,73.826887 60.7333596,74.303652 60.7333596,74.5079798 L60.7333596,81.7616175 C60.7333596,81.9659454 60.5513073,82 60.2964341,82 L56.3276941,82 C56.1092314,82 56,81.9659454 56,81.7616175 L56,74.5079798 C56,74.303652 56.1092314,73.826887 56.3276941,73.826887 Z M67.6513466,73.1161816 L71.0739297,73.1161816 C71.6200866,73.1161816 72.0934225,74.596818 71.9841911,75.1150407 C71.9841911,75.1150407 70.7098251,80.3713 70.382131,81.18565 C70.0544368,82 69.034944,82 68.7800708,82 L68.161093,82 M61.0974641,75.1120674 L61.9349047,74.7919403 L63.6826067,71.7329487 C63.6826067,71.7329487 63.6097858,70.1323135 63.791838,69.6343382 C63.9738903,69.1363628 65.5759505,68.247121 66.5226224,70.2390225 C67.4692943,72.2309241 67.6513466,73.1201659 67.6513466,73.1201659 M68.8893022,82 L64.0103008,82 L63.6097858,82 C62.7723452,82 61.0974641,80.7207301 61.0974641,80.7207301" id="like"></path>
        </g>
    </g>
</svg>