<?xml version="1.0" encoding="UTF-8" standalone="no"?>
<svg
   xmlns:dc="http://purl.org/dc/elements/1.1/"
   xmlns:cc="http://creativecommons.org/ns#"
   xmlns:rdf="http://www.w3.org/1999/02/22-rdf-syntax-ns#"
   xmlns:svg="http://www.w3.org/2000/svg"
   xmlns="http://www.w3.org/2000/svg"
   id="svg2"
   viewBox="0 0 20 22"
   height="22"
   width="20"
   version="1.1">
  <metadata
     id="metadata10">
    <rdf:RDF>
      <cc:Work
         rdf:about="">
        <dc:format>image/svg+xml</dc:format>
        <dc:type
           rdf:resource="http://purl.org/dc/dcmitype/StillImage" />
        <dc:title></dc:title>
      </cc:Work>
    </rdf:RDF>
  </metadata>
  <defs
     id="defs8" />
  <path
     id="path4"
     d="M 2.0356893,6.875e-4 C 0.9111267,6.875e-4 0,0.8957845 0,2.0005625 L 0,20.000125 C 0,21.104903 0.9111267,22 2.0356893,22 l 9.8089577,0 c 1.124562,0 2.035689,-0.895097 2.035689,-1.999875 l 0,-3.090903 c 0,-0.50186 -0.414276,-0.908847 -0.925123,-0.908847 l 0,0 c -0.510846,0 -0.925122,0.406987 -0.925122,0.908847 l 0,2.090622 c 0,0.552045 -0.455563,1.000281 -1.018195,1.000281 l -8.1427567,0 c -0.5619315,0 -1.0181946,-0.447549 -1.0181946,-1.000281 l 0,-15.9996878 c 0,-0.5520452 0.4555633,-1.0002812 1.0181946,-1.0002812 l 8.1427567,0 c 0.561932,0 1.018195,0.4475485 1.018195,1.0002812 l 0,2.0906218 c 0,0.50186 0.414276,0.908847 0.925122,0.908847 l 0,0 c 0.510847,0 0.925123,-0.406987 0.925123,-0.908847 l 0,-3.090903 C 13.880336,0.895097 12.968509,0 11.844647,0 L 2.0356893,0 Z M 15.060882,8.104684 c -0.335899,-0.362988 -0.335899,-0.917096 0,-1.280085 l 0,0 c 0.384184,-0.415237 1.048985,-0.415237 1.43317,0 l 3.241427,3.502703 c 0.352695,0.381551 0.352695,0.963845 0,1.345396 l -3.241427,3.502703 c -0.384185,0.415237 -1.048986,0.415237 -1.43317,0 l 0,0 c -0.335899,-0.362989 -0.335899,-0.917097 0,-1.280085 l 1.752974,-1.894691 -9.319104,0 c -0.561932,0 -1.016795,-0.447549 -1.016795,-0.998906 l 0,0 c 0,-0.552046 0.455563,-0.998907 1.016795,-0.998907 l 9.322603,0 -1.756473,-1.898128 z" />
</svg>
