<?xml version="1.0" encoding="UTF-8"?>
<svg width="16px" height="16px" viewBox="0 0 16 16" version="1.1" xmlns="http://www.w3.org/2000/svg" xmlns:xlink="http://www.w3.org/1999/xlink">
    <!-- Generator: Sketch 40.1 (33804) - http://www.bohemiancoding.com/sketch -->
    <title>i-membership</title>
    <desc>Created with Sketch.</desc>
    <defs></defs>
    <g id="Marketing" stroke="none" stroke-width="1" fill="none" fill-rule="evenodd">
        <g id="i-membership" transform="translate(0.000000, 2.000000)" fill="#C1C1C1">
            <g id="Group">
                <g id="sign-up-flow">
                    <g id="Icons">
                        <g id="Group">
                            <path d="M9.71428571,6.86066798 C9.8003029,6.40104344 9.76804645,5.91533533 9.71428571,5.46124843 C10.5529533,5.33388259 10.9978036,4.90172603 11.4063852,4.13199336 C11.4117613,4.12091807 11.4117613,4.10984278 11.4010092,4.09876749 C11.390257,4.0876922 11.3795049,4.0876922 11.3687527,4.09876749 C10.8418975,4.45317678 10.2344011,4.61930613 9.61077651,4.58608026 C9.14843414,4.56392968 8.71297214,4.43102619 8.31514267,4.1984451 C8.30439052,4.19290746 8.29363837,4.19290746 8.28288622,4.20398275 C8.27213407,4.21505804 8.27213407,4.22613333 8.27751015,4.23720862 C8.76673288,5.05678009 8.97639977,5.99817976 8.89575866,6.95619236 C8.80974148,7.94743083 8.41728807,8.85560462 7.76140704,9.58103613 C7.75065489,9.59211142 7.75065489,9.60872435 7.76140704,9.61979964 C7.76678312,9.62533729 7.77215919,9.63087494 7.78291134,9.63087494 L9.29896421,9.63087494 C9.30971636,9.63087494 9.31509244,9.62533729 9.31509244,9.614262 C9.31509244,9.60872435 9.30971636,9.60318671 9.30434029,9.59764906 L8.57142857,9.21093423 C9.20042923,8.57410504 9.54762742,7.76330413 9.71428571,6.86066798 L9.71428571,6.86066798 Z M6.32599528,6.41350314 C6.32599528,6.41350314 6.41738854,7.68162386 6.2184738,8.77807759 C6.12708054,9.20447626 5.93354187,9.68625139 5.53033632,9.91329483 C5.51958417,9.91883248 5.5142081,9.92990777 5.5142081,9.94098306 C5.5142081,9.95205835 5.52496025,9.96313364 5.53571239,9.96313364 C6.24535417,9.96313364 6.9012352,9.60318671 7.29906468,8.99958339 C7.96569785,8.10248489 8.31514267,7.02818174 8.31514267,5.89850214 C8.31514267,5.40565173 8.2452537,4.91280132 8.11085185,4.44210149 C8.0194586,4.14306865 8.01408252,3.93817578 8.01408252,3.93263814 C8.01408252,3.19059369 8.60007459,2.58699038 9.32046851,2.58699038 C9.32584458,2.58699038 9.33122066,2.58145273 9.33659673,2.58145273 C9.34197281,2.50946335 9.32046851,2.47069983 9.27745992,2.43747396 C9.12692984,2.31010813 8.74522859,2.38209751 8.72910037,2.38209751 C8.72910037,2.38209751 8.50330526,2.42086103 8.266758,2.25473167 C8.07859541,2.12182819 7.8528003,2.04430116 7.6055009,2.04430116 C7.28831253,2.04430116 6.99800453,2.17720464 6.78833764,2.38763516 C6.49265357,2.6755927 6.32599528,3.12414195 6.29373883,3.71113233 C6.29373883,4.47532736 5.48732773,4.9349519 5.32604551,5.01801657 C4.78306203,5.31151176 4.30459144,5.7822116 4.0035313,6.3470514 C3.99815522,6.35812669 3.99815522,6.37473962 4.00890737,6.38581491 C4.01965952,6.3968902 4.03578774,6.3968902 4.04653989,6.39135256 C4.55189085,6.05355621 5.11100255,5.86527627 5.69161854,5.82651276 C6.02493513,5.80989982 6.30449098,6.07016914 6.32599528,6.41350314 L6.32599528,6.41350314 Z M1,10.0046024 C1,10.5443356 1.45078007,11 2.00684547,11 L13.9931545,11 C14.5500512,11 15,10.5543453 15,10.0046024 L15,1.99539757 C15,1.4556644 14.5492199,1 13.9931545,1 L2.00684547,1 C1.44994876,1 1,1.44565467 1,1.99539757 L1,10.0046024 L1,10.0046024 Z M0,1.99539757 C0,0.890639253 0.900368558,0 2.00684547,0 L13.9931545,0 C15.0970242,0 16,0.898909765 16,1.99539757 L16,10.0046024 C16,11.1093607 15.0996314,12 13.9931545,12 L2.00684547,12 C0.9029758,12 0,11.1010902 0,10.0046024 L0,1.99539757 L0,1.99539757 Z" id="Combined-Shape"></path>
                        </g>
                    </g>
                </g>
            </g>
        </g>
    </g>
</svg>