<?xml version="1.0" encoding="UTF-8" standalone="no"?>
<svg width="16px" height="4px" viewBox="0 0 16 4" version="1.1" xmlns="http://www.w3.org/2000/svg" xmlns:xlink="http://www.w3.org/1999/xlink">
    <!-- Generator: Sketch 40.1 (33804) - http://www.bohemiancoding.com/sketch -->
    <title>membership icon</title>
    <desc>Created with Sketch.</desc>
    <defs></defs>
    <g id="sign-up-flow" stroke="none" stroke-width="1" fill="none" fill-rule="evenodd">
        <g id="Icons" transform="translate(-76.000000, -48.000000)" fill="#C1C1C1">
            <path d="M76.5714286,55.8372366 C76.5714286,56.1574708 76.8288098,56.4193548 77.1442595,56.4193548 L90.8557405,56.4193548 C91.1709895,56.4193548 91.4285714,56.1579113 91.4285714,55.8372366 L91.4285714,49.1627634 C91.4285714,48.8425292 91.1711902,48.5806452 90.8557405,48.5806452 L77.1442595,48.5806452 C76.8290105,48.5806452 76.5714286,48.8420887 76.5714286,49.1627634 L76.5714286,55.8372366 Z M77.1442595,48 L90.8557405,48 C91.4876976,48 92,48.5227793 92,49.1627634 L92,55.8372366 C92,56.4794131 91.4857728,57 90.8557405,57 L77.1442595,57 C76.5123024,57 76,56.4772207 76,55.8372366 L76,49.1627634 C76,48.5205869 76.5142272,48 77.1442595,48 Z M86.475883,50.066378 L86.3549213,50.3334829 L86.6089408,50.2062901 L86.7016781,50.4861142 L86.7944154,50.2062901 L87.0484349,50.3334829 L86.9274732,50.066378 L87.1935889,49.9688636 L86.9274732,49.8713491 L87.0484349,49.6042442 L86.7944154,49.731437 L86.7016781,49.4516129 L86.6089408,49.731437 L86.3549213,49.6042442 L86.475883,49.8713491 L86.2097673,49.9688636 L86.475883,50.066378 Z M86.7097422,50.7913769 C87.1613325,50.7913769 87.5927624,50.7065817 88,50.5624299 L85.4194845,50.5624299 C85.82269,50.7108215 86.258152,50.7913769 86.7097422,50.7913769 Z M85.4285714,53.1730618 C85.4930843,52.8211618 85.468892,52.4492915 85.4285714,52.1016312 C86.0575721,52.0041168 86.3912098,51.6732469 86.6976461,51.0839203 C86.7016781,51.0754408 86.7016781,51.0669613 86.693614,51.0584818 C86.6855499,51.0500022 86.6774858,51.0500022 86.6694217,51.0584818 C86.2742802,51.3298264 85.818658,51.4570192 85.3509395,51.4315806 C85.0041827,51.4146216 84.6775863,51.3128673 84.3792141,51.1347974 C84.37115,51.1305577 84.3630859,51.1305577 84.3550218,51.1390372 C84.3469577,51.1475167 84.3469577,51.1559962 84.3509898,51.1644758 C84.7179068,51.7919602 84.875157,52.5127193 84.8146761,53.2461977 C84.7501633,54.0051146 84.4558232,54.7004352 83.9639124,55.2558437 C83.9558483,55.2643232 83.9558483,55.2770425 83.9639124,55.285522 C83.9679445,55.2897618 83.9719765,55.2940015 83.9800406,55.2940015 L85.1170803,55.2940015 C85.1251444,55.2940015 85.1291765,55.2897618 85.1291765,55.2812822 C85.1291765,55.2770425 85.1251444,55.2728027 85.1211124,55.268563 L84.5714286,54.9724844 C85.0431791,54.4849121 85.3035777,53.8641426 85.4285714,53.1730618 Z M82.8873536,52.8307012 C82.8873536,52.8307012 82.9558985,53.8016062 82.8067125,54.6410786 C82.7381675,54.96754 82.5930135,55.3363991 82.2906094,55.5102293 C82.2825453,55.514469 82.2785132,55.5229485 82.2785132,55.5314281 C82.2785132,55.5399076 82.2865773,55.5483871 82.2946414,55.5483871 C82.8268728,55.5483871 83.3187835,55.2728027 83.6171556,54.8106689 C84.1171305,54.1238279 84.3792141,53.3013145 84.3792141,52.4364036 C84.3792141,52.059065 84.3267974,51.6817264 84.225996,51.3213469 C84.1574511,51.0923998 84.153419,50.9355287 84.153419,50.931289 C84.153419,50.3631612 84.5929131,49.9010274 85.1332085,49.9010274 C85.1372406,49.9010274 85.1412726,49.8967877 85.1453047,49.8967877 C85.1493367,49.8416708 85.1332085,49.8119925 85.1009521,49.7865539 C84.9880545,49.6890394 84.7017786,49.7441563 84.6896824,49.7441563 C84.6896824,49.7441563 84.5203361,49.7738346 84.3429256,49.6466418 C84.2018037,49.5448876 84.0324574,49.485531 83.8469828,49.485531 C83.6090915,49.485531 83.3913605,49.5872852 83.2341104,49.7483961 C83.0123473,49.9688636 82.8873536,50.3122841 82.8631613,50.7616986 C82.8631613,51.3467854 82.2583529,51.6986855 82.1373913,51.7622818 C81.7301537,51.9869891 81.3713007,52.3473687 81.1455056,52.7798241 C81.1414736,52.7883036 81.1414736,52.8010229 81.1495377,52.8095024 C81.1576018,52.817982 81.1696979,52.817982 81.1777621,52.8137422 C81.5567753,52.5551169 81.9761091,52.4109651 82.411571,52.3812867 C82.6615585,52.3685675 82.8712254,52.5678362 82.8873536,52.8307012 Z" id="membership-icon"></path>
        </g>
    </g>
</svg>