<?xml version="1.0" encoding="UTF-8" standalone="no"?>
<svg width="16px" height="14px" viewBox="0 0 16 14" version="1.1" xmlns="http://www.w3.org/2000/svg" xmlns:xlink="http://www.w3.org/1999/xlink">
    <!-- Generator: Sketch 40.1 (33804) - http://www.bohemiancoding.com/sketch -->
    <title>message</title>
    <desc>Created with Sketch.</desc>
    <defs>
        <path d="M120.64,50.0234918 L117.6,50.0234918 C116.72,50.0234918 116,50.7477204 116,51.6328886 L116,56.4610788 C116,57.346247 116.72,58.0704755 117.6,58.0704755 L118.4,58.0704755 L118.4,59.4747646 C118.4,60.0324651 118.713758,60.1689698 119.107098,59.7733194 L120.8,58.0704755 L124.8,58.0704755 C125.68,58.0704755 126.4,57.346247 126.4,56.4610788 L126.4,54.9965277 L120.639999,55.0134264 L120.64,50.0234918 Z M123.2,46 C122.32,46 121.6,46.7242285 121.6,47.6093967 L121.6,53.0411107 C121.6,53.596639 122.039423,54.0469837 122.601168,54.0469837 L127.2,54.0469837 L128.892902,55.7498276 C129.283421,56.1426408 129.6,56.0182965 129.6,55.4512728 L129.6,54.0469837 L130.4,54.0469837 C131.28,54.0469837 132,53.3235598 132,52.4375869 L132,47.6093967 C132,46.7242285 131.28,46 130.4,46 L123.2,46 Z" id="path-1"></path>
        <mask id="mask-2" maskContentUnits="userSpaceOnUse" maskUnits="objectBoundingBox" x="0" y="0" width="16" height="14" fill="white">
            <use xlink:href="#path-1"></use>
        </mask>
    </defs>
    <g id="sign-up-flow" stroke="none" stroke-width="1" fill="none" fill-rule="evenodd">
        <g id="Icons" transform="translate(-116.000000, -46.000000)" stroke="#00CCFF" stroke-width="2">
            <use id="message" mask="url(#mask-2)" xlink:href="#path-1"></use>
        </g>
    </g>
</svg>