<!-- <svg width="22" height="22" viewBox="0 0 22 22" xmlns="http://www.w3.org/2000/svg" xmlns:xlink="http://www.w3.org/1999/xlink" xmlns:figma="http://www.figma.com/figma/ns">
  <title>
    i-user
  </title>
  <g style="mix-blend-mode:normal" figma:type="vector">
    <use xlink:href="#a" style="mix-blend-mode:normal"/>
    <use xlink:href="#b" style="mix-blend-mode:normal"/>
  </g>
  <defs>
    <path id="a" fill-rule="evenodd" d="M0 11C0 4.925 4.925 0 11 0s11 4.925 11 11-4.925 11-11 11S0 17.075 0 11zm11-9c-4.97 0-9 4.03-9 9s4.03 9 9 9 9-4.03 9-9-4.03-9-9-9z"/>
    <path id="b" fill-rule="evenodd" d="M5.58 11.43C5.58 8.45 7.95 6 10.92 6c2.97 0 5.343 2.45 5.343 5.43 0 1.332-.473 2.554-1.26 3.5C16.707 15.764 18 17.174 18 19c0 .552-.448 1-1 1s-1-.448-1-1c0-1.003-1.043-2.226-3.18-2.737-.4-.095-.7-.424-.758-.83-.06-.405.135-.805.49-1.01 1.017-.585 1.71-1.702 1.71-2.993 0-1.913-1.514-3.43-3.34-3.43C9.094 8 7.58 9.517 7.58 11.43c0 1.306.71 2.435 1.745 3.014.358.2.557.597.504 1.003-.055.406-.35.74-.747.84C7.003 16.815 6 18.013 6 19c0 .552-.448 1-1 1s-1-.448-1-1c0-1.787 1.24-3.176 2.885-4.014-.815-.954-1.306-2.2-1.306-3.556z"/>
  </defs>
</svg> -->
<svg version="1.1" xmlns="http://www.w3.org/2000/svg" xmlns:xlink="http://www.w3.org/1999/xlink" width="32" height="32" viewBox="0 0 32 32">
<path d="M0 16c0-8.836 7.164-16 16-16s16 7.164 16 16-7.164 16-16 16-16-7.164-16-16zM16 2.909c-7.229 0-13.091 5.862-13.091 13.091s5.862 13.091 13.091 13.091 13.091-5.862 13.091-13.091-5.862-13.091-13.091-13.091z"></path>
<path d="M8.116 16.625c0-4.335 3.447-7.898 7.767-7.898s7.772 3.564 7.772 7.898c0 1.937-0.688 3.715-1.833 5.091 2.479 1.213 4.359 3.264 4.359 5.92 0 0.803-0.652 1.455-1.455 1.455s-1.455-0.652-1.455-1.455c0-1.459-1.517-3.238-4.625-3.981-0.582-0.138-1.018-0.617-1.103-1.207-0.087-0.589 0.196-1.171 0.713-1.469 1.479-0.851 2.487-2.476 2.487-4.353 0-2.783-2.202-4.989-4.858-4.989-2.659 0-4.861 2.207-4.861 4.989 0 1.9 1.033 3.542 2.538 4.384 0.521 0.291 0.81 0.868 0.733 1.459-0.080 0.591-0.509 1.076-1.087 1.222-3.024 0.768-4.483 2.511-4.483 3.946 0 0.803-0.652 1.455-1.455 1.455s-1.455-0.652-1.455-1.455c0-2.599 1.804-4.62 4.196-5.839-1.185-1.388-1.9-3.2-1.9-5.172z"></path>
</svg>
