<svg width="22" height="22" viewBox="0 0 22 22" xmlns="http://www.w3.org/2000/svg" xmlns:xlink="http://www.w3.org/1999/xlink" xmlns:figma="http://www.figma.com/figma/ns">
  <title>
    i-user
  </title>
  <g style="mix-blend-mode:normal" figma:type="vector">
    <use xlink:href="#a" style="mix-blend-mode:normal"/>
    <use xlink:href="#b" style="mix-blend-mode:normal"/>
  </g>
  <defs>
    <path id="a" fill-rule="evenodd" d="M0 11C0 4.925 4.925 0 11 0s11 4.925 11 11-4.925 11-11 11S0 17.075 0 11zm11-9c-4.97 0-9 4.03-9 9s4.03 9 9 9 9-4.03 9-9-4.03-9-9-9z"/>
    <path id="b" fill-rule="evenodd" d="M5.58 11.43C5.58 8.45 7.95 6 10.92 6c2.97 0 5.343 2.45 5.343 5.43 0 1.332-.473 2.554-1.26 3.5C16.707 15.764 18 17.174 18 19c0 .552-.448 1-1 1s-1-.448-1-1c0-1.003-1.043-2.226-3.18-2.737-.4-.095-.7-.424-.758-.83-.06-.405.135-.805.49-1.01 1.017-.585 1.71-1.702 1.71-2.993 0-1.913-1.514-3.43-3.34-3.43C9.094 8 7.58 9.517 7.58 11.43c0 1.306.71 2.435 1.745 3.014.358.2.557.597.504 1.003-.055.406-.35.74-.747.84C7.003 16.815 6 18.013 6 19c0 .552-.448 1-1 1s-1-.448-1-1c0-1.787 1.24-3.176 2.885-4.014-.815-.954-1.306-2.2-1.306-3.556z"/>
  </defs>
</svg>
