<?xml version="1.0" encoding="UTF-8" standalone="no"?>
<svg
   xmlns:dc="http://purl.org/dc/elements/1.1/"
   xmlns:cc="http://creativecommons.org/ns#"
   xmlns:rdf="http://www.w3.org/1999/02/22-rdf-syntax-ns#"
   xmlns:svg="http://www.w3.org/2000/svg"
   xmlns="http://www.w3.org/2000/svg"
   id="svg2"
   viewBox="0 0 22 22"
   height="22"
   width="22"
   version="1.1">
  <metadata
     id="metadata12">
    <rdf:RDF>
      <cc:Work
         rdf:about="">
        <dc:format>image/svg+xml</dc:format>
        <dc:type
           rdf:resource="http://purl.org/dc/dcmitype/StillImage" />
        <dc:title></dc:title>
      </cc:Work>
    </rdf:RDF>
  </metadata>
  <defs
     id="defs10" />
  <path
     id="path4"
     d="M 0,11 C 0,4.92525 4.92525,0 11,0 17.07475,0 22,4.92525 22,11 22,17.07475 17.07475,22 11,22 4.92525,22 0,17.07475 0,11 Z M 11,1.9999375 c -4.9699375,0 -9.0000625,4.030125 -9.0000625,9.0000625 0,4.969938 4.030125,9.000062 9.0000625,9.000062 4.969938,0 9.000062,-4.030125 9.000062,-9.000062 0,-4.9699375 -4.030125,-9.0000625 -9.000062,-9.0000625 z" />
  <path
     id="path6"
     d="m 5.57975,11.429688 c 0,-2.980313 2.3698125,-5.4298755 5.339813,-5.4298755 2.969999,0 5.343249,2.45025 5.343249,5.4298755 0,1.331687 -0.472999,2.554062 -1.260187,3.500062 1.704312,0.833938 2.996812,2.244 2.996812,4.07 0,0.552062 -0.44825,1.000313 -1.000312,1.000313 -0.552063,0 -1.000313,-0.44825 -1.000313,-1.000313 0,-1.003062 -1.042937,-2.226125 -3.179687,-2.736937 C 12.419,16.167938 12.11925,15.838625 12.060813,15.433 12.001,15.028063 12.195562,14.627938 12.551,14.423063 c 1.016813,-0.585063 1.709813,-1.70225 1.709813,-2.992688 0,-1.9133125 -1.513875,-3.4299375 -3.339875,-3.4299375 -1.828063,0 -3.341938,1.5173125 -3.341938,3.4299375 0,1.30625 0.7101875,2.435125 1.744875,3.014 0.3581875,0.200063 0.556875,0.59675 0.5039375,1.003063 -0.055,0.406312 -0.3499375,0.73975 -0.7473125,0.840125 -2.079,0.528 -3.0820625,1.726312 -3.0820625,2.712874 0,0.552063 -0.44825,1.000313 -1.0003125,1.000313 -0.5520625,0 -1.0003125,-0.44825 -1.0003125,-1.000313 0,-1.786812 1.24025,-3.176249 2.88475,-4.014312 -0.8146875,-0.95425 -1.30625,-2.2 -1.30625,-3.55575 z" />
</svg>
