<?xml version="1.0" encoding="UTF-8" standalone="no"?>
<svg width="78px" height="78px" viewBox="0 0 78 78" version="1.1" xmlns="http://www.w3.org/2000/svg" xmlns:xlink="http://www.w3.org/1999/xlink">
    <!-- Generator: Sketch 3.6.1 (26313) - http://www.bohemiancoding.com/sketch -->
    <title>chatwithus</title>
    <desc>Created with Sketch.</desc>
    <defs></defs>
    <g id="VD---Homepage" stroke="none" stroke-width="1" fill="none" fill-rule="evenodd">
        <g id="Homepage-1i" transform="translate(-148.000000, -798.000000)" fill="#00CCFF">
            <g id="_Ditch&amp;Switch" transform="translate(-1.000000, 588.000000)">
                <g id="chatwithus" transform="translate(149.000000, 210.000000)">
                    <g id="Expanded">
                        <g id="Group">
                            <path d="M52,45.5 C51.790375,45.5 51.579125,45.461 51.377625,45.3765 C50.769875,45.12625 50.375,44.5315 50.375,43.875 L50.375,32.5 L45.5,32.5 C44.601375,32.5 43.875,31.773625 43.875,30.875 C43.875,29.976375 44.601375,29.25 45.5,29.25 L52,29.25 C52.898625,29.25 53.625,29.976375 53.625,30.875 L53.625,39.95225 L63.851125,29.726125 C64.155,29.420625 64.56775,29.25 65,29.25 L74.75,29.25 L74.75,3.25 L29.25,3.25 L29.25,14.625 C29.25,15.523625 28.523625,16.25 27.625,16.25 C26.726375,16.25 26,15.523625 26,14.625 L26,1.625 C26,0.726375 26.726375,0 27.625,0 L76.375,0 C77.273625,0 78,0.726375 78,1.625 L78,30.875 C78,31.773625 77.273625,32.5 76.375,32.5 L65.67275,32.5 L53.148875,45.023875 C52.8385,45.33425 52.4225,45.5 52,45.5 L52,45.5 Z" id="Shape"></path>
                            <path d="M52,78 L0,78 L0,71.53575 C0,67.6065 2.48625,64.078625 6.189625,62.7575 L17.961125,58.552 L17.961125,52.71825 L21.211125,52.71825 L21.211125,60.84325 L7.28,65.817375 C4.870125,66.678625 3.25,68.976375 3.25,71.53575 L3.25,74.75 L48.75,74.75 L48.75,71.53575 C48.75,68.976375 47.1315,66.678625 44.721625,65.81575 L30.7905,60.841625 L30.7905,52.27625 L34.0405,52.27625 L34.0405,58.552 L45.81525,62.7575 C49.515375,64.08025 52,67.6065 52,71.53575 L52,78 L52,78 Z" id="Shape"></path>
                            <path d="M25.679875,56.190875 C17.710875,56.190875 11.2255,48.555 11.2255,39.169 C11.2255,29.78625 17.70925,22.150375 25.679875,22.150375 C33.6505,22.150375 40.13425,29.784625 40.13425,39.169 C40.132625,48.555 33.648875,56.190875 25.679875,56.190875 L25.679875,56.190875 Z M25.679875,25.402 C19.501625,25.402 14.4755,31.578625 14.4755,39.170625 C14.4755,46.76425 19.501625,52.9425 25.679875,52.9425 C31.858125,52.9425 36.88425,46.76425 36.88425,39.170625 C36.882625,31.578625 31.8565,25.402 25.679875,25.402 L25.679875,25.402 Z" id="Shape"></path>
                            <path d="M60.125,16.25 C59.226375,16.25 58.5,16.978 58.5,17.875 C58.5,18.772 59.226375,19.5 60.125,19.5 C61.023625,19.5 61.75,18.772 61.75,17.875 C61.75,16.978 61.023625,16.25 60.125,16.25 L60.125,16.25 L60.125,16.25 Z" id="Shape"></path>
                            <path d="M52,16.25 C51.101375,16.25 50.375,16.978 50.375,17.875 C50.375,18.772 51.101375,19.5 52,19.5 C52.898625,19.5 53.625,18.772 53.625,17.875 C53.625,16.978 52.898625,16.25 52,16.25 L52,16.25 L52,16.25 Z" id="Shape"></path>
                            <path d="M43.875,16.25 C42.976375,16.25 42.25,16.978 42.25,17.875 C42.25,18.772 42.976375,19.5 43.875,19.5 C44.773625,19.5 45.5,18.772 45.5,17.875 C45.5,16.978 44.773625,16.25 43.875,16.25 L43.875,16.25 L43.875,16.25 Z" id="Shape"></path>
                        </g>
                    </g>
                </g>
            </g>
        </g>
    </g>
</svg>