<svg width="87" height="76" viewBox="0 0 87 76" version="2.0" xmlns="http://www.w3.org/2000/svg" xmlns:xlink="http://www.w3.org/1999/xlink" xmlns:figma="http://www.figma.com/figma/ns">
<title>lightbulb and outlet</title>
<desc>Created using Figma (9000)</desc>
<g id="Canvas" transform="translate(-492 218)" fill="#00CCFF" figma:type="canvas">
<g id="lightbulb and outlet" style="mix-blend-mode:normal;" figma:type="vector">
<use xlink:href="#path0_fill" transform="translate(492 -217.926)" style="mix-blend-mode:normal;"/>
<use xlink:href="#path1_fill" transform="translate(492 -217.926)" style="mix-blend-mode:normal;"/>
<use xlink:href="#path2_fill" transform="translate(492 -217.926)" style="mix-blend-mode:normal;"/>
<use xlink:href="#path3_fill" transform="translate(492 -217.926)" style="mix-blend-mode:normal;"/>
<use xlink:href="#path4_fill" transform="translate(492 -217.926)" style="mix-blend-mode:normal;"/>
<use xlink:href="#path5_fill" transform="translate(492 -217.926)" style="mix-blend-mode:normal;"/>
<use xlink:href="#path6_fill" transform="translate(492 -217.926)" style="mix-blend-mode:normal;"/>
<use xlink:href="#path7_fill" transform="translate(492 -217.926)" style="mix-blend-mode:normal;"/>
<use xlink:href="#path8_fill" transform="translate(492 -217.926)" style="mix-blend-mode:normal;"/>
<use xlink:href="#path9_fill" transform="translate(492 -217.926)" style="mix-blend-mode:normal;"/>
<use xlink:href="#path10_fill" transform="translate(492 -217.926)" style="mix-blend-mode:normal;"/>
<use xlink:href="#path11_fill" transform="translate(492 -217.926)" style="mix-blend-mode:normal;"/>
<use xlink:href="#path12_fill" transform="translate(492 -217.926)" style="mix-blend-mode:normal;"/>
<use xlink:href="#path13_fill" transform="translate(492 -217.926)" style="mix-blend-mode:normal;"/>
<use xlink:href="#path14_fill" transform="translate(492 -217.926)" style="mix-blend-mode:normal;"/>
<use xlink:href="#path15_fill" transform="translate(492 -217.926)" style="mix-blend-mode:normal;"/>
<use xlink:href="#path16_fill" transform="translate(492 -217.926)" style="mix-blend-mode:normal;"/>
<use xlink:href="#path17_fill" transform="translate(492 -217.926)" style="mix-blend-mode:normal;"/>
<use xlink:href="#path18_fill" transform="translate(492 -217.926)" style="mix-blend-mode:normal;"/>
<use xlink:href="#path19_fill" transform="translate(492 -217.926)" style="mix-blend-mode:normal;"/>
<use xlink:href="#path20_fill" transform="translate(492 -217.926)" style="mix-blend-mode:normal;"/>
<use xlink:href="#path21_fill" transform="translate(492 -217.926)" style="mix-blend-mode:normal;"/>
<use xlink:href="#path22_fill" transform="translate(492 -217.926)" style="mix-blend-mode:normal;"/>
<use xlink:href="#path23_fill" transform="translate(492 -217.926)" style="mix-blend-mode:normal;"/>
<use xlink:href="#path24_fill" transform="translate(492 -217.926)" style="mix-blend-mode:normal;"/>
<use xlink:href="#path25_fill" transform="translate(492 -217.926)" style="mix-blend-mode:normal;"/>
<use xlink:href="#path26_fill" transform="translate(492 -217.926)" style="mix-blend-mode:normal;"/>
<use xlink:href="#path27_fill" transform="translate(492 -217.926)" style="mix-blend-mode:normal;"/>
<use xlink:href="#path28_fill" transform="translate(492 -217.926)" style="mix-blend-mode:normal;"/>
<use xlink:href="#path29_fill" transform="translate(492 -217.926)" style="mix-blend-mode:normal;"/>
<use xlink:href="#path30_fill" transform="translate(492 -217.926)" style="mix-blend-mode:normal;"/>
<use xlink:href="#path31_fill" transform="translate(492 -217.926)" style="mix-blend-mode:normal;"/>
<use xlink:href="#path32_fill" transform="translate(492 -217.926)" style="mix-blend-mode:normal;"/>
<use xlink:href="#path33_fill" transform="translate(492 -217.926)" style="mix-blend-mode:normal;"/>
<use xlink:href="#path34_fill" transform="translate(492 -217.926)" style="mix-blend-mode:normal;"/>
<use xlink:href="#path35_fill" transform="translate(492 -217.926)" style="mix-blend-mode:normal;"/>
<use xlink:href="#path36_fill" transform="translate(492 -217.926)" style="mix-blend-mode:normal;"/>
<use xlink:href="#path37_fill" transform="translate(492 -217.926)" style="mix-blend-mode:normal;"/>
<use xlink:href="#path38_fill" transform="translate(492 -217.926)" style="mix-blend-mode:normal;"/>
<use xlink:href="#path39_fill" transform="translate(492 -217.926)" style="mix-blend-mode:normal;"/>
<use xlink:href="#path40_fill" transform="translate(492 -217.926)" style="mix-blend-mode:normal;"/>
<use xlink:href="#path41_fill" transform="translate(492 -217.926)" style="mix-blend-mode:normal;"/>
<use xlink:href="#path42_fill" transform="translate(492 -217.926)" style="mix-blend-mode:normal;"/>
<use xlink:href="#path43_fill" transform="translate(492 -217.926)" style="mix-blend-mode:normal;"/>
<use xlink:href="#path44_fill" transform="translate(492 -217.926)" style="mix-blend-mode:normal;"/>
<use xlink:href="#path45_fill" transform="translate(492 -217.926)" style="mix-blend-mode:normal;"/>
<use xlink:href="#path46_fill" transform="translate(492 -217.926)" style="mix-blend-mode:normal;"/>
</g>
</g>
<defs>
<path id="path0_fill" d="
M 21 4.92593
C 9.03211 4.92593 0 15.4259 0 25.9259
C 0 42.4259 9.51474 43.6176 9.51474 66.1775
C 9.51474 72.6125 12.5 75.9259 21 75.9259
C 29.5 75.9259 33.5613 72.6125 33.5613 66.1775
C 33.5613 43.4259 43 41.4259 43 25.9259
C 43 14.9259 32.9679 4.92593 21 4.92593
Z
M 21 6.92593
C 31.9256 6.92593 41 16.0917 41 25.9259
C 41.0609 33.1863 38.8459 37.1677 36.4546 42.5165
C 34.0728 47.8493 31.5943 54.4394 31.5613 66.1775
C 31.5613 67.7071 31.3019 68.9362 30.8202 69.9259
C 30.4302 70.7275 29.8943 71.3721 29.2324 71.8923
C 27.66 73.1278 25.0458 73.9259 21 73.9259
C 16.9395 73.9259 14.6745 73.1216 13.41 71.9802
C 12.8371 71.4632 12.3825 70.7963 12.0622 69.9259
C 11.7048 68.9547 11.5147 67.7301 11.5147 66.1775
C 11.5147 54.5298 9.03539 48.3032 6.57492 42.9447
C 4.16906 37.7075 1.93944 33.6875 2 25.9259
C 2 16.4395 10.2256 6.92593 21 6.92593
Z"/>
<path id="path1_fill" d="
M 2.68994 40.4524
L 40.6899 40.4524
C 41.2422 40.4524 41.6899 40.0047 41.6899 39.4524
C 41.6899 38.9001 41.2422 38.4524 40.6899 38.4524
L 2.68994 38.4524
C 2.13766 38.4524 1.68994 38.9001 1.68994 39.4524
C 1.68994 40.0047 2.13766 40.4524 2.68994 40.4524
Z"/>
<path id="path2_fill" d="
M 31.917 69.9259
C 31.9716 69.6007 32 69.2666 32 68.9259
L 31 68.9259
L 11 68.9259
L 10 68.9259
C 10 69.2666 10.0284 69.6007 10.083 69.9259
C 10.559 72.7636 13.027 74.9259 16 74.9259
L 26 74.9259
C 28.973 74.9259 31.441 72.7636 31.917 69.9259
Z
M 26 73.9259
L 16 73.9259
C 13.581 73.9259 11.5633 72.2082 11.1 69.9259
L 12.0622 69.9259
L 30.8202 69.9259
L 30.9 69.9259
C 30.4367 72.2082 28.419 73.9259 26 73.9259
Z"/>
<path id="path3_fill" d="
M 21 73.9259
C 25.0458 73.9259 27.66 73.1278 29.2324 71.8923
C 29.8943 71.3721 30.4302 70.7275 30.8202 69.9259
L 12.0622 69.9259
C 12.3825 70.7963 12.8371 71.4632 13.41 71.9802
C 14.6745 73.1216 16.9395 73.9259 21 73.9259
Z"/>
<path id="path4_fill" d="
M 87 30.5
C 87 31.8807 85.6569 33 84 33
L 86 33
L 87 33
L 87 32
L 87 31
L 87 30.5
Z"/>
<path id="path5_fill" d="
M 84 33
C 82.3431 33 81 31.8807 81 30.5
L 81 31
L 81 32
L 81 33
L 82 33
L 84 33
Z"/>
<path id="path6_fill" d="
M 82 31
L 82 32
L 84 32
C 83.0283 32 82.3813 31.5214 82.1245 31
L 82 31
Z"/>
<path id="path7_fill" d="
M 86 32
L 86 31
L 85.8755 31
C 85.6187 31.5214 84.9717 32 84 32
L 86 32
Z"/>
<path id="path8_fill" d="
M 85.8755 30
L 86 30
L 86.94 30
C 86.662 28.8589 85.4514 28 84 28
C 82.5486 28 81.338 28.8589 81.06 30
L 82 30
L 82.1245 30
C 82.3813 29.4786 83.0283 29 84 29
C 84.9717 29 85.6187 29.4786 85.8755 30
Z"/>
<path id="path9_fill" d="
M 84 33
C 85.6569 33 87 31.8807 87 30.5
C 87 30.3288 86.9793 30.1616 86.94 30
L 86 30
L 85.8755 30
C 85.9578 30.1671 86 30.3385 86 30.5
C 86 30.6615 85.9578 30.8329 85.8755 31
L 86 31
L 86 32
L 84 32
L 82 32
L 82 31
L 82.1245 31
C 82.0422 30.8329 82 30.6615 82 30.5
C 82 30.3385 82.0422 30.1671 82.1245 30
L 82 30
L 81.06 30
C 81.0207 30.1616 81 30.3288 81 30.5
C 81 31.8807 82.3431 33 84 33
Z"/>
<path id="path10_fill" d="
M 84 29
C 83.0283 29 82.3813 29.4786 82.1245 30
L 85.8755 30
C 85.6187 29.4786 84.9717 29 84 29
Z"/>
<path id="path11_fill" d="
M 86 30.5
C 86 30.3385 85.9578 30.1671 85.8755 30
L 82.1245 30
C 82.0422 30.1671 82 30.3385 82 30.5
C 82 30.6615 82.0422 30.8329 82.1245 31
L 85.8755 31
C 85.9578 30.8329 86 30.6615 86 30.5
Z"/>
<path id="path12_fill" d="
M 85.8755 31
L 82.1245 31
C 82.3813 31.5214 83.0283 32 84 32
C 84.9717 32 85.6187 31.5214 85.8755 31
Z"/>
<path id="path13_fill" d="
M 82 32.5
L 82 34.5
C 82 34.7761 82.2239 35 82.5 35
C 82.7761 35 83 34.7761 83 34.5
L 83 32.5
C 83 32.2239 82.7761 32 82.5 32
C 82.2239 32 82 32.2239 82 32.5
Z"/>
<path id="path14_fill" d="
M 85 32.5
L 85 34.5
C 85 34.7761 85.2239 35 85.5 35
C 85.7761 35 86 34.7761 86 34.5
L 86 32.5
C 86 32.2239 85.7761 32 85.5 32
C 85.2239 32 85 32.2239 85 32.5
Z"/>
<path id="path15_fill" d="
M 52 7.92593
L 52 71.9259
C 52 74.1351 53.7909 75.9259 56 75.9259
L 72 75.9259
C 74.2091 75.9259 76 74.1351 76 71.9259
L 76 7.92593
C 76 5.71679 74.2091 3.92593 72 3.92593
L 56 3.92593
C 53.7909 3.92593 52 5.71679 52 7.92593
Z
M 54 71.9259
L 54 7.92593
C 54 6.82136 54.8954 5.92593 56 5.92593
L 72 5.92593
C 73.1046 5.92593 74 6.82136 74 7.92593
L 74 71.9259
C 74 73.0305 73.1046 73.9259 72 73.9259
L 56 73.9259
C 54.8954 73.9259 54 73.0305 54 71.9259
Z"/>
<path id="path16_fill" d="
M 64 54.9259
C 67.8985 54.9259 71.0588 51.7656 71.0588 47.8671
C 71.0588 43.9686 67.8985 40.8083 64 40.8083
C 60.1015 40.8083 56.9412 43.9686 56.9412 47.8671
C 56.9412 51.7656 60.1015 54.9259 64 54.9259
Z
M 64 52.9259
C 61.2061 52.9259 58.9412 50.661 58.9412 47.8671
C 58.9412 45.0732 61.2061 42.8083 64 42.8083
C 66.7939 42.8083 69.0588 45.0732 69.0588 47.8671
C 69.0588 50.661 66.7939 52.9259 64 52.9259
Z"/>
<path id="path17_fill" d="
M 63.2941 50.6906
C 63.2941 51.0805 63.6102 51.3965 64 51.3965
C 64.3898 51.3965 64.7059 51.0805 64.7059 50.6906
C 64.7059 50.3008 64.3898 49.9848 64 49.9848
C 63.6102 49.9848 63.2941 50.3008 63.2941 50.6906
Z
M 63.7059 50.6906
C 63.7114 50.6835 63.7322 50.5808 63.7294 50.5759
C 63.7364 50.5717 63.7925 50.4885 63.792 50.4827
C 63.7978 50.4831 63.8811 50.427 63.8852 50.42
C 63.8901 50.4229 63.9928 50.402 64 50.3965
C 64.0072 50.402 64.1099 50.4229 64.1148 50.42
C 64.1189 50.427 64.2022 50.4831 64.208 50.4827
C 64.2075 50.4885 64.2636 50.5717 64.2706 50.5759
C 64.2678 50.5808 64.2886 50.6835 64.2941 50.6906
C 64.2886 50.6978 64.2678 50.8005 64.2706 50.8054
C 64.2636 50.8096 64.2075 50.8928 64.208 50.8986
C 64.2022 50.8982 64.1189 50.9543 64.1148 50.9613
C 64.1099 50.9584 64.0072 50.9793 64 50.9848
C 63.9928 50.9793 63.8901 50.9584 63.8852 50.9613
C 63.8811 50.9543 63.7978 50.8982 63.792 50.8986
C 63.7925 50.8928 63.7364 50.8096 63.7294 50.8054
C 63.7322 50.8005 63.7114 50.6978 63.7059 50.6906
Z"/>
<path id="path18_fill" d="
M 63.7059 50.6906
L 63.2941 50.6906
L 63.2941 51.3965
L 63.7059 51.3965
L 64.2941 51.3965
L 64.7059 51.3965
L 64.7059 50.6906
L 64.2941 50.6906
L 63.7059 50.6906
Z"/>
<path id="path19_fill" d="
M 64.1148 50.42
C 64.1099 50.4229 64.0072 50.402 64 50.3965
L 64 50.6906
L 64.2941 50.6906
C 64.2886 50.6835 64.2678 50.5808 64.2706 50.5759
C 64.2636 50.5717 64.2075 50.4885 64.208 50.4827
C 64.2022 50.4831 64.1189 50.427 64.1148 50.42
Z"/>
<path id="path20_fill" d="
M 63.7294 50.5759
C 63.7322 50.5808 63.7114 50.6835 63.7059 50.6906
L 64 50.6906
L 64 50.3965
C 63.9928 50.402 63.8901 50.4229 63.8852 50.42
C 63.8811 50.427 63.7978 50.4831 63.792 50.4827
C 63.7925 50.4885 63.7364 50.5717 63.7294 50.5759
Z"/>
<path id="path21_fill" d="
M 61.1765 45.7495
L 61.1765 48.573
C 61.1765 48.9628 61.4925 49.2789 61.8824 49.2789
C 62.2722 49.2789 62.5883 48.9628 62.5883 48.573
L 62.5883 45.7495
C 62.5883 45.3596 62.2722 45.0436 61.8824 45.0436
C 61.4925 45.0436 61.1765 45.3596 61.1765 45.7495
Z"/>
<path id="path22_fill" d="
M 65.4117 45.7495
L 65.4117 48.573
C 65.4117 48.9628 65.7278 49.2789 66.1176 49.2789
C 66.5075 49.2789 66.8235 48.9628 66.8235 48.573
L 66.8235 45.7495
C 66.8235 45.3596 66.5075 45.0436 66.1176 45.0436
C 65.7278 45.0436 65.4117 45.3596 65.4117 45.7495
Z"/>
<path id="path23_fill" d="
M 64 38.4713
C 67.8985 38.4713 71.0588 35.3109 71.0588 31.4125
C 71.0588 27.514 67.8985 24.3536 64 24.3536
C 60.1015 24.3536 56.9412 27.514 56.9412 31.4125
C 56.9412 35.3109 60.1015 38.4713 64 38.4713
Z
M 64 36.4713
C 61.2061 36.4713 58.9412 34.2064 58.9412 31.4125
C 58.9412 28.6186 61.2061 26.3536 64 26.3536
C 66.7939 26.3536 69.0588 28.6186 69.0588 31.4125
C 69.0588 34.2064 66.7939 36.4713 64 36.4713
Z"/>
<path id="path24_fill" d="
M 63.2941 34.236
C 63.2941 34.6258 63.6102 34.9419 64 34.9419
C 64.3898 34.9419 64.7059 34.6258 64.7059 34.236
C 64.7059 33.8462 64.3898 33.5301 64 33.5301
C 63.6102 33.5301 63.2941 33.8462 63.2941 34.236
Z
M 63.7059 34.236
C 63.7114 34.2288 63.7322 34.1261 63.7294 34.1212
C 63.7364 34.1171 63.7925 34.0338 63.792 34.028
C 63.7978 34.0285 63.8811 33.9724 63.8852 33.9654
C 63.8901 33.9682 63.9928 33.9474 64 33.9419
C 64.0072 33.9474 64.1099 33.9682 64.1148 33.9654
C 64.1189 33.9724 64.2022 34.0285 64.208 34.028
C 64.2075 34.0338 64.2636 34.1171 64.2706 34.1212
C 64.2678 34.1261 64.2886 34.2288 64.2941 34.236
C 64.2886 34.2431 64.2678 34.3459 64.2706 34.3508
C 64.2636 34.3549 64.2075 34.4382 64.208 34.444
C 64.2022 34.4435 64.1189 34.4996 64.1148 34.5066
C 64.1099 34.5038 64.0072 34.5246 64 34.5301
C 63.9928 34.5246 63.8901 34.5038 63.8852 34.5066
C 63.8811 34.4996 63.7978 34.4435 63.792 34.444
C 63.7925 34.4382 63.7364 34.3549 63.7294 34.3508
C 63.7322 34.3459 63.7114 34.2431 63.7059 34.236
Z"/>
<path id="path25_fill" d="
M 63.7059 34.236
L 63.2941 34.236
L 63.2941 34.9419
L 63.7059 34.9419
L 64.2941 34.9419
L 64.7059 34.9419
L 64.7059 34.236
L 64.2941 34.236
L 63.7059 34.236
Z"/>
<path id="path26_fill" d="
M 64.1148 33.9654
C 64.1099 33.9682 64.0072 33.9474 64 33.9419
L 64 34.236
L 64.2941 34.236
C 64.2886 34.2288 64.2678 34.1261 64.2706 34.1212
C 64.2636 34.1171 64.2075 34.0338 64.208 34.028
C 64.2022 34.0285 64.1189 33.9724 64.1148 33.9654
Z"/>
<path id="path27_fill" d="
M 63.7294 34.1212
C 63.7322 34.1261 63.7114 34.2288 63.7059 34.236
L 64 34.236
L 64 33.9419
C 63.9928 33.9474 63.8901 33.9682 63.8852 33.9654
C 63.8811 33.9724 63.7978 34.0285 63.792 34.028
C 63.7925 34.0338 63.7364 34.1171 63.7294 34.1212
Z"/>
<path id="path28_fill" d="
M 61.1765 29.2948
L 61.1765 32.1183
C 61.1765 32.5082 61.4925 32.8242 61.8824 32.8242
C 62.2722 32.8242 62.5883 32.5082 62.5883 32.1183
L 62.5883 29.2948
C 62.5883 28.905 62.2722 28.5889 61.8824 28.5889
C 61.4925 28.5889 61.1765 28.905 61.1765 29.2948
Z"/>
<path id="path29_fill" d="
M 65.4117 29.2948
L 65.4117 32.1183
C 65.4117 32.5082 65.7278 32.8242 66.1176 32.8242
C 66.5075 32.8242 66.8235 32.5082 66.8235 32.1183
L 66.8235 29.2948
C 66.8235 28.905 66.5075 28.5889 66.1176 28.5889
C 65.7278 28.5889 65.4117 28.905 65.4117 29.2948
Z"/>
<path id="path30_fill" d="
M 64 22.0588
C 67.8985 22.0588 71.0588 18.8985 71.0588 15
C 71.0588 11.1015 67.8985 7.94116 64 7.94116
C 60.1015 7.94116 56.9412 11.1015 56.9412 15
C 56.9412 18.8985 60.1015 22.0588 64 22.0588
Z
M 64 20.0588
C 61.2061 20.0588 58.9412 17.7939 58.9412 15
C 58.9412 12.2061 61.2061 9.94116 64 9.94116
C 66.7939 9.94116 69.0588 12.2061 69.0588 15
C 69.0588 17.7939 66.7939 20.0588 64 20.0588
Z"/>
<path id="path31_fill" d="
M 63.2941 17.8235
C 63.2941 18.2134 63.6102 18.5294 64 18.5294
C 64.3898 18.5294 64.7059 18.2134 64.7059 17.8235
C 64.7059 17.4337 64.3898 17.1176 64 17.1176
C 63.6102 17.1176 63.2941 17.4337 63.2941 17.8235
Z
M 63.7059 17.8235
C 63.7114 17.8164 63.7322 17.7136 63.7294 17.7087
C 63.7364 17.7046 63.7925 17.6213 63.792 17.6155
C 63.7978 17.616 63.8811 17.5599 63.8852 17.5529
C 63.8901 17.5558 63.9928 17.5349 64 17.5294
C 64.0072 17.5349 64.1099 17.5558 64.1148 17.5529
C 64.1189 17.5599 64.2022 17.616 64.208 17.6155
C 64.2075 17.6213 64.2636 17.7046 64.2706 17.7087
C 64.2678 17.7136 64.2886 17.8164 64.2941 17.8235
C 64.2886 17.8307 64.2678 17.9334 64.2706 17.9383
C 64.2636 17.9424 64.2075 18.0257 64.208 18.0315
C 64.2022 18.031 64.1189 18.0871 64.1148 18.0941
C 64.1099 18.0913 64.0072 18.1122 64 18.1176
C 63.9928 18.1122 63.8901 18.0913 63.8852 18.0941
C 63.8811 18.0871 63.7978 18.031 63.792 18.0315
C 63.7925 18.0257 63.7364 17.9424 63.7294 17.9383
C 63.7322 17.9334 63.7114 17.8307 63.7059 17.8235
Z"/>
<path id="path32_fill" d="
M 63.7059 17.8235
L 63.2941 17.8235
L 63.2941 18.5294
L 63.7059 18.5294
L 64.2941 18.5294
L 64.7059 18.5294
L 64.7059 17.8235
L 64.2941 17.8235
L 63.7059 17.8235
Z"/>
<path id="path33_fill" d="
M 64.1148 17.5529
C 64.1099 17.5558 64.0072 17.5349 64 17.5294
L 64 17.8235
L 64.2941 17.8235
C 64.2886 17.8164 64.2678 17.7136 64.2706 17.7087
C 64.2636 17.7046 64.2075 17.6213 64.208 17.6155
C 64.2022 17.616 64.1189 17.5599 64.1148 17.5529
Z"/>
<path id="path34_fill" d="
M 63.7294 17.7087
C 63.7322 17.7136 63.7114 17.8164 63.7059 17.8235
L 64 17.8235
L 64 17.5294
C 63.9928 17.5349 63.8901 17.5558 63.8852 17.5529
C 63.8811 17.5599 63.7978 17.616 63.792 17.6155
C 63.7925 17.6213 63.7364 17.7046 63.7294 17.7087
Z"/>
<path id="path35_fill" d="
M 61.1765 12.8824
L 61.1765 15.7058
C 61.1765 16.0957 61.4925 16.4117 61.8824 16.4117
C 62.2722 16.4117 62.5883 16.0957 62.5883 15.7058
L 62.5883 12.8824
C 62.5883 12.4925 62.2722 12.1765 61.8824 12.1765
C 61.4925 12.1765 61.1765 12.4925 61.1765 12.8824
Z"/>
<path id="path36_fill" d="
M 65.4117 12.8824
L 65.4117 15.7058
C 65.4117 16.0957 65.7278 16.4117 66.1176 16.4117
C 66.5075 16.4117 66.8235 16.0957 66.8235 15.7058
L 66.8235 12.8824
C 66.8235 12.4925 66.5075 12.1765 66.1176 12.1765
C 65.7278 12.1765 65.4117 12.4925 65.4117 12.8824
Z"/>
<path id="path37_fill" d="
M 64 71.381
C 67.8985 71.381 71.0588 68.2206 71.0588 64.3221
C 71.0588 60.4236 67.8985 57.2633 64 57.2633
C 60.1015 57.2633 56.9412 60.4236 56.9412 64.3221
C 56.9412 68.2206 60.1015 71.381 64 71.381
Z
M 64 69.381
C 61.2061 69.381 58.9412 67.116 58.9412 64.3221
C 58.9412 61.5282 61.2061 59.2633 64 59.2633
C 66.7939 59.2633 69.0588 61.5282 69.0588 64.3221
C 69.0588 67.116 66.7939 69.381 64 69.381
Z"/>
<path id="path38_fill" d="
M 63.2941 67.1457
C 63.2941 67.5355 63.6102 67.8515 64 67.8515
C 64.3898 67.8515 64.7059 67.5355 64.7059 67.1457
C 64.7059 66.7558 64.3898 66.4398 64 66.4398
C 63.6102 66.4398 63.2941 66.7558 63.2941 67.1457
Z
M 63.7059 67.1457
C 63.7114 67.1385 63.7322 67.0358 63.7294 67.0309
C 63.7364 67.0267 63.7925 66.9435 63.792 66.9377
C 63.7978 66.9382 63.8811 66.8821 63.8852 66.8751
C 63.8901 66.8779 63.9928 66.857 64 66.8515
C 64.0072 66.857 64.1099 66.8779 64.1148 66.8751
C 64.1189 66.8821 64.2022 66.9382 64.208 66.9377
C 64.2075 66.9435 64.2636 67.0267 64.2706 67.0309
C 64.2678 67.0358 64.2886 67.1385 64.2941 67.1457
C 64.2886 67.1528 64.2678 67.2555 64.2706 67.2605
C 64.2636 67.2646 64.2075 67.3478 64.208 67.3536
C 64.2022 67.3532 64.1189 67.4093 64.1148 67.4163
C 64.1099 67.4134 64.0072 67.4343 64 67.4398
C 63.9928 67.4343 63.8901 67.4134 63.8852 67.4163
C 63.8811 67.4093 63.7978 67.3532 63.792 67.3536
C 63.7925 67.3478 63.7364 67.2646 63.7294 67.2605
C 63.7322 67.2555 63.7114 67.1528 63.7059 67.1457
Z"/>
<path id="path39_fill" d="
M 63.7059 67.1457
L 63.2941 67.1457
L 63.2941 67.8515
L 63.7059 67.8515
L 64.2941 67.8515
L 64.7059 67.8515
L 64.7059 67.1457
L 64.2941 67.1457
L 63.7059 67.1457
Z"/>
<path id="path40_fill" d="
M 64.1148 66.8751
C 64.1099 66.8779 64.0072 66.857 64 66.8515
L 64 67.1457
L 64.2941 67.1457
C 64.2886 67.1385 64.2678 67.0358 64.2706 67.0309
C 64.2636 67.0267 64.2075 66.9435 64.208 66.9377
C 64.2022 66.9382 64.1189 66.8821 64.1148 66.8751
Z"/>
<path id="path41_fill" d="
M 63.7294 67.0309
C 63.7322 67.0358 63.7114 67.1385 63.7059 67.1457
L 64 67.1457
L 64 66.8515
C 63.9928 66.857 63.8901 66.8779 63.8852 66.8751
C 63.8811 66.8821 63.7978 66.9382 63.792 66.9377
C 63.7925 66.9435 63.7364 67.0267 63.7294 67.0309
Z"/>
<path id="path42_fill" d="
M 61.1765 62.2045
L 61.1765 65.028
C 61.1765 65.4178 61.4925 65.7339 61.8824 65.7339
C 62.2722 65.7339 62.5883 65.4178 62.5883 65.028
L 62.5883 62.2045
C 62.5883 61.8146 62.2722 61.4986 61.8824 61.4986
C 61.4925 61.4986 61.1765 61.8146 61.1765 62.2045
Z"/>
<path id="path43_fill" d="
M 65.4117 62.2045
L 65.4117 65.028
C 65.4117 65.4178 65.7278 65.7339 66.1176 65.7339
C 66.5075 65.7339 66.8235 65.4178 66.8235 65.028
L 66.8235 62.2045
C 66.8235 61.8146 66.5075 61.4986 66.1176 61.4986
C 65.7278 61.4986 65.4117 61.8146 65.4117 62.2045
Z"/>
<path id="path44_fill" fill-rule="evenodd" d="
M 64 0
C 63.4477 0 63 0.447715 63 1
L 63 4
L 63 5
L 64 5
L 65 5
L 65 4
L 65 1
C 65 0.447715 64.5523 0 64 0
Z"/>
<path id="path45_fill" d="
M 63.9999 1
C 64 1.00004 64 1.00006 64 1
C 63.9991 1.00087 63.9996 1.00018 63.9999 1
C 63.9996 0.999824 63.9991 0.999126 64 1
C 64 0.999944 64 0.999956 63.9999 1
Z
M 64 1
C 63.9991 0.999126 63.9996 0.999824 63.9999 1
C 64 0.999956 64 0.999944 64 1
C 64 1.00006 64 1.00004 63.9999 1
C 63.9996 1.00018 63.9991 1.00087 64 1
Z
M 85 1
C 85 0.447715 84.5523 0 84 0
L 64 0
C 63.4477 0 63 0.447715 63 1
C 63 1.55228 63.4477 2 64 2
L 84 2
C 84.5523 2 85 1.55228 85 1
Z"/>
<path id="path46_fill" d="
M 84 0
C 83.4477 0 83 0.447715 83 1
L 83 29
C 83 29.5523 83.4477 30 84 30
C 84.5523 30 85 29.5523 85 29
L 85 1
C 85 0.447715 84.5523 0 84 0
Z"/>
</defs>
</svg>
