<?xml version="1.0" standalone="no"?>
<!DOCTYPE svg PUBLIC "-//W3C//DTD SVG 1.1//EN" "http://www.w3.org/Graphics/SVG/1.1/DTD/svg11.dtd">
<svg width="100%" height="100%" viewBox="0 0 261 268" version="1.1" xmlns="http://www.w3.org/2000/svg" xmlns:xlink="http://www.w3.org/1999/xlink" xml:space="preserve" style="fill-rule:evenodd;clip-rule:evenodd;stroke-linejoin:round;stroke-miterlimit:1.41421;">
    <g transform="matrix(1,0,0,1,-1124,-496)">
        <g id="Layer1" transform="matrix(1,0,0,1,800,500)">
            <g transform="matrix(1,0,0,1,330.6,5.6809)">
                <clipPath id="products_clip1">
                    <path d="M123.402,245.749C191.127,245.749 246.028,190.737 246.028,122.875C246.028,55.013 191.127,0 123.402,0C55.678,0 0.776,55.013 0.776,122.875C0.776,190.737 55.678,245.749 123.402,245.749Z"/>
                </clipPath>
                <g clip-path="url(#products_clip1)">
                    <path d="M123.402,251.749L122.987,251.749L122.571,251.747L122.156,251.743L121.741,251.739L121.326,251.733L120.913,251.726L120.499,251.717L120.085,251.707L119.672,251.696L119.259,251.684L118.846,251.67L118.434,251.655L118.022,251.639L117.61,251.621L117.199,251.602L116.788,251.582L116.377,251.56L115.966,251.537L115.556,251.513L115.147,251.488L114.737,251.461L114.328,251.433L113.92,251.404L113.511,251.374L113.103,251.342L112.695,251.309L112.288,251.275L111.881,251.239L111.475,251.202L111.068,251.164L110.662,251.125L110.257,251.084L109.852,251.042L109.447,250.999L109.042,250.955L108.639,250.909L108.235,250.862L107.832,250.814L107.428,250.765L107.026,250.714L106.624,250.662L106.222,250.609L105.821,250.555L105.419,250.499L105.019,250.442L104.619,250.384L104.219,250.325L103.819,250.264L103.421,250.203L103.022,250.14L102.623,250.076L102.226,250.01L101.828,249.944L101.431,249.876L101.034,249.807L100.638,249.736L100.243,249.665L99.847,249.592L99.452,249.518L99.058,249.443L98.664,249.367L98.27,249.289L97.876,249.211L97.484,249.131L97.092,249.05L96.699,248.967L96.308,248.884L95.917,248.799L95.526,248.713L95.136,248.626L94.746,248.538L94.357,248.449L93.968,248.358L93.579,248.266L93.191,248.173L92.804,248.079L92.416,247.984L92.03,247.887L91.644,247.79L91.258,247.691L90.873,247.591L90.488,247.49L90.104,247.388L89.72,247.284L89.337,247.18L88.954,247.074L88.572,246.967L88.19,246.859L87.809,246.75L87.427,246.639L87.046,246.528L86.667,246.415L86.288,246.302L85.908,246.187L85.53,246.071L85.152,245.953L84.774,245.835L84.397,245.716L84.021,245.595L83.645,245.473L83.269,245.351L82.894,245.227L82.52,245.102L82.146,244.976L81.772,244.848L81.399,244.72L81.027,244.59L80.655,244.46L80.284,244.328L79.913,244.195L79.542,244.061L79.173,243.926L78.804,243.79L78.435,243.653L78.066,243.514L77.699,243.375L77.332,243.235L76.965,243.093L76.599,242.95L76.233,242.807L75.869,242.662L75.504,242.516L75.14,242.369L74.777,242.221L74.414,242.072L74.052,241.921L73.69,241.77L73.33,241.618L72.969,241.464L72.609,241.31L72.25,241.154L71.891,240.998L71.532,240.84L71.175,240.681L70.818,240.521L70.461,240.36L70.105,240.198L69.75,240.035L69.395,239.872L69.041,239.706L68.687,239.54L68.334,239.373L67.982,239.205L67.63,239.036L67.279,238.866L66.928,238.694L66.578,238.522L66.229,238.349L65.88,238.174L65.531,237.999L65.184,237.823L64.837,237.645L64.49,237.467L64.145,237.287L63.799,237.107L63.455,236.925L63.111,236.742L62.768,236.559L62.425,236.375L62.083,236.189L61.741,236.002L61.401,235.815L61.061,235.626L60.721,235.437L60.382,235.246L60.044,235.055L59.706,234.862L59.369,234.669L59.032,234.474L58.697,234.279L58.362,234.082L58.027,233.885L57.693,233.686L57.36,233.487L57.028,233.287L56.696,233.085L56.365,232.883L56.034,232.68L55.704,232.475L55.375,232.27L55.047,232.064L54.719,231.857L54.392,231.649L54.065,231.44L53.739,231.23L53.414,231.019L53.089,230.807L52.766,230.594L52.443,230.38L52.12,230.165L51.798,229.95L51.477,229.733L51.157,229.515L50.837,229.297L50.518,229.077L50.2,228.857L49.883,228.636L49.566,228.413L49.249,228.19L48.933,227.966L48.618,227.741L48.305,227.515L47.992,227.288L47.679,227.06L47.367,226.832L47.055,226.602L46.745,226.371L46.435,226.14L46.126,225.908L45.818,225.674L45.51,225.44L45.203,225.205L44.897,224.969L44.591,224.732L44.287,224.495L43.983,224.256L43.679,224.016L43.377,223.776L43.075,223.535L42.774,223.292L42.474,223.049L42.174,222.805L41.875,222.56L41.577,222.315L41.28,222.068L40.983,221.821L40.687,221.572L40.392,221.323L40.098,221.073L39.805,220.822L39.512,220.57L39.22,220.317L38.929,220.064L38.638,219.809L38.348,219.554L38.059,219.298L37.771,219.041L37.483,218.783L37.197,218.524L36.911,218.265L36.626,218.004L36.342,217.743L36.059,217.481L35.776,217.218L35.494,216.954L35.213,216.69L34.933,216.425L34.653,216.158L34.374,215.891L34.096,215.623L33.819,215.354L33.543,215.085L33.267,214.815L32.993,214.543L32.719,214.271L32.446,213.999L32.173,213.725L31.902,213.451L31.631,213.175L31.361,212.899L31.092,212.622L30.824,212.345L30.557,212.066L30.291,211.787L30.025,211.507L29.759,211.226L29.496,210.944L29.232,210.661L28.97,210.379L28.709,210.094L28.448,209.809L28.188,209.524L27.929,209.238L27.671,208.95L27.413,208.662L27.157,208.374L26.901,208.084L26.647,207.794L26.393,207.503L26.14,207.211L25.888,206.918L25.636,206.625L25.386,206.331L25.137,206.036L24.888,205.74L24.64,205.444L24.393,205.147L24.147,204.849L23.901,204.55L23.657,204.251L23.414,203.951L23.171,203.65L22.929,203.348L22.688,203.046L22.448,202.742L22.21,202.439L21.971,202.134L21.734,201.829L21.497,201.522L21.262,201.216L21.028,200.909L20.794,200.6L20.561,200.291L20.329,199.981L20.098,199.671L19.869,199.36L19.639,199.048L19.411,198.735L19.183,198.422L18.957,198.108L18.732,197.793L18.507,197.478L18.283,197.161L18.061,196.845L17.839,196.527L17.618,196.209L17.398,195.891L17.179,195.571L16.961,195.25L16.744,194.929L16.528,194.608L16.312,194.285L16.098,193.962L15.885,193.638L15.673,193.314L15.461,192.989L15.25,192.663L15.041,192.336L14.832,192.01L14.625,191.682L14.418,191.353L14.212,191.024L14.007,190.694L13.803,190.364L13.601,190.033L13.399,189.701L13.198,189.368L12.998,189.035L12.799,188.702L12.601,188.367L12.404,188.032L12.208,187.696L12.013,187.36L11.819,187.023L11.625,186.685L11.434,186.347L11.243,186.008L11.052,185.669L10.863,185.328L10.675,184.987L10.488,184.646L10.302,184.304L10.117,183.961L9.932,183.617L9.749,183.273L9.567,182.929L9.386,182.584L9.206,182.238L9.027,181.892L8.849,181.544L8.672,181.197L8.496,180.848L8.321,180.5L8.147,180.15L7.974,179.8L7.802,179.45L7.631,179.098L7.461,178.746L7.293,178.394L7.125,178.041L6.957,177.686L6.792,177.332L6.627,176.978L6.464,176.622L6.301,176.267L6.14,175.91L5.979,175.552L5.82,175.195L5.661,174.836L5.504,174.477L5.348,174.119L5.192,173.758L5.038,173.397L4.885,173.036L4.733,172.675L4.582,172.313L4.432,171.949L4.283,171.586L4.136,171.222L3.989,170.857L3.843,170.493L3.699,170.127L3.555,169.76L3.413,169.394L3.272,169.027L3.132,168.66L2.992,168.291L2.854,167.921L2.717,167.552L2.582,167.183L2.447,166.812L2.313,166.441L2.18,166.069L2.049,165.697L1.919,165.325L1.79,164.952L1.662,164.578L1.535,164.204L1.409,163.83L1.284,163.455L1.16,163.078L1.038,162.702L0.916,162.326L0.796,161.948L0.677,161.571L0.559,161.193L0.442,160.814L0.326,160.435L0.212,160.056L0.098,159.674L-0.014,159.294L-0.125,158.913L-0.236,158.532L-0.345,158.149L-0.452,157.766L-0.559,157.384L-0.664,157L-0.769,156.615L-0.872,156.232L-0.974,155.847L-1.075,155.461L-1.175,155.075L-1.273,154.689L-1.371,154.302L-1.467,153.914L-1.562,153.527L-1.656,153.139L-1.749,152.75L-1.84,152.36L-1.931,151.971L-2.02,151.581L-2.108,151.191L-2.195,150.801L-2.28,150.408L-2.365,150.017L-2.448,149.625L-2.53,149.232L-2.611,148.838L-2.691,148.445L-2.769,148.051L-2.847,147.657L-2.923,147.262L-2.998,146.867L-3.072,146.471L-3.144,146.075L-3.215,145.679L-3.286,145.282L-3.355,144.884L-3.422,144.486L-3.489,144.088L-3.554,143.69L-3.618,143.291L-3.681,142.891L-3.742,142.492L-3.803,142.091L-3.862,141.691L-3.92,141.291L-3.976,140.889L-4.032,140.487L-4.086,140.085L-4.139,139.683L-4.191,139.28L-4.241,138.876L-4.291,138.472L-4.339,138.069L-4.385,137.664L-4.431,137.259L-4.475,136.855L-4.518,136.449L-4.56,136.042L-4.601,135.637L-4.64,135.23L-4.678,134.823L-4.715,134.416L-4.75,134.008L-4.784,133.6L-4.817,133.192L-4.849,132.783L-4.879,132.374L-4.909,131.965L-4.936,131.555L-4.963,131.145L-4.988,130.734L-5.012,130.323L-5.035,129.913L-5.057,129.501L-5.077,129.089L-5.096,128.677L-5.113,128.265L-5.13,127.852L-5.145,127.439L-5.158,127.026L-5.171,126.612L-5.182,126.198L-5.192,125.783L-5.2,125.369L-5.207,124.954L-5.213,124.538L-5.218,124.124L-5.221,123.707L-5.223,123.291L-5.224,122.875L-5.223,122.458L-5.221,122.042L-5.218,121.626L-5.213,121.211L-5.207,120.796L-5.2,120.38L-5.192,119.966L-5.182,119.552L-5.171,119.138L-5.158,118.724L-5.145,118.31L-5.13,117.898L-5.113,117.485L-5.096,117.072L-5.077,116.66L-5.057,116.248L-5.035,115.837L-5.012,115.427L-4.988,115.015L-4.963,114.605L-4.936,114.195L-4.909,113.784L-4.879,113.375L-4.849,112.966L-4.817,112.558L-4.784,112.15L-4.75,111.741L-4.715,111.333L-4.678,110.927L-4.64,110.519L-4.601,110.113L-4.56,109.707L-4.518,109.3L-4.475,108.895L-4.431,108.49L-4.385,108.085L-4.339,107.681L-4.291,107.277L-4.241,106.873L-4.191,106.47L-4.139,106.067L-4.086,105.664L-4.032,105.263L-3.976,104.861L-3.92,104.459L-3.862,104.058L-3.803,103.658L-3.742,103.257L-3.681,102.858L-3.618,102.459L-3.554,102.059L-3.489,101.661L-3.422,101.263L-3.355,100.866L-3.286,100.468L-3.215,100.071L-3.144,99.675L-3.072,99.278L-2.998,98.882L-2.923,98.488L-2.847,98.093L-2.769,97.698L-2.691,97.305L-2.611,96.911L-2.53,96.517L-2.448,96.125L-2.365,95.733L-2.28,95.341L-2.195,94.949L-2.108,94.558L-2.02,94.168L-1.931,93.778L-1.84,93.389L-1.749,92.999L-1.656,92.61L-1.562,92.222L-1.467,91.835L-1.371,91.447L-1.273,91.061L-1.175,90.674L-1.075,90.288L-0.974,89.903L-0.872,89.518L-0.769,89.134L-0.664,88.749L-0.559,88.365L-0.452,87.983L-0.345,87.6L-0.236,87.218L-0.125,86.836L-0.014,86.455L0.098,86.075L0.212,85.694L0.326,85.315L0.442,84.936L0.559,84.557L0.677,84.179L0.796,83.801L0.916,83.424L1.038,83.047L1.16,82.671L1.284,82.295L1.409,81.92L1.535,81.545L1.662,81.171L1.79,80.798L1.919,80.425L2.049,80.053L2.18,79.681L2.313,79.308L2.447,78.937L2.582,78.566L2.717,78.197L2.854,77.828L2.992,77.458L3.132,77.09L3.272,76.722L3.413,76.356L3.555,75.989L3.699,75.622L3.843,75.257L3.989,74.892L4.136,74.527L4.283,74.163L4.432,73.8L4.582,73.437L4.733,73.075L4.885,72.713L5.038,72.352L5.192,71.991L5.348,71.631L5.504,71.272L5.661,70.913L5.82,70.555L5.979,70.197L6.14,69.839L6.301,69.483L6.463,69.127L6.628,68.771L6.792,68.417L6.957,68.063L7.125,67.709L7.293,67.355L7.461,67.004L7.631,66.651L7.802,66.3L7.974,65.949L8.147,65.599L8.321,65.25L8.496,64.901L8.672,64.553L8.849,64.205L9.027,63.858L9.206,63.511L9.386,63.166L9.568,62.82L9.749,62.476L9.932,62.132L10.117,61.788L10.302,61.446L10.488,61.104L10.675,60.762L10.863,60.422L11.052,60.081L11.243,59.741L11.434,59.403L11.626,59.065L11.819,58.727L12.013,58.389L12.208,58.053L12.404,57.717L12.601,57.383L12.799,57.048L12.998,56.714L13.198,56.381L13.399,56.048L13.601,55.717L13.803,55.386L14.007,55.056L14.212,54.725L14.418,54.396L14.625,54.068L14.832,53.74L15.041,53.413L15.25,53.087L15.461,52.76L15.673,52.435L15.885,52.111L16.098,51.787L16.313,51.464L16.528,51.142L16.744,50.82L16.961,50.5L17.179,50.179L17.399,49.859L17.618,49.541L17.839,49.222L18.061,48.904L18.283,48.588L18.507,48.272L18.732,47.956L18.957,47.641L19.184,47.327L19.411,47.014L19.639,46.701L19.868,46.39L20.098,46.079L20.329,45.768L20.561,45.458L20.794,45.15L21.028,44.841L21.262,44.533L21.497,44.227L21.734,43.921L21.971,43.615L22.209,43.311L22.448,43.007L22.688,42.704L22.929,42.401L23.171,42.1L23.414,41.799L23.657,41.499L23.901,41.2L24.146,40.901L24.393,40.603L24.64,40.305L24.888,40.009L25.137,39.713L25.386,39.418L25.636,39.124L25.888,38.831L26.14,38.539L26.393,38.247L26.647,37.955L26.901,37.665L27.157,37.376L27.414,37.087L27.671,36.799L27.929,36.512L28.188,36.225L28.448,35.94L28.709,35.655L28.97,35.371L29.232,35.088L29.496,34.805L29.76,34.524L30.025,34.243L30.291,33.962L30.557,33.683L30.824,33.405L31.093,33.127L31.361,32.85L31.631,32.574L31.902,32.299L32.173,32.024L32.446,31.751L32.719,31.478L32.993,31.206L33.267,30.935L33.543,30.665L33.819,30.395L34.096,30.126L34.374,29.858L34.653,29.591L34.932,29.325L35.213,29.059L35.494,28.795L35.776,28.531L36.059,28.268L36.342,28.006L36.626,27.745L36.911,27.485L37.197,27.225L37.484,26.966L37.771,26.708L38.059,26.452L38.348,26.196L38.638,25.94L38.928,25.686L39.219,25.432L39.512,25.179L39.805,24.927L40.098,24.677L40.392,24.427L40.687,24.177L40.983,23.929L41.28,23.681L41.577,23.435L41.875,23.189L42.174,22.944L42.473,22.7L42.774,22.457L43.075,22.215L43.377,21.974L43.679,21.733L43.983,21.493L44.287,21.255L44.591,21.017L44.897,20.78L45.203,20.544L45.51,20.309L45.818,20.075L46.126,19.842L46.435,19.609L46.745,19.378L47.055,19.148L47.367,18.918L47.679,18.689L47.992,18.461L48.305,18.234L48.619,18.009L48.933,17.783L49.249,17.559L49.566,17.336L49.883,17.114L50.2,16.893L50.518,16.672L50.837,16.453L51.157,16.234L51.477,16.017L51.799,15.8L52.12,15.584L52.443,15.369L52.766,15.155L53.089,14.943L53.414,14.731L53.739,14.52L54.065,14.31L54.392,14.101L54.719,13.893L55.047,13.685L55.375,13.479L55.704,13.274L56.035,13.069L56.365,12.866L56.696,12.664L57.028,12.463L57.36,12.262L57.693,12.063L58.027,11.865L58.362,11.667L58.697,11.471L59.032,11.275L59.369,11.081L59.706,10.887L60.043,10.695L60.382,10.503L60.721,10.313L61.061,10.123L61.401,9.934L61.741,9.747L62.083,9.56L62.425,9.375L62.767,9.191L63.111,9.007L63.455,8.824L63.799,8.643L64.145,8.462L64.49,8.283L64.837,8.105L65.184,7.927L65.532,7.751L65.88,7.575L66.229,7.401L66.578,7.227L66.928,7.055L67.279,6.884L67.63,6.714L67.982,6.545L68.334,6.376L68.687,6.209L69.041,6.043L69.395,5.878L69.75,5.714L70.105,5.551L70.461,5.389L70.818,5.228L71.175,5.068L71.533,4.91L71.891,4.752L72.249,4.595L72.609,4.44L72.969,4.285L73.329,4.132L73.69,3.98L74.052,3.828L74.414,3.678L74.777,3.529L75.14,3.381L75.504,3.234L75.868,3.088L76.234,2.943L76.599,2.799L76.965,2.656L77.332,2.515L77.699,2.374L78.067,2.235L78.435,2.097L78.803,1.959L79.173,1.823L79.542,1.688L79.913,1.554L80.284,1.421L80.655,1.29L81.027,1.159L81.399,1.03L81.772,0.901L82.146,0.774L82.519,0.648L82.894,0.523L83.269,0.399L83.645,0.276L84.021,0.154L84.397,0.034L84.774,-0.086L85.152,-0.204L85.53,-0.321L85.908,-0.437L86.287,-0.552L86.667,-0.666L87.047,-0.779L87.427,-0.89L87.808,-1L88.19,-1.11L88.572,-1.218L88.954,-1.325L89.337,-1.43L89.72,-1.535L90.104,-1.638L90.488,-1.74L90.873,-1.842L91.258,-1.942L91.644,-2.04L92.03,-2.138L92.417,-2.234L92.804,-2.33L93.191,-2.424L93.58,-2.517L93.968,-2.609L94.357,-2.699L94.746,-2.789L95.136,-2.877L95.526,-2.964L95.916,-3.05L96.308,-3.134L96.7,-3.218L97.091,-3.3L97.484,-3.381L97.877,-3.461L98.27,-3.54L98.664,-3.617L99.057,-3.694L99.452,-3.769L99.847,-3.843L100.243,-3.915L100.638,-3.987L101.034,-4.057L101.431,-4.126L101.828,-4.194L102.225,-4.261L102.624,-4.326L103.022,-4.39L103.42,-4.453L103.819,-4.515L104.219,-4.576L104.619,-4.635L105.019,-4.693L105.42,-4.75L105.82,-4.805L106.222,-4.86L106.624,-4.913L107.026,-4.965L107.429,-5.015L107.832,-5.065L108.235,-5.113L108.639,-5.16L109.043,-5.205L109.447,-5.25L109.852,-5.293L110.257,-5.335L110.663,-5.375L111.069,-5.415L111.475,-5.453L111.881,-5.49L112.288,-5.525L112.696,-5.56L113.103,-5.593L113.511,-5.624L113.92,-5.655L114.328,-5.684L114.738,-5.712L115.147,-5.739L115.556,-5.764L115.967,-5.788L116.377,-5.811L116.787,-5.832L117.199,-5.853L117.61,-5.872L118.022,-5.889L118.434,-5.906L118.846,-5.921L119.259,-5.934L119.672,-5.947L120.085,-5.958L120.499,-5.968L120.912,-5.976L121.327,-5.984L121.741,-5.989L122.156,-5.994L122.571,-5.997L122.986,-5.999L123.402,-6L123.818,-5.999L124.234,-5.997L124.649,-5.994L125.063,-5.989L125.478,-5.984L125.892,-5.976L126.306,-5.968L126.72,-5.958L127.133,-5.947L127.546,-5.934L127.959,-5.921L128.371,-5.906L128.783,-5.889L129.194,-5.872L129.606,-5.853L130.017,-5.832L130.428,-5.811L130.838,-5.788L131.248,-5.764L131.658,-5.739L132.067,-5.712L132.476,-5.684L132.885,-5.655L133.293,-5.624L133.701,-5.593L134.109,-5.56L134.516,-5.525L134.924,-5.49L135.33,-5.453L135.736,-5.415L136.142,-5.375L136.548,-5.335L136.953,-5.293L137.358,-5.25L137.762,-5.205L138.166,-5.16L138.57,-5.113L138.973,-5.065L139.376,-5.015L139.779,-4.965L140.181,-4.913L140.583,-4.86L140.984,-4.805L141.385,-4.75L141.785,-4.693L142.186,-4.635L142.586,-4.576L142.985,-4.515L143.384,-4.453L143.783,-4.39L144.181,-4.326L144.579,-4.261L144.977,-4.194L145.373,-4.126L145.77,-4.057L146.166,-3.987L146.562,-3.915L146.957,-3.843L147.352,-3.769L147.747,-3.694L148.141,-3.617L148.535,-3.54L148.928,-3.461L149.321,-3.381L149.714,-3.3L150.105,-3.218L150.497,-3.134L150.888,-3.05L151.279,-2.964L151.669,-2.877L152.059,-2.789L152.448,-2.699L152.837,-2.609L153.225,-2.517L153.613,-2.424L154.001,-2.33L154.388,-2.235L154.774,-2.138L155.161,-2.04L155.546,-1.942L155.931,-1.842L156.317,-1.74L156.701,-1.638L157.084,-1.535L157.468,-1.43L157.85,-1.325L158.233,-1.218L158.615,-1.11L158.997,-1L159.377,-0.89L159.758,-0.779L160.138,-0.666L160.517,-0.552L160.896,-0.437L161.275,-0.321L161.653,-0.204L162.03,-0.086L162.408,0.034L162.784,0.154L163.16,0.276L163.535,0.399L163.911,0.523L164.285,0.648L164.659,0.774L165.032,0.901L165.405,1.03L165.777,1.159L166.149,1.29L166.521,1.421L166.892,1.554L167.262,1.688L167.632,1.823L168.001,1.959L168.37,2.097L168.738,2.235L169.106,2.374L169.473,2.515L169.839,2.656L170.206,2.799L170.571,2.943L170.936,3.088L171.301,3.234L171.664,3.381L172.028,3.529L172.39,3.678L172.752,3.828L173.114,3.979L173.475,4.132L173.836,4.285L174.195,4.44L174.555,4.595L174.914,4.752L175.272,4.91L175.629,5.068L175.987,5.228L176.343,5.389L176.699,5.551L177.055,5.714L177.409,5.878L177.764,6.043L178.117,6.209L178.471,6.376L178.823,6.545L179.174,6.714L179.526,6.884L179.876,7.055L180.227,7.227L180.576,7.401L180.925,7.575L181.273,7.751L181.621,7.927L181.968,8.104L182.314,8.283L182.66,8.462L183.005,8.643L183.349,8.824L183.693,9.007L184.037,9.191L184.379,9.375L184.722,9.56L185.063,9.747L185.404,9.934L185.744,10.123L186.084,10.312L186.423,10.503L186.761,10.695L187.099,10.887L187.436,11.081L187.772,11.275L188.108,11.471L188.443,11.667L188.778,11.865L189.111,12.063L189.444,12.262L189.777,12.463L190.108,12.664L190.44,12.866L190.77,13.07L191.1,13.274L191.429,13.479L191.758,13.685L192.086,13.893L192.413,14.101L192.739,14.31L193.065,14.52L193.39,14.731L193.715,14.943L194.039,15.155L194.362,15.37L194.684,15.584L195.006,15.8L195.327,16.017L195.647,16.234L195.967,16.453L196.286,16.672L196.605,16.893L196.922,17.114L197.239,17.336L197.555,17.559L197.871,17.783L198.186,18.008L198.5,18.235L198.813,18.461L199.126,18.689L199.438,18.918L199.749,19.148L200.06,19.378L200.369,19.609L200.679,19.842L200.987,20.075L201.295,20.309L201.601,20.544L201.908,20.78L202.213,21.017L202.518,21.255L202.822,21.493L203.125,21.733L203.428,21.974L203.729,22.215L204.031,22.457L204.331,22.7L204.631,22.944L204.93,23.189L205.228,23.435L205.525,23.681L205.821,23.929L206.117,24.177L206.413,24.427L206.707,24.677L207,24.927L207.293,25.179L207.585,25.432L207.876,25.686L208.167,25.94L208.457,26.196L208.745,26.452L209.033,26.708L209.321,26.966L209.608,27.225L209.893,27.485L210.178,27.745L210.462,28.006L210.746,28.268L211.029,28.532L211.311,28.795L211.592,29.059L211.872,29.325L212.152,29.591L212.43,29.858L212.708,30.126L212.985,30.395L213.262,30.665L213.537,30.935L213.812,31.206L214.086,31.478L214.359,31.751L214.631,32.024L214.902,32.299L215.174,32.574L215.443,32.85L215.712,33.127L215.981,33.405L216.248,33.683L216.514,33.962L216.78,34.243L217.045,34.524L217.309,34.805L217.572,35.088L217.834,35.371L218.096,35.655L218.357,35.94L218.616,36.225L218.875,36.512L219.134,36.799L219.391,37.087L219.648,37.376L219.903,37.665L220.158,37.955L220.412,38.247L220.665,38.539L220.917,38.831L221.168,39.124L221.419,39.418L221.668,39.713L221.917,40.009L222.165,40.305L222.412,40.603L222.658,40.901L222.903,41.2L223.147,41.499L223.391,41.799L223.634,42.1L223.875,42.401L224.116,42.704L224.356,43.007L224.595,43.311L224.833,43.615L225.071,43.921L225.307,44.227L225.542,44.533L225.777,44.841L226.011,45.15L226.243,45.458L226.475,45.768L226.707,46.079L226.936,46.39L227.165,46.701L227.394,47.014L227.621,47.327L227.847,47.641L228.073,47.956L228.298,48.272L228.521,48.588L228.744,48.905L228.966,49.222L229.186,49.54L229.406,49.859L229.626,50.179L229.843,50.499L230.06,50.82L230.277,51.142L230.492,51.464L230.706,51.787L230.92,52.111L231.132,52.436L231.344,52.761L231.554,53.086L231.764,53.413L231.972,53.74L232.18,54.068L232.387,54.397L232.593,54.726L232.797,55.055L233.001,55.385L233.204,55.717L233.406,56.049L233.607,56.381L233.807,56.714L234.005,57.048L234.203,57.382L234.401,57.717L234.597,58.053L234.792,58.389L234.986,58.727L235.179,59.065L235.371,59.403L235.562,59.742L235.752,60.081L235.941,60.421L236.129,60.762L236.317,61.104L236.503,61.446L236.688,61.788L236.872,62.132L237.055,62.476L237.237,62.82L237.418,63.166L237.598,63.511L237.777,63.858L237.956,64.205L238.133,64.553L238.309,64.901L238.484,65.25L238.658,65.599L238.831,65.949L239.003,66.3L239.173,66.651L239.343,67.003L239.512,67.356L239.68,67.709L239.847,68.062L240.012,68.416L240.177,68.771L240.341,69.127L240.504,69.484L240.665,69.84L240.825,70.196L240.985,70.554L241.143,70.913L241.301,71.272L241.457,71.632L241.612,71.991L241.766,72.351L241.92,72.713L242.072,73.075L242.222,73.437L242.372,73.799L242.521,74.163L242.669,74.528L242.816,74.892L242.961,75.257L243.106,75.622L243.249,75.989L243.392,76.356L243.533,76.722L243.673,77.091L243.812,77.458L243.95,77.828L244.087,78.197L244.223,78.566L244.358,78.938L244.491,79.309L244.624,79.68L244.755,80.052L244.886,80.425L245.015,80.798L245.143,81.171L245.27,81.545L245.396,81.92L245.521,82.296L245.644,82.671L245.767,83.047L245.888,83.424L246.008,83.801L246.128,84.179L246.246,84.557L246.363,84.936L246.478,85.315L246.593,85.695L246.706,86.074L246.819,86.455L246.93,86.836L247.04,87.219L247.149,87.6L247.257,87.982L247.364,88.366L247.469,88.75L247.573,89.133L247.677,89.518L247.779,89.903L247.879,90.288L247.979,90.674L248.078,91.061L248.175,91.447L248.271,91.834L248.367,92.223L248.46,92.611L248.553,92.999L248.645,93.388L248.735,93.778L248.824,94.168L248.912,94.559L248.999,94.95L249.085,95.341L249.169,95.733L249.253,96.125L249.335,96.517L249.416,96.911L249.495,97.304L249.574,97.698L249.651,98.093L249.727,98.488L249.802,98.883L249.876,99.278L249.949,99.674L250.02,100.071L250.09,100.468L250.159,100.865L250.227,101.262L250.293,101.661L250.358,102.06L250.422,102.459L250.485,102.858L250.547,103.257L250.607,103.658L250.666,104.059L250.724,104.459L250.781,104.861L250.836,105.263L250.891,105.664L250.944,106.067L250.995,106.47L251.046,106.873L251.095,107.276L251.143,107.681L251.19,108.085L251.236,108.49L251.28,108.895L251.323,109.301L251.365,109.706L251.405,110.113L251.444,110.519L251.482,110.926L251.519,111.333L251.555,111.741L251.589,112.15L251.622,112.558L251.654,112.966L251.684,113.375L251.713,113.785L251.741,114.195L251.768,114.605L251.793,115.015L251.817,115.426L251.84,115.837L251.861,116.248L251.881,116.66L251.9,117.072L251.918,117.485L251.934,117.898L251.949,118.311L251.963,118.724L251.975,119.138L251.986,119.552L251.996,119.965L252.005,120.381L252.012,120.796L252.018,121.21L252.022,121.627L252.026,122.042L252.028,122.458L252.028,122.875L252.028,123.292L252.026,123.707L252.022,124.123L252.018,124.539L252.012,124.954L252.005,125.369L251.996,125.784L251.986,126.198L251.975,126.612L251.963,127.026L251.949,127.438L251.934,127.852L251.918,128.265L251.9,128.677L251.881,129.09L251.861,129.501L251.84,129.912L251.817,130.324L251.793,130.734L251.768,131.145L251.741,131.555L251.713,131.964L251.684,132.374L251.654,132.783L251.622,133.192L251.589,133.6L251.555,134.008L251.519,134.416L251.482,134.823L251.444,135.23L251.405,135.637L251.365,136.043L251.323,136.448L251.28,136.854L251.236,137.259L251.19,137.664L251.143,138.069L251.095,138.473L251.046,138.876L250.995,139.28L250.944,139.683L250.891,140.085L250.836,140.487L250.781,140.889L250.724,141.291L250.666,141.69L250.607,142.091L250.547,142.492L250.485,142.892L250.422,143.291L250.358,143.69L250.293,144.088L250.227,144.487L250.159,144.885L250.09,145.281L250.02,145.678L249.949,146.075L249.876,146.471L249.802,146.866L249.727,147.262L249.651,147.657L249.574,148.051L249.495,148.446L249.416,148.838L249.335,149.232L249.253,149.625L249.169,150.017L249.085,150.409L248.999,150.8L248.912,151.19L248.824,151.581L248.735,151.971L248.645,152.361L248.553,152.751L248.46,153.139L248.367,153.527L248.271,153.915L248.175,154.302L248.078,154.689L247.979,155.075L247.879,155.461L247.779,155.847L247.677,156.232L247.573,156.616L247.469,157L247.364,157.383L247.257,157.767L247.149,158.149L247.04,158.531L246.93,158.913L246.819,159.295L246.706,159.675L246.593,160.055L246.478,160.434L246.363,160.814L246.246,161.193L246.128,161.571L246.008,161.949L245.888,162.326L245.767,162.702L245.644,163.078L245.521,163.454L245.396,163.83L245.27,164.204L245.143,164.578L245.015,164.952L244.886,165.325L244.755,165.697L244.624,166.07L244.491,166.44L244.358,166.811L244.223,167.183L244.087,167.552L243.95,167.922L243.812,168.291L243.673,168.659L243.533,169.027L243.392,169.394L243.249,169.761L243.106,170.127L242.961,170.493L242.816,170.857L242.669,171.221L242.521,171.586L242.372,171.95L242.222,172.313L242.072,172.674L241.919,173.036L241.766,173.398L241.612,173.758L241.457,174.118L241.301,174.477L241.143,174.836L240.985,175.195L240.825,175.553L240.665,175.91L240.504,176.266L240.341,176.622L240.177,176.978L240.012,177.333L239.847,177.687L239.68,178.04L239.512,178.394L239.343,178.746L239.173,179.098L239.003,179.449L238.831,179.8L238.658,180.15L238.484,180.5L238.309,180.848L238.133,181.197L237.955,181.545L237.777,181.892L237.598,182.238L237.418,182.584L237.237,182.929L237.055,183.273L236.872,183.617L236.688,183.961L236.503,184.304L236.317,184.646L236.129,184.987L235.941,185.328L235.752,185.669L235.562,186.008L235.371,186.347L235.179,186.685L234.986,187.023L234.792,187.36L234.597,187.696L234.401,188.032L234.203,188.367L234.005,188.702L233.807,189.035L233.607,189.368L233.406,189.7L233.204,190.033L233.001,190.364L232.797,190.694L232.593,191.024L232.387,191.353L232.18,191.682L231.972,192.01L231.764,192.337L231.554,192.663L231.344,192.988L231.132,193.314L230.92,193.638L230.706,193.962L230.492,194.285L230.277,194.608L230.06,194.93L229.843,195.25L229.626,195.57L229.406,195.89L229.186,196.209L228.966,196.527L228.744,196.845L228.521,197.162L228.297,197.478L228.073,197.793L227.847,198.108L227.621,198.422L227.394,198.735L227.165,199.048L226.936,199.36L226.706,199.671L226.475,199.981L226.243,200.291L226.011,200.6L225.777,200.909L225.542,201.216L225.307,201.522L225.071,201.829L224.833,202.134L224.595,202.439L224.356,202.742L224.116,203.046L223.875,203.348L223.634,203.65L223.391,203.951L223.148,204.251L222.903,204.55L222.658,204.849L222.412,205.147L222.165,205.444L221.917,205.74L221.668,206.036L221.419,206.331L221.168,206.625L220.917,206.918L220.665,207.211L220.412,207.503L220.158,207.794L219.903,208.084L219.647,208.374L219.391,208.662L219.134,208.95L218.875,209.238L218.616,209.524L218.357,209.809L218.096,210.094L217.834,210.379L217.572,210.661L217.309,210.944L217.045,211.226L216.78,211.507L216.514,211.787L216.248,212.066L215.98,212.345L215.712,212.622L215.443,212.899L215.173,213.175L214.902,213.451L214.631,213.725L214.359,213.999L214.086,214.271L213.812,214.543L213.537,214.815L213.262,215.085L212.985,215.354L212.708,215.623L212.431,215.891L212.152,216.158L211.872,216.425L211.592,216.69L211.311,216.954L211.029,217.218L210.746,217.481L210.462,217.744L210.178,218.004L209.893,218.265L209.608,218.524L209.321,218.783L209.033,219.041L208.745,219.298L208.457,219.554L208.167,219.809L207.876,220.064L207.585,220.317L207.293,220.57L207,220.822L206.707,221.073L206.413,221.323L206.117,221.572L205.821,221.821L205.525,222.068L205.227,222.315L204.93,222.56L204.631,222.805L204.331,223.049L204.031,223.292L203.73,223.535L203.428,223.776L203.125,224.016L202.822,224.256L202.518,224.495L202.214,224.732L201.908,224.969L201.601,225.205L201.295,225.44L200.987,225.674L200.679,225.908L200.369,226.14L200.06,226.371L199.749,226.602L199.438,226.832L199.126,227.06L198.813,227.288L198.5,227.515L198.186,227.741L197.871,227.966L197.555,228.19L197.239,228.413L196.922,228.635L196.605,228.857L196.286,229.077L195.967,229.297L195.647,229.516L195.327,229.733L195.006,229.95L194.684,230.165L194.362,230.38L194.039,230.594L193.715,230.807L193.39,231.019L193.065,231.23L192.739,231.44L192.413,231.649L192.086,231.857L191.758,232.064L191.429,232.27L191.1,232.475L190.77,232.68L190.44,232.883L190.108,233.085L189.777,233.287L189.444,233.487L189.111,233.686L188.777,233.885L188.443,234.082L188.108,234.279L187.772,234.474L187.436,234.669L187.098,234.862L186.761,235.055L186.423,235.246L186.084,235.437L185.744,235.626L185.404,235.815L185.063,236.002L184.722,236.189L184.379,236.375L184.037,236.559L183.694,236.743L183.349,236.925L183.005,237.107L182.66,237.287L182.314,237.467L181.967,237.645L181.621,237.822L181.273,237.999L180.924,238.174L180.576,238.349L180.227,238.522L179.876,238.694L179.526,238.866L179.174,239.036L178.823,239.205L178.47,239.373L178.117,239.54L177.764,239.706L177.409,239.872L177.054,240.036L176.699,240.198L176.343,240.36L175.987,240.521L175.63,240.681L175.272,240.84L174.914,240.998L174.555,241.154L174.196,241.31L173.836,241.464L173.475,241.618L173.114,241.77L172.753,241.921L172.39,242.072L172.028,242.221L171.664,242.369L171.3,242.516L170.936,242.662L170.571,242.806L170.206,242.95L169.839,243.093L169.473,243.235L169.106,243.375L168.738,243.514L168.37,243.653L168.001,243.79L167.632,243.926L167.262,244.061L166.892,244.195L166.521,244.328L166.149,244.46L165.778,244.59L165.405,244.72L165.032,244.848L164.658,244.976L164.285,245.102L163.911,245.227L163.536,245.351L163.16,245.474L162.784,245.595L162.408,245.716L162.03,245.835L161.653,245.953L161.275,246.071L160.896,246.187L160.517,246.302L160.138,246.415L159.758,246.528L159.377,246.639L158.996,246.75L158.615,246.859L158.233,246.967L157.851,247.074L157.468,247.18L157.084,247.284L156.701,247.388L156.316,247.49L155.931,247.591L155.546,247.691L155.16,247.79L154.775,247.887L154.388,247.984L154,248.079L153.613,248.173L153.226,248.266L152.837,248.358L152.448,248.449L152.059,248.538L151.669,248.626L151.279,248.713L150.888,248.799L150.497,248.884L150.105,248.967L149.713,249.05L149.321,249.131L148.928,249.211L148.535,249.289L148.141,249.367L147.747,249.443L147.352,249.518L146.957,249.592L146.562,249.665L146.166,249.736L145.77,249.807L145.374,249.876L144.976,249.944L144.579,250.01L144.181,250.076L143.783,250.14L143.384,250.203L142.985,250.264L142.586,250.325L142.186,250.384L141.786,250.442L141.385,250.499L140.984,250.555L140.582,250.609L140.181,250.662L139.779,250.714L139.376,250.765L138.973,250.814L138.57,250.862L138.166,250.909L137.762,250.955L137.357,250.999L136.952,251.042L136.548,251.084L136.142,251.125L135.736,251.164L135.33,251.202L134.923,251.239L134.516,251.275L134.109,251.309L133.702,251.342L133.293,251.374L132.885,251.404L132.476,251.433L132.067,251.461L131.658,251.488L131.248,251.513L130.838,251.537L130.427,251.56L130.017,251.582L129.606,251.602L129.195,251.621L128.783,251.639L128.371,251.655L127.958,251.67L127.546,251.684L127.133,251.696L126.72,251.707L126.306,251.717L125.892,251.726L125.478,251.733L125.063,251.739L124.649,251.743L124.234,251.747L123.818,251.749L123.402,251.749ZM123.402,239.749L123.78,239.749L124.157,239.747L124.534,239.744L124.911,239.74L125.287,239.734L125.664,239.728L126.04,239.72L126.415,239.711L126.79,239.701L127.165,239.69L127.54,239.677L127.914,239.664L128.288,239.649L128.662,239.633L129.035,239.616L129.408,239.597L129.781,239.578L130.153,239.557L130.525,239.535L130.897,239.512L131.269,239.488L131.64,239.463L132.011,239.436L132.381,239.408L132.751,239.38L133.121,239.35L133.49,239.319L133.86,239.286L134.229,239.253L134.597,239.218L134.965,239.183L135.333,239.146L135.7,239.108L136.067,239.069L136.434,239.029L136.8,238.987L137.166,238.945L137.532,238.901L137.897,238.856L138.262,238.81L138.627,238.763L138.991,238.715L139.355,238.666L139.718,238.615L140.081,238.564L140.445,238.511L140.807,238.458L141.169,238.403L141.531,238.347L141.892,238.29L142.253,238.232L142.614,238.172L142.974,238.112L143.333,238.05L143.693,237.988L144.052,237.924L144.411,237.859L144.769,237.793L145.127,237.726L145.485,237.658L145.842,237.589L146.198,237.519L146.555,237.448L146.911,237.375L147.266,237.302L147.621,237.227L147.976,237.152L148.33,237.075L148.684,236.997L149.038,236.918L149.391,236.838L149.744,236.757L150.096,236.675L150.448,236.592L150.799,236.508L151.151,236.423L151.501,236.336L151.851,236.249L152.201,236.16L152.551,236.071L152.9,235.98L153.248,235.889L153.596,235.796L153.944,235.702L154.291,235.608L154.638,235.512L154.985,235.415L155.33,235.317L155.676,235.218L156.021,235.118L156.365,235.017L156.71,234.915L157.054,234.812L157.397,234.708L157.74,234.603L158.082,234.497L158.424,234.39L158.766,234.282L159.107,234.172L159.448,234.062L159.787,233.951L160.127,233.839L160.467,233.725L160.806,233.611L161.143,233.496L161.481,233.38L161.819,233.262L162.156,233.144L162.492,233.024L162.828,232.904L163.164,232.783L163.498,232.661L163.833,232.537L164.168,232.413L164.5,232.288L164.834,232.161L165.167,232.034L165.499,231.906L165.83,231.776L166.161,231.646L166.492,231.515L166.822,231.383L167.152,231.25L167.481,231.115L167.81,230.98L168.138,230.844L168.465,230.707L168.793,230.569L169.119,230.43L169.445,230.29L169.771,230.149L170.096,230.007L170.42,229.864L170.745,229.72L171.069,229.575L171.391,229.43L171.714,229.283L172.036,229.135L172.358,228.987L172.678,228.837L172.999,228.687L173.319,228.535L173.638,228.383L173.957,228.229L174.275,228.075L174.593,227.92L174.91,227.764L175.227,227.607L175.544,227.448L175.858,227.29L176.174,227.13L176.489,226.969L176.802,226.807L177.116,226.645L177.429,226.481L177.741,226.316L178.053,226.151L178.364,225.985L178.675,225.817L178.984,225.649L179.294,225.48L179.603,225.31L179.911,225.139L180.219,224.967L180.526,224.795L180.833,224.621L181.14,224.446L181.445,224.271L181.749,224.095L182.054,223.918L182.358,223.739L182.661,223.56L182.964,223.381L183.266,223.2L183.567,223.018L183.868,222.835L184.168,222.652L184.468,222.468L184.767,222.283L185.066,222.097L185.364,221.91L185.661,221.722L185.957,221.533L186.254,221.343L186.549,221.153L186.844,220.961L187.138,220.77L187.432,220.577L187.725,220.383L188.017,220.188L188.309,219.992L188.6,219.796L188.891,219.598L189.181,219.4L189.47,219.201L189.759,219.001L190.046,218.801L190.334,218.599L190.621,218.396L190.907,218.193L191.193,217.989L191.477,217.784L191.762,217.579L192.045,217.372L192.329,217.164L192.611,216.956L192.892,216.747L193.173,216.537L193.454,216.326L193.733,216.115L194.013,215.902L194.291,215.689L194.569,215.475L194.845,215.26L195.122,215.044L195.398,214.828L195.673,214.611L195.947,214.393L196.221,214.174L196.495,213.954L196.767,213.733L197.039,213.512L197.31,213.29L197.58,213.067L197.85,212.843L198.119,212.619L198.387,212.393L198.655,212.167L198.922,211.94L199.188,211.713L199.454,211.484L199.719,211.255L199.983,211.025L200.247,210.794L200.509,210.563L200.772,210.33L201.033,210.097L201.294,209.863L201.554,209.628L201.813,209.393L202.072,209.157L202.33,208.919L202.587,208.682L202.843,208.444L203.099,208.204L203.355,207.964L203.609,207.723L203.862,207.481L204.115,207.239L204.367,206.996L204.619,206.752L204.869,206.508L205.119,206.262L205.369,206.016L205.617,205.77L205.865,205.522L206.112,205.273L206.359,205.024L206.604,204.775L206.849,204.524L207.093,204.273L207.336,204.021L207.579,203.768L207.821,203.515L208.062,203.261L208.302,203.006L208.542,202.75L208.78,202.494L209.019,202.237L209.256,201.979L209.492,201.721L209.728,201.461L209.963,201.202L210.197,200.941L210.431,200.68L210.664,200.418L210.895,200.155L211.127,199.892L211.357,199.628L211.587,199.363L211.815,199.098L212.043,198.831L212.271,198.564L212.497,198.297L212.723,198.029L212.948,197.76L213.172,197.49L213.395,197.22L213.617,196.949L213.839,196.678L214.06,196.405L214.28,196.132L214.5,195.858L214.718,195.584L214.936,195.309L215.153,195.033L215.369,194.757L215.584,194.48L215.798,194.202L216.012,193.924L216.225,193.644L216.437,193.365L216.648,193.085L216.859,192.804L217.068,192.523L217.277,192.24L217.485,191.957L217.691,191.674L217.898,191.389L218.103,191.104L218.308,190.819L218.511,190.533L218.714,190.246L218.916,189.959L219.118,189.671L219.318,189.382L219.517,189.093L219.716,188.803L219.914,188.512L220.111,188.22L220.307,187.929L220.502,187.637L220.697,187.344L220.89,187.05L221.083,186.756L221.274,186.461L221.466,186.165L221.656,185.869L221.845,185.572L222.033,185.275L222.22,184.978L222.407,184.679L222.593,184.379L222.778,184.079L222.962,183.78L223.145,183.479L223.327,183.177L223.508,182.875L223.689,182.572L223.869,182.269L224.047,181.965L224.225,181.661L224.402,181.356L224.578,181.05L224.753,180.744L224.927,180.437L225.1,180.13L225.273,179.821L225.444,179.513L225.615,179.204L225.784,178.895L225.953,178.584L226.121,178.273L226.288,177.963L226.454,177.651L226.619,177.338L226.783,177.025L226.947,176.711L227.109,176.397L227.271,176.082L227.431,175.768L227.591,175.452L227.749,175.135L227.907,174.818L228.064,174.501L228.22,174.184L228.375,173.865L228.529,173.546L228.682,173.226L228.834,172.906L228.985,172.585L229.136,172.264L229.285,171.942L229.433,171.621L229.58,171.298L229.727,170.975L229.873,170.65L230.017,170.326L230.16,170.002L230.303,169.676L230.445,169.351L230.585,169.024L230.725,168.697L230.864,168.37L231.002,168.042L231.139,167.713L231.275,167.384L231.409,167.055L231.543,166.726L231.676,166.395L231.808,166.064L231.939,165.732L232.069,165.401L232.198,165.069L232.326,164.735L232.453,164.402L232.58,164.068L232.705,163.734L232.829,163.399L232.952,163.063L233.074,162.729L233.195,162.392L233.315,162.055L233.434,161.718L233.552,161.38L233.669,161.042L233.786,160.703L233.901,160.364L234.015,160.025L234.128,159.685L234.24,159.345L234.351,159.004L234.461,158.662L234.57,158.32L234.678,157.978L234.785,157.635L234.891,157.292L234.996,156.949L235.1,156.604L235.203,156.259L235.305,155.914L235.405,155.569L235.505,155.224L235.604,154.877L235.702,154.53L235.798,154.184L235.894,153.836L235.988,153.487L236.082,153.139L236.174,152.79L236.266,152.441L236.356,152.091L236.446,151.741L236.534,151.39L236.621,151.039L236.707,150.688L236.792,150.336L236.877,149.983L236.96,149.63L237.041,149.278L237.122,148.924L237.202,148.57L237.281,148.216L237.358,147.861L237.435,147.506L237.511,147.15L237.585,146.794L237.658,146.438L237.731,146.081L237.802,145.724L237.872,145.366L237.941,145.008L238.009,144.65L238.076,144.291L238.142,143.932L238.206,143.573L238.27,143.213L238.332,142.852L238.394,142.491L238.454,142.131L238.513,141.769L238.571,141.408L238.628,141.045L238.684,140.682L238.739,140.32L238.792,139.957L238.845,139.593L238.896,139.229L238.946,138.865L238.996,138.5L239.044,138.134L239.091,137.769L239.137,137.404L239.181,137.037L239.225,136.671L239.267,136.304L239.309,135.937L239.349,135.569L239.388,135.202L239.426,134.833L239.463,134.464L239.498,134.095L239.533,133.726L239.566,133.356L239.598,132.986L239.629,132.616L239.659,132.246L239.688,131.874L239.716,131.503L239.742,131.132L239.767,130.76L239.791,130.387L239.814,130.015L239.836,129.641L239.857,129.269L239.876,128.895L239.895,128.52L239.912,128.146L239.928,127.772L239.943,127.397L239.956,127.022L239.969,126.646L239.98,126.271L239.99,125.895L239.999,125.518L240.007,125.142L240.013,124.765L240.019,124.387L240.023,124.01L240.026,123.632L240.028,123.253L240.028,122.875L240.028,122.497L240.026,122.118L240.023,121.74L240.019,121.363L240.013,120.985L240.007,120.608L239.999,120.232L239.99,119.855L239.98,119.479L239.969,119.103L239.956,118.727L239.943,118.352L239.928,117.977L239.912,117.603L239.895,117.229L239.876,116.855L239.857,116.481L239.836,116.108L239.814,115.735L239.791,115.362L239.767,114.99L239.742,114.618L239.716,114.246L239.688,113.875L239.659,113.504L239.629,113.133L239.598,112.763L239.566,112.393L239.533,112.024L239.498,111.654L239.463,111.285L239.426,110.917L239.388,110.548L239.349,110.18L239.309,109.812L239.267,109.445L239.225,109.079L239.181,108.712L239.137,108.346L239.091,107.98L239.044,107.615L238.996,107.249L238.946,106.884L238.896,106.52L238.845,106.157L238.792,105.792L238.739,105.429L238.684,105.067L238.628,104.704L238.571,104.342L238.513,103.98L238.454,103.618L238.394,103.258L238.332,102.897L238.27,102.536L238.206,102.176L238.142,101.818L238.076,101.459L238.009,101.099L237.941,100.741L237.872,100.383L237.802,100.026L237.731,99.669L237.658,99.312L237.585,98.955L237.511,98.6L237.435,98.244L237.358,97.889L237.281,97.534L237.202,97.179L237.122,96.825L237.041,96.472L236.96,96.119L236.877,95.767L236.792,95.414L236.707,95.062L236.621,94.711L236.534,94.36L236.446,94.009L236.356,93.659L236.266,93.309L236.174,92.959L236.082,92.611L235.988,92.262L235.894,91.913L235.798,91.566L235.702,91.22L235.604,90.872L235.505,90.525L235.405,90.18L235.305,89.835L235.203,89.49L235.1,89.145L234.996,88.801L234.891,88.457L234.785,88.114L234.678,87.771L234.57,87.43L234.461,87.088L234.351,86.746L234.24,86.405L234.128,86.064L234.015,85.725L233.901,85.385L233.786,85.046L233.67,84.707L233.552,84.369L233.434,84.032L233.315,83.694L233.195,83.357L233.074,83.021L232.952,82.686L232.829,82.35L232.705,82.016L232.58,81.681L232.453,81.347L232.326,81.014L232.198,80.681L232.069,80.349L231.939,80.017L231.808,79.685L231.676,79.354L231.543,79.024L231.409,78.694L231.275,78.365L231.139,78.036L231.002,77.707L230.864,77.38L230.725,77.053L230.585,76.725L230.445,76.399L230.303,76.073L230.16,75.748L230.017,75.424L229.873,75.099L229.727,74.775L229.58,74.451L229.433,74.128L229.285,73.807L229.136,73.486L228.985,73.164L228.834,72.843L228.682,72.523L228.529,72.204L228.375,71.885L228.22,71.566L228.064,71.248L227.907,70.931L227.749,70.614L227.591,70.298L227.431,69.982L227.271,69.667L227.109,69.352L226.947,69.038L226.783,68.724L226.619,68.411L226.454,68.099L226.288,67.787L226.121,67.476L225.953,67.165L225.785,66.855L225.615,66.545L225.444,66.236L225.273,65.928L225.1,65.619L224.927,65.312L224.753,65.005L224.578,64.699L224.402,64.394L224.225,64.089L224.047,63.784L223.869,63.481L223.689,63.177L223.508,62.874L223.327,62.572L223.145,62.27L222.962,61.97L222.778,61.67L222.593,61.37L222.407,61.07L222.22,60.772L222.033,60.474L221.845,60.177L221.656,59.88L221.466,59.584L221.274,59.288L221.083,58.993L220.89,58.699L220.697,58.406L220.502,58.113L220.307,57.821L220.111,57.529L219.914,57.237L219.716,56.946L219.517,56.657L219.318,56.368L219.117,56.079L218.916,55.791L218.714,55.503L218.511,55.216L218.308,54.93L218.103,54.645L217.898,54.36L217.692,54.076L217.485,53.793L217.277,53.51L217.068,53.227L216.859,52.946L216.648,52.665L216.437,52.384L216.225,52.105L216.012,51.826L215.798,51.547L215.584,51.27L215.369,50.993L215.153,50.716L214.936,50.44L214.718,50.165L214.5,49.891L214.28,49.617L214.06,49.345L213.839,49.072L213.617,48.8L213.395,48.529L213.172,48.259L212.948,47.99L212.723,47.721L212.497,47.453L212.271,47.185L212.043,46.918L211.815,46.652L211.587,46.386L211.357,46.121L211.127,45.857L210.895,45.594L210.663,45.331L210.431,45.069L210.198,44.808L209.963,44.548L209.728,44.288L209.492,44.028L209.256,43.77L209.019,43.512L208.78,43.255L208.542,42.999L208.302,42.743L208.062,42.488L207.821,42.235L207.579,41.981L207.336,41.728L207.093,41.477L206.849,41.225L206.604,40.974L206.359,40.725L206.112,40.476L205.865,40.228L205.617,39.98L205.369,39.733L205.119,39.487L204.869,39.242L204.619,38.997L204.367,38.753L204.115,38.51L203.862,38.268L203.609,38.026L203.354,37.786L203.099,37.545L202.843,37.306L202.587,37.068L202.33,36.83L202.072,36.593L201.813,36.357L201.554,36.121L201.294,35.886L201.033,35.653L200.772,35.419L200.509,35.187L200.247,34.955L199.983,34.725L199.719,34.494L199.454,34.265L199.188,34.037L198.922,33.809L198.655,33.582L198.388,33.356L198.119,33.131L197.85,32.906L197.58,32.682L197.31,32.459L197.039,32.237L196.767,32.016L196.495,31.795L196.222,31.576L195.948,31.357L195.673,31.139L195.398,30.921L195.122,30.705L194.846,30.489L194.569,30.274L194.291,30.06L194.013,29.847L193.733,29.635L193.454,29.423L193.173,29.212L192.892,29.002L192.61,28.793L192.328,28.585L192.045,28.378L191.762,28.171L191.477,27.965L191.193,27.76L190.907,27.556L190.621,27.353L190.334,27.15L190.046,26.949L189.759,26.748L189.47,26.548L189.181,26.349L188.891,26.151L188.6,25.954L188.309,25.757L188.017,25.562L187.724,25.366L187.432,25.173L187.138,24.98L186.844,24.788L186.549,24.596L186.254,24.406L185.957,24.216L185.661,24.028L185.364,23.84L185.066,23.653L184.767,23.467L184.468,23.282L184.168,23.097L183.868,22.914L183.567,22.731L183.266,22.55L182.964,22.369L182.661,22.189L182.358,22.01L182.054,21.832L181.75,21.655L181.445,21.478L181.139,21.303L180.833,21.128L180.526,20.955L180.219,20.782L179.912,20.61L179.603,20.439L179.294,20.269L178.985,20.1L178.675,19.932L178.364,19.765L178.053,19.598L177.741,19.433L177.429,19.268L177.116,19.105L176.802,18.942L176.488,18.78L176.174,18.62L175.859,18.46L175.543,18.301L175.227,18.143L174.91,17.986L174.593,17.829L174.275,17.674L173.957,17.52L173.638,17.367L173.319,17.214L172.999,17.063L172.678,16.912L172.358,16.763L172.036,16.614L171.714,16.466L171.391,16.32L171.069,16.174L170.745,16.029L170.421,15.885L170.096,15.742L169.771,15.6L169.446,15.46L169.119,15.32L168.792,15.18L168.465,15.042L168.138,14.905L167.809,14.769L167.481,14.634L167.152,14.5L166.822,14.367L166.492,14.234L166.161,14.103L165.83,13.973L165.499,13.844L165.167,13.715L164.834,13.588L164.501,13.462L164.167,13.337L163.833,13.212L163.498,13.089L163.164,12.967L162.828,12.845L162.492,12.725L162.156,12.606L161.819,12.487L161.481,12.37L161.143,12.254L160.805,12.138L160.466,12.024L160.127,11.911L159.788,11.799L159.448,11.687L159.107,11.577L158.766,11.468L158.424,11.36L158.083,11.253L157.74,11.146L157.397,11.041L157.053,10.937L156.71,10.834L156.366,10.732L156.021,10.631L155.676,10.531L155.33,10.432L154.985,10.334L154.638,10.238L154.291,10.142L153.944,10.047L153.596,9.953L153.248,9.861L152.9,9.769L152.551,9.678L152.201,9.589L151.851,9.501L151.501,9.413L151.15,9.327L150.799,9.241L150.448,9.157L150.096,9.074L149.744,8.992L149.391,8.911L149.038,8.831L148.684,8.752L148.33,8.674L147.976,8.598L147.621,8.522L147.266,8.448L146.911,8.374L146.555,8.302L146.198,8.23L145.842,8.16L145.484,8.091L145.127,8.023L144.769,7.956L144.411,7.89L144.052,7.825L143.693,7.762L143.334,7.699L142.973,7.638L142.613,7.577L142.253,7.518L141.892,7.46L141.531,7.403L141.169,7.347L140.807,7.292L140.445,7.238L140.082,7.185L139.719,7.134L139.355,7.084L138.991,7.034L138.627,6.986L138.262,6.939L137.898,6.893L137.532,6.848L137.166,6.805L136.801,6.762L136.434,6.721L136.067,6.681L135.7,6.642L135.333,6.604L134.965,6.567L134.597,6.531L134.228,6.496L133.859,6.463L133.49,6.431L133.121,6.4L132.751,6.37L132.381,6.341L132.011,6.313L131.64,6.287L131.269,6.261L130.897,6.237L130.525,6.214L130.154,6.192L129.781,6.172L129.408,6.152L129.035,6.134L128.662,6.117L128.288,6.101L127.914,6.086L127.54,6.072L127.165,6.06L126.79,6.048L126.415,6.038L126.04,6.029L125.663,6.022L125.288,6.015L124.911,6.01L124.534,6.005L124.157,6.002L123.78,6.001L123.402,6L123.025,6.001L122.647,6.002L122.27,6.005L121.893,6.01L121.517,6.015L121.141,6.022L120.765,6.029L120.389,6.038L120.014,6.048L119.639,6.06L119.265,6.072L118.89,6.086L118.516,6.101L118.142,6.117L117.769,6.134L117.397,6.152L117.024,6.172L116.651,6.192L116.279,6.214L115.908,6.237L115.536,6.261L115.165,6.287L114.794,6.313L114.424,6.341L114.053,6.37L113.683,6.4L113.314,6.431L112.945,6.463L112.577,6.496L112.208,6.531L111.839,6.567L111.472,6.604L111.105,6.642L110.738,6.681L110.371,6.721L110.004,6.762L109.638,6.805L109.273,6.848L108.907,6.893L108.542,6.939L108.178,6.986L107.814,7.034L107.45,7.084L107.086,7.134L106.723,7.186L106.36,7.238L105.998,7.292L105.636,7.347L105.274,7.403L104.912,7.46L104.551,7.518L104.192,7.577L103.831,7.638L103.471,7.699L103.112,7.762L102.753,7.825L102.394,7.89L102.036,7.956L101.678,8.023L101.32,8.091L100.963,8.16L100.606,8.23L100.25,8.302L99.894,8.374L99.539,8.448L99.183,8.522L98.829,8.598L98.475,8.674L98.12,8.752L97.767,8.831L97.414,8.911L97.061,8.992L96.709,9.074L96.356,9.157L96.005,9.242L95.654,9.327L95.304,9.413L94.953,9.501L94.603,9.589L94.254,9.678L93.905,9.769L93.557,9.861L93.208,9.953L92.861,10.047L92.513,10.142L92.166,10.238L91.82,10.334L91.474,10.432L91.129,10.531L90.784,10.631L90.439,10.732L90.095,10.834L89.751,10.937L89.408,11.041L89.065,11.146L88.722,11.253L88.38,11.36L88.039,11.468L87.697,11.577L87.357,11.687L87.017,11.799L86.677,11.911L86.338,12.024L85.999,12.138L85.661,12.254L85.323,12.37L84.986,12.487L84.649,12.606L84.312,12.725L83.976,12.845L83.641,12.966L83.306,13.089L82.972,13.212L82.637,13.337L82.304,13.462L81.971,13.588L81.638,13.715L81.306,13.844L80.974,13.973L80.643,14.103L80.313,14.234L79.983,14.367L79.653,14.5L79.324,14.634L78.995,14.769L78.667,14.905L78.339,15.042L78.012,15.18L77.685,15.32L77.359,15.46L77.034,15.6L76.709,15.742L76.384,15.885L76.06,16.029L75.736,16.174L75.413,16.32L75.091,16.466L74.769,16.614L74.447,16.763L74.126,16.912L73.806,17.063L73.486,17.214L73.167,17.367L72.848,17.52L72.529,17.674L72.212,17.829L71.894,17.986L71.577,18.143L71.262,18.301L70.946,18.46L70.631,18.62L70.316,18.78L70.002,18.942L69.688,19.105L69.376,19.268L69.064,19.433L68.752,19.598L68.441,19.765L68.13,19.932L67.82,20.1L67.511,20.269L67.201,20.439L66.893,20.61L66.585,20.782L66.278,20.955L65.971,21.128L65.665,21.303L65.36,21.478L65.055,21.655L64.75,21.832L64.447,22.01L64.144,22.189L63.841,22.369L63.539,22.55L63.237,22.731L62.937,22.914L62.636,23.097L62.336,23.282L62.038,23.467L61.739,23.653L61.441,23.84L61.144,24.028L60.847,24.216L60.551,24.406L60.255,24.596L59.961,24.787L59.667,24.98L59.372,25.173L59.08,25.367L58.787,25.562L58.495,25.757L58.204,25.954L57.914,26.151L57.624,26.349L57.335,26.548L57.046,26.748L56.758,26.949L56.47,27.15L56.184,27.353L55.898,27.556L55.612,27.76L55.327,27.965L55.043,28.171L54.759,28.378L54.476,28.585L54.194,28.793L53.912,29.002L53.631,29.212L53.351,29.423L53.071,29.635L52.792,29.847L52.513,30.06L52.236,30.274L51.959,30.489L51.682,30.705L51.406,30.921L51.131,31.139L50.857,31.357L50.583,31.576L50.31,31.795L50.038,32.016L49.766,32.237L49.495,32.459L49.224,32.682L48.955,32.906L48.685,33.131L48.417,33.356L48.15,33.582L47.883,33.809L47.616,34.037L47.35,34.265L47.086,34.494L46.821,34.725L46.558,34.955L46.295,35.187L46.033,35.419L45.771,35.653L45.511,35.886L45.251,36.121L44.991,36.357L44.733,36.593L44.475,36.83L44.218,37.068L43.961,37.306L43.705,37.545L43.45,37.786L43.196,38.026L42.942,38.268L42.689,38.51L42.437,38.753L42.186,38.997L41.935,39.242L41.685,39.487L41.436,39.733L41.187,39.98L40.94,40.228L40.692,40.476L40.446,40.725L40.201,40.974L39.956,41.225L39.711,41.477L39.469,41.728L39.226,41.981L38.984,42.235L38.743,42.488L38.503,42.743L38.263,42.999L38.024,43.255L37.786,43.512L37.549,43.77L37.312,44.028L37.076,44.288L36.841,44.548L36.607,44.808L36.374,45.069L36.141,45.331L35.909,45.594L35.678,45.857L35.448,46.121L35.218,46.386L34.989,46.652L34.761,46.918L34.534,47.185L34.307,47.453L34.082,47.721L33.857,47.99L33.633,48.259L33.41,48.529L33.187,48.8L32.965,49.072L32.744,49.345L32.524,49.617L32.305,49.891L32.086,50.165L31.869,50.44L31.652,50.716L31.436,50.993L31.221,51.27L31.006,51.547L30.792,51.826L30.579,52.105L30.368,52.384L30.156,52.665L29.946,52.946L29.737,53.227L29.528,53.51L29.32,53.793L29.113,54.076L28.907,54.36L28.701,54.645L28.497,54.931L28.293,55.216L28.091,55.503L27.888,55.791L27.687,56.079L27.487,56.367L27.287,56.657L27.088,56.947L26.891,57.237L26.694,57.528L26.497,57.821L26.302,58.113L26.108,58.406L25.915,58.699L25.722,58.994L25.53,59.289L25.339,59.584L25.149,59.88L24.96,60.177L24.771,60.474L24.584,60.772L24.397,61.071L24.212,61.369L24.027,61.669L23.843,61.97L23.66,62.271L23.478,62.572L23.296,62.874L23.116,63.177L22.936,63.48L22.757,63.784L22.58,64.089L22.403,64.394L22.227,64.699L22.052,65.005L21.877,65.312L21.704,65.62L21.532,65.928L21.361,66.236L21.19,66.545L21.02,66.855L20.851,67.165L20.683,67.476L20.516,67.787L20.35,68.099L20.185,68.412L20.021,68.724L19.858,69.038L19.695,69.352L19.534,69.666L19.374,69.982L19.214,70.298L19.055,70.614L18.897,70.931L18.741,71.248L18.585,71.566L18.43,71.885L18.276,72.203L18.122,72.524L17.97,72.844L17.82,73.163L17.669,73.485L17.52,73.807L17.372,74.128L17.224,74.452L17.077,74.776L16.932,75.099L16.788,75.423L16.644,75.748L16.502,76.073L16.36,76.399L16.219,76.725L16.079,77.052L15.941,77.38L15.803,77.708L15.666,78.036L15.53,78.365L15.395,78.694L15.261,79.024L15.128,79.354L14.996,79.685L14.865,80.017L14.735,80.348L14.606,80.681L14.478,81.014L14.351,81.348L14.225,81.681L14.1,82.015L13.976,82.35L13.853,82.686L13.73,83.022L13.609,83.358L13.489,83.694L13.37,84.031L13.252,84.369L13.135,84.707L13.019,85.046L12.904,85.385L12.79,85.725L12.677,86.065L12.565,86.405L12.454,86.746L12.343,87.088L12.235,87.429L12.127,87.771L12.02,88.114L11.914,88.457L11.809,88.801L11.705,89.146L11.602,89.489L11.5,89.835L11.399,90.18L11.299,90.526L11.201,90.872L11.103,91.219L11.006,91.567L10.911,91.914L10.816,92.261L10.723,92.611L10.63,92.959L10.539,93.309L10.448,93.659L10.359,94.009L10.271,94.36L10.184,94.71L10.097,95.062L10.012,95.414L9.928,95.766L9.845,96.118L9.763,96.472L9.682,96.825L9.602,97.18L9.524,97.534L9.446,97.888L9.37,98.244L9.294,98.6L9.22,98.955L9.146,99.312L9.074,99.668L9.003,100.026L8.933,100.383L8.864,100.741L8.796,101.1L8.729,101.459L8.663,101.817L8.598,102.177L8.535,102.537L8.472,102.897L8.411,103.257L8.351,103.618L8.291,103.981L8.233,104.342L8.177,104.703L8.121,105.067L8.066,105.429L8.012,105.793L7.96,106.157L7.908,106.52L7.858,106.884L7.809,107.249L7.761,107.615L7.714,107.98L7.668,108.346L7.623,108.712L7.58,109.079L7.537,109.445L7.496,109.812L7.456,110.181L7.417,110.549L7.379,110.916L7.342,111.285L7.306,111.654L7.272,112.023L7.238,112.393L7.206,112.763L7.175,113.133L7.145,113.504L7.117,113.875L7.089,114.246L7.062,114.618L7.037,114.99L7.013,115.362L6.99,115.735L6.968,116.107L6.948,116.482L6.928,116.855L6.91,117.228L6.893,117.603L6.877,117.977L6.862,118.352L6.848,118.728L6.836,119.103L6.824,119.479L6.814,119.855L6.805,120.231L6.798,120.608L6.791,120.985L6.786,121.362L6.782,121.74L6.779,122.118L6.777,122.496L6.776,122.875L6.777,123.253L6.779,123.632L6.782,124.009L6.786,124.387L6.791,124.765L6.798,125.141L6.805,125.518L6.814,125.895L6.824,126.271L6.836,126.646L6.848,127.022L6.862,127.397L6.877,127.772L6.893,128.146L6.91,128.521L6.928,128.895L6.948,129.268L6.968,129.642L6.99,130.015L7.013,130.387L7.037,130.76L7.062,131.131L7.089,131.503L7.117,131.874L7.145,132.246L7.175,132.616L7.206,132.986L7.238,133.356L7.272,133.727L7.306,134.095L7.342,134.464L7.379,134.833L7.417,135.201L7.456,135.569L7.496,135.937L7.537,136.304L7.58,136.671L7.623,137.038L7.668,137.404L7.714,137.769L7.761,138.134L7.809,138.5L7.858,138.865L7.908,139.229L7.96,139.593L8.012,139.957L8.066,140.32L8.121,140.682L8.177,141.046L8.233,141.408L8.291,141.769L8.351,142.131L8.411,142.492L8.472,142.853L8.535,143.212L8.598,143.572L8.663,143.932L8.729,144.291L8.796,144.65L8.864,145.008L8.933,145.366L9.003,145.724L9.074,146.081L9.146,146.438L9.22,146.794L9.294,147.15L9.37,147.506L9.446,147.861L9.524,148.215L9.602,148.57L9.682,148.924L9.763,149.278L9.845,149.631L9.928,149.983L10.012,150.335L10.097,150.687L10.184,151.039L10.271,151.39L10.359,151.741L10.448,152.091L10.539,152.441L10.63,152.79L10.723,153.139L10.816,153.488L10.911,153.835L11.006,154.183L11.103,154.531L11.201,154.877L11.299,155.223L11.399,155.569L11.5,155.915L11.602,156.26L11.705,156.604L11.809,156.948L11.914,157.292L12.019,157.635L12.127,157.978L12.235,158.32L12.343,158.662L12.454,159.004L12.565,159.345L12.677,159.685L12.79,160.025L12.904,160.364L13.019,160.703L13.135,161.042L13.252,161.38L13.37,161.719L13.489,162.056L13.609,162.392L13.73,162.728L13.853,163.063L13.976,163.399L14.1,163.735L14.225,164.068L14.351,164.402L14.478,164.735L14.606,165.069L14.735,165.401L14.865,165.732L14.996,166.064L15.128,166.395L15.261,166.725L15.395,167.055L15.53,167.385L15.666,167.713L15.803,168.042L15.94,168.37L16.079,168.697L16.219,169.024L16.36,169.35L16.502,169.676L16.644,170.002L16.788,170.327L16.932,170.651L17.077,170.974L17.224,171.298L17.372,171.621L17.52,171.942L17.669,172.265L17.82,172.586L17.97,172.906L18.122,173.226L18.276,173.546L18.43,173.865L18.585,174.183L18.741,174.501L18.897,174.818L19.055,175.135L19.214,175.452L19.374,175.768L19.534,176.083L19.695,176.397L19.858,176.711L20.021,177.025L20.185,177.338L20.351,177.651L20.516,177.963L20.683,178.273L20.851,178.584L21.02,178.895L21.19,179.204L21.36,179.514L21.532,179.821L21.704,180.129L21.878,180.437L22.052,180.744L22.227,181.05L22.403,181.356L22.58,181.661L22.757,181.965L22.936,182.269L23.116,182.572L23.296,182.875L23.478,183.177L23.66,183.478L23.843,183.78L24.027,184.08L24.212,184.38L24.397,184.679L24.584,184.977L24.771,185.275L24.96,185.572L25.149,185.87L25.339,186.166L25.53,186.461L25.721,186.755L25.915,187.05L26.108,187.344L26.302,187.637L26.497,187.929L26.694,188.221L26.891,188.513L27.088,188.802L27.287,189.092L27.487,189.382L27.687,189.671L27.888,189.958L28.091,190.247L28.293,190.533L28.497,190.819L28.701,191.104L28.907,191.389L29.113,191.674L29.32,191.957L29.528,192.24L29.737,192.523L29.946,192.804L30.156,193.085L30.368,193.365L30.579,193.644L30.792,193.924L31.006,194.202L31.221,194.48L31.436,194.757L31.652,195.033L31.869,195.309L32.086,195.584L32.305,195.858L32.524,196.132L32.744,196.405L32.965,196.678L33.187,196.949L33.409,197.22L33.632,197.49L33.857,197.76L34.082,198.029L34.307,198.297L34.534,198.564L34.761,198.831L34.989,199.098L35.218,199.363L35.448,199.628L35.678,199.892L35.909,200.155L36.141,200.418L36.374,200.68L36.607,200.941L36.841,201.202L37.076,201.461L37.312,201.721L37.549,201.979L37.786,202.237L38.024,202.494L38.263,202.75L38.503,203.006L38.743,203.261L38.984,203.515L39.226,203.768L39.468,204.021L39.712,204.273L39.956,204.524L40.201,204.775L40.446,205.024L40.692,205.273L40.94,205.522L41.187,205.77L41.436,206.016L41.685,206.262L41.935,206.508L42.186,206.752L42.437,206.996L42.689,207.239L42.942,207.481L43.196,207.723L43.45,207.964L43.705,208.204L43.961,208.443L44.218,208.682L44.475,208.92L44.733,209.157L44.991,209.393L45.251,209.628L45.511,209.863L45.771,210.097L46.033,210.33L46.295,210.563L46.558,210.794L46.821,211.025L47.086,211.255L47.35,211.484L47.616,211.713L47.883,211.94L48.15,212.167L48.417,212.393L48.686,212.619L48.955,212.843L49.224,213.067L49.495,213.29L49.766,213.512L50.038,213.733L50.31,213.954L50.583,214.174L50.857,214.393L51.131,214.611L51.406,214.828L51.682,215.044L51.959,215.26L52.236,215.475L52.513,215.689L52.792,215.902L53.071,216.115L53.351,216.326L53.631,216.537L53.912,216.747L54.194,216.956L54.476,217.164L54.759,217.372L55.043,217.578L55.327,217.784L55.612,217.99L55.898,218.194L56.183,218.396L56.47,218.599L56.758,218.8L57.046,219.001L57.335,219.201L57.624,219.4L57.914,219.598L58.204,219.796L58.496,219.992L58.787,220.188L59.08,220.382L59.373,220.576L59.667,220.77L59.961,220.962L60.256,221.153L60.551,221.343L60.847,221.533L61.144,221.722L61.441,221.91L61.739,222.097L62.037,222.283L62.336,222.468L62.636,222.652L62.937,222.836L63.237,223.018L63.539,223.2L63.841,223.381L64.143,223.56L64.446,223.739L64.75,223.918L65.055,224.095L65.36,224.271L65.665,224.446L65.971,224.621L66.278,224.795L66.585,224.967L66.893,225.139L67.201,225.31L67.51,225.48L67.82,225.649L68.13,225.817L68.441,225.985L68.752,226.151L69.064,226.317L69.376,226.481L69.689,226.645L70.002,226.807L70.316,226.969L70.631,227.13L70.946,227.29L71.261,227.449L71.577,227.607L71.894,227.764L72.212,227.92L72.529,228.075L72.848,228.23L73.167,228.383L73.486,228.535L73.806,228.687L74.126,228.837L74.447,228.987L74.769,229.135L75.091,229.283L75.413,229.43L75.736,229.575L76.06,229.72L76.384,229.864L76.708,230.007L77.034,230.149L77.359,230.29L77.685,230.43L78.012,230.569L78.339,230.707L78.667,230.844L78.995,230.98L79.324,231.115L79.653,231.25L79.982,231.383L80.312,231.515L80.643,231.646L80.974,231.776L81.306,231.906L81.638,232.034L81.971,232.161L82.304,232.288L82.637,232.413L82.971,232.537L83.306,232.661L83.641,232.783L83.976,232.904L84.312,233.024L84.649,233.144L84.986,233.262L85.323,233.38L85.661,233.496L85.999,233.611L86.338,233.725L86.677,233.839L87.017,233.951L87.357,234.062L87.697,234.172L88.039,234.282L88.38,234.39L88.722,234.497L89.065,234.603L89.408,234.708L89.751,234.812L90.095,234.915L90.439,235.017L90.784,235.118L91.128,235.218L91.474,235.317L91.82,235.415L92.167,235.512L92.513,235.608L92.861,235.702L93.209,235.796L93.556,235.889L93.905,235.98L94.254,236.071L94.603,236.16L94.953,236.249L95.304,236.336L95.654,236.423L96.005,236.508L96.357,236.592L96.708,236.675L97.061,236.757L97.414,236.838L97.767,236.918L98.12,236.997L98.474,237.075L98.829,237.152L99.183,237.227L99.538,237.302L99.894,237.375L100.25,237.448L100.606,237.519L100.963,237.589L101.32,237.658L101.678,237.726L102.036,237.793L102.394,237.859L102.753,237.924L103.112,237.988L103.471,238.05L103.831,238.112L104.191,238.172L104.552,238.232L104.912,238.29L105.274,238.347L105.636,238.403L105.998,238.458L106.36,238.511L106.723,238.564L107.086,238.615L107.449,238.666L107.813,238.715L108.178,238.763L108.542,238.81L108.908,238.856L109.273,238.901L109.638,238.945L110.004,238.987L110.371,239.029L110.737,239.069L111.104,239.108L111.472,239.146L111.84,239.183L112.208,239.218L112.576,239.253L112.945,239.286L113.314,239.319L113.684,239.35L114.054,239.38L114.423,239.408L114.794,239.436L115.165,239.463L115.536,239.488L115.908,239.512L116.279,239.535L116.651,239.557L117.023,239.578L117.396,239.597L117.769,239.616L118.143,239.633L118.517,239.649L118.89,239.664L119.265,239.677L119.639,239.69L120.014,239.701L120.389,239.711L120.765,239.72L121.141,239.728L121.517,239.734L121.893,239.74L122.27,239.744L122.647,239.747L123.025,239.749L123.402,239.749Z" style="fill:rgb(22,86,131);"/>
                </g>
            </g>
            <g transform="matrix(1,0,0,1,330.6,5.6809)">
                <path d="M152.487,94.228C151.045,89.863 149.012,87.64 146.041,85.355C145.165,84.681 144.248,84.08 143.07,83.386C143.049,83.373 140.775,82.064 140.172,81.688C138.349,80.551 137.206,79.516 136.494,78.08L136.258,77.604L136.258,77.075L136.258,64.519C136.258,60.721 139.355,57.635 143.193,57.635L150.169,57.635L150.169,43.907C150.169,42.647 151.198,41.625 152.487,41.625C153.768,41.625 154.806,42.646 154.806,43.907L154.806,57.635L173.353,57.635L173.353,43.907C173.353,42.647 174.382,41.625 175.672,41.625C176.952,41.625 177.99,42.646 177.99,43.907L177.99,57.635L184.966,57.635C188.807,57.635 191.901,60.705 191.901,64.519L191.901,77.604L191.665,78.08C191.004,79.413 189.946,80.436 188.32,81.541C188.699,81.283 183.537,84.496 182.062,85.675C179.136,88.012 177.132,90.127 175.672,94.228L175.672,98.802C175.672,98.802 175.672,101.089 171.035,101.089L171.035,114.812L157.124,114.812L157.117,101.089C152.487,101.089 152.487,98.802 152.487,98.802L152.487,94.228ZM157.079,96.068L157.079,93.807L157.079,93.447L156.964,93.106C155.217,87.913 152.501,84.269 148.795,81.469C147.739,80.672 146.666,79.981 145.329,79.207C145.243,79.157 143.035,77.909 142.512,77.588C141.344,76.873 140.995,76.214 140.745,75.719L140.745,64.437C140.745,63.169 141.783,62.153 143.058,62.153L185.101,62.153C186.383,62.153 187.413,63.158 187.413,64.437L187.413,75.719C187.175,76.192 186.864,76.85 185.829,77.541C185.47,77.78 185.067,78.032 184.495,78.378C184.495,78.378 183.276,79.111 182.902,79.339C181.464,80.218 180.349,80.968 179.241,81.837C175.646,84.657 172.979,88.183 171.211,93.057L171.08,93.421L171.08,96.069L157.079,96.068ZM155.105,73.756L173.952,73.756L173.952,76.434L155.105,76.434L155.105,73.756ZM156.9,78.219L171.259,78.219L171.259,80.896L156.9,80.896L156.9,78.219ZM156.9,69.293L171.259,69.293L171.259,71.971L156.9,71.971L156.9,69.293ZM161.387,101.424L165.874,101.424L165.874,110.349L161.387,110.349L161.387,101.424ZM123.893,148.692C123.893,141.627 129.603,135.899 136.645,135.899L179.149,135.899C186.192,135.899 191.901,141.628 191.901,148.692L191.901,191.332C191.901,198.397 186.19,204.124 179.149,204.124L136.645,204.124C129.602,204.124 123.893,198.395 123.893,191.332L123.893,148.692ZM128.143,148.692L128.143,191.332C128.143,196.041 131.95,199.86 136.645,199.86L179.149,199.86C183.843,199.86 187.65,196.041 187.65,191.332L187.65,148.692C187.65,143.983 183.844,140.164 179.149,140.164L136.645,140.164C131.95,140.164 128.143,143.982 128.143,148.692ZM132.394,155.092C132.394,149.202 137.147,144.428 143.024,144.428L172.769,144.428C178.64,144.428 183.4,149.195 183.4,155.092L183.4,184.932C183.4,190.821 178.647,195.596 172.769,195.596L143.024,195.596C137.153,195.596 132.394,190.828 132.394,184.932L132.394,155.092ZM134.519,155.092L134.519,184.932C134.519,189.648 138.325,193.464 143.024,193.464L172.769,193.464C177.471,193.464 181.275,189.646 181.275,184.932L181.275,155.092C181.275,150.375 177.469,146.56 172.769,146.56L143.024,146.56C138.323,146.56 134.519,150.377 134.519,155.092ZM157.897,189.2C147.333,189.2 138.77,180.609 138.77,170.012C138.77,159.414 147.333,150.824 157.897,150.824C168.461,150.824 177.024,159.414 177.024,170.012C177.024,180.609 168.461,189.2 157.897,189.2ZM157.897,187.068C167.287,187.068 174.899,179.432 174.899,170.012C174.899,160.592 167.287,152.956 157.897,152.956C148.507,152.956 140.895,160.592 140.895,170.012C140.895,179.432 148.507,187.068 157.897,187.068ZM157.897,180.672C156.723,180.672 155.772,179.727 155.772,178.52L155.772,174.296C155.772,173.107 156.715,172.144 157.897,172.144C159.071,172.144 160.022,173.089 160.022,174.296L160.022,178.52C160.022,179.708 159.079,180.672 157.897,180.672ZM160.592,163.616C161.179,162.596 162.47,162.242 163.512,162.845L167.159,164.957C168.185,165.552 168.545,166.853 167.954,167.88C167.367,168.899 166.075,169.253 165.033,168.65L161.387,166.538C160.361,165.944 160.001,164.643 160.592,163.616ZM147.84,167.88C147.253,166.86 147.593,165.561 148.635,164.957L152.282,162.845C153.308,162.251 154.611,162.589 155.202,163.616C155.789,164.635 155.449,165.935 154.407,166.538L150.76,168.65C149.734,169.244 148.431,168.907 147.84,167.88ZM59.716,176.804C53.574,171.35 49.703,163.382 49.703,154.506C49.703,138.064 62.989,124.735 79.379,124.735C95.768,124.735 109.055,138.064 109.055,154.506C109.055,163.277 105.274,171.161 99.259,176.61C96.372,179.225 95.19,190.019 92.307,196.755C89.935,202.296 86.471,204.227 79.46,204.062C72.619,203.9 68.81,202.17 66.443,196.896C63.435,190.192 62.646,179.407 59.716,176.804ZM54.649,154.506C54.649,140.805 65.721,129.697 79.379,129.697C93.037,129.697 104.109,140.805 104.109,154.506C104.109,157.989 103.391,161.354 102.053,164.43L56.705,164.43C55.367,161.354 54.649,157.99 54.649,154.506ZM65.644,176.834C64.939,175.239 64.125,174.094 62.994,173.089C60.975,171.296 59.279,169.209 57.955,166.911L100.803,166.911C99.518,169.139 97.884,171.17 95.944,172.927C94.811,173.953 93.981,175.151 93.238,176.834L65.644,176.834ZM67.265,181.796C67.439,182.456 67.617,183.163 67.803,183.923C67.864,184.17 68.488,186.77 68.756,187.858L91.465,182.139C91.497,182.023 91.529,181.909 91.561,181.796L67.265,181.796ZM70.909,194.759C70.382,193.567 69.898,192.13 69.381,190.259L90.737,184.88C90.466,185.926 90.087,187.396 89.956,187.894C89.744,188.7 89.543,189.437 89.35,190.114L70.909,194.759ZM72.267,196.975C73.63,198.47 75.668,199.009 79.576,199.101C84.695,199.222 86.243,198.345 87.762,194.798C88.009,194.22 88.248,193.593 88.49,192.889L72.267,196.975ZM60.831,154.624C59.595,154.624 59.65,152.793 59.756,151.958C60.898,143.017 67.972,135.936 76.893,134.814C77.513,134.736 79.489,134.659 79.489,135.899C79.489,137.14 76.7,137.347 76.7,137.347C69.284,138.502 63.426,144.38 62.274,151.819C62.274,151.819 62.068,154.624 60.831,154.624ZM95.434,65.101C96.305,63.739 97.603,61.846 99.637,58.904C105.633,49.881 101.061,41.625 88.621,41.625C74.343,41.625 65.617,54.546 73.039,68.893C71.686,68.019 69.812,66.726 66.926,64.718C57.932,58.703 49.703,63.29 49.703,75.769C49.703,90.196 62.767,98.972 77.192,91.238C76.32,92.607 75.009,94.52 72.926,97.534C66.93,106.556 71.502,114.812 83.942,114.812C98.228,114.812 106.955,101.878 99.512,87.522C100.863,88.395 102.73,89.684 105.595,91.677C114.589,97.692 122.819,93.106 122.819,80.626C122.819,66.234 109.817,57.466 95.434,65.101ZM94.506,71.052C107.091,62.034 118.259,68.625 118.259,80.626C118.259,89.493 114.053,91.837 108.124,87.871C102.368,83.842 100.238,82.417 98.081,81.552C97.467,81.306 96.856,81.111 96.232,80.964C96.472,80.09 96.601,79.169 96.601,78.219C96.601,75.185 94.506,71.052 94.506,71.052ZM89.544,66.442C90.407,64.278 91.827,62.141 95.844,56.366C99.796,50.418 97.46,46.2 88.621,46.2C76.658,46.2 70.089,57.404 79.077,70.028C79.077,70.028 83.387,67.927 86.342,67.927C87.248,67.927 88.128,68.045 88.965,68.266C89.111,67.651 89.303,67.047 89.544,66.442ZM74.44,74.843C72.283,73.977 70.153,72.553 64.397,68.524C58.468,64.558 54.262,66.902 54.262,75.769C54.262,87.77 65.431,94.361 78.015,85.343C78.015,85.343 76.082,81.197 76.082,78.219C76.082,77.266 76.211,76.344 76.453,75.468C75.772,75.318 75.107,75.111 74.44,74.843ZM83.019,89.995C82.156,92.159 80.736,94.296 76.719,100.071C72.767,106.019 75.103,110.238 83.942,110.238C95.905,110.238 102.474,99.034 93.486,86.409C93.486,86.409 89.311,88.51 86.342,88.51C85.394,88.51 84.476,88.382 83.605,88.14C83.459,88.766 83.264,89.38 83.019,89.995ZM86.342,86.223C81.935,86.223 78.362,82.64 78.362,78.219C78.362,73.798 81.935,70.214 86.342,70.214C90.748,70.214 94.321,73.798 94.321,78.219C94.321,82.64 90.748,86.223 86.342,86.223Z" style="fill:rgb(22,86,131);"/>
            </g>
        </g>
    </g>
</svg>
