<?xml version="1.0" standalone="no"?>
<!DOCTYPE svg PUBLIC "-//W3C//DTD SVG 1.1//EN" "http://www.w3.org/Graphics/SVG/1.1/DTD/svg11.dtd">
<svg width="100%" height="100%" viewBox="0 0 213 268" version="1.1" xmlns="http://www.w3.org/2000/svg" xmlns:xlink="http://www.w3.org/1999/xlink" xml:space="preserve" style="fill-rule:evenodd;clip-rule:evenodd;stroke-linejoin:round;stroke-miterlimit:1.41421;">
    <g transform="matrix(1,0,0,1,-1423,-496)">
        <g id="Solar" transform="matrix(1,0,0,1,743.207,387.323)">
            <g transform="matrix(1,0,0,1,689.307,115.17)">
                <path d="M141.606,51.167L141.606,39.551L138.942,42.263L136.998,40.223L142.038,35.159L145.014,35.159L145.014,51.167L141.606,51.167Z" style="fill:rgb(22,86,131);fill-rule:nonzero;"/>
                <path d="M157.854,51.167L157.854,47.855L150.198,47.855L150.198,45.167L156.558,35.159L161.262,35.159L161.262,44.855L163.326,44.855L163.326,47.855L161.262,47.855L161.262,51.167L157.854,51.167ZM157.854,38.183L153.534,44.855L157.854,44.855L157.854,38.183Z" style="fill:rgb(22,86,131);fill-rule:nonzero;"/>
                <path d="M172.034,42.839C171.458,42.839 170.93,42.739 170.45,42.539C169.97,42.339 169.558,42.063 169.214,41.711C168.87,41.359 168.606,40.943 168.422,40.463C168.238,39.983 168.146,39.463 168.146,38.903C168.146,38.343 168.238,37.819 168.422,37.331C168.606,36.843 168.87,36.419 169.214,36.059C169.558,35.699 169.97,35.419 170.45,35.219C170.93,35.019 171.458,34.919 172.034,34.919C172.626,34.919 173.162,35.019 173.642,35.219C174.122,35.419 174.534,35.699 174.878,36.059C175.222,36.419 175.49,36.843 175.682,37.331C175.874,37.819 175.97,38.343 175.97,38.903C175.97,39.463 175.874,39.983 175.682,40.463C175.49,40.943 175.222,41.359 174.878,41.711C174.534,42.063 174.122,42.339 173.642,42.539C173.162,42.739 172.626,42.839 172.034,42.839ZM170.522,51.167L180.746,35.159L182.21,35.159L171.962,51.167L170.522,51.167ZM180.53,51.455C179.954,51.455 179.426,51.355 178.946,51.155C178.466,50.955 178.054,50.679 177.71,50.327C177.366,49.975 177.098,49.559 176.906,49.079C176.714,48.599 176.618,48.079 176.618,47.519C176.618,46.959 176.714,46.435 176.906,45.947C177.098,45.459 177.366,45.035 177.71,44.675C178.054,44.315 178.466,44.035 178.946,43.835C179.426,43.635 179.954,43.535 180.53,43.535C181.106,43.535 181.634,43.635 182.114,43.835C182.594,44.035 183.006,44.315 183.35,44.675C183.694,45.035 183.962,45.459 184.154,45.947C184.346,46.435 184.442,46.959 184.442,47.519C184.442,48.079 184.346,48.599 184.154,49.079C183.962,49.559 183.694,49.975 183.35,50.327C183.006,50.679 182.594,50.955 182.114,51.155C181.634,51.355 181.106,51.455 180.53,51.455ZM172.034,41.447C172.706,41.447 173.254,41.203 173.678,40.715C174.102,40.227 174.314,39.623 174.314,38.903C174.314,38.151 174.102,37.535 173.678,37.055C173.254,36.575 172.706,36.335 172.034,36.335C171.362,36.335 170.818,36.575 170.402,37.055C169.986,37.535 169.778,38.151 169.778,38.903C169.778,39.623 169.986,40.227 170.402,40.715C170.818,41.203 171.362,41.447 172.034,41.447ZM180.53,50.063C181.202,50.063 181.75,49.823 182.174,49.343C182.598,48.863 182.81,48.255 182.81,47.519C182.81,46.767 182.598,46.151 182.174,45.671C181.75,45.191 181.202,44.951 180.53,44.951C179.858,44.951 179.31,45.191 178.886,45.671C178.462,46.151 178.25,46.767 178.25,47.519C178.25,48.255 178.462,48.863 178.886,49.343C179.31,49.823 179.858,50.063 180.53,50.063Z" style="fill:rgb(22,86,131);fill-rule:nonzero;"/>
            </g>
            <g transform="matrix(1,0,0,1,689.307,115.17)">
                <path d="M138.073,234.433C136.857,234.433 135.813,234.213 134.941,233.773C134.069,233.333 133.353,232.741 132.793,231.997C132.233,231.253 131.821,230.381 131.557,229.381C131.293,228.381 131.161,227.313 131.161,226.177C131.161,224.961 131.329,223.849 131.665,222.841C132.001,221.833 132.485,220.961 133.117,220.225C133.749,219.489 134.529,218.917 135.457,218.509C136.385,218.101 137.441,217.897 138.625,217.897C139.601,217.897 140.489,218.049 141.289,218.353C142.089,218.657 142.777,219.057 143.353,219.553L141.817,222.169C141.385,221.753 140.925,221.441 140.437,221.233C139.949,221.025 139.345,220.921 138.625,220.921C138.033,220.921 137.493,221.037 137.005,221.269C136.517,221.501 136.097,221.821 135.745,222.229C135.393,222.637 135.117,223.117 134.917,223.669C134.717,224.221 134.617,224.817 134.617,225.457C134.617,225.601 134.625,225.713 134.641,225.793C134.833,225.521 135.069,225.261 135.349,225.013C135.629,224.765 135.949,224.545 136.309,224.353C136.669,224.161 137.057,224.009 137.473,223.897C137.889,223.785 138.313,223.729 138.745,223.729C139.465,223.729 140.153,223.841 140.809,224.065C141.465,224.289 142.045,224.621 142.549,225.061C143.053,225.501 143.453,226.045 143.749,226.693C144.045,227.341 144.193,228.089 144.193,228.937C144.193,229.721 144.045,230.449 143.749,231.121C143.453,231.793 143.037,232.373 142.501,232.861C141.965,233.349 141.321,233.733 140.569,234.013C139.817,234.293 138.985,234.433 138.073,234.433ZM137.881,231.409C138.345,231.409 138.753,231.341 139.105,231.205C139.457,231.069 139.753,230.889 139.993,230.665C140.233,230.441 140.417,230.189 140.545,229.909C140.673,229.629 140.737,229.345 140.737,229.057C140.737,228.641 140.653,228.281 140.485,227.977C140.317,227.673 140.097,227.425 139.825,227.233C139.553,227.041 139.237,226.897 138.877,226.801C138.517,226.705 138.145,226.657 137.761,226.657C137.153,226.657 136.577,226.789 136.033,227.053C135.489,227.317 135.025,227.689 134.641,228.169C134.673,228.553 134.757,228.937 134.893,229.321C135.029,229.705 135.225,230.053 135.481,230.365C135.737,230.677 136.061,230.929 136.453,231.121C136.845,231.313 137.321,231.409 137.881,231.409Z" style="fill:rgb(22,86,131);fill-rule:nonzero;"/>
                <path d="M156.193,234.145L156.193,230.833L148.537,230.833L148.537,228.145L154.897,218.137L159.601,218.137L159.601,227.833L161.665,227.833L161.665,230.833L159.601,230.833L159.601,234.145L156.193,234.145ZM156.193,221.161L151.873,227.833L156.193,227.833L156.193,221.161Z" style="fill:rgb(22,86,131);fill-rule:nonzero;"/>
                <path d="M170.373,225.817C169.797,225.817 169.269,225.717 168.789,225.517C168.309,225.317 167.897,225.041 167.553,224.689C167.209,224.337 166.945,223.921 166.761,223.441C166.577,222.961 166.485,222.441 166.485,221.881C166.485,221.321 166.577,220.797 166.761,220.309C166.945,219.821 167.209,219.397 167.553,219.037C167.897,218.677 168.309,218.397 168.789,218.197C169.269,217.997 169.797,217.897 170.373,217.897C170.965,217.897 171.501,217.997 171.981,218.197C172.461,218.397 172.873,218.677 173.217,219.037C173.561,219.397 173.829,219.821 174.021,220.309C174.213,220.797 174.309,221.321 174.309,221.881C174.309,222.441 174.213,222.961 174.021,223.441C173.829,223.921 173.561,224.337 173.217,224.689C172.873,225.041 172.461,225.317 171.981,225.517C171.501,225.717 170.965,225.817 170.373,225.817ZM168.861,234.145L179.085,218.137L180.549,218.137L170.301,234.145L168.861,234.145ZM178.869,234.433C178.293,234.433 177.765,234.333 177.285,234.133C176.805,233.933 176.393,233.657 176.049,233.305C175.705,232.953 175.437,232.537 175.245,232.057C175.053,231.577 174.957,231.057 174.957,230.497C174.957,229.937 175.053,229.413 175.245,228.925C175.437,228.437 175.705,228.013 176.049,227.653C176.393,227.293 176.805,227.013 177.285,226.813C177.765,226.613 178.293,226.513 178.869,226.513C179.445,226.513 179.973,226.613 180.453,226.813C180.933,227.013 181.345,227.293 181.689,227.653C182.033,228.013 182.301,228.437 182.493,228.925C182.685,229.413 182.781,229.937 182.781,230.497C182.781,231.057 182.685,231.577 182.493,232.057C182.301,232.537 182.033,232.953 181.689,233.305C181.345,233.657 180.933,233.933 180.453,234.133C179.973,234.333 179.445,234.433 178.869,234.433ZM170.373,224.425C171.045,224.425 171.593,224.181 172.017,223.693C172.441,223.205 172.653,222.601 172.653,221.881C172.653,221.129 172.441,220.513 172.017,220.033C171.593,219.553 171.045,219.313 170.373,219.313C169.701,219.313 169.157,219.553 168.741,220.033C168.325,220.513 168.117,221.129 168.117,221.881C168.117,222.601 168.325,223.205 168.741,223.693C169.157,224.181 169.701,224.425 170.373,224.425ZM178.869,233.041C179.541,233.041 180.089,232.801 180.513,232.321C180.937,231.841 181.149,231.233 181.149,230.497C181.149,229.745 180.937,229.129 180.513,228.649C180.089,228.169 179.541,227.929 178.869,227.929C178.197,227.929 177.649,228.169 177.225,228.649C176.801,229.129 176.589,229.745 176.589,230.497C176.589,231.233 176.801,231.841 177.225,232.321C177.649,232.801 178.197,233.041 178.869,233.041Z" style="fill:rgb(22,86,131);fill-rule:nonzero;"/>
            </g>
            <g transform="matrix(1,0,0,1,689.307,115.17)">
                <path d="M16.945,234.385C15.681,234.273 14.585,233.997 13.657,233.557C12.729,233.117 11.937,232.561 11.281,231.889L13.129,229.297C13.577,229.761 14.121,230.185 14.761,230.569C15.401,230.953 16.129,231.217 16.945,231.361L16.945,227.569C16.321,227.409 15.705,227.225 15.097,227.017C14.489,226.809 13.937,226.525 13.441,226.165C12.945,225.805 12.545,225.353 12.241,224.809C11.937,224.265 11.785,223.585 11.785,222.769C11.785,222.161 11.901,221.585 12.133,221.041C12.365,220.497 12.705,220.009 13.153,219.577C13.601,219.145 14.141,218.785 14.773,218.497C15.405,218.209 16.129,218.025 16.945,217.945L16.945,215.713L19.225,215.713L19.225,217.993C20.201,218.105 21.093,218.341 21.901,218.701C22.709,219.061 23.441,219.537 24.097,220.129L22.201,222.625C21.769,222.225 21.301,221.897 20.797,221.641C20.293,221.385 19.769,221.193 19.225,221.065L19.225,224.449C19.849,224.609 20.469,224.797 21.085,225.013C21.701,225.229 22.261,225.517 22.765,225.877C23.269,226.237 23.677,226.693 23.989,227.245C24.301,227.797 24.457,228.481 24.457,229.297C24.457,229.969 24.349,230.593 24.133,231.169C23.917,231.745 23.593,232.253 23.161,232.693C22.729,233.133 22.185,233.497 21.529,233.785C20.873,234.073 20.105,234.265 19.225,234.361L19.225,236.545L16.945,236.545L16.945,234.385ZM21.001,229.681C21.001,229.281 20.833,228.969 20.497,228.745C20.161,228.521 19.737,228.321 19.225,228.145L19.225,231.361C19.817,231.233 20.261,231.013 20.557,230.701C20.853,230.389 21.001,230.049 21.001,229.681ZM15.265,222.481C15.265,222.833 15.417,223.113 15.721,223.321C16.025,223.529 16.433,223.705 16.945,223.849L16.945,220.921C16.401,221.001 15.985,221.177 15.697,221.449C15.409,221.721 15.265,222.065 15.265,222.481Z" style="fill:rgb(22,86,131);fill-rule:nonzero;"/>
                <path d="M33.369,234.145L33.369,222.529L30.705,225.241L28.761,223.201L33.801,218.137L36.777,218.137L36.777,234.145L33.369,234.145Z" style="fill:rgb(22,86,131);fill-rule:nonzero;"/>
                <path d="M46.721,232.969C46.721,233.881 46.493,234.721 46.037,235.489C45.581,236.257 44.985,236.905 44.249,237.433L42.929,236.353C43.121,236.257 43.317,236.125 43.517,235.957C43.717,235.789 43.901,235.601 44.069,235.393C44.237,235.185 44.385,234.969 44.513,234.745C44.641,234.521 44.729,234.305 44.777,234.097C44.745,234.113 44.681,234.129 44.585,234.145C44.489,234.161 44.401,234.169 44.321,234.169C43.857,234.169 43.469,234.009 43.157,233.689C42.845,233.369 42.689,232.953 42.689,232.441C42.689,231.913 42.873,231.461 43.241,231.085C43.609,230.709 44.049,230.521 44.561,230.521C44.849,230.521 45.121,230.577 45.377,230.689C45.633,230.801 45.861,230.961 46.061,231.169C46.261,231.377 46.421,231.633 46.541,231.937C46.661,232.241 46.721,232.585 46.721,232.969Z" style="fill:rgb(22,86,131);fill-rule:nonzero;"/>
                <path d="M57.429,234.433C56.213,234.433 55.169,234.213 54.297,233.773C53.425,233.333 52.709,232.741 52.149,231.997C51.589,231.253 51.177,230.381 50.913,229.381C50.649,228.381 50.517,227.313 50.517,226.177C50.517,224.961 50.685,223.849 51.021,222.841C51.357,221.833 51.841,220.961 52.473,220.225C53.105,219.489 53.885,218.917 54.813,218.509C55.741,218.101 56.797,217.897 57.981,217.897C58.957,217.897 59.845,218.049 60.645,218.353C61.445,218.657 62.133,219.057 62.709,219.553L61.173,222.169C60.741,221.753 60.281,221.441 59.793,221.233C59.305,221.025 58.701,220.921 57.981,220.921C57.389,220.921 56.849,221.037 56.361,221.269C55.873,221.501 55.453,221.821 55.101,222.229C54.749,222.637 54.473,223.117 54.273,223.669C54.073,224.221 53.973,224.817 53.973,225.457C53.973,225.601 53.981,225.713 53.997,225.793C54.189,225.521 54.425,225.261 54.705,225.013C54.985,224.765 55.305,224.545 55.665,224.353C56.025,224.161 56.413,224.009 56.829,223.897C57.245,223.785 57.669,223.729 58.101,223.729C58.821,223.729 59.509,223.841 60.165,224.065C60.821,224.289 61.401,224.621 61.905,225.061C62.409,225.501 62.809,226.045 63.105,226.693C63.401,227.341 63.549,228.089 63.549,228.937C63.549,229.721 63.401,230.449 63.105,231.121C62.809,231.793 62.393,232.373 61.857,232.861C61.321,233.349 60.677,233.733 59.925,234.013C59.173,234.293 58.341,234.433 57.429,234.433ZM57.237,231.409C57.701,231.409 58.109,231.341 58.461,231.205C58.813,231.069 59.109,230.889 59.349,230.665C59.589,230.441 59.773,230.189 59.901,229.909C60.029,229.629 60.093,229.345 60.093,229.057C60.093,228.641 60.009,228.281 59.841,227.977C59.673,227.673 59.453,227.425 59.181,227.233C58.909,227.041 58.593,226.897 58.233,226.801C57.873,226.705 57.501,226.657 57.117,226.657C56.509,226.657 55.933,226.789 55.389,227.053C54.845,227.317 54.381,227.689 53.997,228.169C54.029,228.553 54.113,228.937 54.249,229.321C54.385,229.705 54.581,230.053 54.837,230.365C55.093,230.677 55.417,230.929 55.809,231.121C56.201,231.313 56.677,231.409 57.237,231.409Z" style="fill:rgb(22,86,131);fill-rule:nonzero;"/>
                <path d="M74.933,234.433C73.781,234.433 72.789,234.197 71.957,233.725C71.125,233.253 70.441,232.625 69.905,231.841C69.369,231.057 68.969,230.173 68.705,229.189C68.441,228.205 68.309,227.193 68.309,226.153C68.309,225.129 68.441,224.121 68.705,223.129C68.969,222.137 69.369,221.253 69.905,220.477C70.441,219.701 71.125,219.077 71.957,218.605C72.789,218.133 73.781,217.897 74.933,217.897C76.069,217.897 77.053,218.133 77.885,218.605C78.717,219.077 79.405,219.701 79.949,220.477C80.493,221.253 80.897,222.137 81.161,223.129C81.425,224.121 81.557,225.129 81.557,226.153C81.557,227.193 81.425,228.205 81.161,229.189C80.897,230.173 80.493,231.057 79.949,231.841C79.405,232.625 78.717,233.253 77.885,233.725C77.053,234.197 76.069,234.433 74.933,234.433ZM74.933,231.409C75.509,231.409 75.993,231.273 76.385,231.001C76.777,230.729 77.101,230.357 77.357,229.885C77.613,229.413 77.797,228.857 77.909,228.217C78.021,227.577 78.077,226.889 78.077,226.153C78.077,225.417 78.021,224.729 77.909,224.089C77.797,223.449 77.613,222.897 77.357,222.433C77.101,221.969 76.777,221.601 76.385,221.329C75.993,221.057 75.509,220.921 74.933,220.921C74.357,220.921 73.869,221.057 73.469,221.329C73.069,221.601 72.741,221.969 72.485,222.433C72.229,222.897 72.045,223.449 71.933,224.089C71.821,224.729 71.765,225.417 71.765,226.153C71.765,226.889 71.821,227.577 71.933,228.217C72.045,228.857 72.229,229.413 72.485,229.885C72.741,230.357 73.069,230.729 73.469,231.001C73.869,231.273 74.357,231.409 74.933,231.409Z" style="fill:rgb(22,86,131);fill-rule:nonzero;"/>
                <path d="M93.013,234.433C91.861,234.433 90.869,234.197 90.037,233.725C89.205,233.253 88.521,232.625 87.985,231.841C87.449,231.057 87.049,230.173 86.785,229.189C86.521,228.205 86.389,227.193 86.389,226.153C86.389,225.129 86.521,224.121 86.785,223.129C87.049,222.137 87.449,221.253 87.985,220.477C88.521,219.701 89.205,219.077 90.037,218.605C90.869,218.133 91.861,217.897 93.013,217.897C94.149,217.897 95.133,218.133 95.965,218.605C96.797,219.077 97.485,219.701 98.029,220.477C98.573,221.253 98.977,222.137 99.241,223.129C99.505,224.121 99.637,225.129 99.637,226.153C99.637,227.193 99.505,228.205 99.241,229.189C98.977,230.173 98.573,231.057 98.029,231.841C97.485,232.625 96.797,233.253 95.965,233.725C95.133,234.197 94.149,234.433 93.013,234.433ZM93.013,231.409C93.589,231.409 94.073,231.273 94.465,231.001C94.857,230.729 95.181,230.357 95.437,229.885C95.693,229.413 95.877,228.857 95.989,228.217C96.101,227.577 96.157,226.889 96.157,226.153C96.157,225.417 96.101,224.729 95.989,224.089C95.877,223.449 95.693,222.897 95.437,222.433C95.181,221.969 94.857,221.601 94.465,221.329C94.073,221.057 93.589,220.921 93.013,220.921C92.437,220.921 91.949,221.057 91.549,221.329C91.149,221.601 90.821,221.969 90.565,222.433C90.309,222.897 90.125,223.449 90.013,224.089C89.901,224.729 89.845,225.417 89.845,226.153C89.845,226.889 89.901,227.577 90.013,228.217C90.125,228.857 90.309,229.413 90.565,229.885C90.821,230.357 91.149,230.729 91.549,231.001C91.949,231.273 92.437,231.409 93.013,231.409Z" style="fill:rgb(22,86,131);fill-rule:nonzero;"/>
            </g>
            <g transform="matrix(1,0,0,1,689.307,115.17)">
                <rect x="10.561" y="47.205" width="89.797" height="6.392" style="fill:rgb(22,86,131);"/>
            </g>
            <g transform="matrix(1,0,0,1,689.307,115.17)">
                <rect x="10.561" y="37.617" width="77.267" height="6.392" style="fill:rgb(22,86,131);"/>
            </g>
            <g transform="matrix(1,0,0,1,689.307,115.17)">
                <clipPath id="energy_clip1">
                    <rect x="24.137" y="171.395" width="136.789" height="25.569"/>
                </clipPath>
                <g clip-path="url(#energy_clip1)">
                    <g opacity="0.8">
                        <g>
                            <clipPath id="energy_clip2">
                                <rect x="61.669" y="179.385" width="99.256" height="3.196"/>
                            </clipPath>
                            <g clip-path="url(#energy_clip2)">
                                <clipPath id="energy_clip3">
                                    <rect x="23" y="171" width="139" height="27"/>
                                </clipPath>
                                <g clip-path="url(#energy_clip3)">
                                    <rect x="56.669" y="174.385" width="109.256" height="13.196" style="fill:rgb(22,86,131);fill-rule:nonzero;"/>
                                </g>
                            </g>
                            <clipPath id="energy_clip4">
                                <rect x="61.669" y="185.777" width="99.256" height="3.196"/>
                            </clipPath>
                            <g clip-path="url(#energy_clip4)">
                                <clipPath id="energy_clip5">
                                    <rect x="23" y="171" width="139" height="27"/>
                                </clipPath>
                                <g clip-path="url(#energy_clip5)">
                                    <rect x="56.669" y="180.777" width="109.256" height="13.196" style="fill:rgb(22,86,131);fill-rule:nonzero;"/>
                                </g>
                            </g>
                            <clipPath id="energy_clip6">
                                <path d="M36.914,196.964C43.97,196.964 49.691,191.24 49.691,184.179C49.691,177.118 43.97,171.395 36.914,171.395C29.857,171.395 24.137,177.118 24.137,184.179C24.137,191.24 29.857,196.964 36.914,196.964Z"/>
                            </clipPath>
                            <g clip-path="url(#energy_clip6)">
                                <clipPath id="energy_clip7">
                                    <rect x="23" y="171" width="139" height="27"/>
                                </clipPath>
                                <g clip-path="url(#energy_clip7)">
                                    <rect x="19.137" y="166.395" width="35.554" height="35.569" style="fill:rgb(22,86,131);fill-rule:nonzero;"/>
                                </g>
                            </g>
                        </g>
                    </g>
                </g>
            </g>
            <g transform="matrix(1,0,0,1,689.307,115.17)">
                <clipPath id="energy_clip8">
                    <rect x="24.137" y="139.433" width="136.789" height="25.569"/>
                </clipPath>
                <g clip-path="url(#energy_clip8)">
                    <g opacity="0.8">
                        <g>
                            <clipPath id="energy_clip9">
                                <rect x="61.669" y="147.424" width="99.256" height="3.196"/>
                            </clipPath>
                            <g clip-path="url(#energy_clip9)">
                                <clipPath id="energy_clip10">
                                    <rect x="23" y="139" width="139" height="27"/>
                                </clipPath>
                                <g clip-path="url(#energy_clip10)">
                                    <rect x="56.669" y="142.424" width="109.256" height="13.196" style="fill:rgb(22,86,131);fill-rule:nonzero;"/>
                                </g>
                            </g>
                            <clipPath id="energy_clip11">
                                <rect x="61.669" y="153.816" width="99.256" height="3.196"/>
                            </clipPath>
                            <g clip-path="url(#energy_clip11)">
                                <clipPath id="energy_clip12">
                                    <rect x="23" y="139" width="139" height="27"/>
                                </clipPath>
                                <g clip-path="url(#energy_clip12)">
                                    <rect x="56.669" y="148.816" width="109.256" height="13.196" style="fill:rgb(22,86,131);fill-rule:nonzero;"/>
                                </g>
                            </g>
                            <clipPath id="energy_clip13">
                                <path d="M36.914,165.002C43.97,165.002 49.691,159.279 49.691,152.218C49.691,145.157 43.97,139.433 36.914,139.433C29.857,139.433 24.137,145.157 24.137,152.218C24.137,159.279 29.857,165.002 36.914,165.002Z"/>
                            </clipPath>
                            <g clip-path="url(#energy_clip13)">
                                <clipPath id="energy_clip14">
                                    <rect x="23" y="139" width="139" height="27"/>
                                </clipPath>
                                <g clip-path="url(#energy_clip14)">
                                    <rect x="19.137" y="134.433" width="35.554" height="35.569" style="fill:rgb(22,86,131);fill-rule:nonzero;"/>
                                </g>
                            </g>
                        </g>
                    </g>
                </g>
            </g>
            <g transform="matrix(1,0,0,1,689.307,115.17)">
                <clipPath id="energy_clip15">
                    <rect x="24.137" y="107.472" width="136.789" height="25.569"/>
                </clipPath>
                <g clip-path="url(#energy_clip15)">
                    <g opacity="0.8">
                        <g>
                            <clipPath id="energy_clip16">
                                <rect x="61.669" y="115.463" width="99.256" height="3.196"/>
                            </clipPath>
                            <g clip-path="url(#energy_clip16)">
                                <clipPath id="energy_clip17">
                                    <rect x="23" y="107" width="139" height="27"/>
                                </clipPath>
                                <g clip-path="url(#energy_clip17)">
                                    <rect x="56.669" y="110.463" width="109.256" height="13.196" style="fill:rgb(22,86,131);fill-rule:nonzero;"/>
                                </g>
                            </g>
                            <clipPath id="energy_clip18">
                                <rect x="61.669" y="121.855" width="99.256" height="3.196"/>
                            </clipPath>
                            <g clip-path="url(#energy_clip18)">
                                <clipPath id="energy_clip19">
                                    <rect x="23" y="107" width="139" height="27"/>
                                </clipPath>
                                <g clip-path="url(#energy_clip19)">
                                    <rect x="56.669" y="116.855" width="109.256" height="13.196" style="fill:rgb(22,86,131);fill-rule:nonzero;"/>
                                </g>
                            </g>
                            <clipPath id="energy_clip20">
                                <path d="M36.914,133.041C43.97,133.041 49.691,127.317 49.691,120.257C49.691,113.196 43.97,107.472 36.914,107.472C29.857,107.472 24.137,113.196 24.137,120.257C24.137,127.317 29.857,133.041 36.914,133.041Z"/>
                            </clipPath>
                            <g clip-path="url(#energy_clip20)">
                                <clipPath id="energy_clip21">
                                    <rect x="23" y="107" width="139" height="27"/>
                                </clipPath>
                                <g clip-path="url(#energy_clip21)">
                                    <rect x="19.137" y="102.472" width="35.554" height="35.569" style="fill:rgb(22,86,131);fill-rule:nonzero;"/>
                                </g>
                            </g>
                        </g>
                    </g>
                </g>
            </g>
            <g transform="matrix(1,0,0,1,689.307,115.17)">
                <clipPath id="energy_clip22">
                    <rect x="24.137" y="75.511" width="136.789" height="25.569"/>
                </clipPath>
                <g clip-path="url(#energy_clip22)">
                    <g opacity="0.8">
                        <g>
                            <clipPath id="energy_clip23">
                                <rect x="61.669" y="83.501" width="99.256" height="3.196"/>
                            </clipPath>
                            <g clip-path="url(#energy_clip23)">
                                <clipPath id="energy_clip24">
                                    <rect x="23" y="75" width="139" height="27"/>
                                </clipPath>
                                <g clip-path="url(#energy_clip24)">
                                    <rect x="56.669" y="78.501" width="109.256" height="13.196" style="fill:rgb(22,86,131);fill-rule:nonzero;"/>
                                </g>
                            </g>
                            <clipPath id="energy_clip25">
                                <rect x="61.669" y="89.894" width="99.256" height="3.196"/>
                            </clipPath>
                            <g clip-path="url(#energy_clip25)">
                                <clipPath id="energy_clip26">
                                    <rect x="23" y="75" width="139" height="27"/>
                                </clipPath>
                                <g clip-path="url(#energy_clip26)">
                                    <rect x="56.669" y="84.894" width="109.256" height="13.196" style="fill:rgb(22,86,131);fill-rule:nonzero;"/>
                                </g>
                            </g>
                            <clipPath id="energy_clip27">
                                <path d="M36.914,101.08C43.97,101.08 49.691,95.356 49.691,88.295C49.691,81.235 43.97,75.511 36.914,75.511C29.857,75.511 24.137,81.235 24.137,88.295C24.137,95.356 29.857,101.08 36.914,101.08Z"/>
                            </clipPath>
                            <g clip-path="url(#energy_clip27)">
                                <clipPath id="energy_clip28">
                                    <rect x="23" y="75" width="139" height="27"/>
                                </clipPath>
                                <g clip-path="url(#energy_clip28)">
                                    <rect x="19.137" y="70.511" width="35.554" height="35.569" style="fill:rgb(22,86,131);fill-rule:nonzero;"/>
                                </g>
                            </g>
                        </g>
                    </g>
                </g>
            </g>
            <g transform="matrix(1,0,0,1,689.307,115.17)">
                <path d="M5.781,244.504L190.226,244.504L190.271,244.503L190.302,244.502L190.333,244.5L190.363,244.497L190.393,244.494L190.423,244.49L190.452,244.485L190.481,244.479L190.51,244.473L190.538,244.466L190.566,244.458L190.593,244.45L190.621,244.441L190.649,244.431L190.675,244.421L190.702,244.411L190.729,244.399L190.754,244.387L190.78,244.374L190.805,244.361L190.83,244.347L190.854,244.332L190.879,244.317L190.903,244.301L190.926,244.285L190.951,244.267L190.973,244.25L190.994,244.233L191.017,244.213L191.04,244.193L191.06,244.174L191.079,244.155L191.102,244.132L191.122,244.111L191.138,244.091L191.158,244.069L191.177,244.045L191.194,244.022L191.212,243.998L191.227,243.975L191.243,243.951L191.258,243.927L191.273,243.901L191.288,243.875L191.301,243.849L191.313,243.825L191.326,243.798L191.338,243.771L191.349,243.744L191.359,243.716L191.368,243.69L191.377,243.663L191.386,243.633L191.394,243.604L191.4,243.577L191.407,243.546L191.413,243.517L191.417,243.489L191.422,243.458L191.425,243.425L191.428,243.394L191.43,243.365L191.431,243.334L191.432,243.289L191.432,5.215L191.431,5.17L191.43,5.139L191.428,5.11L191.425,5.079L191.422,5.047L191.418,5.018L191.413,4.987L191.407,4.958L191.401,4.93L191.394,4.9L191.386,4.872L191.378,4.843L191.369,4.816L191.359,4.788L191.348,4.761L191.338,4.734L191.326,4.708L191.314,4.681L191.301,4.655L191.288,4.63L191.274,4.605L191.259,4.58L191.242,4.553L191.228,4.531L191.211,4.506L191.193,4.482L191.177,4.461L191.158,4.437L191.139,4.414L191.119,4.392L191.099,4.371L191.08,4.351L191.059,4.331L191.038,4.311L191.015,4.291L190.994,4.272L190.972,4.255L190.949,4.237L190.924,4.219L190.901,4.203L190.877,4.187L190.853,4.172L190.828,4.157L190.802,4.143L190.778,4.13L190.752,4.117L190.726,4.105L190.7,4.093L190.673,4.082L190.647,4.072L190.619,4.062L190.592,4.053L190.564,4.045L190.536,4.037L190.508,4.031L190.48,4.024L190.451,4.019L190.421,4.014L190.392,4.01L190.363,4.006L190.332,4.004L190.301,4.002L190.271,4.001L190.226,4L5.781,4L5.736,4.001L5.705,4.002L5.674,4.004L5.644,4.006L5.614,4.01L5.584,4.014L5.555,4.019L5.526,4.024L5.497,4.031L5.469,4.038L5.441,4.045L5.413,4.054L5.386,4.062L5.359,4.072L5.332,4.082L5.305,4.093L5.279,4.105L5.253,4.117L5.228,4.129L5.202,4.143L5.177,4.157L5.153,4.171L5.128,4.187L5.105,4.202L5.08,4.219L5.057,4.236L5.035,4.253L5.012,4.272L4.99,4.291L4.969,4.309L4.948,4.329L4.926,4.35L4.907,4.37L4.887,4.392L4.868,4.414L4.849,4.436L4.831,4.458L4.813,4.482L4.796,4.506L4.78,4.528L4.764,4.552L4.749,4.577L4.734,4.603L4.72,4.628L4.706,4.653L4.693,4.679L4.681,4.706L4.669,4.733L4.658,4.76L4.648,4.786L4.639,4.813L4.629,4.843L4.621,4.871L4.614,4.898L4.606,4.928L4.6,4.958L4.595,4.986L4.59,5.016L4.586,5.046L4.582,5.076L4.579,5.108L4.577,5.14L4.576,5.172L4.576,5.216L4.576,243.287L4.576,243.332L4.577,243.363L4.579,243.395L4.582,243.426L4.585,243.456L4.59,243.487L4.595,243.517L4.6,243.545L4.606,243.574L4.613,243.602L4.621,243.632L4.63,243.66L4.638,243.687L4.648,243.715L4.659,243.743L4.67,243.77L4.681,243.795L4.693,243.821L4.706,243.849L4.72,243.875L4.734,243.899L4.748,243.924L4.764,243.949L4.78,243.974L4.796,243.997L4.813,244.021L4.832,244.045L4.85,244.067L4.868,244.089L4.888,244.111L4.907,244.132L4.927,244.153L4.948,244.173L4.97,244.193L4.991,244.212L5.013,244.231L5.036,244.25L5.059,244.267L5.082,244.284L5.106,244.301L5.13,244.316L5.154,244.332L5.179,244.347L5.204,244.361L5.23,244.374L5.255,244.387L5.281,244.399L5.308,244.411L5.334,244.422L5.361,244.432L5.388,244.441L5.415,244.45L5.443,244.458L5.47,244.466L5.499,244.473L5.528,244.479L5.556,244.485L5.585,244.49L5.615,244.494L5.645,244.497L5.675,244.5L5.706,244.502L5.737,244.503L5.781,244.504ZM5.756,248.504L5.635,248.502L5.502,248.497L5.371,248.489L5.239,248.477L5.109,248.462L4.979,248.444L4.85,248.422L4.722,248.398L4.595,248.37L4.471,248.339L4.346,248.305L4.223,248.269L4.101,248.229L3.981,248.186L3.861,248.141L3.743,248.092L3.627,248.042L3.513,247.988L3.4,247.932L3.289,247.873L3.179,247.811L3.071,247.747L2.965,247.681L2.861,247.612L2.758,247.54L2.657,247.466L2.558,247.39L2.462,247.312L2.367,247.231L2.274,247.148L2.183,247.064L2.094,246.977L2.007,246.887L1.922,246.796L1.84,246.703L1.759,246.607L1.682,246.51L1.606,246.412L1.533,246.31L1.462,246.207L1.393,246.103L1.327,245.997L1.263,245.889L1.202,245.778L1.143,245.667L1.088,245.555L1.034,245.44L0.983,245.323L0.935,245.205L0.89,245.087L0.848,244.967L0.809,244.844L0.772,244.721L0.739,244.598L0.708,244.473L0.681,244.345L0.656,244.216L0.635,244.088L0.617,243.96L0.602,243.829L0.59,243.698L0.582,243.566L0.577,243.434L0.576,243.313L0.576,5.191L0.577,5.07L0.582,4.937L0.59,4.806L0.602,4.676L0.617,4.545L0.635,4.415L0.656,4.287L0.68,4.158L0.708,4.032L0.738,3.907L0.772,3.782L0.808,3.659L0.847,3.539L0.889,3.418L0.935,3.298L0.983,3.18L1.033,3.064L1.086,2.95L1.142,2.837L1.201,2.725L1.262,2.615L1.325,2.508L1.391,2.401L1.46,2.296L1.532,2.192L1.605,2.092L1.68,1.993L1.758,1.896L1.839,1.8L1.921,1.707L2.006,1.616L2.093,1.526L2.181,1.44L2.272,1.355L2.366,1.271L2.46,1.191L2.557,1.113L2.656,1.036L2.757,0.963L2.859,0.892L2.964,0.823L3.07,0.756L3.178,0.692L3.289,0.63L3.399,0.571L3.513,0.515L3.627,0.461L3.743,0.41L3.861,0.362L3.979,0.317L4.101,0.274L4.223,0.234L4.345,0.198L4.47,0.164L4.596,0.133L4.722,0.106L4.85,0.081L4.978,0.06L5.108,0.042L5.239,0.027L5.37,0.015L5.503,0.007L5.635,0.002L5.756,0L190.251,0L190.372,0.002L190.505,0.007L190.637,0.015L190.768,0.027L190.898,0.042L191.029,0.06L191.157,0.081L191.284,0.106L191.411,0.134L191.537,0.164L191.662,0.198L191.785,0.235L191.906,0.275L192.026,0.317L192.146,0.363L192.263,0.411L192.379,0.462L192.494,0.516L192.607,0.572L192.719,0.631L192.828,0.692L192.936,0.757L193.042,0.823L193.147,0.892L193.25,0.964L193.349,1.037L193.448,1.113L193.546,1.192L193.641,1.273L193.733,1.355L193.824,1.44L193.913,1.527L194.001,1.617L194.085,1.708L194.167,1.801L194.247,1.896L194.324,1.992L194.401,2.093L194.474,2.193L194.545,2.295L194.615,2.402L194.68,2.507L194.743,2.614L194.805,2.725L194.864,2.837L194.92,2.949L194.973,3.063L195.024,3.18L195.072,3.298L195.117,3.417L195.159,3.537L195.199,3.659L195.235,3.782L195.269,3.906L195.299,4.031L195.327,4.158L195.351,4.286L195.372,4.414L195.39,4.545L195.405,4.674L195.417,4.805L195.425,4.938L195.43,5.072L195.432,5.192L195.432,243.312L195.43,243.432L195.425,243.565L195.417,243.699L195.405,243.83L195.39,243.959L195.373,244.087L195.351,244.218L195.327,244.346L195.3,244.471L195.269,244.597L195.235,244.721L195.2,244.843L195.16,244.965L195.117,245.087L195.072,245.206L195.024,245.324L194.974,245.439L194.921,245.553L194.865,245.668L194.806,245.78L194.745,245.888L194.682,245.996L194.616,246.102L194.547,246.207L194.475,246.311L194.402,246.412L194.326,246.511L194.249,246.607L194.17,246.702L194.085,246.798L194,246.889L193.916,246.976L193.826,247.064L193.734,247.15L193.642,247.232L193.548,247.311L193.45,247.391L193.35,247.468L193.251,247.54L193.147,247.612L193.043,247.681L192.937,247.747L192.829,247.812L192.719,247.873L192.607,247.932L192.495,247.989L192.38,248.042L192.264,248.093L192.147,248.141L192.027,248.187L191.907,248.229L191.785,248.269L191.662,248.306L191.537,248.34L191.411,248.37L191.285,248.398L191.157,248.422L191.028,248.444L190.899,248.462L190.768,248.477L190.637,248.489L190.505,248.497L190.372,248.502L190.251,248.504L5.756,248.504Z" style="fill:rgb(22,86,131);"/>
            </g>
            <g transform="matrix(1,0,0,1,689.307,115.17)">
                <clipPath id="energy_clip29">
                    <path d="M2.576,5.203C2.576,3.434 4.002,2 5.768,2L190.239,2C192.002,2 193.432,3.436 193.432,5.203L193.432,243.3C193.432,245.069 192.005,246.504 190.239,246.504L5.768,246.504C4.005,246.504 2.576,245.068 2.576,243.3L2.576,5.203Z"/>
                </clipPath>
                <g clip-path="url(#energy_clip29)">
                    <clipPath id="energy_clip30">
                        <rect x="2" y="2" width="192" height="245"/>
                    </clipPath>
                    <g clip-path="url(#energy_clip30)">
                        <path d="M5.781,244.504L190.226,244.504L190.271,244.503L190.302,244.502L190.333,244.5L190.363,244.497L190.393,244.494L190.423,244.49L190.452,244.485L190.481,244.479L190.51,244.473L190.538,244.466L190.566,244.458L190.593,244.45L190.621,244.441L190.649,244.431L190.675,244.421L190.702,244.411L190.729,244.399L190.754,244.387L190.78,244.374L190.805,244.361L190.83,244.347L190.854,244.332L190.879,244.317L190.903,244.301L190.926,244.285L190.951,244.267L190.973,244.25L190.994,244.233L191.017,244.213L191.04,244.193L191.06,244.174L191.079,244.155L191.102,244.132L191.122,244.111L191.138,244.091L191.158,244.069L191.177,244.045L191.194,244.022L191.212,243.998L191.227,243.975L191.243,243.951L191.258,243.927L191.273,243.901L191.288,243.875L191.301,243.849L191.313,243.825L191.326,243.798L191.338,243.771L191.349,243.744L191.359,243.716L191.368,243.69L191.377,243.663L191.386,243.633L191.394,243.604L191.4,243.577L191.407,243.546L191.413,243.517L191.417,243.489L191.422,243.458L191.425,243.425L191.428,243.394L191.43,243.365L191.431,243.334L191.432,243.289L191.432,5.215L191.431,5.17L191.43,5.139L191.428,5.11L191.425,5.079L191.422,5.047L191.418,5.018L191.413,4.987L191.407,4.958L191.401,4.93L191.394,4.9L191.386,4.872L191.378,4.843L191.369,4.816L191.359,4.788L191.348,4.761L191.338,4.734L191.326,4.708L191.314,4.681L191.301,4.655L191.288,4.63L191.274,4.605L191.259,4.58L191.242,4.553L191.228,4.531L191.211,4.506L191.193,4.482L191.177,4.461L191.158,4.437L191.139,4.414L191.119,4.392L191.099,4.371L191.08,4.351L191.059,4.331L191.038,4.311L191.015,4.291L190.994,4.272L190.972,4.255L190.949,4.237L190.924,4.219L190.901,4.203L190.877,4.187L190.853,4.172L190.828,4.157L190.802,4.143L190.778,4.13L190.752,4.117L190.726,4.105L190.7,4.093L190.673,4.082L190.647,4.072L190.619,4.062L190.592,4.053L190.564,4.045L190.536,4.037L190.508,4.031L190.48,4.024L190.451,4.019L190.421,4.014L190.392,4.01L190.363,4.006L190.332,4.004L190.301,4.002L190.271,4.001L190.226,4L5.781,4L5.736,4.001L5.705,4.002L5.674,4.004L5.644,4.006L5.614,4.01L5.584,4.014L5.555,4.019L5.526,4.024L5.497,4.031L5.469,4.038L5.441,4.045L5.413,4.054L5.386,4.062L5.359,4.072L5.332,4.082L5.305,4.093L5.279,4.105L5.253,4.117L5.228,4.129L5.202,4.143L5.177,4.157L5.153,4.171L5.128,4.187L5.105,4.202L5.08,4.219L5.057,4.236L5.035,4.253L5.012,4.272L4.99,4.291L4.969,4.309L4.948,4.329L4.926,4.35L4.907,4.37L4.887,4.392L4.868,4.414L4.849,4.436L4.831,4.458L4.813,4.482L4.796,4.506L4.78,4.528L4.764,4.552L4.749,4.577L4.734,4.603L4.72,4.628L4.706,4.653L4.693,4.679L4.681,4.706L4.669,4.733L4.658,4.76L4.648,4.786L4.639,4.813L4.629,4.843L4.621,4.871L4.614,4.898L4.606,4.928L4.6,4.958L4.595,4.986L4.59,5.016L4.586,5.046L4.582,5.076L4.579,5.108L4.577,5.14L4.576,5.172L4.576,5.216L4.576,243.287L4.576,243.332L4.577,243.363L4.579,243.395L4.582,243.426L4.585,243.456L4.59,243.487L4.595,243.517L4.6,243.545L4.606,243.574L4.613,243.602L4.621,243.632L4.63,243.66L4.638,243.687L4.648,243.715L4.659,243.743L4.67,243.77L4.681,243.795L4.693,243.821L4.706,243.849L4.72,243.875L4.734,243.899L4.748,243.924L4.764,243.949L4.78,243.974L4.796,243.997L4.813,244.021L4.832,244.045L4.85,244.067L4.868,244.089L4.888,244.111L4.907,244.132L4.927,244.153L4.948,244.173L4.97,244.193L4.991,244.212L5.013,244.231L5.036,244.25L5.059,244.267L5.082,244.284L5.106,244.301L5.13,244.316L5.154,244.332L5.179,244.347L5.204,244.361L5.23,244.374L5.255,244.387L5.281,244.399L5.308,244.411L5.334,244.422L5.361,244.432L5.388,244.441L5.415,244.45L5.443,244.458L5.47,244.466L5.499,244.473L5.528,244.479L5.556,244.485L5.585,244.49L5.615,244.494L5.645,244.497L5.675,244.5L5.706,244.502L5.737,244.503L5.781,244.504ZM5.756,248.504L5.635,248.502L5.502,248.497L5.371,248.489L5.239,248.477L5.109,248.462L4.979,248.444L4.85,248.422L4.722,248.398L4.595,248.37L4.471,248.339L4.346,248.305L4.223,248.269L4.101,248.229L3.981,248.186L3.861,248.141L3.743,248.092L3.627,248.042L3.513,247.988L3.4,247.932L3.289,247.873L3.179,247.811L3.071,247.747L2.965,247.681L2.861,247.612L2.758,247.54L2.657,247.466L2.558,247.39L2.462,247.312L2.367,247.231L2.274,247.148L2.183,247.064L2.094,246.977L2.007,246.887L1.922,246.796L1.84,246.703L1.759,246.607L1.682,246.51L1.606,246.412L1.533,246.31L1.462,246.207L1.393,246.103L1.327,245.997L1.263,245.889L1.202,245.778L1.143,245.667L1.088,245.555L1.034,245.44L0.983,245.323L0.935,245.205L0.89,245.087L0.848,244.967L0.809,244.844L0.772,244.721L0.739,244.598L0.708,244.473L0.681,244.345L0.656,244.216L0.635,244.088L0.617,243.96L0.602,243.829L0.59,243.698L0.582,243.566L0.577,243.434L0.576,243.313L0.576,5.191L0.577,5.07L0.582,4.937L0.59,4.806L0.602,4.676L0.617,4.545L0.635,4.415L0.656,4.287L0.68,4.158L0.708,4.032L0.738,3.907L0.772,3.782L0.808,3.659L0.847,3.539L0.889,3.418L0.935,3.298L0.983,3.18L1.033,3.064L1.086,2.95L1.142,2.837L1.201,2.725L1.262,2.615L1.325,2.508L1.391,2.401L1.46,2.296L1.532,2.192L1.605,2.092L1.68,1.993L1.758,1.896L1.839,1.8L1.921,1.707L2.006,1.616L2.093,1.526L2.181,1.44L2.272,1.355L2.366,1.271L2.46,1.191L2.557,1.113L2.656,1.036L2.757,0.963L2.859,0.892L2.964,0.823L3.07,0.756L3.178,0.692L3.289,0.63L3.399,0.571L3.513,0.515L3.627,0.461L3.743,0.41L3.861,0.362L3.979,0.317L4.101,0.274L4.223,0.234L4.345,0.198L4.47,0.164L4.596,0.133L4.722,0.106L4.85,0.081L4.978,0.06L5.108,0.042L5.239,0.027L5.37,0.015L5.503,0.007L5.635,0.002L5.756,0L190.251,0L190.372,0.002L190.505,0.007L190.637,0.015L190.768,0.027L190.898,0.042L191.029,0.06L191.157,0.081L191.284,0.106L191.411,0.134L191.537,0.164L191.662,0.198L191.785,0.235L191.906,0.275L192.026,0.317L192.146,0.363L192.263,0.411L192.379,0.462L192.494,0.516L192.607,0.572L192.719,0.631L192.828,0.692L192.936,0.757L193.042,0.823L193.147,0.892L193.25,0.964L193.349,1.037L193.448,1.113L193.546,1.192L193.641,1.273L193.733,1.355L193.824,1.44L193.913,1.527L194.001,1.617L194.085,1.708L194.167,1.801L194.247,1.896L194.324,1.992L194.401,2.093L194.474,2.193L194.545,2.295L194.615,2.402L194.68,2.507L194.743,2.614L194.805,2.725L194.864,2.837L194.92,2.949L194.973,3.063L195.024,3.18L195.072,3.298L195.117,3.417L195.159,3.537L195.199,3.659L195.235,3.782L195.269,3.906L195.299,4.031L195.327,4.158L195.351,4.286L195.372,4.414L195.39,4.545L195.405,4.674L195.417,4.805L195.425,4.938L195.43,5.072L195.432,5.192L195.432,243.312L195.43,243.432L195.425,243.565L195.417,243.699L195.405,243.83L195.39,243.959L195.373,244.087L195.351,244.218L195.327,244.346L195.3,244.471L195.269,244.597L195.235,244.721L195.2,244.843L195.16,244.965L195.117,245.087L195.072,245.206L195.024,245.324L194.974,245.439L194.921,245.553L194.865,245.668L194.806,245.78L194.745,245.888L194.682,245.996L194.616,246.102L194.547,246.207L194.475,246.311L194.402,246.412L194.326,246.511L194.249,246.607L194.17,246.702L194.085,246.798L194,246.889L193.916,246.976L193.826,247.064L193.734,247.15L193.642,247.232L193.548,247.311L193.45,247.391L193.35,247.468L193.251,247.54L193.147,247.612L193.043,247.681L192.937,247.747L192.829,247.812L192.719,247.873L192.607,247.932L192.495,247.989L192.38,248.042L192.264,248.093L192.147,248.141L192.027,248.187L191.907,248.229L191.785,248.269L191.662,248.306L191.537,248.34L191.411,248.37L191.285,248.398L191.157,248.422L191.028,248.444L190.899,248.462L190.768,248.477L190.637,248.489L190.505,248.497L190.372,248.502L190.251,248.504L5.756,248.504Z" style="fill:rgb(22,86,131);"/>
                        <clipPath id="energy_clip31">
                            <path d="M2.576,3.994C2.576,1.788 4.373,0 6.584,0L189.423,0C191.637,0 193.432,1.79 193.432,3.994L193.432,19.976L2.576,19.976L2.576,3.994Z"/>
                        </clipPath>
                        <g clip-path="url(#energy_clip31)">
                            <clipPath id="energy_clip32">
                                <rect x="2" y="2" width="192" height="245"/>
                            </clipPath>
                            <g clip-path="url(#energy_clip32)">
                                <rect x="-2.424" y="-5" width="200.856" height="29.976" style="fill:rgb(22,86,131);fill-rule:nonzero;"/>
                            </g>
                        </g>
                    </g>
                </g>
            </g>
        </g>
    </g>
</svg>
