<?xml version="1.0" encoding="UTF-8" standalone="no"?>
<svg width="515px" height="173px" viewBox="0 0 515 173" version="1.1" xmlns="http://www.w3.org/2000/svg" xmlns:xlink="http://www.w3.org/1999/xlink" xmlns:sketch="http://www.bohemiancoding.com/sketch/ns">
    <!-- Generator: Sketch 3.3 (11970) - http://www.bohemiancoding.com/sketch -->
    <title>Main Graphic</title>
    <desc>Created with Sketch.</desc>
    <defs></defs>
    <g id="Page-1" stroke="none" stroke-width="1" fill="none" fill-rule="evenodd" sketch:type="MSPage">
        <g id="V17---Dhanur" sketch:type="MSArtboardGroup" transform="translate(-463.000000, -307.000000)" stroke="#FFFAF1" stroke-width="2.6039783">
            <g id="Intro" sketch:type="MSLayerGroup" transform="translate(0.000000, -1.000000)">
                <g id="Main-Graphic" transform="translate(465.000000, 309.000000)" sketch:type="MSShapeGroup">
                    <g id="money-svg" transform="translate(317.569620, 33.852792)" stroke-dasharray="1195">
                        <path d="M187.660036,0.694416244 L6.85714286,0.694416244 C5.2079566,0.694416244 3.81916817,1.30203046 2.6039783,2.51725888 C1.38878843,3.73248731 0.78119349,5.1213198 0.78119349,6.77055838 L0.78119349,98.3467005 C0.78119349,99.9959391 1.38878843,101.384772 2.6039783,102.6 C3.81916817,103.815228 5.2079566,104.422843 6.85714286,104.422843 L187.573237,104.422843 C189.222423,104.422843 190.611212,103.815228 191.826401,102.6 C193.041591,101.384772 193.649186,99.9959391 193.649186,98.3467005 L193.649186,6.77055838 C193.649186,5.1213198 193.041591,3.73248731 191.826401,2.51725888 C190.698011,1.30203046 189.309222,0.694416244 187.660036,0.694416244 L187.660036,0.694416244 Z M181.497288,67.7923858 C174.726944,67.7923858 168.998192,70.1360406 164.224231,74.9101523 C159.450271,79.684264 157.106691,85.413198 157.106691,92.1837563 L37.323689,92.1837563 C37.323689,85.413198 34.9801085,79.684264 30.2061483,74.9101523 C25.4321881,70.1360406 19.7034358,67.7923858 12.9330922,67.7923858 L12.9330922,37.2380711 C19.7034358,37.2380711 25.4321881,34.8944162 30.2061483,30.1203046 C34.9801085,25.3461929 37.323689,19.6172589 37.323689,12.8467005 L157.106691,12.8467005 C157.106691,19.6172589 159.450271,25.3461929 164.224231,30.1203046 C168.998192,34.8944162 174.726944,37.2380711 181.497288,37.2380711 L181.497288,67.7923858 L181.497288,67.7923858 Z" id="Shape"></path>
                        <path d="M101.902351,44.5294416 L101.902351,31.5959391 C103.291139,32.6375635 104.245931,34.2 104.679928,36.3700508 C104.766727,36.8908629 105.287523,37.2380711 105.808318,37.151269 L115.790235,35.8492386 C116.050633,35.8492386 116.311031,35.6756345 116.484629,35.4152284 C116.658228,35.1548223 116.745027,34.8944162 116.658228,34.6340102 C115.963834,30.4675127 114.227848,27.0822335 111.62387,24.6517766 C109.19349,22.3081218 105.895118,20.8324873 101.902351,20.2248731 L101.902351,17.186802 C101.902351,16.6659898 101.468354,16.1451777 100.860759,16.1451777 L95.1320072,16.1451777 C94.6112116,16.1451777 94.0904159,16.5791878 94.0904159,17.186802 L94.0904159,20.2248731 C89.7504521,20.8324873 86.1916817,22.5685279 83.5009042,25.519797 C80.636528,28.6446701 79.1609403,32.5507614 79.1609403,37.064467 C79.1609403,41.5781726 80.4629295,45.3974619 82.9801085,48.6091371 C85.4104882,51.6472081 89.1428571,53.9040609 94.0904159,55.4664975 L94.0904159,69.4416244 C93.3960217,68.9208122 92.7016275,68.1395939 92.0072333,67.3583756 C90.965642,65.9695431 90.1844485,64.2335025 89.8372514,62.3238579 C89.7504521,61.8030457 89.3164557,61.4558376 88.7088608,61.5426396 L78.3797468,62.671066 C78.119349,62.671066 77.8589512,62.8446701 77.6853526,63.0182741 C77.5117541,63.2786802 77.4249548,63.5390863 77.5117541,63.7994924 C78.2929476,69.1812183 80.2893309,73.4345178 83.2405063,76.3857868 C86.0180832,79.1634518 89.6636528,80.9862944 94.0904159,81.6807107 L94.0904159,88.0172589 C94.0904159,88.5380711 94.5244123,89.0588832 95.1320072,89.0588832 L100.860759,89.0588832 C101.381555,89.0588832 101.902351,88.6248731 101.902351,88.0172589 L101.902351,81.5071066 C106.84991,80.6390863 110.842676,78.5558376 113.707052,75.3441624 C116.745027,71.8720812 118.307414,67.6187817 118.307414,62.584264 C118.307414,58.0705584 117.092224,54.3380711 114.661844,51.4736041 C112.231465,48.435533 108.065099,46.2654822 101.902351,44.5294416 L101.902351,44.5294416 Z M106.502712,63.8862944 C106.502712,65.622335 105.981917,67.0979695 104.853526,68.4 C103.985533,69.3548223 103.030741,70.0492386 101.815552,70.4832487 L101.815552,57.8101523 C103.291139,58.4177665 104.41953,59.1121827 105.113924,59.980203 C106.068716,61.0218274 106.502712,62.3238579 106.502712,63.8862944 L106.502712,63.8862944 Z M91.0524412,36.5436548 C91.0524412,35.2416244 91.3996383,34.0263959 92.2676311,32.9847716 C92.7884268,32.2903553 93.3960217,31.6827411 94.1772152,31.248731 L94.1772152,41.6649746 C93.3092224,41.1441624 92.7016275,40.5365482 92.1808318,39.842132 C91.3996383,38.8873096 91.0524412,37.7588832 91.0524412,36.5436548 L91.0524412,36.5436548 Z" id="Shape"></path>
                    </g>
                    <g id="arrow-svg" transform="translate(217.374322, 73.781726)" stroke-dasharray="55">
                        <path d="M0.26039783,31.248731 C4.25316456,26.5614213 9.63471971,23.2629442 15.363472,20.9192893 C21.005425,18.5756345 26.994575,17.1 32.9837251,15.6243655" id="Shape"></path>
                        <path d="M31.5949367,0.434010152 C38.7124774,2.08324873 46.0904159,3.90609137 51.8191682,8.50659898 C53.1211573,9.54822335 54.3363472,10.7634518 54.6835443,12.4126904 C55.0307414,14.4959391 53.8155515,16.4055838 52.5135624,18.0548223 C49.562387,21.8741117 46.0904159,25.2593909 42.2712477,28.1238579" id="Shape"></path>
                    </g>
                    <g id="globe-svg" stroke-dasharray="628.390014648438">
                        <path d="M52.6871609,5.20812183 C66.2278481,-0.607614213 96.2603978,-0.260406091 107.197107,2.17005076 C136.014467,3.9928934 155.804702,26.0406091 167.522604,52.0812183 C176.549729,72.7401015 175.594937,104.249239 163.963834,124.994924 C152.245931,145.219797 140.528029,159.628934 118.047016,166.399492 C96.4339964,172.736041 71.2622061,171.781218 49.6491863,163.274619 C23.4358047,152.424365 17.3598553,134.977157 5.03435805,108.762944 C-2.6039783,92.5309645 -0.433996383,67.9659898 4.77396022,50.7791878 C7.72513562,41.1441624 34.8933092,11.5446701 46.3508137,7.46497462 C48.4339964,6.77055838 50.6039783,5.9893401 52.6871609,5.20812183 L52.6871609,5.20812183 Z" id="Shape"></path>
                        <path d="M103.985533,3.90609137 C98.4303797,9.02741117 97.6491863,14.148731 103.638336,18.9228426 C106.589512,21.2664975 110.40868,22.5685279 113.186257,25.1725888 C116.745027,28.471066 115.703436,31.9431472 116.571429,36.2832487 C117.960217,43.4878173 120.130199,42.619797 125.598553,42.0989848 C130.546112,41.6649746 134.625678,41.6649746 136.882459,38.9741117 C138.705244,36.2832487 136.882459,28.2106599 144.520796,31.7695431 C148.600362,34.0263959 148.079566,40.7969543 146.777577,44.3558376 C143.652803,51.9944162 139.573237,47.0467005 135.059675,50.1715736 C123.775769,56.942132 122.039783,96.0898477 136.448463,98.7807107 C144.954792,100.603553 156.672694,86.6284264 156.238698,102.339594 C155.804702,109.978173 146.34358,120.828426 149.468354,128.467005 C153.027125,136.105584 156.238698,123.519289 157.540687,119.439594 C159.797468,114.057868 162.05425,108.676142 163.356239,102.773604 C165.61302,92.0101523 167.435805,80.7258883 170.560579,69.9624365" id="Shape"></path>
                        <path d="M128.289331,53.3832487 C129.157324,48.0015228 122.907776,44.3558376 120.216998,49.8243655 C117.960217,53.3832487 122.039783,61.9766497 125.598553,57.8969543" id="Shape"></path>
                        <path d="M113.880651,37.2380711 C113.446655,33.6791878 105.808318,19.7040609 102.162749,27.3426396 C99.4719711,32.2903553 105.287523,31.422335 107.544304,33.6791878 C109.801085,36.3700508 108.933092,40.015736 112.491863,41.3177665 C112.925859,39.4949239 113.359855,36.8040609 112.925859,34.9812183" id="Shape"></path>
                        <path d="M103.985533,42.1857868 C103.117541,41.7517766 102.162749,41.3177665 100.860759,40.7969543 C97.3019892,45.7446701 104.41953,49.8243655 108.933092,49.8243655 C110.755877,45.3106599 106.676311,43.4878173 103.551537,41.2309645" id="Shape"></path>
                        <path d="M86.4520796,29.0786802 C89.5768535,29.0786802 97.2151899,25.519797 93.2224231,21.8741117 C88.7088608,17.7944162 86.8860759,26.8218274 85.5840868,28.6446701" id="Shape"></path>
                        <path d="M63.5370705,16.9263959 C71.1754069,20.4852792 67.6166365,28.6446701 70.7414105,34.4604061 C77.0777577,45.2238579 77.9457505,33.5923858 79.7685353,28.1238579 C81.5913201,22.3081218 86.1048825,15.9715736 77.5117541,12.4126904 C72.5641953,10.5898477 61.801085,14.235533 66.7486438,21.0060914" id="Shape"></path>
                        <path d="M60.3254973,12.9335025 C55.8119349,12.9335025 52.2531646,16.4923858 47.7396022,17.013198 C41.403255,17.4472081 41.403255,13.8883249 36.4556962,21.0928934 C31.074141,29.1654822 23.0018083,38.1928934 19.7902351,47.6543147 C17.0994575,56.6817259 12.5858951,66.1431472 13.9746835,74.6497462 C15.363472,86.8020305 17.5334539,93.5725888 23.4358047,103.90203 C26.5605787,108.415736 27.5153707,113.363452 31.9421338,117.443147 C36.0216998,121.956853 40.0144665,121.00203 44.9620253,123.779695 C52.6003617,128.727411 45.8300181,130.984264 47.2188065,135.93198 C48.6075949,139.490863 57.1139241,142.702538 59.8047016,145.393401 C68.39783,152.59797 72.3905967,165.184264 85.4104882,164.750254 C92.6148282,164.750254 93.0488246,161.625381 96.1735986,156.677665 C97.562387,153.986802 96.6075949,153.986802 98.8643761,151.729949 C100.253165,150.341117 104.245931,150.861929 105.63472,148.605076 C107.891501,145.914213 106.068716,145.046193 106.502712,142.78934 C106.936709,141.92132 109.19349,136.018782 109.19349,136.018782 C107.370705,129.682234 101.98915,134.629949 97.4755877,135.150761 C91.1392405,135.584772 75.8625678,131.071066 70.4810127,127.512183 C64.6654611,123.953299 65.9674503,121.175635 58.3291139,120.307614 C53.3815552,119.439594 49.3019892,118.918782 44.7884268,117.182741 C42.965642,116.314721 39.4068716,114.491878 38.4520796,113.103046 C36.6292948,110.846193 37.5840868,108.15533 36.1952984,106.766497 C33.5045208,103.641624 28.1229656,101.384772 25.4321881,98.6939086 C18.6618445,91.9233503 22.7414105,71.264467 32.636528,81.5939086 C35.761302,85.1527919 33.0705244,91.4893401 34.4593128,95.5690355 C36.2820976,100.082741 43.4864376,105.898477 44.7884268,99.1279188 C45.6564195,94.6142132 40.2748644,91.0553299 41.2296564,86.1076142 C41.6636528,83.4167513 44.7884268,82.0279188 45.3092224,79.3370558 C46.1772152,77.5142132 44.4412297,73.5213198 45.3092224,72.1324873 C46.6980108,69.8756345 49.8227848,70.7436548 51.124774,69.4416244 C52.9475588,67.1847716 52.5135624,66.7507614 53.8155515,64.0598985 C54.6835443,62.2370558 53.8155515,58.6781726 56.5063291,57.2893401 C59.1971067,55.9005076 61.0198915,59.980203 63.7106691,59.1121827 C70.0470163,56.4213198 61.4538879,45.1370558 57.3743219,43.4010152 C51.0379747,40.7101523 43.3996383,50.6055838 42.0976492,42.5329949 C40.2748644,30.3807107 54.6835443,38.0192893 57.8083183,36.1964467 C62.755877,33.0715736 57.8083183,28.9918782 58.2423146,26.7350254 C58.2423146,22.6553299 58.676311,21.3532995 60.4990958,17.7076142" id="Shape"></path>
                    </g>
                </g>
            </g>
        </g>
    </g>
</svg>