<?xml version="1.0" encoding="UTF-8" standalone="no"?>
<svg width="240px" height="152px" viewBox="0 0 240 152" version="1.1" xmlns="http://www.w3.org/2000/svg" xmlns:xlink="http://www.w3.org/1999/xlink">
    <!-- Generator: Sketch 39.1 (31720) - http://www.bohemiancoding.com/sketch -->
    <title>Member card</title>
    <desc>Created with Sketch.</desc>
    <defs>
        <linearGradient x1="50%" y1="100%" x2="50%" y2="8.05729481%" id="linearGradient-1">
            <stop stop-color="#02A6CF" offset="0%"></stop>
            <stop stop-color="#00E8FF" offset="100%"></stop>
        </linearGradient>
        <rect id="path-2" x="0" y="0" width="240" height="152" rx="8"></rect>
        <mask id="mask-3" maskContentUnits="userSpaceOnUse" maskUnits="objectBoundingBox" x="0" y="0" width="240" height="152" fill="white">
            <use xlink:href="#path-2"></use>
        </mask>
    </defs>
    <g id="Page-1" stroke="none" stroke-width="1" fill="none" fill-rule="evenodd">
        <g id="Homepage-5a" transform="translate(-714.000000, -2314.000000)">
            <g id="Member-card" transform="translate(714.000000, 2314.000000)">
                <use id="Rectangle-3" stroke="#DADADA" mask="url(#mask-3)" stroke-width="1.6" fill="url(#linearGradient-1)" xlink:href="#path-2"></use>
                <path d="M136.694186,81.6720445 L135.860362,81.6720445 L135.860362,81.4179416 L137.791323,81.4179416 L137.791323,81.6720445 L136.957499,81.6720445 L136.957499,83.7895688 L136.694186,83.7895688 L136.694186,81.6720445 L136.694186,81.6720445 Z M138.40572,81.4179416 L138.669033,81.4179416 L139.546742,82.7308067 L140.424452,81.4179416 L140.687765,81.4179416 L140.687765,83.7895688 L140.424452,83.7895688 L140.424452,81.8837969 L139.546742,83.1543115 L139.546742,83.1543115 L138.669033,81.8837969 L138.669033,83.7895688 L138.40572,83.7895688 L138.40572,81.4179416 L138.40572,81.4179416 Z M146.348992,30.7667594 L149.245434,31.7408206 L147.92887,34.4089013 L150.693655,33.1383866 L151.703021,35.9335188 L152.712387,33.1383866 L155.477173,34.4089013 L154.160608,31.7408206 L157.05705,30.7667594 L154.160608,29.7926982 L155.477173,27.1246175 L152.712387,28.3951321 L151.703021,25.6 L150.693655,28.3951321 L147.92887,27.1246175 L149.245434,29.7926982 L146.348992,30.7667594 L146.348992,30.7667594 Z M137.747438,36.6958275 C142.135986,38.1780946 146.875618,38.9827538 151.790792,38.9827538 C156.705966,38.9827538 161.401713,38.1357441 165.834146,36.6958275 L137.747438,36.6958275 L137.747438,36.6958275 Z M125.064533,81.4179416 C130.199135,76.5476356 133.666088,70.2797636 135.026538,63.3766342 C135.728705,59.8615438 135.860362,56.3041029 135.421507,52.831363 C142.267642,51.8573018 148.323839,47.7916551 151.659136,41.9049374 C151.703021,41.8202364 151.703021,41.7355355 151.61525,41.6508345 C151.527479,41.5661335 151.439708,41.5661335 151.351937,41.6508345 C147.05116,44.3612656 142.0921,45.6317803 137.001384,45.3776773 C133.227233,45.2082754 129.672509,44.1918637 126.424983,42.4131433 C126.337212,42.3707928 126.249441,42.3707928 126.16167,42.4554937 C126.073899,42.5401947 126.073899,42.6248957 126.117785,42.7095967 C130.111364,48.9774687 131.822898,56.1770515 131.164615,63.5036857 C130.462448,71.0844228 127.258807,78.0299026 121.904779,83.5778164 C121.817008,83.6625174 121.817008,83.7895688 121.904779,83.8742698 C121.948664,83.9166203 121.992549,83.9589708 122.08032,83.9589708 L134.456026,83.9589708 C134.543797,83.9589708 134.587683,83.9166203 134.587683,83.8319193 C134.587683,83.7895688 134.543797,83.7472184 134.499912,83.7048679 L125.064533,81.4179416 L125.064533,81.4179416 Z M105.008868,54.8641864 C107.729768,54.7371349 110.011813,56.7276078 110.187355,59.353338 C110.187355,59.353338 110.933408,69.0515994 109.309645,77.4369958 C108.563592,80.6979833 106.983715,84.3824757 103.692303,86.1188456 C103.604532,86.1611961 103.560647,86.2458971 103.560647,86.3305981 C103.560647,86.415299 103.648418,86.5 103.736189,86.5 C109.529073,86.5 114.883101,83.7472184 118.130627,79.1310153 C123.572427,72.2702364 126.424983,64.054242 126.424983,55.4147427 C126.424983,51.6455494 125.854472,47.8763561 124.757335,44.2765647 C124.011282,41.9896384 123.967396,40.4226704 123.967396,40.3803199 C123.967396,34.7053547 128.750914,30.0891516 134.631568,30.0891516 C134.675454,30.0891516 134.719339,30.0468011 134.763225,30.0468011 C134.80711,30.0044506 134.80711,29.9621001 134.80711,29.9197497 C134.80711,29.4962448 134.631568,29.1997914 134.280485,28.9456885 C133.051691,27.9716273 129.935822,28.5221836 129.804165,28.5221836 C129.804165,28.5221836 127.960975,28.818637 126.030014,27.5481224 C124.494022,26.5317107 122.650832,25.9388039 120.6321,25.9388039 C118.042856,25.9388039 115.67304,26.9552156 113.961506,28.5645341 C111.547805,30.7667594 110.187355,34.1971488 109.924042,38.6863004 C109.924042,44.5306676 103.341219,48.045758 102.024655,48.6810153 C97.5922213,50.9255911 93.6864134,54.5253825 91.2288264,58.8451321 C91.1849409,58.9298331 91.1849409,59.0568846 91.2727118,59.1415855 C91.3604828,59.2262865 91.4921393,59.2262865 91.5799102,59.183936 C95.7051456,56.6005563 100.269236,55.1606398 105.008868,54.8641864 L105.008868,54.8641864 Z" id="Shape" fill="#FFFFFF"></path>
                <text id="Membership" font-size="25.6" font-weight="300" fill="#FFFFFF">
                    <tspan x="51.3482146" y="120.2">Membership</tspan>
                </text>
            </g>
        </g>
    </g>
</svg>