<?xml version="1.0" encoding="UTF-8" standalone="no"?>
<svg width="682px" height="186px" viewBox="0 0 682 186" version="1.1" xmlns="http://www.w3.org/2000/svg" xmlns:xlink="http://www.w3.org/1999/xlink">
    <!-- Generator: Sketch 3.6.1 (26313) - http://www.bohemiancoding.com/sketch -->
    <title>MyDomino Horizontal Blue</title>
    <desc>Created with Sketch.</desc>
    <defs></defs>
    <g id="Page-1" stroke="none" stroke-width="1" fill="none" fill-rule="evenodd">
        <g id="MyDomino-Horizontal-Blue" fill="#00CCFF">
            <g id="Page-1">
                <g>
                    <g id="MyDomino-Horizontal-Blue">
                        <g id="Layer_1">
                            <g id="Group" transform="translate(0.000000, 64.000000)">
                                <g id="Shape">
                                    <path d="M0.1,4.6 C0.1,3.2 1.3,1.9 2.8,1.9 L3.3,1.9 C4.4,1.9 5.3,2.5 6,3.4 L34.1,44.7 L62.2,3.4 C62.8,2.5 63.7,1.9 64.9,1.9 L65.4,1.9 C66.8,1.9 68.1,3.1 68.1,4.6 L68.1,72 C68.1,73.4 66.9,74.7 65.4,74.7 C64,74.7 62.7,73.5 62.7,72 L62.7,11.7 L36.3,50.2 C35.7,51.1 35,51.5 34,51.5 C33.1,51.5 32.4,51.1 31.7,50.2 L5.3,11.7 L5.3,72.1 C5.3,73.5 4.2,74.7 2.7,74.7 C1.3,74.7 0.1,73.6 0.1,72.1 L0.1,4.6 L0.1,4.6 L0.1,4.6 Z"></path>
                                    <path d="M82,89.3 C81.2,89 80.6,88.3 80.6,87.1 C80.6,85.8 81.6,84.7 83,84.7 C83.5,84.7 84,84.9 84.6,85.1 C86.2,85.7 88.1,86.1 91.3,86.1 C97.1,86.1 100.6,82.3 103.9,74.5 L104.2,73.8 L80.8,25.4 C80.6,24.9 80.4,24.4 80.4,23.9 C80.4,22.5 81.5,21.3 83.1,21.3 C84.6,21.3 85.3,22.2 85.8,23.4 L106.8,68.6 L125.1,23.1 C125.5,22.1 126.2,21.2 127.6,21.2 C129,21.2 130.2,22.3 130.2,23.8 C130.2,24.3 130.1,24.6 129.9,25.1 L108.6,75.9 C104,86.9 98.6,90.8 91.1,90.8 C87.5,91 84.8,90.4 82,89.3 L82,89.3 L82,89.3 Z"></path>
                                    <path d="M140.1,4.9 C140.1,3.5 141.3,2.2 142.8,2.2 L164,2.2 C186.6,2.2 202.3,17.7 202.3,38 L202.3,38.2 C202.3,58.5 186.7,74.2 164,74.2 L142.7,74.2 C141.3,74.2 140,73 140,71.5 L140,4.9 L140.1,4.9 L140.1,4.9 Z M164,69.3 C184.1,69.3 196.7,55.6 196.7,38.4 L196.7,38.2 C196.7,21.1 184.1,7.1 164,7.1 L145.4,7.1 L145.4,69.2 L164,69.2 L164,69.3 L164,69.3 Z"></path>
                                    <path d="M210.1,48.2 L210.1,48 C210.1,33.3 221.5,20.5 237.1,20.5 C252.6,20.5 263.9,33 263.9,47.8 L263.9,48 C263.9,62.7 252.5,75.5 236.9,75.5 C221.4,75.4 210.1,62.9 210.1,48.2 L210.1,48.2 L210.1,48.2 Z M258.5,48.2 L258.5,48 C258.5,35.4 249,25.3 236.9,25.3 C224.5,25.3 215.5,35.5 215.5,47.8 L215.5,48 C215.5,60.6 225,70.7 237.1,70.7 C249.6,70.7 258.5,60.5 258.5,48.2 L258.5,48.2 L258.5,48.2 Z"></path>
                                    <path d="M274.9,23.9 C274.9,22.5 275.9,21.3 277.4,21.3 C278.8,21.3 280,22.3 280,23.9 L280,31.1 C283.4,25.7 288.1,20.5 297.5,20.5 C306.7,20.5 312.3,25.7 315.2,31.8 C318.6,25.9 324.3,20.5 334.1,20.5 C346.5,20.5 354.3,29.2 354.3,42.4 L354.3,72 C354.3,73.5 353.3,74.6 351.8,74.6 C350.3,74.6 349.2,73.6 349.2,72 L349.2,43 C349.2,31.7 343.3,25.1 333.7,25.1 C324.9,25.1 317.1,31.9 317.1,43.6 L317.1,72 C317.1,73.5 316.1,74.6 314.6,74.6 C313.2,74.6 312,73.6 312,72 L312,42.7 C312,31.8 306,25.1 296.7,25.1 C287.3,25.1 279.9,33.3 279.9,43.9 L279.9,72 C279.9,73.5 278.9,74.6 277.4,74.6 C276,74.6 274.8,73.6 274.8,72 L274.8,23.9 L274.9,23.9 L274.9,23.9 Z"></path>
                                    <path d="M370.2,3.8 C370.2,2.1 371.5,0.7 373.3,0.7 C375,0.7 376.5,2 376.5,3.8 L376.5,5.5 C376.5,7.2 375.1,8.6 373.3,8.6 C371.6,8.6 370.2,7.3 370.2,5.5 L370.2,3.8 L370.2,3.8 L370.2,3.8 Z M370.9,23.9 C370.9,22.5 371.9,21.3 373.4,21.3 C374.8,21.3 376,22.3 376,23.9 L376,72 C376,73.5 375,74.6 373.5,74.6 C372.1,74.6 370.9,73.6 370.9,72 L370.9,23.9 L370.9,23.9 L370.9,23.9 Z"></path>
                                    <path d="M394.2,23.9 C394.2,22.5 395.2,21.3 396.7,21.3 C398.1,21.3 399.3,22.3 399.3,23.9 L399.3,31.5 C402.8,25.3 408.7,20.5 418.2,20.5 C431.5,20.5 439.2,29.5 439.2,42.1 L439.2,72 C439.2,73.5 438.2,74.6 436.7,74.6 C435.3,74.6 434.1,73.6 434.1,72 L434.1,43 C434.1,32.2 428,25.1 417.4,25.1 C407.1,25.1 399.2,32.9 399.2,43.8 L399.2,72 C399.2,73.5 398.2,74.6 396.7,74.6 C395.3,74.6 394.1,73.6 394.1,72 L394.1,23.9 L394.2,23.9 L394.2,23.9 Z"></path>
                                    <path d="M450,48.2 L450,48 C450,33.3 461.4,20.5 477,20.5 C492.5,20.5 503.8,33 503.8,47.8 L503.8,48 C503.8,62.7 492.4,75.5 476.8,75.5 C461.4,75.4 450,62.9 450,48.2 L450,48.2 L450,48.2 Z M498.5,48.2 L498.5,48 C498.5,35.4 489,25.3 476.9,25.3 C464.5,25.3 455.5,35.5 455.5,47.8 L455.5,48 C455.5,60.6 465,70.7 477.1,70.7 C489.5,70.7 498.5,60.5 498.5,48.2 L498.5,48.2 L498.5,48.2 Z"></path>
                                </g>
                                <g id="Shape" transform="translate(140.000000, 94.000000)">
                                    <path d="M8,22.5 C3.8,22.5 0.3,19.2 0.3,14.5 L0.3,14.4 C0.3,10 3.4,6.4 7.7,6.4 C12.3,6.4 14.9,10.1 14.9,14.2 C14.9,14.8 14.4,15.3 13.8,15.3 L2.6,15.3 C2.9,18.6 5.3,20.5 8,20.5 C9.9,20.5 11.3,19.8 12.4,18.7 C12.6,18.6 12.8,18.4 13.1,18.4 C13.7,18.4 14.1,18.8 14.1,19.4 C14.1,19.7 14,19.9 13.7,20.1 C12.3,21.6 10.6,22.5 8,22.5 L8,22.5 L8,22.5 Z M12.5,13.6 C12.3,10.8 10.6,8.3 7.6,8.3 C4.9,8.3 2.9,10.5 2.6,13.6 L12.5,13.6 L12.5,13.6 L12.5,13.6 Z"></path>
                                    <path d="M18.7,7.7 C18.7,7.1 19.2,6.5 19.8,6.5 C20.5,6.5 21,7 21,7.7 L21,9.4 C22,7.7 23.6,6.4 26.3,6.4 C30,6.4 32.2,8.9 32.2,12.6 L32.2,21.2 C32.2,21.9 31.7,22.4 31.1,22.4 C30.4,22.4 29.9,21.9 29.9,21.2 L29.9,13.2 C29.9,10.3 28.3,8.5 25.6,8.5 C22.9,8.5 21,10.4 21,13.3 L21,21.1 C21,21.8 20.5,22.3 19.9,22.3 C19.3,22.3 18.7,21.8 18.7,21.1 L18.7,7.7 L18.7,7.7 L18.7,7.7 Z"></path>
                                    <path d="M43.4,22.5 C39.2,22.5 35.7,19.2 35.7,14.5 L35.7,14.4 C35.7,10 38.8,6.4 43.1,6.4 C47.7,6.4 50.3,10.1 50.3,14.2 C50.3,14.8 49.8,15.3 49.2,15.3 L38,15.3 C38.3,18.6 40.7,20.5 43.4,20.5 C45.3,20.5 46.7,19.8 47.8,18.7 C48,18.6 48.2,18.4 48.5,18.4 C49.1,18.4 49.5,18.8 49.5,19.4 C49.5,19.7 49.4,19.9 49.1,20.1 C47.8,21.6 46.1,22.5 43.4,22.5 L43.4,22.5 L43.4,22.5 Z M48,13.6 C47.8,10.8 46.1,8.3 43.1,8.3 C40.4,8.3 38.4,10.5 38.1,13.6 L48,13.6 L48,13.6 L48,13.6 Z"></path>
                                    <path d="M54.5,7.7 C54.5,7.1 55,6.5 55.6,6.5 C56.3,6.5 56.8,7 56.8,7.7 L56.8,10.6 C57.9,8 60.2,6.5 62.1,6.5 C62.8,6.5 63.2,7 63.2,7.7 C63.2,8.3 62.8,8.8 62.2,8.9 C59.2,9.3 56.8,11.5 56.8,15.9 L56.8,21.2 C56.8,21.8 56.3,22.4 55.7,22.4 C55,22.4 54.5,21.9 54.5,21.2 L54.5,7.7 L54.5,7.7 L54.5,7.7 Z"></path>
                                    <path d="M65.9,25.2 C65.5,25 65.3,24.7 65.3,24.2 C65.3,23.7 65.8,23.2 66.3,23.2 C66.5,23.2 66.7,23.3 66.8,23.3 C68.4,24.4 70.3,25 72.3,25 C75.7,25 77.9,23.1 77.9,19.5 L77.9,17.7 C76.6,19.5 74.7,21 71.8,21 C68.1,21 64.5,18.2 64.5,13.8 L64.5,13.7 C64.5,9.2 68.1,6.4 71.8,6.4 C74.7,6.4 76.6,7.8 77.8,9.5 L77.8,7.7 C77.8,7.1 78.3,6.5 78.9,6.5 C79.6,6.5 80.1,7 80.1,7.7 L80.1,19.4 C80.1,21.8 79.4,23.6 78.1,24.9 C76.7,26.3 74.7,27 72.2,27 C70,27 67.8,26.3 65.9,25.2 L65.9,25.2 L65.9,25.2 Z M78,13.7 L78,13.7 C78,10.5 75.3,8.4 72.3,8.4 C69.4,8.4 67,10.4 67,13.6 L67,13.7 C67,16.8 69.5,19 72.3,19 C75.2,18.9 78,16.8 78,13.7 L78,13.7 L78,13.7 Z"></path>
                                    <path d="M84.4,26.6 C84,26.4 83.7,26.2 83.7,25.6 C83.7,25 84.2,24.6 84.7,24.6 C84.9,24.6 85.1,24.7 85.3,24.7 C85.7,24.8 86.2,25 87,25 C88.4,25 89.3,24.1 90.1,22.3 L90.2,22.1 L83.8,8.4 C83.7,8.2 83.7,8 83.7,7.8 C83.7,7.2 84.2,6.7 84.9,6.7 C85.5,6.7 85.9,7.1 86.1,7.6 L91.5,19.7 L96.3,7.6 C96.5,7.1 96.8,6.7 97.4,6.7 C98,6.7 98.5,7.2 98.5,7.8 C98.5,8 98.4,8.2 98.4,8.4 L92.4,22.8 C91.1,26 89.6,27.2 87.2,27.2 C86,27 85.2,26.8 84.4,26.6 L84.4,26.6 L84.4,26.6 Z"></path>
                                    <path d="M107.8,20.5 C107.6,20.4 107.4,20.1 107.4,19.7 C107.4,19.2 107.8,18.7 108.4,18.7 C108.6,18.7 108.8,18.8 109,18.9 C110.6,20 112.2,20.5 113.9,20.5 C115.8,20.5 117.1,19.5 117.1,18.1 L117.1,18 C117.1,16.4 115.3,15.9 113.2,15.3 C110.8,14.6 108.1,13.8 108.1,10.9 L108.1,10.8 C108.1,8.1 110.3,6.4 113.4,6.4 C115,6.4 116.8,6.9 118.3,7.7 C118.6,7.9 118.9,8.2 118.9,8.7 C118.9,9.2 118.5,9.7 117.9,9.7 C117.7,9.7 117.5,9.6 117.4,9.6 C116.1,8.9 114.7,8.4 113.4,8.4 C111.6,8.4 110.4,9.4 110.4,10.6 L110.4,10.7 C110.4,12.2 112.3,12.7 114.4,13.4 C116.8,14.1 119.4,15 119.4,17.8 L119.4,17.9 C119.4,20.8 117,22.5 113.9,22.5 C111.8,22.4 109.5,21.7 107.8,20.5 L107.8,20.5 L107.8,20.5 Z"></path>
                                    <path d="M121.8,17.7 L121.8,17.7 C121.8,14.4 124.5,12.7 128.4,12.7 C130.4,12.7 131.8,13 133.1,13.4 L133.1,12.9 C133.1,10.1 131.4,8.7 128.5,8.7 C126.9,8.7 125.6,9.1 124.5,9.6 C124.4,9.7 124.2,9.7 124.1,9.7 C123.6,9.7 123.1,9.3 123.1,8.7 C123.1,8.2 123.4,7.9 123.7,7.7 C125.2,7 126.8,6.7 128.7,6.7 C130.9,6.7 132.6,7.3 133.7,8.4 C134.7,9.4 135.3,10.9 135.3,12.9 L135.3,21.3 C135.3,22 134.8,22.4 134.2,22.4 C133.5,22.4 133.1,21.9 133.1,21.3 L133.1,19.9 C132,21.3 130.2,22.6 127.5,22.6 C124.7,22.5 121.8,20.8 121.8,17.7 L121.8,17.7 L121.8,17.7 Z M133.2,16.5 L133.2,15 C132.1,14.7 130.5,14.3 128.7,14.3 C125.8,14.3 124.2,15.6 124.2,17.5 L124.2,17.6 C124.2,19.5 126,20.7 128.1,20.7 C130.8,20.6 133.2,18.9 133.2,16.5 L133.2,16.5 L133.2,16.5 Z"></path>
                                    <path d="M145.1,22.4 L145,22.4 C144.4,22.4 144,22 143.7,21.4 L137.9,8.3 C137.8,8.1 137.8,7.9 137.8,7.7 C137.8,7.1 138.3,6.6 139,6.6 C139.7,6.6 140,7 140.2,7.5 L145.2,19.6 L150.3,7.5 C150.4,7.1 150.8,6.7 151.4,6.7 C152,6.7 152.5,7.2 152.5,7.8 C152.5,8 152.4,8.2 152.4,8.4 L146.6,21.5 C146.1,22 145.7,22.4 145.1,22.4 L145.1,22.4 L145.1,22.4 Z"></path>
                                    <path d="M155.6,1.9 C155.6,1.2 156.2,0.7 156.9,0.7 C157.7,0.7 158.3,1.2 158.3,1.9 L158.3,2.3 C158.3,3 157.7,3.5 156.9,3.5 C156.2,3.5 155.6,3 155.6,2.3 L155.6,1.9 L155.6,1.9 L155.6,1.9 Z M155.8,7.7 C155.8,7.1 156.3,6.5 156.9,6.5 C157.6,6.5 158.1,7 158.1,7.7 L158.1,21.1 C158.1,21.8 157.6,22.3 157,22.3 C156.3,22.3 155.8,21.8 155.8,21.1 L155.8,7.7 L155.8,7.7 L155.8,7.7 Z"></path>
                                    <path d="M163,7.7 C163,7.1 163.5,6.5 164.1,6.5 C164.8,6.5 165.3,7 165.3,7.7 L165.3,9.4 C166.3,7.7 167.9,6.4 170.6,6.4 C174.3,6.4 176.5,8.9 176.5,12.6 L176.5,21.2 C176.5,21.9 176,22.4 175.4,22.4 C174.7,22.4 174.2,21.9 174.2,21.2 L174.2,13.2 C174.2,10.3 172.6,8.5 169.9,8.5 C167.2,8.5 165.3,10.4 165.3,13.3 L165.3,21.1 C165.3,21.8 164.8,22.3 164.2,22.3 C163.5,22.3 163,21.8 163,21.1 L163,7.7 L163,7.7 L163,7.7 Z"></path>
                                    <path d="M181.2,25.2 C180.8,25 180.6,24.7 180.6,24.2 C180.6,23.7 181.1,23.2 181.6,23.2 C181.8,23.2 182,23.3 182.1,23.3 C183.7,24.4 185.6,25 187.6,25 C191,25 193.2,23.1 193.2,19.5 L193.2,17.7 C191.9,19.5 190,21 187.1,21 C183.4,21 179.8,18.2 179.8,13.8 L179.8,13.7 C179.8,9.2 183.4,6.4 187.1,6.4 C190,6.4 191.9,7.8 193.1,9.5 L193.1,7.7 C193.1,7.1 193.6,6.5 194.2,6.5 C194.9,6.5 195.4,7 195.4,7.7 L195.4,19.4 C195.4,21.8 194.7,23.6 193.4,24.9 C192,26.3 190,27 187.5,27 C185.3,27 183.1,26.3 181.2,25.2 L181.2,25.2 L181.2,25.2 Z M193.3,13.7 L193.3,13.7 C193.3,10.5 190.6,8.4 187.6,8.4 C184.7,8.4 182.3,10.4 182.3,13.6 L182.3,13.7 C182.3,16.8 184.8,19 187.6,19 C190.5,18.9 193.3,16.8 193.3,13.7 L193.3,13.7 L193.3,13.7 Z"></path>
                                    <path d="M199.6,20.5 C199.4,20.4 199.2,20.1 199.2,19.7 C199.2,19.2 199.6,18.7 200.2,18.7 C200.4,18.7 200.6,18.8 200.8,18.9 C202.4,20 204,20.5 205.7,20.5 C207.6,20.5 208.9,19.5 208.9,18.1 L208.9,18 C208.9,16.4 207.1,15.9 205,15.3 C202.6,14.6 199.9,13.8 199.9,10.9 L199.9,10.8 C199.9,8.1 202.1,6.4 205.2,6.4 C206.8,6.4 208.6,6.9 210.1,7.7 C210.4,7.9 210.7,8.2 210.7,8.7 C210.7,9.2 210.3,9.7 209.7,9.7 C209.5,9.7 209.3,9.6 209.2,9.6 C207.9,8.9 206.5,8.4 205.2,8.4 C203.4,8.4 202.2,9.4 202.2,10.6 L202.2,10.7 C202.2,12.2 204.1,12.7 206.2,13.4 C208.6,14.1 211.2,15 211.2,17.8 L211.2,17.9 C211.2,20.8 208.8,22.5 205.7,22.5 C203.5,22.4 201.3,21.7 199.6,20.5 L199.6,20.5 L199.6,20.5 Z"></path>
                                    <path d="M220.3,14.5 L220.3,14.5 C220.3,10.1 223.7,6.4 228.2,6.4 C230.8,6.4 232.5,7.4 233.9,8.6 C234.1,8.7 234.3,9 234.3,9.4 C234.3,10 233.8,10.5 233.2,10.5 C232.9,10.5 232.6,10.4 232.5,10.2 C231.4,9.2 230.1,8.3 228.3,8.3 C225.2,8.3 222.8,11 222.8,14.3 L222.8,14.4 C222.8,17.7 225.2,20.4 228.5,20.4 C230.3,20.4 231.7,19.6 232.8,18.5 C232.9,18.3 233.2,18.2 233.5,18.2 C234.1,18.2 234.5,18.7 234.5,19.2 C234.5,19.5 234.4,19.7 234.2,19.9 C232.7,21.4 231,22.4 228.4,22.4 C223.7,22.5 220.3,18.8 220.3,14.5 L220.3,14.5 L220.3,14.5 Z"></path>
                                    <path d="M237.1,14.5 L237.1,14.5 C237.1,10.1 240.5,6.4 245.2,6.4 C249.8,6.4 253.2,10 253.2,14.4 L253.2,14.5 C253.2,18.9 249.8,22.6 245.1,22.6 C240.5,22.5 237.1,18.9 237.1,14.5 L237.1,14.5 L237.1,14.5 Z M250.8,14.5 L250.8,14.5 C250.8,11.1 248.3,8.4 245.1,8.4 C241.8,8.4 239.5,11.1 239.5,14.4 L239.5,14.5 C239.5,17.8 241.9,20.5 245.2,20.5 C248.5,20.4 250.8,17.7 250.8,14.5 L250.8,14.5 L250.8,14.5 Z"></path>
                                    <path d="M256.3,7.7 C256.3,7.1 256.8,6.5 257.4,6.5 C258.1,6.5 258.6,7 258.6,7.7 L258.6,9.4 C259.6,7.7 261.2,6.4 263.9,6.4 C267.6,6.4 269.8,8.9 269.8,12.6 L269.8,21.2 C269.8,21.9 269.3,22.4 268.7,22.4 C268,22.4 267.5,21.9 267.5,21.2 L267.5,13.2 C267.5,10.3 265.9,8.5 263.2,8.5 C260.5,8.5 258.6,10.4 258.6,13.3 L258.6,21.1 C258.6,21.8 258.1,22.3 257.5,22.3 C256.8,22.3 256.3,21.8 256.3,21.1 L256.3,7.7 L256.3,7.7 L256.3,7.7 Z"></path>
                                    <path d="M273.3,14.5 L273.3,14.5 C273.3,10.1 276.7,6.4 281.2,6.4 C283.8,6.4 285.5,7.4 286.9,8.6 C287.1,8.7 287.3,9 287.3,9.4 C287.3,10 286.8,10.5 286.2,10.5 C285.9,10.5 285.6,10.4 285.5,10.2 C284.4,9.2 283.1,8.3 281.3,8.3 C278.2,8.3 275.8,11 275.8,14.3 L275.8,14.4 C275.8,17.7 278.2,20.4 281.5,20.4 C283.3,20.4 284.7,19.6 285.8,18.5 C285.9,18.3 286.2,18.2 286.5,18.2 C287.1,18.2 287.5,18.7 287.5,19.2 C287.5,19.5 287.4,19.7 287.2,19.9 C285.7,21.4 284,22.4 281.4,22.4 C276.7,22.5 273.3,18.8 273.3,14.5 L273.3,14.5 L273.3,14.5 Z"></path>
                                    <path d="M291.1,1.9 C291.1,1.2 291.7,0.7 292.4,0.7 C293.2,0.7 293.8,1.2 293.8,1.9 L293.8,2.3 C293.8,3 293.2,3.5 292.4,3.5 C291.7,3.5 291.1,3 291.1,2.3 L291.1,1.9 L291.1,1.9 L291.1,1.9 Z M291.3,7.7 C291.3,7.1 291.8,6.5 292.4,6.5 C293.1,6.5 293.6,7 293.6,7.7 L293.6,21.1 C293.6,21.8 293.1,22.3 292.5,22.3 C291.8,22.3 291.3,21.8 291.3,21.1 L291.3,7.7 L291.3,7.7 L291.3,7.7 Z"></path>
                                    <path d="M305.4,22.5 C301.2,22.5 297.7,19.2 297.7,14.5 L297.7,14.4 C297.7,10 300.8,6.4 305.1,6.4 C309.7,6.4 312.3,10.1 312.3,14.2 C312.3,14.8 311.8,15.3 311.2,15.3 L300,15.3 C300.3,18.6 302.7,20.5 305.4,20.5 C307.3,20.5 308.7,19.8 309.8,18.7 C310,18.6 310.2,18.4 310.5,18.4 C311.1,18.4 311.5,18.8 311.5,19.4 C311.5,19.7 311.4,19.9 311.1,20.1 C309.8,21.6 308,22.5 305.4,22.5 L305.4,22.5 L305.4,22.5 Z M310,13.6 C309.8,10.8 308.1,8.3 305.1,8.3 C302.4,8.3 300.4,10.5 300.1,13.6 L310,13.6 L310,13.6 L310,13.6 Z"></path>
                                    <path d="M316.2,7.7 C316.2,7.1 316.7,6.5 317.3,6.5 C318,6.5 318.5,7 318.5,7.7 L318.5,10.6 C319.6,8 321.9,6.5 323.8,6.5 C324.5,6.5 324.9,7 324.9,7.7 C324.9,8.3 324.5,8.8 323.9,8.9 C320.9,9.3 318.5,11.5 318.5,15.9 L318.5,21.2 C318.5,21.8 318,22.4 317.4,22.4 C316.7,22.4 316.2,21.9 316.2,21.2 L316.2,7.7 L316.2,7.7 L316.2,7.7 Z"></path>
                                    <path d="M327.9,25.2 C327.5,25 327.3,24.7 327.3,24.2 C327.3,23.7 327.8,23.2 328.3,23.2 C328.5,23.2 328.7,23.3 328.8,23.3 C330.4,24.4 332.3,25 334.3,25 C337.7,25 339.9,23.1 339.9,19.5 L339.9,17.7 C338.6,19.5 336.7,21 333.8,21 C330.1,21 326.5,18.2 326.5,13.8 L326.5,13.7 C326.5,9.2 330.1,6.4 333.8,6.4 C336.7,6.4 338.6,7.8 339.8,9.5 L339.8,7.7 C339.8,7.1 340.3,6.5 340.9,6.5 C341.6,6.5 342.1,7 342.1,7.7 L342.1,19.4 C342.1,21.8 341.4,23.6 340.1,24.9 C338.7,26.3 336.7,27 334.2,27 C332,27 329.9,26.3 327.9,25.2 L327.9,25.2 L327.9,25.2 Z M340,13.7 L340,13.7 C340,10.5 337.3,8.4 334.3,8.4 C331.4,8.4 329,10.4 329,13.6 L329,13.7 C329,16.8 331.5,19 334.3,19 C337.3,18.9 340,16.8 340,13.7 L340,13.7 L340,13.7 Z"></path>
                                    <path d="M353.8,22.5 C349.6,22.5 346.1,19.2 346.1,14.5 L346.1,14.4 C346.1,10 349.2,6.4 353.5,6.4 C358.1,6.4 360.7,10.1 360.7,14.2 C360.7,14.8 360.2,15.3 359.6,15.3 L348.4,15.3 C348.7,18.6 351.1,20.5 353.8,20.5 C355.7,20.5 357.1,19.8 358.2,18.7 C358.4,18.6 358.6,18.4 358.9,18.4 C359.5,18.4 359.9,18.8 359.9,19.4 C359.9,19.7 359.8,19.9 359.5,20.1 C358.2,21.6 356.4,22.5 353.8,22.5 L353.8,22.5 L353.8,22.5 Z M358.4,13.6 C358.2,10.8 356.5,8.3 353.5,8.3 C350.8,8.3 348.8,10.5 348.5,13.6 L358.4,13.6 L358.4,13.6 L358.4,13.6 Z"></path>
                                </g>
                            </g>
                            <path d="M615.3,132.9 L613.4,132.9 L613.4,132.3 L617.8,132.3 L617.8,132.9 L615.9,132.9 L615.9,137.9 L615.3,137.9 L615.3,132.9 L615.3,132.9 L615.3,132.9 Z M619.2,132.3 L619.8,132.3 L621.8,135.4 L623.8,132.3 L624.4,132.3 L624.4,137.9 L623.8,137.9 L623.8,133.4 L621.8,136.4 L621.8,136.4 L619.8,133.4 L619.8,137.9 L619.2,137.9 L619.2,132.3 L619.2,132.3 L619.2,132.3 Z M637.3,12.7 L643.9,15 L640.9,21.3 L647.2,18.3 L649.5,24.9 L651.8,18.3 L658.1,21.3 L655.1,15 L661.7,12.7 L655.1,10.4 L658.1,4.1 L651.8,7.1 L649.5,0.5 L647.2,7.1 L640.9,4.1 L643.9,10.4 L637.3,12.7 L637.3,12.7 L637.3,12.7 Z M617.7,26.7 C627.7,30.2 638.5,32.1 649.7,32.1 C660.9,32.1 671.6,30.1 681.7,26.7 L617.7,26.7 L617.7,26.7 L617.7,26.7 Z M588.8,132.3 C600.5,120.8 608.4,106 611.5,89.7 C613.1,81.4 613.4,73 612.4,64.8 C628,62.5 641.8,52.9 649.4,39 C649.5,38.8 649.5,38.6 649.3,38.4 C649.1,38.2 648.9,38.2 648.7,38.4 C638.9,44.8 627.6,47.8 616,47.2 C607.4,46.8 599.3,44.4 591.9,40.2 C591.7,40.1 591.5,40.1 591.3,40.3 C591.1,40.5 591.1,40.7 591.2,40.9 C600.3,55.7 604.2,72.7 602.7,90 C601.1,107.9 593.8,124.3 581.6,137.4 C581.4,137.6 581.4,137.9 581.6,138.1 C581.7,138.2 581.8,138.3 582,138.3 L610.2,138.3 C610.4,138.3 610.5,138.2 610.5,138 C610.5,137.9 610.4,137.8 610.3,137.7 L588.8,132.3 L588.8,132.3 L588.8,132.3 Z M543.1,69.6 C549.3,69.3 554.5,74 554.9,80.2 C554.9,80.2 556.6,103.1 552.9,122.9 C551.2,130.6 547.6,139.3 540.1,143.4 C539.9,143.5 539.8,143.7 539.8,143.9 C539.8,144.1 540,144.3 540.2,144.3 C553.4,144.3 565.6,137.8 573,126.9 C585.4,110.7 591.9,91.3 591.9,70.9 C591.9,62 590.6,53.1 588.1,44.6 C586.4,39.2 586.3,35.5 586.3,35.4 C586.3,22 597.2,11.1 610.6,11.1 C610.7,11.1 610.8,11 610.9,11 C611,10.9 611,10.8 611,10.7 C611,9.7 610.6,9 609.8,8.4 C607,6.1 599.9,7.4 599.6,7.4 C599.6,7.4 595.4,8.1 591,5.1 C587.5,2.7 583.3,1.3 578.7,1.3 C572.8,1.3 567.4,3.7 563.5,7.5 C558,12.7 554.9,20.8 554.3,31.4 C554.3,45.2 539.3,53.5 536.3,55 C526.2,60.3 517.3,68.8 511.7,79 C511.6,79.2 511.6,79.5 511.8,79.7 C512,79.9 512.3,79.9 512.5,79.8 C521.9,73.7 532.3,70.3 543.1,69.6 L543.1,69.6 L543.1,69.6 Z" id="Shape"></path>
                        </g>
                    </g>
                </g>
            </g>
        </g>
    </g>
</svg>