<?xml version="1.0" encoding="UTF-8" standalone="no"?>
<svg width="77px" height="77px" viewBox="0 0 77 77" version="1.1" xmlns="http://www.w3.org/2000/svg" xmlns:xlink="http://www.w3.org/1999/xlink" xmlns:sketch="http://www.bohemiancoding.com/sketch/ns">
    <!-- Generator: Sketch 3.3 (11970) - http://www.bohemiancoding.com/sketch -->
    <title>Time Icon</title>
    <desc>Created with Sketch.</desc>
    <defs></defs>
    <g id="Page-1" stroke="none" stroke-width="1" fill="none" fill-rule="evenodd" sketch:type="MSPage">
        <g id="V17---Dhanur" sketch:type="MSArtboardGroup" transform="translate(-129.000000, -3757.000000)" stroke="#FFFAF1" stroke-width="2">
            <g id="Concierge-Form" sketch:type="MSLayerGroup" transform="translate(0.000000, 3526.000000)">
                <g id="Highlights" transform="translate(129.000000, 90.000000)" sketch:type="MSShapeGroup">
                    <g id="No-Pressure" transform="translate(1.000000, 134.000000)">
                        <g id="Time-Icon" transform="translate(0.000000, 8.000000)">
                            <path d="M30,22.8947368 L30,34.6713158" id="Shape"></path>
                            <path d="M45,22.8947368 L45,34.6713158" id="Shape"></path>
                            <circle id="Oval-14" cx="37.5" cy="37.5" r="37.5"></circle>
                            <path d="M20.5263158,45 C20.5263158,49.3598684 27.9490421,52.8947368 37.1052632,52.8947368 C46.2628105,52.8947368 53.6842105,49.3598684 53.6842105,45" id="Shape-6"></path>
                            <path d="M61.6592328,1.72320892 C63.437074,-0.374489565 66.6330776,-0.586443178 68.796289,1.24920357 C70.9633541,3.08356574 71.2767886,6.27057734 69.4976628,8.36827582" id="Shape"></path>
                            <path d="M37,2.5691347 L37,7.41323818" id="Shape"></path>
                            <path d="M37,66.7975022 L37,71.6416057" id="Shape"></path>
                            <path d="M71.6428903,37 L66.7975022,37" id="Shape"></path>
                            <path d="M7.41452275,37 L2.5691347,37" id="Shape"></path>
                        </g>
                    </g>
                </g>
            </g>
        </g>
    </g>
</svg>