<?xml version="1.0" encoding="UTF-8" standalone="no"?>
<svg width="76px" height="77px" viewBox="0 0 76 77" version="1.1" xmlns="http://www.w3.org/2000/svg" xmlns:xlink="http://www.w3.org/1999/xlink" xmlns:sketch="http://www.bohemiancoding.com/sketch/ns">
    <!-- Generator: Sketch 3.3 (11970) - http://www.bohemiancoding.com/sketch -->
    <title>Love Icon</title>
    <desc>Created with Sketch.</desc>
    <defs></defs>
    <g id="Page-1" stroke="none" stroke-width="1" fill="none" fill-rule="evenodd" sketch:type="MSPage">
        <g id="V17---Dhanur" sketch:type="MSArtboardGroup" transform="translate(-128.000000, -3894.000000)" stroke="#FFFAF1" stroke-width="2">
            <g id="Concierge-Form" sketch:type="MSLayerGroup" transform="translate(0.000000, 3526.000000)">
                <g id="Highlights" transform="translate(129.000000, 90.000000)" sketch:type="MSShapeGroup">
                    <g id="On-Your-Side" transform="translate(0.000000, 272.000000)">
                        <g id="Love-Icon" transform="translate(0.000000, 7.000000)">
                            <ellipse id="Oval" cx="38.5943796" cy="16.8737903" rx="16.8843626" ry="16.8737903"></ellipse>
                            <path d="M0,65.7532258 C0,52.8217742 17.3028835,42.3387097 38.6462424,42.3387097 C51.6396876,42.3387097 63.1351416,46.2241935 70.1402404,52.1806452" id="Shape"></path>
                            <path d="M55.7754458,68.6855774 C55.4655343,68.2967408 55.1714878,67.8966694 54.8993248,67.4883378 C53.8082945,65.851443 53.0689304,64.0818071 53.0689304,62.3710612 C53.0689304,55.5811419 61.5864937,54.9412225 63.0941338,61.2787225 C63.1194621,61.3754967 63.5210975,61.3851741 63.548838,61.2787225 C65.0564781,54.9484806 73.5740414,55.4988838 73.5740414,62.3710612 C73.5740414,68.049287 65.4303728,74.9263032 63.322089,74.9263032 C62.784163,74.9263032 61.8518384,74.5150128 60.7615131,73.8061419 L56.03125,68.9887695" id="Shape"></path>
                        </g>
                    </g>
                </g>
            </g>
        </g>
    </g>
</svg>