<?xml version="1.0" encoding="utf-8"?>
<!-- Generator: Adobe Illustrator 19.2.0, SVG Export Plug-In . SVG Version: 6.00 Build 0)  -->
<svg version="1.1" id="Layer_1" xmlns="http://www.w3.org/2000/svg" xmlns:xlink="http://www.w3.org/1999/xlink" x="0px" y="0px"
	 viewBox="0 0 792 612" style="enable-background:new 0 0 792 612;" xml:space="preserve">
<style type="text/css">
	.st0{fill:#FFFFFF;}
</style>
<g>
	<path class="st0" d="M472.4,466.8h-5.1v-1.6h11.9v1.6h-5.1v13.6h-1.7V466.8z M482.9,465.2h1.7l5.5,8.3l5.5-8.3h1.7v15.2h-1.7v-12.3
		l-5.5,8.1h-0.1l-5.5-8.1v12.2h-1.7V465.2z M532.1,141.3l17.9,6.4l-8.1,17.1l17.1-8.1l6.4,17.9l6.4-17.9l17.1,8.1l-8.1-17.1
		l17.9-6.4l-17.9-6.4l8.1-17.1l-17.1,8.1l-6.4-17.9l-6.4,17.9l-17.1-8.1l8.1,17.1L532.1,141.3z M406.6,120.6
		C406.6,120.6,406.5,120.6,406.6,120.6 M479,179.3c27.1,9.4,56.2,14.7,86.5,14.7c30.3,0,59.4-5.3,86.5-14.7H479z M400.6,465
		c31.6-31.2,53.1-71.3,61.5-115.2c4.3-22.5,5.1-45.1,2.5-67.3c42.3-6.2,79.6-32.2,100.1-69.8c0.3-0.5,0.2-1.2-0.3-1.6
		c-0.4-0.4-1.1-0.5-1.6-0.1c-26.4,17.2-57.1,25.4-88.6,23.8c-23.2-1.2-45.1-7.6-65.2-19c-0.5-0.3-1.2-0.2-1.6,0.2
		c-0.4,0.4-0.5,1.1-0.2,1.6c24.5,40,35.3,85.9,31.1,132.8c-4.3,48.4-24.1,92.7-57.1,128.3c-0.5,0.5-0.5,1.3,0,1.8
		c0.3,0.3,0.6,0.4,1,0.4l76.4,0c0.4,0,0.8-0.4,0.8-0.8c0-0.4-0.2-0.7-0.6-0.8L400.6,465z M276.9,295.5c16.7-0.9,30.9,11.9,31.8,28.6
		c0,0,4.7,62.1-5.5,115.6c-4.6,20.8-14.3,44.4-34.7,55.4c-0.5,0.3-0.8,0.8-0.7,1.4c0.1,0.6,0.6,1,1.2,1c35.6,0,68.8-17.7,88.8-47.2
		c33.4-43.9,51.1-96.3,51.1-151.6c0-24.2-3.5-48.1-10.4-71.3c-4.5-14.7-4.8-24.8-4.8-24.8c0-36.2,29.5-65.7,65.8-65.7
		c0.3,0,0.7-0.1,0.9-0.4c0.2-0.2,0.4-0.6,0.4-0.9c-0.1-2.6-1.2-4.7-3.2-6.4c-7.7-6.2-26.9-2.7-27.7-2.6c0,0-11.3,2-23.3-6.1
		c-9.4-6.5-20.9-10.3-33.2-10.3c-16,0-30.5,6.4-41.1,16.8c-14.9,14.1-23.2,36-24.8,64.8c0,37.4-40.5,59.9-48.6,64
		c-27.2,14.4-51.5,37.3-66.5,64.9c-0.3,0.6-0.2,1.4,0.3,1.8c0.5,0.5,1.3,0.5,1.9,0.2C219.5,306.5,247.6,297.4,276.9,295.5z"/>
</g>
</svg>
