<?xml version="1.0" encoding="UTF-8" standalone="no"?>
<svg width="179px" height="48px" viewBox="0 0 179 48" version="1.1" xmlns="http://www.w3.org/2000/svg" xmlns:xlink="http://www.w3.org/1999/xlink" xmlns:sketch="http://www.bohemiancoding.com/sketch/ns">
    <!-- Generator: Sketch 3.3.3 (12081) - http://www.bohemiancoding.com/sketch -->
    <title>Slice 1</title>
    <desc>This browser can't display SVG's :(.</desc>
    <defs></defs>
    <g id="Page-1" stroke="none" stroke-width="1" fill="none" fill-rule="evenodd" sketch:type="MSPage">
        <g id="penguin_horizontal" sketch:type="MSLayerGroup" fill="#000000">
            <g id="Page-1" sketch:type="MSShapeGroup">
                <g id="penguin_horizontal">
                    <path d="M155.838037,44.0539877 L155.219632,44.0539877 L155.219632,43.8773006 L156.692024,43.8773006 L156.692024,44.0834356 L156.073619,44.0834356 L156.073619,45.7619632 L155.867485,45.7619632 L155.867485,44.0539877 L155.838037,44.0539877 L155.838037,44.0539877 Z M157.133743,43.8773006 L157.339877,43.8773006 L158.017178,44.8785276 L158.694479,43.8773006 L158.900614,43.8773006 L158.900614,45.7325153 L158.694479,45.7325153 L158.694479,44.2306748 L158.017178,45.2319019 L157.339877,44.2306748 L157.339877,45.7325153 L157.133743,45.7325153 L157.133743,43.8773006 L157.133743,43.8773006 Z M163.170552,4.12269938 L165.349693,4.88834356 L164.348466,6.97914108 L166.439264,5.97791411 L167.204908,8.1570552 L167.970552,5.97791411 L170.06135,6.97914108 L169.060123,4.88834356 L171.239264,4.12269938 L169.060123,3.35705521 L170.06135,1.26625767 L167.970552,2.26748466 L167.204908,0.0883435584 L166.439264,2.26748466 L164.348466,1.26625767 L165.349693,3.35705521 L163.170552,4.12269938 L163.170552,4.12269938 Z M147.769325,1.59018405 C147.769325,1.59018405 147.739877,1.59018405 147.769325,1.59018405 L147.769325,1.59018405 L147.769325,1.59018405 Z M156.662576,8.80490796 C159.990184,9.95337426 163.553374,10.601227 167.263804,10.601227 C170.974233,10.601227 174.537424,9.95337426 177.865031,8.80490796 L156.662576,8.80490796 L156.662576,8.80490796 Z M147.033129,43.8478528 C150.920245,40.0196319 153.541104,35.1018405 154.571779,29.7128834 C155.10184,26.9447853 155.190184,24.1766871 154.866257,21.4674847 C160.04908,20.7018405 164.642945,17.5214724 167.146012,12.8981595 C167.17546,12.8392638 167.17546,12.7509202 167.116564,12.6920245 C167.057669,12.6331288 166.969325,12.6331288 166.910429,12.6625767 C163.671166,14.7828221 159.90184,15.7840491 156.044172,15.5779141 C153.18773,15.4306748 150.507976,14.6355828 148.034356,13.2515338 C147.97546,13.2220859 147.887117,13.2220859 147.828221,13.2809816 C147.769325,13.3398773 147.769325,13.4282209 147.798773,13.4871166 C150.802454,18.404908 152.127607,24.0294479 151.626994,29.7717791 C151.096933,35.6907976 148.682209,41.1386503 144.618405,45.5263804 C144.559509,45.5852761 144.559509,45.6736196 144.618405,45.7325153 C144.647853,45.7619632 144.706748,45.791411 144.736196,45.791411 L154.100614,45.791411 C154.159509,45.791411 154.188957,45.7619632 154.188957,45.7030675 C154.188957,45.6736196 154.159509,45.6147239 154.130062,45.6147239 L147.033129,43.8478528 L147.033129,43.8478528 Z M131.838037,23.0576687 C133.899386,22.9398773 135.63681,24.5300614 135.754601,26.5619632 C135.754601,26.5619632 136.343558,34.1889571 135.0773,40.7558282 C134.517791,43.3177914 133.310429,46.203681 130.807362,47.5582822 C130.748466,47.58773 130.719019,47.6466257 130.719019,47.7349693 C130.748466,47.793865 130.807362,47.8527607 130.866257,47.8527607 C135.22454,47.8527607 139.317791,45.6736196 141.761963,42.0515338 C145.855215,36.6625767 148.034356,30.2429448 148.034356,23.4404908 C148.034356,20.4662576 147.592638,17.5214724 146.768098,14.6944785 C146.208589,12.8981595 146.179141,11.6613497 146.179141,11.6613497 C146.179141,7.21472394 149.801227,3.59263804 154.247853,3.59263804 C154.2773,3.59263804 154.336196,3.56319019 154.365644,3.53374233 C154.395092,3.50429448 154.42454,3.47484662 154.395092,3.41595092 C154.395092,3.09202454 154.247853,2.82699386 154.01227,2.65030675 C153.069938,1.88466257 150.71411,2.32638037 150.625767,2.32638037 C150.625767,2.32638037 149.241718,2.56196319 147.769325,1.59018405 C146.620859,0.795092022 145.207362,0.323926381 143.705521,0.323926381 C141.732515,0.323926381 139.965644,1.1190184 138.669938,2.38527607 C136.844172,4.12269938 135.813497,6.80245398 135.63681,10.3361963 C135.63681,14.9300614 130.660123,17.6981595 129.688343,18.198773 C126.331288,19.9656442 123.386503,22.7631902 121.531288,26.1791411 C121.50184,26.2674847 121.50184,26.3558282 121.560736,26.4147239 C121.619632,26.4736196 121.707976,26.4736196 121.796319,26.4441718 C124.8,24.41227 128.245399,23.2638037 131.838037,23.0576687 L131.838037,23.0576687 L131.838037,23.0576687 Z" id="Shape"></path>
                    <g id="XMLID_36_" transform="translate(0.000000, 20.613497)">
                        <path d="M17.2564417,24.2650307 C17.2564417,24.7656442 16.9325153,25.1190184 16.4319019,25.1190184 C15.9607362,25.1190184 15.5779141,24.795092 15.5779141,24.2650307 L15.5779141,21.1141104 C14.1055215,23.3815951 11.8969325,25.3546012 8.48098158,25.3546012 C4.32883436,25.3546012 0.117791411,22.0269938 0.117791411,16.402454 L0.117791411,16.3435583 C0.117791411,10.7484662 4.32883436,7.33251534 8.48098158,7.33251534 C11.9263804,7.33251534 14.1349693,9.27607362 15.5779141,11.4552147 L15.5779141,1.03067485 C15.5779141,0.53006135 15.9018405,0.176687117 16.402454,0.176687117 C16.8736196,0.176687117 17.2564417,0.500613497 17.2564417,1.03067485 L17.2564417,24.2650307 L17.2564417,24.2650307 Z M1.94355828,16.3141104 L1.94355828,16.3730062 C1.94355828,20.9079755 5.09447853,23.793865 8.68711656,23.793865 C12.2503067,23.793865 15.6957055,20.790184 15.6957055,16.402454 L15.6957055,16.3435583 C15.6957055,11.9263804 12.2503067,8.95214724 8.68711656,8.95214724 C4.91779141,8.95214724 1.94355828,11.6907976 1.94355828,16.3141104 L1.94355828,16.3141104 L1.94355828,16.3141104 Z" id="XMLID_51_"></path>
                        <path d="M21.3202454,16.4319019 L21.3202454,16.3730062 C21.3202454,11.5435583 25.0601227,7.36196322 30.1840491,7.36196322 C35.2785276,7.36196322 38.9889571,11.4846626 38.9889571,16.3141104 L38.9889571,16.3730062 C38.9889571,21.202454 35.2490798,25.3840491 30.1251534,25.3840491 C25.0306748,25.3840491 21.3202454,21.2613497 21.3202454,16.4319019 L21.3202454,16.4319019 L21.3202454,16.4319019 Z M37.2220859,16.4319019 L37.2220859,16.3730062 C37.2220859,12.2208589 34.1300614,8.92269936 30.1251534,8.92269936 C26.0319019,8.92269936 23.1165644,12.2503067 23.1165644,16.3141104 L23.1165644,16.3730062 C23.1165644,20.5251534 26.208589,23.8233129 30.2134969,23.8233129 C34.2773006,23.8233129 37.2220859,20.4957055 37.2220859,16.4319019 L37.2220859,16.4319019 L37.2220859,16.4319019 Z" id="XMLID_48_"></path>
                        <path d="M42.7582822,8.48098158 C42.7582822,8.00981598 43.0822086,7.62699384 43.5828221,7.62699384 C44.0539877,7.62699384 44.4368098,7.95092022 44.4368098,8.48098158 L44.4368098,10.8368098 C45.5558282,9.04049082 47.0871166,7.36196322 50.1791411,7.36196322 C53.1828221,7.36196322 55.0380368,9.06993864 55.9803681,11.0723926 C57.0993865,9.15828222 58.9546012,7.36196322 62.1938652,7.36196322 C66.2871168,7.36196322 68.8196322,10.2184049 68.8196322,14.5472393 L68.8196322,24.2650307 C68.8196322,24.7656442 68.4957054,25.1190184 68.0245398,25.1190184 C67.5533742,25.1190184 67.170552,24.795092 67.170552,24.2650307 L67.170552,14.7533743 C67.170552,11.0429448 65.2564416,8.89325154 62.0760738,8.89325154 C59.1607362,8.89325154 56.6576687,11.1312883 56.6576687,14.9595092 L56.6576687,24.2650307 C56.6576687,24.7656442 56.3337424,25.1190184 55.8331288,25.1190184 C55.3619632,25.1190184 54.9791411,24.795092 54.9791411,24.2650307 L54.9791411,14.6650307 C54.9791411,11.1018405 53.0355828,8.89325154 49.9435583,8.89325154 C46.8809816,8.89325154 44.4368098,11.602454 44.4368098,15.0773006 L44.4368098,24.2944785 C44.4368098,24.795092 44.1128834,25.1484662 43.61227,25.1484662 C43.1411043,25.1484662 42.7582822,24.8245399 42.7582822,24.2944785 L42.7582822,8.48098158 L42.7582822,8.48098158 Z" id="XMLID_46_"></path>
                        <path d="M74.385276,8.48098158 C74.385276,8.00981598 74.7092022,7.62699384 75.2098158,7.62699384 C75.6809814,7.62699384 76.0638036,7.95092022 76.0638036,8.48098158 L76.0638036,24.2650307 C76.0638036,24.7656442 75.7398774,25.1190184 75.2687118,25.1190184 C74.7975462,25.1190184 74.414724,24.795092 74.414724,24.2650307 L74.414724,8.48098158 L74.385276,8.48098158 L74.385276,8.48098158 Z" id="XMLID_44_"></path>
                        <path d="M82.218405,8.48098158 C82.218405,8.00981598 82.5423312,7.62699384 83.0429448,7.62699384 C83.5141104,7.62699384 83.8969326,7.95092022 83.8969326,8.48098158 L83.8969326,10.9840491 C85.0453986,8.95214724 86.959509,7.36196322 90.1104294,7.36196322 C94.4687118,7.36196322 97.0012272,10.3361963 97.0012272,14.4588957 L97.0012272,24.2650307 C97.0012272,24.7656442 96.6773004,25.1190184 96.1766874,25.1190184 C95.7055212,25.1190184 95.3226996,24.795092 95.3226996,24.2650307 L95.3226996,14.7533743 C95.3226996,11.2196319 93.3202452,8.89325154 89.8453986,8.89325154 C86.458896,8.89325154 83.8674846,11.4552147 83.8674846,15.0478528 L83.8674846,24.2944785 C83.8674846,24.795092 83.5435584,25.1484662 83.0429448,25.1484662 C82.5717792,25.1484662 82.188957,24.8245399 82.188957,24.2944785 L82.188957,8.48098158 L82.218405,8.48098158 L82.218405,8.48098158 Z" id="XMLID_42_"></path>
                        <path d="M101.035583,16.4319019 L101.035583,16.3730062 C101.035583,11.5435583 104.77546,7.36196322 109.899386,7.36196322 C114.993865,7.36196322 118.704295,11.4846626 118.704295,16.3141104 L118.704295,16.3730062 C118.704295,21.202454 114.964417,25.3840491 109.840491,25.3840491 C104.746012,25.3840491 101.035583,21.2613497 101.035583,16.4319019 L101.035583,16.4319019 L101.035583,16.4319019 Z M116.937424,16.4319019 L116.937424,16.3730062 C116.937424,12.2208589 113.845399,8.92269936 109.840491,8.92269936 C105.747239,8.92269936 102.831902,12.2503067 102.831902,16.3141104 L102.831902,16.3730062 C102.831902,20.5251534 105.923926,23.8233129 109.928834,23.8233129 C113.992638,23.8233129 116.937424,20.4957055 116.937424,16.4319019 L116.937424,16.4319019 L116.937424,16.4319019 Z" id="XMLID_37_"></path>
                    </g>
                </g>
            </g>
        </g>
    </g>
</svg>