<?xml version="1.0" encoding="UTF-8" standalone="no"?>
<svg width="297px" height="80px" viewBox="0 0 297 80" version="1.1" xmlns="http://www.w3.org/2000/svg" xmlns:xlink="http://www.w3.org/1999/xlink" xmlns:sketch="http://www.bohemiancoding.com/sketch/ns">
    <!-- Generator: Sketch 3.3.3 (12081) - http://www.bohemiancoding.com/sketch -->
    <title>penguin_horizontal copy</title>
    <desc>Created with Sketch.</desc>
    <defs></defs>
    <g id="Page-1" stroke="none" stroke-width="1" fill="none" fill-rule="evenodd" sketch:type="MSPage">
        <g id="penguin_horizontal" sketch:type="MSLayerGroup" fill="#000000">
            <path d="M259.730061,73.4233129 L258.699387,73.4233129 L258.699387,73.1288344 L261.153374,73.1288344 L261.153374,73.4723926 L260.122699,73.4723926 L260.122699,76.2699387 L259.779141,76.2699387 L259.779141,73.4233129 L259.730061,73.4233129 Z M261.889571,73.1288344 L262.233129,73.1288344 L263.361963,74.797546 L264.490798,73.1288344 L264.834356,73.1288344 L264.834356,76.2208589 L264.490798,76.2208589 L264.490798,73.7177914 L263.361963,75.3865031 L262.233129,73.7177914 L262.233129,76.2208589 L261.889571,76.2208589 L261.889571,73.1288344 L261.889571,73.1288344 Z M271.95092,6.87116564 L275.582822,8.14723926 L273.91411,11.6319018 L277.398773,9.96319018 L278.674847,13.595092 L279.95092,9.96319018 L283.435583,11.6319018 L281.766871,8.14723926 L285.398773,6.87116564 L281.766871,5.59509202 L283.435583,2.11042945 L279.95092,3.7791411 L278.674847,0.147239264 L277.398773,3.7791411 L273.91411,2.11042945 L275.582822,5.59509202 L271.95092,6.87116564 L271.95092,6.87116564 Z M246.282209,2.65030675 C246.282209,2.65030675 246.233129,2.65030675 246.282209,2.65030675 L246.282209,2.65030675 Z M261.104294,14.6748466 C266.650307,16.5889571 272.588957,17.6687117 278.773006,17.6687117 C284.957055,17.6687117 290.895706,16.5889571 296.441718,14.6748466 L261.104294,14.6748466 L261.104294,14.6748466 Z M245.055215,73.0797546 C251.533742,66.6993865 255.90184,58.5030675 257.619632,49.5214724 C258.503067,44.9079755 258.650307,40.2944785 258.110429,35.7791411 C266.748466,34.5030675 274.404908,29.202454 278.576687,21.4969325 C278.625767,21.398773 278.625767,21.2515337 278.527607,21.1533742 C278.429448,21.0552147 278.282209,21.0552147 278.184049,21.1042945 C272.785276,24.6380368 266.503067,26.3067485 260.07362,25.9631902 C255.312883,25.7177914 250.846626,24.392638 246.723926,22.0858896 C246.625767,22.0368098 246.478528,22.0368098 246.380368,22.1349693 C246.282209,22.2331288 246.282209,22.3803681 246.331288,22.4785276 C251.337423,30.6748466 253.546012,40.0490798 252.711656,49.6196319 C251.828221,59.4846626 247.803681,68.5644172 241.030675,75.8773006 C240.932515,75.9754601 240.932515,76.1226994 241.030675,76.2208589 C241.079755,76.2699387 241.177914,76.3190184 241.226994,76.3190184 L256.834356,76.3190184 C256.932515,76.3190184 256.981595,76.2699387 256.981595,76.1717791 C256.981595,76.1226994 256.932515,76.0245399 256.883436,76.0245399 L245.055215,73.0797546 L245.055215,73.0797546 Z M219.730061,38.4294479 C223.165644,38.2331288 226.06135,40.8834356 226.257669,44.2699387 C226.257669,44.2699387 227.239264,56.9815951 225.128834,67.9263804 C224.196319,72.196319 222.184049,77.006135 218.01227,79.2638037 C217.91411,79.3128834 217.865031,79.4110429 217.865031,79.5582822 C217.91411,79.6564417 218.01227,79.7546012 218.110429,79.7546012 C225.374233,79.7546012 232.196319,76.1226994 236.269939,70.0858896 C243.092025,61.1042945 246.723926,50.404908 246.723926,39.0674847 C246.723926,34.1104294 245.98773,29.202454 244.613497,24.4907975 C243.680982,21.4969325 243.631902,19.4355828 243.631902,19.4355828 C243.631902,12.0245399 249.668712,5.98773006 257.079755,5.98773006 C257.128834,5.98773006 257.226994,5.93865031 257.276074,5.88957055 C257.325153,5.8404908 257.374233,5.79141104 257.325153,5.69325153 C257.325153,5.15337423 257.079755,4.71165644 256.687117,4.41717791 C255.116564,3.14110429 251.190184,3.87730061 251.042945,3.87730061 C251.042945,3.87730061 248.736196,4.26993865 246.282209,2.65030675 C244.368098,1.32515337 242.01227,0.539877301 239.509202,0.539877301 C236.220859,0.539877301 233.276074,1.86503067 231.116564,3.97546012 C228.07362,6.87116564 226.355828,11.3374233 226.06135,17.2269939 C226.06135,24.8834356 217.766871,29.4969325 216.147239,30.3312883 C210.552147,33.2760736 205.644172,37.9386503 202.552147,43.6319018 C202.503067,43.7791411 202.503067,43.9263804 202.601227,44.0245399 C202.699387,44.1226994 202.846626,44.1226994 202.993865,44.0736196 C208,40.6871166 213.742331,38.7730061 219.730061,38.4294479 L219.730061,38.4294479 Z" id="Shape" sketch:type="MSShapeGroup"></path>
            <g id="XMLID_36_" transform="translate(0.000000, 34.355828)" sketch:type="MSShapeGroup">
                <path d="M28.7607362,40.4417178 C28.7607362,41.2760736 28.2208589,41.8650307 27.3865031,41.8650307 C26.601227,41.8650307 25.9631902,41.3251534 25.9631902,40.4417178 L25.9631902,35.190184 C23.5092025,38.9693252 19.8282209,42.2576687 14.1349693,42.2576687 C7.21472393,42.2576687 0.196319018,36.7116564 0.196319018,27.3374233 L0.196319018,27.2392638 C0.196319018,17.9141104 7.21472393,12.2208589 14.1349693,12.2208589 C19.8773006,12.2208589 23.5582822,15.4601227 25.9631902,19.0920245 L25.9631902,1.71779141 C25.9631902,0.883435583 26.5030675,0.294478528 27.3374233,0.294478528 C28.1226994,0.294478528 28.7607362,0.834355828 28.7607362,1.71779141 L28.7607362,40.4417178 L28.7607362,40.4417178 Z M3.2392638,27.190184 L3.2392638,27.2883436 C3.2392638,34.8466258 8.49079755,39.6564417 14.4785276,39.6564417 C20.4171779,39.6564417 26.1595092,34.6503067 26.1595092,27.3374233 L26.1595092,27.2392638 C26.1595092,19.8773006 20.4171779,14.9202454 14.4785276,14.9202454 C8.19631902,14.9202454 3.2392638,19.4846626 3.2392638,27.190184 L3.2392638,27.190184 Z" id="XMLID_51_"></path>
                <path d="M35.5337423,27.3865031 L35.5337423,27.2883436 C35.5337423,19.2392638 41.7668712,12.2699387 50.3067485,12.2699387 C58.797546,12.2699387 64.9815951,19.1411043 64.9815951,27.190184 L64.9815951,27.2883436 C64.9815951,35.3374233 58.7484663,42.3067485 50.208589,42.3067485 C41.7177914,42.3067485 35.5337423,35.4355828 35.5337423,27.3865031 L35.5337423,27.3865031 Z M62.0368098,27.3865031 L62.0368098,27.2883436 C62.0368098,20.3680982 56.8834356,14.8711656 50.208589,14.8711656 C43.3865031,14.8711656 38.5276074,20.4171779 38.5276074,27.190184 L38.5276074,27.2883436 C38.5276074,34.208589 43.6809816,39.7055215 50.3558282,39.7055215 C57.1288344,39.7055215 62.0368098,34.1595092 62.0368098,27.3865031 L62.0368098,27.3865031 Z" id="XMLID_48_"></path>
                <path d="M71.2638037,14.1349693 C71.2638037,13.3496933 71.803681,12.7116564 72.6380368,12.7116564 C73.4233129,12.7116564 74.0613497,13.2515337 74.0613497,14.1349693 L74.0613497,18.0613497 C75.9263804,15.0674847 78.4785276,12.2699387 83.6319018,12.2699387 C88.6380368,12.2699387 91.7300613,15.1165644 93.3006135,18.4539877 C95.1656442,15.2638037 98.2576687,12.2699387 103.656442,12.2699387 C110.478528,12.2699387 114.699387,17.0306748 114.699387,24.2453988 L114.699387,40.4417178 C114.699387,41.2760736 114.159509,41.8650307 113.374233,41.8650307 C112.588957,41.8650307 111.95092,41.3251534 111.95092,40.4417178 L111.95092,24.5889571 C111.95092,18.404908 108.760736,14.8220859 103.460123,14.8220859 C98.601227,14.8220859 94.4294479,18.5521472 94.4294479,24.9325153 L94.4294479,40.4417178 C94.4294479,41.2760736 93.8895706,41.8650307 93.0552147,41.8650307 C92.2699387,41.8650307 91.6319018,41.3251534 91.6319018,40.4417178 L91.6319018,24.4417178 C91.6319018,18.5030675 88.392638,14.8220859 83.2392638,14.8220859 C78.1349693,14.8220859 74.0613497,19.3374233 74.0613497,25.1288344 L74.0613497,40.4907975 C74.0613497,41.3251534 73.5214724,41.9141104 72.6871166,41.9141104 C71.9018405,41.9141104 71.2638037,41.3742331 71.2638037,40.4907975 L71.2638037,14.1349693 L71.2638037,14.1349693 Z" id="XMLID_46_"></path>
                <path d="M123.97546,14.1349693 C123.97546,13.3496933 124.515337,12.7116564 125.349693,12.7116564 C126.134969,12.7116564 126.773006,13.2515337 126.773006,14.1349693 L126.773006,40.4417178 C126.773006,41.2760736 126.233129,41.8650307 125.447853,41.8650307 C124.662577,41.8650307 124.02454,41.3251534 124.02454,40.4417178 L124.02454,14.1349693 L123.97546,14.1349693 Z" id="XMLID_44_"></path>
                <path d="M137.030675,14.1349693 C137.030675,13.3496933 137.570552,12.7116564 138.404908,12.7116564 C139.190184,12.7116564 139.828221,13.2515337 139.828221,14.1349693 L139.828221,18.3067485 C141.742331,14.9202454 144.932515,12.2699387 150.184049,12.2699387 C157.447853,12.2699387 161.668712,17.2269939 161.668712,24.0981595 L161.668712,40.4417178 C161.668712,41.2760736 161.128834,41.8650307 160.294479,41.8650307 C159.509202,41.8650307 158.871166,41.3251534 158.871166,40.4417178 L158.871166,24.5889571 C158.871166,18.6993865 155.533742,14.8220859 149.742331,14.8220859 C144.09816,14.8220859 139.779141,19.0920245 139.779141,25.0797546 L139.779141,40.4907975 C139.779141,41.3251534 139.239264,41.9141104 138.404908,41.9141104 C137.619632,41.9141104 136.981595,41.3742331 136.981595,40.4907975 L136.981595,14.1349693 L137.030675,14.1349693 Z" id="XMLID_42_"></path>
                <path d="M168.392638,27.3865031 L168.392638,27.2883436 C168.392638,19.2392638 174.625767,12.2699387 183.165644,12.2699387 C191.656442,12.2699387 197.840491,19.1411043 197.840491,27.190184 L197.840491,27.2883436 C197.840491,35.3374233 191.607362,42.3067485 183.067485,42.3067485 C174.576687,42.3067485 168.392638,35.4355828 168.392638,27.3865031 L168.392638,27.3865031 Z M194.895706,27.3865031 L194.895706,27.2883436 C194.895706,20.3680982 189.742331,14.8711656 183.067485,14.8711656 C176.245399,14.8711656 171.386503,20.4171779 171.386503,27.190184 L171.386503,27.2883436 C171.386503,34.208589 176.539877,39.7055215 183.214724,39.7055215 C189.98773,39.7055215 194.895706,34.1595092 194.895706,27.3865031 L194.895706,27.3865031 Z" id="XMLID_37_"></path>
            </g>
        </g>
    </g>
</svg>