<?xml version="1.0" standalone="no"?>
<!DOCTYPE svg PUBLIC "-//W3C//DTD SVG 1.1//EN" "http://www.w3.org/Graphics/SVG/1.1/DTD/svg11.dtd">
<svg width="100%" height="100%" viewBox="0 0 457 414" version="1.1" xmlns="http://www.w3.org/2000/svg" xmlns:xlink="http://www.w3.org/1999/xlink" xml:space="preserve" style="fill-rule:evenodd;clip-rule:evenodd;stroke-linejoin:round;stroke-miterlimit:1.41421;">
    <g transform="matrix(1,0,0,1,-1365,-848)">
        <g id="Solar" transform="matrix(1,0,0,1,743.207,387.323)">
            <g transform="matrix(1,0,0,1,639.27,452.369)">
                <clipPath id="products__clip2">
                    <path d="M218,399C319.62,399 402,316.62 402,215C402,113.38 319.62,31 218,31C116.38,31 34,113.38 34,215C34,316.62 116.38,399 218,399Z"/>
                </clipPath>
                <g clip-path="url(#products__clip2)">
                    <rect x="29" y="26" width="378" height="378" style="fill:rgb(0,204,255);fill-rule:nonzero;"/>
                </g>
                <clipPath id="products__clip3">
                    <path d="M266.143,172.103C263.979,165.567 260.928,162.237 256.471,158.815C255.156,157.806 253.78,156.907 252.013,155.867C251.981,155.848 248.569,153.888 247.664,153.325C244.929,151.622 243.213,150.072 242.145,147.921L241.791,147.209L241.791,146.417L241.791,127.614C241.791,121.927 246.438,117.306 252.197,117.306L262.665,117.306L262.665,96.749C262.665,94.862 264.209,93.332 266.143,93.332C268.065,93.332 269.622,94.861 269.622,96.749L269.622,117.306L297.453,117.306L297.453,96.749C297.453,94.862 298.997,93.332 300.932,93.332C302.853,93.332 304.41,94.861 304.41,96.749L304.41,117.306L314.878,117.306C320.641,117.306 325.283,121.903 325.283,127.614L325.283,147.209L324.93,147.921C323.938,149.918 322.351,151.45 319.91,153.104C320.48,152.719 312.734,157.53 310.52,159.294C306.13,162.794 303.123,165.961 300.932,172.103L300.932,178.952C300.932,178.952 300.932,182.377 293.974,182.377L293.974,202.926L273.101,202.926L273.091,182.377C266.143,182.377 266.143,178.952 266.143,178.952L266.143,172.103ZM273.034,174.857L273.034,171.472L273.034,170.934L272.861,170.423C270.24,162.645 266.164,157.189 260.603,152.996C259.02,151.803 257.408,150.769 255.403,149.609C255.274,149.534 251.961,147.665 251.175,147.185C249.423,146.114 248.899,145.127 248.525,144.386L248.525,127.491C248.525,125.593 250.082,124.072 251.995,124.072L315.08,124.072C317.004,124.072 318.55,125.576 318.55,127.491L318.55,144.386C318.192,145.094 317.725,146.08 316.173,147.114C315.634,147.473 315.029,147.85 314.171,148.368C314.171,148.368 312.342,149.465 311.78,149.808C309.623,151.124 307.949,152.246 306.287,153.547C300.893,157.771 296.891,163.05 294.239,170.35L294.041,170.894L294.041,174.859L273.034,174.857ZM270.071,141.447L298.351,141.447L298.351,145.456L270.071,145.456L270.071,141.447ZM272.764,148.129L294.311,148.129L294.311,152.139L272.764,152.139L272.764,148.129ZM272.764,134.764L294.311,134.764L294.311,138.774L272.764,138.774L272.764,134.764ZM279.497,182.878L286.231,182.878L286.231,196.244L279.497,196.244L279.497,182.878ZM223.238,253.66C223.238,243.081 231.806,234.504 242.372,234.504L306.149,234.504C316.717,234.504 325.283,243.083 325.283,253.66L325.283,317.512C325.283,328.091 316.715,336.668 306.149,336.668L242.372,336.668C231.804,336.668 223.238,328.089 223.238,317.512L223.238,253.66ZM229.616,253.66L229.616,317.512C229.616,324.564 235.328,330.282 242.372,330.282L306.149,330.282C313.193,330.282 318.905,324.564 318.905,317.512L318.905,253.66C318.905,246.608 313.194,240.889 306.149,240.889L242.372,240.889C235.328,240.889 229.616,246.608 229.616,253.66ZM235.993,263.244C235.993,254.424 243.125,247.275 251.944,247.275L296.577,247.275C305.386,247.275 312.528,254.414 312.528,263.244L312.528,307.928C312.528,316.748 305.396,323.897 296.577,323.897L251.944,323.897C243.135,323.897 235.993,316.758 235.993,307.928L235.993,263.244ZM239.182,263.244L239.182,307.928C239.182,314.991 244.892,320.705 251.944,320.705L296.577,320.705C303.631,320.705 309.339,314.988 309.339,307.928L309.339,263.244C309.339,256.181 303.629,250.467 296.577,250.467L251.944,250.467C244.89,250.467 239.182,256.184 239.182,263.244ZM274.261,314.319C258.41,314.319 245.56,301.455 245.56,285.586C245.56,269.717 258.41,256.852 274.261,256.852C290.111,256.852 302.961,269.717 302.961,285.586C302.961,301.455 290.111,314.319 274.261,314.319ZM274.261,311.127C288.35,311.127 299.772,299.692 299.772,285.586C299.772,271.48 288.35,260.045 274.261,260.045C260.171,260.045 248.749,271.48 248.749,285.586C248.749,299.692 260.171,311.127 274.261,311.127ZM274.261,301.549C272.499,301.549 271.072,300.134 271.072,298.326L271.072,292.001C271.072,290.221 272.487,288.779 274.261,288.779C276.022,288.779 277.45,290.194 277.45,292.001L277.45,298.326C277.45,300.106 276.034,301.549 274.261,301.549ZM278.304,276.008C279.185,274.481 281.123,273.951 282.686,274.854L288.158,278.017C289.697,278.907 290.237,280.856 289.351,282.393C288.47,283.92 286.532,284.45 284.969,283.547L279.497,280.384C277.958,279.494 277.417,277.546 278.304,276.008ZM259.17,282.393C258.29,280.866 258.8,278.921 260.364,278.017L265.835,274.854C267.375,273.965 269.331,274.47 270.217,276.008C271.098,277.535 270.587,279.481 269.024,280.384L263.553,283.547C262.013,284.437 260.057,283.931 259.17,282.393ZM126.94,295.758C117.725,287.59 111.915,275.658 111.915,262.367C111.915,237.746 131.852,217.786 156.444,217.786C181.037,217.786 200.973,237.746 200.973,262.367C200.973,275.5 195.301,287.307 186.275,295.466C181.942,299.382 180.169,315.545 175.842,325.634C172.284,333.93 167.086,336.822 156.566,336.574C146.301,336.332 140.586,333.742 137.034,325.844C132.52,315.805 131.337,299.655 126.94,295.758ZM119.337,262.367C119.337,241.849 135.95,225.216 156.444,225.216C176.938,225.216 193.552,241.849 193.552,262.367C193.552,267.583 192.475,272.621 190.467,277.227L122.422,277.227C120.414,272.621 119.337,267.583 119.337,262.367ZM135.836,295.802C134.777,293.414 133.557,291.699 131.859,290.194C128.83,287.509 126.285,284.383 124.297,280.942L188.591,280.942C186.664,284.279 184.212,287.32 181.301,289.951C179.6,291.488 178.355,293.281 177.241,295.802L135.836,295.802ZM138.268,303.232C138.529,304.22 138.796,305.279 139.075,306.417C139.166,306.788 140.103,310.68 140.505,312.31L174.58,303.746C174.628,303.573 174.676,303.402 174.723,303.232L138.268,303.232ZM143.735,322.643C142.945,320.859 142.219,318.707 141.443,315.905L173.487,307.851C173.082,309.416 172.512,311.619 172.315,312.364C171.997,313.571 171.696,314.674 171.406,315.689L143.735,322.643ZM145.773,325.962C147.819,328.201 150.877,329.008 156.74,329.146C164.421,329.327 166.745,328.014 169.023,322.702C169.394,321.837 169.753,320.897 170.116,319.843L145.773,325.962ZM128.614,262.543C126.758,262.543 126.841,259.801 127.001,258.552C128.714,245.162 139.329,234.559 152.714,232.879C153.644,232.762 156.61,232.647 156.61,234.504C156.61,236.362 152.424,236.671 152.424,236.671C141.298,238.402 132.507,247.203 130.778,258.342C130.778,258.342 130.469,262.543 128.614,262.543ZM180.535,128.487C181.843,126.446 183.79,123.612 186.843,119.206C195.839,105.695 188.979,93.332 170.313,93.332C148.888,93.332 135.795,112.68 146.932,134.165C144.901,132.856 142.09,130.92 137.759,127.912C124.264,118.905 111.915,125.774 111.915,144.461C111.915,166.065 131.519,179.206 153.163,167.625C151.855,169.676 149.888,172.54 146.761,177.053C137.765,190.563 144.625,202.926 163.291,202.926C184.727,202.926 197.822,183.558 186.654,162.06C188.682,163.368 191.483,165.298 195.782,168.283C209.277,177.29 221.626,170.422 221.626,151.734C221.626,130.183 202.116,117.053 180.535,128.487ZM179.143,137.397C198.026,123.894 214.784,133.763 214.784,151.734C214.784,165.012 208.473,168.522 199.577,162.584C190.939,156.55 187.743,154.417 184.507,153.121C183.586,152.752 182.668,152.46 181.732,152.24C182.093,150.932 182.286,149.553 182.286,148.129C182.286,143.586 179.143,137.397 179.143,137.397ZM171.698,130.494C172.992,127.254 175.123,124.054 181.15,115.406C187.081,106.5 183.575,100.182 170.313,100.182C152.362,100.182 142.504,116.959 155.992,135.864C155.992,135.864 162.459,132.718 166.892,132.718C168.253,132.718 169.572,132.894 170.829,133.226C171.047,132.305 171.336,131.4 171.698,130.494ZM149.034,143.074C145.798,141.778 142.601,139.645 133.964,133.611C125.067,127.674 118.757,131.184 118.757,144.461C118.757,162.432 135.515,172.302 154.398,158.798C154.398,158.798 151.498,152.59 151.498,148.129C151.498,146.703 151.692,145.322 152.054,144.011C151.032,143.786 150.035,143.475 149.034,143.074ZM161.906,165.764C160.611,169.004 158.48,172.205 152.454,180.852C146.523,189.759 150.029,196.077 163.291,196.077C181.242,196.077 191.099,179.299 177.612,160.394C177.612,160.394 171.348,163.541 166.892,163.541C165.47,163.541 164.093,163.348 162.785,162.986C162.566,163.924 162.274,164.843 161.906,165.764ZM166.892,160.116C160.279,160.116 154.919,154.749 154.919,148.129C154.919,141.509 160.279,136.142 166.892,136.142C173.504,136.142 178.865,141.509 178.865,148.129C178.865,154.749 173.504,160.116 166.892,160.116Z"/>
                </clipPath>
                <g clip-path="url(#products__clip3)">
                    <rect x="106.915" y="88.332" width="223.368" height="253.336" style="fill:white;fill-rule:nonzero;"/>
                </g>
            </g>
        </g>
    </g>
</svg>
