<?xml version="1.0" standalone="no"?><!DOCTYPE svg PUBLIC "-//W3C//DTD SVG 1.1//EN" "http://www.w3.org/Graphics/SVG/1.1/DTD/svg11.dtd"><svg width="100%" height="100%" viewBox="0 0 57 59" version="1.1" xmlns="http://www.w3.org/2000/svg" xmlns:xlink="http://www.w3.org/1999/xlink" xml:space="preserve" style="fill-rule:evenodd;clip-rule:evenodd;stroke-linejoin:round;stroke-miterlimit:1.41421;"><path id="comma_begin" d="M2.814,58.295l0,-8.286c2.626,-1.418 4.596,-3.975 5.909,-7.67c1.313,-3.695 1.97,-8.566 1.97,-14.612l0,-2.575l-10.693,0l0,-24.857l24.988,0l0,18.586c0,11.272 -1.839,20.192 -5.516,26.761c-3.676,6.569 -9.229,10.786 -16.658,12.653ZM34.826,58.295l0,-8.286c2.627,-1.418 4.596,-3.975 5.91,-7.67c1.313,-3.695 1.969,-8.566 1.969,-14.612l0,-2.575l-10.693,0l0,-24.857l24.988,0l0,18.586c0,11.272 -1.838,20.192 -5.515,26.761c-3.677,6.569 -9.23,10.786 -16.659,12.653Z" style="fill:#666;fill-opacity:0.447059;"/></svg>