<?xml version="1.0" encoding="UTF-8" standalone="no"?>
<svg width="472px" height="222px" viewBox="0 0 472 222" version="1.1" xmlns="http://www.w3.org/2000/svg" xmlns:xlink="http://www.w3.org/1999/xlink">
    <!-- Generator: Sketch 3.6.1 (26313) - http://www.bohemiancoding.com/sketch -->
    <title>RMI Logo_black</title>
    <desc>Created with Sketch.</desc>
    <defs>
        <path id="path-1" d="M222.303916,221.94 L0.06,221.94 L0.06,0.430272629 L222.303916,0.430272629 L222.303916,221.94 L222.303916,221.94 Z"></path>
    </defs>
    <g id="Page-1" stroke="none" stroke-width="1" fill="none" fill-rule="evenodd">
        <g id="RMI-Logo_black">
            <path d="M238.93,125.32 C238.635,129.448 238.34,133.575 238.047,137.702 C237.604,137.628 237.161,137.591 236.719,137.591 L234.148,137.591 C233.725,137.591 233.292,137.628 232.85,137.702 C234.028,131.365 235.079,125.062 236.001,118.796 C236.922,112.532 237.769,106.176 238.544,99.727 C238.948,99.8 239.327,99.864 239.676,99.92 C240.026,99.975 240.405,100.003 240.81,100.003 C241.141,100.003 241.493,99.975 241.86,99.92 C242.228,99.864 242.616,99.8 243.021,99.727 C244.015,101.938 245.056,104.186 246.144,106.47 C247.23,108.756 248.319,111.031 249.405,113.296 C250.493,115.563 251.579,117.784 252.667,119.958 C253.754,122.132 254.796,124.195 255.79,126.149 C258.002,122.022 260.202,117.701 262.395,113.186 C264.588,108.673 266.68,104.186 268.67,99.727 C269.59,99.91 270.383,100.003 271.047,100.003 C271.673,100.003 272.446,99.91 273.368,99.727 C273.737,102.896 274.132,106.304 274.556,109.952 C274.979,113.601 275.394,117.167 275.8,120.649 C276.206,124.132 276.61,127.384 277.016,130.406 C277.422,133.427 277.79,135.859 278.122,137.702 C277.384,137.628 276.638,137.591 275.883,137.591 L271.379,137.591 C270.604,137.591 269.831,137.628 269.056,137.702 C268.872,133.906 268.569,129.798 268.144,125.374 C267.72,120.952 267.288,116.568 266.845,112.218 L266.735,112.218 C264.634,116.568 262.571,120.841 260.545,125.044 C258.516,129.243 256.509,133.464 254.518,137.702 C254.335,137.665 254.159,137.636 253.993,137.618 C253.827,137.601 253.653,137.591 253.468,137.591 C253.284,137.591 253.11,137.601 252.944,137.618 C252.778,137.636 252.602,137.665 252.419,137.702 C250.428,133.575 248.446,129.448 246.475,125.32 C244.504,121.193 242.468,117.009 240.368,112.772 L240.257,112.772 C239.667,117.009 239.224,121.193 238.93,125.32" id="Fill-1" fill="#1A1918"></path>
            <path d="M306.059,118.882 C305.516,117.322 304.762,116.033 303.795,115.013 C302.828,113.993 301.693,113.24 300.389,112.75 C299.087,112.259 297.674,112.014 296.154,112.014 C294.656,112.014 293.256,112.259 291.955,112.75 C290.652,113.24 289.516,113.993 288.549,115.013 C287.582,116.033 286.828,117.322 286.287,118.882 C285.746,120.445 285.473,122.294 285.473,124.435 C285.473,126.576 285.746,128.427 286.287,129.988 C286.828,131.548 287.582,132.837 288.549,133.857 C289.516,134.876 290.652,135.63 291.955,136.12 C293.256,136.611 294.656,136.855 296.154,136.855 C297.674,136.855 299.087,136.611 300.389,136.12 C301.693,135.63 302.828,134.876 303.795,133.857 C304.762,132.837 305.516,131.548 306.059,129.988 C306.6,128.427 306.872,126.576 306.872,124.435 C306.872,122.294 306.6,120.445 306.059,118.882 M282.746,118.572 C283.456,116.859 284.449,115.406 285.725,114.219 C287.003,113.033 288.531,112.131 290.309,111.511 C292.09,110.892 294.037,110.583 296.154,110.583 C298.294,110.583 300.254,110.892 302.036,111.511 C303.815,112.131 305.342,113.033 306.62,114.219 C307.897,115.406 308.889,116.859 309.598,118.572 C310.307,120.288 310.664,122.242 310.664,124.435 C310.664,126.628 310.307,128.581 309.598,130.296 C308.889,132.013 307.897,133.464 306.62,134.65 C305.342,135.837 303.815,136.72 302.036,137.3 C300.254,137.882 298.294,138.173 296.154,138.173 C294.037,138.173 292.09,137.882 290.309,137.3 C288.531,136.72 287.003,135.837 285.725,134.65 C284.449,133.464 283.456,132.013 282.746,130.296 C282.036,128.581 281.682,126.628 281.682,124.435 C281.682,122.242 282.036,120.288 282.746,118.572" id="Fill-2" fill="#1A1918"></path>
            <path d="M336.2,115.187 C336.174,113.201 336.11,111.834 336.007,111.085 C336.29,111.138 336.561,111.183 336.821,111.222 C337.077,111.259 337.337,111.28 337.594,111.28 C337.929,111.28 338.315,111.215 338.756,111.085 C338.677,111.989 338.598,113.066 338.522,114.316 C338.446,115.568 338.381,116.909 338.329,118.34 C338.276,119.773 338.225,121.243 338.175,122.751 C338.122,124.261 338.083,125.724 338.057,127.144 C338.032,128.871 337.767,130.419 337.264,131.786 C336.761,133.156 336.047,134.316 335.118,135.269 C334.188,136.224 333.048,136.947 331.694,137.437 C330.339,137.925 328.784,138.173 327.03,138.173 C323.161,138.173 320.349,137.294 318.595,135.54 C316.841,133.786 315.964,131.013 315.964,127.222 C315.964,126.009 315.997,124.931 316.061,123.991 C316.124,123.049 316.157,122.088 316.157,121.107 C316.157,118.941 316.131,117.019 316.081,115.343 C316.028,113.665 315.975,112.246 315.925,111.085 C316.235,111.138 316.569,111.183 316.93,111.222 C317.293,111.259 317.629,111.28 317.936,111.28 C318.22,111.28 318.499,111.259 318.769,111.222 C319.04,111.183 319.317,111.138 319.601,111.085 C319.55,111.654 319.499,112.394 319.446,113.31 C319.394,114.226 319.343,115.265 319.292,116.424 C319.239,117.585 319.2,118.837 319.175,120.179 C319.149,121.521 319.137,122.913 319.137,124.357 C319.137,125.236 319.149,126.144 319.175,127.085 C319.2,128.028 319.292,128.943 319.446,129.833 C319.601,130.722 319.852,131.574 320.202,132.386 C320.549,133.199 321.047,133.909 321.69,134.515 C322.336,135.12 323.147,135.599 324.129,135.947 C325.108,136.294 326.321,136.468 327.765,136.468 C329.184,136.468 330.379,136.263 331.345,135.849 C332.312,135.437 333.104,134.896 333.723,134.224 C334.343,133.554 334.827,132.781 335.175,131.904 C335.522,131.027 335.774,130.111 335.929,129.156 C336.086,128.201 336.174,127.247 336.2,126.292 C336.225,125.339 336.239,124.46 336.239,123.661 C336.239,119.998 336.225,117.173 336.2,115.187" id="Fill-3" fill="#1A1918"></path>
            <path d="M358.489,127.627 C355.134,124.029 351.782,120.451 348.428,116.89 C348.401,117.613 348.377,118.579 348.35,119.791 C348.325,121.005 348.313,122.654 348.313,124.744 C348.313,125.286 348.317,125.958 348.333,126.756 C348.344,127.556 348.356,128.396 348.37,129.273 C348.383,130.15 348.401,131.04 348.428,131.941 C348.454,132.845 348.479,133.683 348.506,134.456 C348.532,135.232 348.557,135.908 348.584,136.488 C348.608,137.07 348.634,137.462 348.661,137.669 C348.248,137.616 347.797,137.591 347.305,137.591 C346.791,137.591 346.313,137.616 345.875,137.669 C345.925,137.411 345.983,136.933 346.048,136.238 C346.112,135.54 346.172,134.708 346.222,133.741 C346.274,132.773 346.333,131.722 346.397,130.587 C346.462,129.452 346.512,128.318 346.55,127.181 C346.591,126.046 346.623,124.939 346.649,123.855 C346.675,122.771 346.686,121.803 346.686,120.952 C346.686,118.476 346.68,116.349 346.668,114.568 C346.655,112.788 346.623,111.459 346.571,110.583 L347.19,110.583 C348.762,112.284 350.446,114.111 352.241,116.058 C354.032,118.005 355.813,119.927 357.579,121.824 C359.345,123.719 361.024,125.513 362.61,127.201 C364.196,128.892 365.584,130.329 366.77,131.515 L366.77,126.254 C366.77,123.545 366.751,120.908 366.712,118.34 C366.673,115.775 366.589,113.355 366.46,111.085 C366.974,111.215 367.413,111.279 367.774,111.279 C368.086,111.279 368.498,111.215 369.013,111.085 C368.962,111.654 368.903,112.504 368.839,113.64 C368.774,114.775 368.71,115.988 368.645,117.277 C368.582,118.566 368.524,119.831 368.471,121.068 C368.421,122.308 368.393,123.3 368.393,124.048 L368.393,126.369 C368.393,127.247 368.401,128.162 368.413,129.116 C368.426,130.072 368.438,131.033 368.452,131.999 C368.464,132.968 368.477,133.87 368.491,134.708 C368.505,135.546 368.51,136.277 368.51,136.894 L368.51,138.173 L367.968,138.173 C365.003,134.741 361.842,131.226 358.489,127.627" id="Fill-4" fill="#1A1918"></path>
            <path d="M381.549,113.097 C380.88,113.097 380.176,113.103 379.441,113.118 C378.706,113.129 377.971,113.156 377.236,113.195 C376.501,113.234 375.79,113.278 375.108,113.329 C374.422,113.382 373.812,113.446 373.27,113.524 C373.398,113.058 373.464,112.646 373.464,112.284 C373.464,112.001 373.398,111.601 373.27,111.085 C374.971,111.138 376.635,111.181 378.26,111.222 C379.885,111.259 381.549,111.28 383.253,111.28 C384.955,111.28 386.618,111.259 388.244,111.222 C389.868,111.181 391.532,111.138 393.236,111.085 C393.107,111.601 393.042,112.015 393.042,112.325 C393.042,112.659 393.107,113.058 393.236,113.524 C392.694,113.446 392.081,113.382 391.398,113.329 C390.714,113.278 390.005,113.234 389.269,113.195 C388.534,113.156 387.799,113.129 387.064,113.118 C386.329,113.103 385.626,113.097 384.955,113.097 C384.878,115.754 384.839,118.425 384.839,121.107 L384.839,127.763 C384.839,129.466 384.871,131.142 384.936,132.794 C384.999,134.445 385.071,136.07 385.148,137.669 C384.555,137.616 383.922,137.591 383.253,137.591 C382.581,137.591 381.949,137.616 381.357,137.669 C381.434,136.07 381.505,134.445 381.57,132.794 C381.633,131.142 381.667,129.466 381.667,127.763 L381.667,121.107 C381.667,118.425 381.628,115.754 381.549,113.097" id="Fill-5" fill="#1A1918"></path>
            <path d="M399.157,125.634 C399.827,125.634 400.524,125.648 401.247,125.673 C401.968,125.699 402.665,125.711 403.336,125.711 C404.056,125.711 404.78,125.706 405.503,125.693 C406.223,125.679 406.946,125.659 407.669,125.634 L403.374,115.806 L399.157,125.634 L399.157,125.634 Z M416.298,137.669 C415.936,137.616 415.594,137.591 415.272,137.591 L413.221,137.591 C412.899,137.591 412.556,137.616 412.196,137.669 C412.014,137.075 411.77,136.361 411.461,135.521 C411.151,134.683 410.808,133.806 410.436,132.89 C410.061,131.974 409.68,131.046 409.295,130.105 C408.907,129.163 408.547,128.266 408.212,127.415 C407.385,127.388 406.547,127.368 405.696,127.357 C404.844,127.343 403.993,127.337 403.141,127.337 C402.341,127.337 401.554,127.343 400.782,127.357 C400.007,127.368 399.219,127.388 398.422,127.415 C397.594,129.427 396.846,131.341 396.177,133.161 C395.506,134.98 395.004,136.482 394.669,137.669 C394.229,137.616 393.753,137.591 393.237,137.591 C392.719,137.591 392.243,137.616 391.803,137.669 C393.893,133.156 395.931,128.665 397.919,124.202 C399.903,119.74 401.903,115.201 403.915,110.583 L404.651,110.583 C405.269,112.079 405.94,113.697 406.663,115.439 C407.385,117.179 408.12,118.941 408.868,120.72 C409.616,122.499 410.364,124.268 411.112,126.021 C411.86,127.777 412.563,129.408 413.221,130.915 C413.881,132.425 414.472,133.775 415.002,134.96 C415.53,136.146 415.963,137.05 416.298,137.669 L416.298,137.669 Z" id="Fill-6" fill="#1A1918"></path>
            <path d="M420.651,116.097 C420.586,114.458 420.514,112.788 420.436,111.086 C420.772,111.138 421.094,111.182 421.405,111.222 C421.714,111.26 422.024,111.281 422.334,111.281 C422.643,111.281 422.953,111.26 423.262,111.222 C423.571,111.182 423.893,111.138 424.229,111.086 C424.151,112.788 424.081,114.458 424.016,116.097 C423.953,117.736 423.921,119.406 423.921,121.107 L423.921,127.763 C423.921,129.465 423.953,131.142 424.016,132.794 C424.081,134.445 424.151,136.07 424.229,137.669 C423.635,137.616 423.005,137.591 422.334,137.591 C421.664,137.591 421.03,137.616 420.436,137.669 C420.514,136.07 420.586,134.445 420.651,132.794 C420.714,131.142 420.748,129.465 420.748,127.763 L420.748,121.107 C420.748,119.406 420.714,117.736 420.651,116.097" id="Fill-7" fill="#1A1918"></path>
            <path d="M443.807,127.627 C440.455,124.029 437.1,120.451 433.747,116.89 C433.721,117.613 433.697,118.579 433.67,119.791 C433.645,121.005 433.631,122.654 433.631,124.744 C433.631,125.286 433.637,125.958 433.652,126.756 C433.663,127.556 433.676,128.396 433.69,129.273 C433.703,130.15 433.721,131.04 433.747,131.941 C433.774,132.845 433.799,133.683 433.826,134.456 C433.85,135.232 433.877,135.908 433.903,136.488 C433.928,137.07 433.954,137.462 433.981,137.669 C433.567,137.616 433.116,137.591 432.626,137.591 C432.11,137.591 431.631,137.616 431.195,137.669 C431.245,137.411 431.303,136.933 431.369,136.238 C431.432,135.54 431.491,134.708 431.543,133.741 C431.594,132.773 431.652,131.722 431.715,130.587 C431.781,129.452 431.833,128.318 431.872,127.181 C431.912,126.046 431.942,124.939 431.967,123.855 C431.994,122.771 432.006,121.803 432.006,120.952 C432.006,118.476 432,116.349 431.988,114.568 C431.973,112.788 431.942,111.459 431.891,110.583 L432.51,110.583 C434.083,112.284 435.766,114.111 437.559,116.058 C439.352,118.005 441.131,119.927 442.899,121.824 C444.666,123.719 446.342,125.513 447.928,127.201 C449.516,128.892 450.902,130.329 452.089,131.515 L452.089,126.254 C452.089,123.545 452.071,120.908 452.031,118.34 C451.992,115.775 451.908,113.355 451.779,111.085 C452.296,111.215 452.734,111.279 453.094,111.279 C453.406,111.279 453.818,111.215 454.333,111.085 C454.282,111.654 454.223,112.504 454.16,113.64 C454.094,114.775 454.03,115.988 453.964,117.277 C453.902,118.566 453.842,119.831 453.792,121.068 C453.74,122.308 453.714,123.3 453.714,124.048 L453.714,126.369 C453.714,127.247 453.719,128.162 453.734,129.116 C453.746,130.072 453.758,131.033 453.772,131.999 C453.786,132.968 453.797,133.87 453.811,134.708 C453.824,135.546 453.829,136.277 453.829,136.894 L453.829,138.173 L453.288,138.173 C450.322,134.741 447.162,131.226 443.807,127.627" id="Fill-8" fill="#1A1918"></path>
            <path d="M250.377,177.638 C250.422,180.702 250.547,183.493 250.757,186.015 C249.92,185.839 249.016,185.716 248.045,185.648 C247.073,185.577 246.108,185.542 245.151,185.542 C244.194,185.542 243.252,185.595 242.325,185.699 C241.397,185.804 240.561,185.909 239.813,186.015 C239.963,183.074 240.075,180.185 240.149,177.349 C240.225,174.513 240.261,171.624 240.261,168.683 C240.261,167.984 240.255,167.116 240.239,166.083 C240.225,165.052 240.217,163.991 240.217,162.906 C240.217,161.786 240.21,160.708 240.194,159.677 C240.179,158.644 240.172,157.777 240.172,157.077 C240.172,155.851 240.143,154.468 240.083,152.927 C240.022,151.386 239.932,149.88 239.813,148.411 C240.59,148.515 241.487,148.62 242.505,148.726 C243.52,148.831 244.448,148.884 245.286,148.884 C246.212,148.884 247.17,148.839 248.157,148.751 C249.143,148.665 250.024,148.55 250.802,148.411 C250.653,150.931 250.534,153.417 250.444,155.868 C250.354,158.32 250.309,160.804 250.309,163.327 L250.309,168.577 C250.309,171.554 250.332,174.574 250.377,177.638" id="Fill-9" fill="#1A1918"></path>
            <path d="M272.691,172.491 C268.803,167.607 264.917,162.747 261.029,157.917 C260.999,158.898 260.967,160.21 260.94,161.855 C260.909,163.501 260.894,165.741 260.894,168.577 C260.894,169.314 260.901,170.224 260.917,171.31 C260.931,172.394 260.946,173.533 260.962,174.722 C260.977,175.913 260.999,177.122 261.029,178.347 C261.059,179.572 261.089,180.71 261.12,181.761 C261.149,182.81 261.178,183.73 261.21,184.517 C261.238,185.306 261.268,185.839 261.297,186.12 C260.819,186.048 260.296,186.015 259.729,186.015 C259.13,186.015 258.577,186.048 258.069,186.12 C258.128,185.769 258.195,185.122 258.271,184.175 C258.344,183.23 258.413,182.103 258.472,180.788 C258.532,179.476 258.599,178.048 258.674,176.509 C258.749,174.968 258.809,173.427 258.854,171.886 C258.899,170.347 258.936,168.841 258.965,167.37 C258.995,165.9 259.01,164.587 259.01,163.431 C259.01,160.07 259.003,157.181 258.988,154.765 C258.973,152.349 258.936,150.546 258.876,149.357 L259.592,149.357 C261.419,151.667 263.37,154.144 265.447,156.786 C267.525,159.431 269.589,162.038 271.637,164.613 C273.685,167.187 275.63,169.62 277.467,171.913 C279.307,174.206 280.915,176.159 282.29,177.769 L282.29,170.626 C282.29,166.949 282.267,163.37 282.223,159.886 C282.176,156.402 282.081,153.12 281.931,150.038 C282.529,150.214 283.038,150.302 283.458,150.302 C283.816,150.302 284.294,150.214 284.892,150.038 C284.831,150.81 284.764,151.964 284.69,153.505 C284.614,155.046 284.54,156.691 284.465,158.441 C284.39,160.193 284.323,161.908 284.264,163.589 C284.204,165.269 284.174,166.618 284.174,167.632 L284.174,170.784 C284.174,171.974 284.181,173.218 284.196,174.513 C284.212,175.808 284.226,177.113 284.241,178.425 C284.256,179.738 284.271,180.964 284.286,182.103 C284.301,183.24 284.309,184.228 284.309,185.07 L284.309,186.802 L283.68,186.802 C280.242,182.146 276.579,177.374 272.691,172.491" id="Fill-10" fill="#1A1918"></path>
            <path d="M293.301,181.208 C293.705,181.857 294.199,182.443 294.782,182.968 C295.365,183.493 296.046,183.923 296.823,184.255 C297.6,184.589 298.467,184.753 299.424,184.753 C300.411,184.753 301.299,184.552 302.092,184.15 C302.883,183.749 303.557,183.204 304.113,182.521 C304.665,181.839 305.09,181.033 305.389,180.107 C305.689,179.179 305.839,178.189 305.839,177.138 C305.839,175.529 305.487,174.251 304.784,173.304 C304.081,172.359 303.206,171.572 302.16,170.943 C301.114,170.31 299.986,169.734 298.775,169.208 C297.564,168.683 296.434,168.027 295.387,167.24 C294.34,166.45 293.465,165.445 292.762,164.218 C292.061,162.993 291.71,161.349 291.71,159.281 C291.71,157.812 291.932,156.472 292.383,155.265 C292.831,154.056 293.482,153.015 294.333,152.14 C295.186,151.265 296.21,150.581 297.406,150.091 C298.602,149.601 299.948,149.357 301.443,149.357 C302.878,149.357 304.118,149.558 305.165,149.96 C306.214,150.363 307.184,150.984 308.081,151.824 C307.811,152.419 307.589,153.05 307.408,153.716 C307.229,154.38 307.049,155.222 306.87,156.236 L306.332,156.236 C306.182,155.745 305.981,155.212 305.725,154.634 C305.471,154.056 305.128,153.523 304.695,153.033 C304.26,152.542 303.745,152.132 303.147,151.798 C302.549,151.466 301.831,151.298 300.995,151.298 C300.157,151.298 299.387,151.456 298.684,151.771 C297.981,152.087 297.368,152.533 296.846,153.111 C296.322,153.689 295.918,154.38 295.633,155.185 C295.348,155.991 295.208,156.866 295.208,157.812 C295.208,159.458 295.559,160.751 296.262,161.699 C296.964,162.642 297.839,163.441 298.885,164.087 C299.932,164.736 301.061,165.314 302.273,165.822 C303.484,166.329 304.613,166.949 305.659,167.685 C306.705,168.419 307.579,169.366 308.282,170.521 C308.986,171.677 309.337,173.218 309.337,175.144 C309.337,176.753 309.09,178.277 308.596,179.712 C308.105,181.148 307.385,182.4 306.445,183.468 C305.503,184.536 304.35,185.359 302.99,185.935 C301.63,186.513 300.081,186.802 298.348,186.802 C296.493,186.802 294.991,186.513 293.839,185.935 C292.689,185.359 291.723,184.7 290.947,183.966 C291.215,183.161 291.404,182.435 291.506,181.786 C291.613,181.138 291.71,180.308 291.799,179.292 L292.337,179.292 C292.576,179.921 292.899,180.562 293.301,181.208" id="Fill-11" fill="#1A1918"></path>
            <path d="M321.852,152.769 C321.074,152.769 320.258,152.779 319.408,152.796 C318.553,152.814 317.704,152.849 316.85,152.9 C315.998,152.952 315.174,153.015 314.383,153.083 C313.59,153.156 312.88,153.241 312.253,153.347 C312.401,152.716 312.477,152.158 312.477,151.667 C312.477,151.283 312.401,150.74 312.253,150.038 C314.227,150.109 316.156,150.169 318.039,150.222 C319.922,150.275 321.852,150.302 323.826,150.302 C325.799,150.302 327.727,150.275 329.61,150.222 C331.496,150.169 333.424,150.109 335.397,150.038 C335.248,150.74 335.172,151.298 335.172,151.718 C335.172,152.175 335.248,152.716 335.397,153.347 C334.77,153.241 334.059,153.156 333.266,153.083 C332.473,153.015 331.653,152.952 330.799,152.9 C329.949,152.849 329.094,152.814 328.244,152.796 C327.391,152.779 326.576,152.769 325.799,152.769 C325.709,156.376 325.664,159.999 325.664,163.642 L325.664,172.675 C325.664,174.986 325.702,177.261 325.776,179.501 C325.85,181.743 325.932,183.949 326.022,186.12 C325.335,186.048 324.602,186.015 323.826,186.015 C323.047,186.015 322.313,186.048 321.627,186.12 C321.715,183.949 321.797,181.743 321.874,179.501 C321.949,177.261 321.985,174.986 321.985,172.675 L321.985,163.642 C321.985,159.999 321.942,156.376 321.852,152.769" id="Fill-12" fill="#1A1918"></path>
            <path d="M340.579,156.839 C340.503,154.616 340.422,152.349 340.333,150.038 C340.72,150.109 341.094,150.169 341.454,150.222 C341.811,150.275 342.172,150.302 342.528,150.302 C342.889,150.302 343.247,150.275 343.606,150.222 C343.966,150.169 344.339,150.109 344.727,150.038 C344.638,152.349 344.554,154.616 344.481,156.839 C344.407,159.064 344.368,161.331 344.368,163.642 L344.368,172.675 C344.368,174.986 344.407,177.261 344.481,179.501 C344.554,181.743 344.638,183.949 344.727,186.12 C344.038,186.048 343.307,186.015 342.528,186.015 C341.751,186.015 341.018,186.048 340.333,186.12 C340.422,183.949 340.503,181.743 340.579,179.501 C340.653,177.261 340.69,174.986 340.69,172.675 L340.69,163.642 C340.69,161.331 340.653,159.064 340.579,156.839" id="Fill-13" fill="#1A1918"></path>
            <path d="M359.26,152.769 C358.483,152.769 357.667,152.779 356.816,152.796 C355.962,152.814 355.112,152.849 354.258,152.9 C353.407,152.952 352.584,153.015 351.792,153.083 C350.999,153.156 350.289,153.241 349.661,153.347 C349.809,152.716 349.885,152.158 349.885,151.667 C349.885,151.283 349.809,150.74 349.661,150.038 C351.635,150.109 353.564,150.169 355.447,150.222 C357.331,150.275 359.26,150.302 361.234,150.302 C363.208,150.302 365.135,150.275 367.018,150.222 C368.904,150.169 370.833,150.109 372.807,150.038 C372.656,150.74 372.581,151.298 372.581,151.718 C372.581,152.175 372.656,152.716 372.807,153.347 C372.178,153.241 371.467,153.156 370.676,153.083 C369.883,153.015 369.061,152.952 368.208,152.9 C367.357,152.849 366.503,152.814 365.652,152.796 C364.799,152.779 363.984,152.769 363.208,152.769 C363.117,156.376 363.072,159.999 363.072,163.642 L363.072,172.675 C363.072,174.986 363.11,177.261 363.184,179.501 C363.258,181.743 363.34,183.949 363.43,186.12 C362.743,186.048 362.01,186.015 361.234,186.015 C360.456,186.015 359.723,186.048 359.035,186.12 C359.124,183.949 359.206,181.743 359.282,179.501 C359.357,177.261 359.393,174.986 359.393,172.675 L359.393,163.642 C359.393,159.999 359.35,156.376 359.26,152.769" id="Fill-14" fill="#1A1918"></path>
            <path d="M401.422,155.607 C401.394,152.909 401.319,151.054 401.198,150.038 C401.528,150.109 401.842,150.169 402.141,150.222 C402.44,150.275 402.739,150.302 403.037,150.302 C403.426,150.302 403.874,150.214 404.383,150.038 C404.294,151.265 404.204,152.726 404.114,154.423 C404.025,156.122 403.949,157.943 403.889,159.886 C403.829,161.829 403.771,163.825 403.71,165.872 C403.652,167.921 403.605,169.909 403.577,171.833 C403.546,174.181 403.239,176.281 402.657,178.136 C402.074,179.993 401.244,181.568 400.167,182.863 C399.09,184.159 397.769,185.14 396.197,185.804 C394.628,186.47 392.825,186.802 390.792,186.802 C386.307,186.802 383.047,185.613 381.014,183.23 C378.981,180.851 377.964,177.085 377.964,171.939 C377.964,170.294 378.001,168.831 378.075,167.554 C378.152,166.277 378.189,164.972 378.189,163.642 C378.189,160.699 378.158,158.093 378.098,155.816 C378.038,153.54 377.98,151.615 377.919,150.038 C378.278,150.109 378.667,150.169 379.087,150.222 C379.503,150.275 379.893,150.302 380.251,150.302 C380.581,150.302 380.902,150.275 381.217,150.222 C381.53,150.169 381.851,150.109 382.18,150.038 C382.12,150.81 382.061,151.816 382.001,153.058 C381.941,154.3 381.881,155.712 381.821,157.286 C381.76,158.863 381.717,160.56 381.688,162.38 C381.657,164.202 381.643,166.093 381.643,168.052 C381.643,169.243 381.657,170.478 381.688,171.755 C381.717,173.034 381.821,174.277 382.001,175.484 C382.18,176.693 382.471,177.847 382.876,178.95 C383.279,180.054 383.855,181.017 384.603,181.839 C385.35,182.661 386.292,183.31 387.428,183.783 C388.565,184.255 389.969,184.491 391.646,184.491 C393.289,184.491 394.672,184.21 395.794,183.652 C396.915,183.091 397.835,182.357 398.551,181.445 C399.271,180.534 399.831,179.484 400.234,178.294 C400.637,177.105 400.93,175.861 401.109,174.566 C401.289,173.271 401.394,171.974 401.422,170.679 C401.452,169.384 401.467,168.193 401.467,167.107 C401.467,162.136 401.452,158.302 401.422,155.607" id="Fill-15" fill="#1A1918"></path>
            <path d="M419.096,152.769 C418.319,152.769 417.503,152.779 416.652,152.796 C415.797,152.814 414.948,152.849 414.094,152.9 C413.243,152.952 412.419,153.015 411.628,153.083 C410.835,153.156 410.124,153.241 409.497,153.347 C409.645,152.716 409.721,152.158 409.721,151.667 C409.721,151.283 409.645,150.74 409.497,150.038 C411.471,150.109 413.4,150.169 415.283,150.222 C417.167,150.275 419.096,150.302 421.07,150.302 C423.044,150.302 424.971,150.275 426.854,150.222 C428.74,150.169 430.669,150.109 432.643,150.038 C432.492,150.74 432.417,151.298 432.417,151.718 C432.417,152.175 432.492,152.716 432.643,153.347 C432.014,153.241 431.303,153.156 430.51,153.083 C429.717,153.015 428.897,152.952 428.044,152.9 C427.193,152.849 426.34,152.814 425.488,152.796 C424.635,152.779 423.82,152.769 423.044,152.769 C422.953,156.376 422.908,159.999 422.908,163.642 L422.908,172.675 C422.908,174.986 422.946,177.261 423.02,179.501 C423.094,181.743 423.178,183.949 423.266,186.12 C422.579,186.048 421.846,186.015 421.07,186.015 C420.292,186.015 419.557,186.048 418.871,186.12 C418.96,183.949 419.042,181.743 419.118,179.501 C419.193,177.261 419.229,174.986 419.229,172.675 L419.229,163.642 C419.229,159.999 419.186,156.376 419.096,152.769" id="Fill-16" fill="#1A1918"></path>
            <path d="M437.823,156.761 C437.747,154.521 437.665,152.281 437.575,150.038 C438.922,150.109 440.259,150.169 441.59,150.222 C442.922,150.275 444.259,150.302 445.604,150.302 C446.95,150.302 448.28,150.275 449.596,150.222 C450.911,150.169 452.243,150.109 453.589,150.038 C453.499,150.564 453.454,151.089 453.454,151.615 C453.454,152.14 453.499,152.665 453.589,153.189 C452.631,153.12 451.756,153.05 450.964,152.98 C450.172,152.909 449.335,152.839 448.454,152.769 C447.569,152.699 446.606,152.638 445.559,152.585 C444.512,152.533 443.257,152.507 441.792,152.507 C441.761,153.628 441.724,154.695 441.678,155.712 C441.634,156.726 441.612,157.882 441.612,159.177 C441.612,160.542 441.62,161.874 441.634,163.169 C441.649,164.464 441.657,165.445 441.657,166.109 C442.972,166.109 444.153,166.093 445.2,166.056 C446.247,166.023 447.204,165.978 448.071,165.925 C448.938,165.872 449.737,165.822 450.471,165.769 C451.204,165.716 451.899,165.656 452.557,165.585 C452.467,166.109 452.422,166.654 452.422,167.212 C452.422,167.738 452.467,168.263 452.557,168.788 C451.778,168.683 450.874,168.595 449.843,168.525 C448.811,168.456 447.78,168.411 446.749,168.394 C445.716,168.376 444.745,168.361 443.833,168.343 C442.922,168.325 442.196,168.316 441.657,168.316 C441.657,168.63 441.649,168.972 441.634,169.339 C441.62,169.706 441.612,170.171 441.612,170.732 L441.612,175.931 C441.612,177.925 441.62,179.572 441.634,180.868 C441.649,182.163 441.672,183.144 441.702,183.81 L444.842,183.81 C445.977,183.81 447.091,183.783 448.183,183.73 C449.274,183.677 450.307,183.607 451.278,183.521 C452.252,183.433 453.094,183.302 453.813,183.126 C453.754,183.372 453.716,183.644 453.702,183.941 C453.684,184.238 453.678,184.509 453.678,184.753 C453.678,185.314 453.722,185.769 453.813,186.12 C452.467,186.048 451.129,186.015 449.799,186.015 L441.657,186.015 C440.311,186.015 438.95,186.048 437.575,186.12 C437.665,183.88 437.747,181.648 437.823,179.423 C437.895,177.2 437.934,174.933 437.934,172.622 L437.934,163.589 C437.934,161.279 437.895,159.001 437.823,156.761" id="Fill-17" fill="#1A1918"></path>
            <path d="M249.332,63.018 C250.389,63.076 251.559,63.104 252.841,63.104 C254.828,63.104 256.895,62.906 259.044,62.505 C261.19,62.106 263.162,61.408 264.957,60.408 C266.751,59.41 268.242,58.07 269.428,56.386 C270.615,54.703 271.208,52.576 271.208,50.008 C271.208,47.783 270.742,45.942 269.813,44.488 C268.882,43.033 267.682,41.876 266.208,41.02 C264.731,40.164 263.13,39.58 261.399,39.266 C259.669,38.953 257.969,38.794 256.303,38.794 C254.059,38.794 252.2,38.837 250.725,38.923 C249.251,39.01 248.001,39.11 246.975,39.223 C246.846,42.362 246.718,45.471 246.59,48.554 C246.462,51.635 246.399,54.716 246.399,57.798 L246.399,62.678 C247.296,62.848 248.274,62.963 249.332,63.018 M238.272,46.712 C238.112,43.09 237.936,39.394 237.745,35.628 C239.602,35.743 241.43,35.842 243.225,35.929 C245.02,36.014 246.846,36.056 248.707,36.056 C250.565,36.056 252.393,35.984 254.188,35.842 C255.981,35.701 257.809,35.628 259.669,35.628 C262.36,35.628 264.924,35.856 267.362,36.312 C269.797,36.769 271.928,37.526 273.756,38.581 C275.583,39.638 277.026,41.02 278.083,42.732 C279.141,44.445 279.67,46.584 279.67,49.152 C279.67,51.891 278.979,54.245 277.602,56.214 C276.223,58.182 274.54,59.809 272.553,61.094 C270.565,62.376 268.434,63.376 266.16,64.089 C263.882,64.804 261.815,65.273 259.957,65.501 C260.727,66.357 261.784,67.555 263.13,69.096 C264.477,70.637 265.981,72.335 267.649,74.189 C269.315,76.044 271.047,77.985 272.842,80.01 C274.637,82.036 276.368,83.976 278.036,85.83 C279.702,87.685 281.27,89.382 282.748,90.923 C284.221,92.463 285.407,93.635 286.305,94.433 C285.342,94.317 284.381,94.262 283.42,94.262 L277.747,94.262 C276.785,94.262 275.854,94.317 274.958,94.433 C273.997,93.234 272.538,91.436 270.583,89.039 C268.627,86.643 266.463,84.076 264.091,81.336 C261.719,78.598 259.298,75.873 256.832,73.162 C254.364,70.453 252.104,68.155 250.053,66.271 L246.399,66.271 L246.399,72.519 C246.399,76.286 246.479,79.996 246.639,83.647 C246.797,87.3 246.975,90.895 247.168,94.433 C245.692,94.317 244.123,94.262 242.457,94.262 C240.789,94.262 239.218,94.317 237.745,94.433 C237.936,90.895 238.112,87.3 238.272,83.647 C238.432,79.996 238.514,76.286 238.514,72.519 L238.514,57.798 C238.514,54.032 238.432,50.336 238.272,46.712" id="Fill-18" fill="#1A1918"></path>
            <path d="M325.864,65.291 C324.922,62.875 323.608,60.878 321.926,59.3 C320.243,57.722 318.267,56.554 316.003,55.795 C313.735,55.037 311.278,54.657 308.632,54.657 C306.028,54.657 303.594,55.037 301.329,55.795 C299.061,56.554 297.089,57.722 295.405,59.3 C293.722,60.878 292.409,62.875 291.468,65.291 C290.526,67.709 290.053,70.575 290.053,73.89 C290.053,77.206 290.526,80.071 291.468,82.487 C292.409,84.905 293.722,86.902 295.405,88.48 C297.089,90.059 299.061,91.226 301.329,91.984 C303.594,92.744 306.028,93.123 308.632,93.123 C311.278,93.123 313.735,92.744 316.003,91.984 C318.267,91.226 320.243,90.059 321.926,88.48 C323.608,86.902 324.922,84.905 325.864,82.487 C326.805,80.071 327.276,77.206 327.276,73.89 C327.276,70.575 326.805,67.709 325.864,65.291 M285.308,64.812 C286.543,62.156 288.27,59.909 290.491,58.072 C292.714,56.235 295.372,54.835 298.468,53.878 C301.563,52.918 304.952,52.439 308.632,52.439 C312.356,52.439 315.766,52.918 318.864,53.878 C321.96,54.835 324.618,56.235 326.839,58.072 C329.061,59.909 330.788,62.156 332.022,64.812 C333.257,67.469 333.874,70.495 333.874,73.89 C333.874,77.286 333.257,80.312 332.022,82.968 C330.788,85.624 329.061,87.871 326.839,89.708 C324.618,91.546 321.96,92.914 318.864,93.812 C315.766,94.711 312.356,95.16 308.632,95.16 C304.952,95.16 301.563,94.711 298.468,93.812 C295.372,92.914 292.714,91.546 290.491,89.708 C288.27,87.871 286.543,85.624 285.308,82.968 C284.073,80.312 283.458,77.286 283.458,73.89 C283.458,70.495 284.073,67.469 285.308,64.812" id="Fill-19" fill="#1A1918"></path>
            <path d="M374.495,92.973 C373.62,93.353 372.565,93.692 371.333,93.992 C370.097,94.292 368.718,94.561 367.192,94.801 C365.667,95.04 364.073,95.16 362.413,95.16 C358.868,95.16 355.591,94.711 352.587,93.812 C349.579,92.913 346.987,91.546 344.811,89.707 C342.634,87.871 340.929,85.623 339.694,82.968 C338.46,80.311 337.845,77.285 337.845,73.89 C337.845,70.495 338.46,67.469 339.694,64.812 C340.929,62.156 342.657,59.909 344.88,58.072 C347.1,56.235 349.759,54.835 352.854,53.878 C355.952,52.918 359.36,52.439 363.087,52.439 C366.048,52.439 368.751,52.708 371.196,53.248 C373.642,53.787 375.808,54.437 377.692,55.195 C377.333,55.755 377.04,56.514 376.817,57.472 C376.593,58.431 376.413,59.231 376.278,59.869 L375.876,59.989 C375.426,59.51 374.798,58.97 373.991,58.371 C373.182,57.772 372.241,57.193 371.163,56.634 C370.087,56.074 368.876,55.606 367.528,55.225 C366.182,54.846 364.702,54.657 363.087,54.657 C360.438,54.657 357.981,55.036 355.716,55.795 C353.45,56.554 351.474,57.722 349.792,59.3 C348.108,60.878 346.798,62.875 345.854,65.291 C344.911,67.709 344.44,70.575 344.44,73.89 C344.44,77.205 344.911,80.071 345.854,82.487 C346.798,84.905 348.108,86.902 349.792,88.48 C351.474,90.058 353.45,91.226 355.716,91.984 C357.981,92.744 360.438,93.123 363.087,93.123 C364.702,93.123 366.192,92.944 367.561,92.584 C368.931,92.224 370.187,91.795 371.333,91.296 C372.475,90.797 373.508,90.257 374.429,89.678 C375.348,89.099 376.122,88.591 376.751,88.149 L377.019,88.39 L376.413,91.925 C376.01,92.245 375.372,92.594 374.495,92.973" id="Fill-20" fill="#1A1918"></path>
            <path d="M386.005,86.832 C386.117,84.276 386.172,81.679 386.172,79.042 L386.172,68.737 C386.172,66.101 386.117,63.515 386.005,60.978 C385.892,58.441 385.769,55.854 385.635,53.218 C386.217,53.298 386.778,53.368 387.318,53.428 C387.857,53.487 388.394,53.518 388.933,53.518 C389.472,53.518 390.01,53.487 390.547,53.428 C391.087,53.368 391.648,53.298 392.231,53.218 C392.097,55.854 391.972,58.441 391.861,60.978 C391.749,63.515 391.693,66.101 391.693,68.737 L391.693,72.032 C391.693,72.353 391.827,72.511 392.097,72.511 C392.276,72.511 392.589,72.332 393.04,71.973 C394.609,70.774 396.258,69.417 397.987,67.898 C399.714,66.381 401.452,64.803 403.204,63.165 C404.954,61.527 406.68,59.86 408.385,58.161 C410.09,56.464 411.728,54.816 413.299,53.218 C413.794,53.298 414.264,53.368 414.714,53.428 C415.161,53.487 415.61,53.518 416.06,53.518 C416.598,53.518 417.137,53.487 417.674,53.428 C418.214,53.368 418.751,53.298 419.292,53.218 C417.719,54.416 415.946,55.835 413.973,57.472 C411.997,59.11 410.01,60.788 408.017,62.506 C406.019,64.223 404.112,65.911 402.294,67.568 C400.478,69.227 398.962,70.675 397.751,71.913 C401.385,75.547 405.053,79.252 408.756,83.027 C412.458,86.802 416.215,90.587 420.031,94.381 C419.359,94.301 418.684,94.261 418.01,94.261 L414.141,94.261 C413.536,94.261 412.919,94.301 412.29,94.381 C410.674,92.744 408.891,90.867 406.939,88.749 C404.986,86.633 403.079,84.585 401.217,82.608 C399.355,80.631 397.671,78.853 396.169,77.275 C394.665,75.697 393.555,74.589 392.837,73.95 C392.478,73.63 392.208,73.471 392.028,73.471 C391.803,73.471 391.693,73.59 391.693,73.83 L391.693,79.042 C391.693,81.679 391.749,84.276 391.861,86.832 C391.972,89.389 392.097,91.905 392.231,94.381 C391.198,94.301 390.101,94.261 388.933,94.261 C387.767,94.261 386.667,94.301 385.635,94.381 C385.769,91.905 385.892,89.389 386.005,86.832" id="Fill-21" fill="#1A1918"></path>
            <path d="M435.266,83.547 C434.406,81.435 433.486,79.211 432.501,76.876 C431.518,74.542 430.51,72.158 429.479,69.726 C428.447,67.293 427.475,65.008 426.568,62.87 C425.658,60.733 424.86,58.852 424.171,57.231 C423.483,55.609 422.967,54.404 422.623,53.618 C423.26,53.717 423.852,53.802 424.393,53.877 C424.934,53.95 425.473,53.987 426.014,53.987 C426.553,53.987 427.094,53.95 427.637,53.877 C428.176,53.802 428.766,53.717 429.406,53.618 C430.928,58.336 432.624,63.005 434.492,67.625 C436.36,72.245 438.326,77.012 440.389,81.926 C442.454,77.602 444.43,72.982 446.324,68.067 C448.215,63.153 449.899,58.336 451.374,53.618 C452.356,53.865 453.167,53.987 453.807,53.987 C454.444,53.987 455.255,53.865 456.24,53.618 C455.895,54.307 455.34,55.474 454.58,57.12 C453.818,58.767 452.91,60.733 451.852,63.017 C450.795,65.302 449.641,67.834 448.387,70.61 C447.133,73.387 445.856,76.238 444.553,79.162 C443.251,82.086 441.961,84.985 440.684,87.86 C439.406,90.735 438.225,93.463 437.147,96.043 C436.063,98.623 435.119,100.957 434.307,103.046 C433.497,105.134 432.893,106.793 432.501,108.022 C431.518,107.775 430.682,107.653 429.995,107.653 C429.305,107.653 428.471,107.775 427.489,108.022 C431.37,101.583 434.664,95.145 437.368,88.708 C436.826,87.381 436.126,85.661 435.266,83.547" id="Fill-22" fill="#1A1918"></path>
            <path d="M465.294,152.376 L465.885,152.376 C466.576,152.376 467.135,152.146 467.135,151.587 C467.135,151.095 466.774,150.765 465.985,150.765 C465.655,150.765 465.424,150.798 465.294,150.831 L465.294,152.376 L465.294,152.376 Z M465.26,155.402 L464.01,155.402 L464.01,150.009 C464.505,149.943 465.194,149.845 466.083,149.845 C467.103,149.845 467.564,150.009 467.924,150.273 C468.253,150.501 468.483,150.898 468.483,151.423 C468.483,152.081 467.991,152.509 467.366,152.704 L467.366,152.771 C467.893,152.935 468.155,153.363 468.319,154.087 C468.483,154.909 468.616,155.204 468.714,155.402 L467.399,155.402 C467.235,155.204 467.135,154.745 466.972,154.087 C466.872,153.529 466.544,153.265 465.854,153.265 L465.26,153.265 L465.26,155.402 L465.26,155.402 Z M461.939,152.607 C461.939,155.007 463.749,156.915 466.149,156.915 C468.483,156.949 470.26,155.007 470.26,152.64 C470.26,150.24 468.483,148.298 466.083,148.298 C463.749,148.298 461.939,150.24 461.939,152.607 L461.939,152.607 Z M471.642,152.607 C471.642,155.632 469.208,158.034 466.116,158.034 C463.024,158.034 460.558,155.632 460.558,152.607 C460.558,149.581 463.024,147.214 466.149,147.214 C469.208,147.214 471.642,149.581 471.642,152.607 L471.642,152.607 Z" id="Fill-23" fill="#1A1918"></path>
            <path d="M171.28,161.163 C170.67,162.394 170.05,162.024 169.19,163.003 C169.19,162.274 168.21,162.144 167.96,161.774 L168.33,161.534 L167.71,160.913 C168.33,160.054 168.7,159.804 169.81,159.064 C170.79,159.934 170.3,160.054 171.28,161.163" id="Fill-24" fill="#FFFFFF"></path>
            <path d="M131.64,7.264 C131.76,7.264 131.39,8.374 131.39,8.984 L133.12,10.214 C132.5,10.464 131.52,10.214 131.02,11.084 C131.27,11.574 131.52,11.944 131.39,12.554 C130.9,12.194 130.16,12.314 129.55,12.314 L128.69,14.034 C128.69,12.434 126.96,11.574 126.1,11.944 C126.22,11.454 126.84,11.204 126.59,10.464 C126.1,10.214 125.48,9.854 124.87,9.604 C125.85,9.484 127.33,8.374 126.35,6.894 C127.58,7.884 129.05,6.774 129.3,5.414 C130.04,6.034 129.05,7.144 130.16,7.514 L131.64,7.264" id="Fill-25" fill="#FFFFFF"></path>
            <path d="M170.67,41.244 C170.3,40.754 170.42,40.014 170.42,39.394 C170.91,39.644 171.16,40.264 171.9,40.014 L173.01,38.294 C173.5,38.904 173.38,39.894 174.24,40.384 C174.49,39.764 175.22,40.134 175.72,40.014 C174.12,41.244 176.21,42.354 176.82,42.724 C175.1,42.354 174.98,44.814 175.1,45.304 C174.61,45.184 174.24,44.564 173.62,44.814 C173.38,45.304 173.01,45.924 172.76,46.534 C172.27,45.924 171.53,43.834 170.05,45.064 C170.91,43.834 169.81,42.354 168.58,42.104 C169.07,41.364 170.3,42.354 170.67,41.244" id="Fill-26" fill="#FFFFFF"></path>
            <path d="M204.4,148.724 C205.02,149.464 205.51,149.954 206.13,150.824 C205.39,151.684 204.9,151.924 204.4,152.663 C203.05,152.054 203.05,151.434 202.31,150.574 C202.8,149.464 203.66,149.583 204.4,148.724" id="Fill-27" fill="#FFFFFF"></path>
            <path d="M53.34,28.814 C53.95,29.424 55.18,29.424 55.18,30.533 C54.45,31.514 54.57,32.014 53.34,32.624 C52.48,31.884 52.35,31.514 51.61,30.533 C52.23,29.424 52.72,29.674 53.34,28.814" id="Fill-28" fill="#FFFFFF"></path>
            <path d="M97.04,50.974 L97.74,53.844 C85.06,56.854 73.49,64.014 64.91,74.614 C63.37,76.434 61.97,78.384 60.7,80.444 L58.38,78.794 C58.02,75.104 55.799,71.404 54.569,67.834 C58.02,67.344 61.83,68.824 65.77,68.704 L65.77,67.834 C62.689,61.924 59.99,55.774 57.15,49.744 L74.88,60.694 L75.5,60.084 L75.5,49.494 C78.95,51.094 82.02,53.434 85.589,54.784 C86.46,49.984 86.089,44.564 87.069,39.764 L97.04,50.974" id="Fill-29" fill="#FFFFFF"></path>
            <path d="M166.78,131.833 C172.04,117.214 171.44,99.574 165.07,86.114 L167.47,84.954 L167.96,85.564 L182.73,86.434 C179.41,90.004 174.85,92.834 171.53,96.774 L182.24,101.204 C179.53,104.154 175.96,105.754 173.01,108.594 C179.41,111.544 186.18,113.514 192.83,115.974 C186.43,117.454 179.41,118.934 172.76,120.413 L172.76,121.024 L180.76,129.024 C177.07,130.384 173.01,130.874 169.44,132.474 L166.78,131.833" id="Fill-30" fill="#FFFFFF"></path>
            <path d="M130.78,58.974 C129.05,59.714 131.39,60.324 131.02,61.314 L131.39,63.654 C128.19,63.894 125.24,61.434 124.01,58.974 C121.54,58.234 119.21,56.514 116.62,57.124 C117.11,58.604 119.08,57.984 119.82,59.224 C118.96,59.834 117.6,57.624 116.25,58.604 C118.47,59.094 118.59,61.804 120.19,62.794 L120.19,63.654 C118.59,63.774 116.37,62.054 115.39,64.024 C118.22,63.774 120.07,67.714 122.78,65.994 C124.87,69.194 129.42,69.074 131.02,72.884 L130.78,73.134 C131.64,73.994 133.36,73.624 133.73,75.224 C132.38,76.214 131.15,73.874 129.92,75.474 C130.53,77.194 128.07,77.934 126.96,78.794 C125.48,78.424 124.38,79.044 123.39,79.904 C124.38,81.994 121.91,81.754 121.05,82.614 C120.44,84.334 118.47,85.934 119.21,87.904 C117.85,89.754 114.4,90.244 114.28,93.204 C114.77,95.044 115.63,96.774 115.76,98.864 C112.68,98.244 114.65,93.204 110.71,93.814 L110.71,93.574 C107.14,91.474 105.42,96.154 101.48,94.064 C96.43,94.434 97.91,100.094 96.8,103.294 C97.66,105.024 98.77,107.114 100.37,108.344 C104.8,109.944 103.57,102.924 107.76,104.404 C108.12,106.374 105.54,108.714 107.76,110.684 C109.48,109.944 111.2,110.684 112.19,112.163 C112.8,114.504 110.34,117.204 113.66,118.934 C115.06,117.774 116.46,118.074 117.75,118.484 L117.72,118.594 L117.71,118.594 L117.61,118.904 C116.14,118.564 114.2,121.913 112.19,119.174 C108.86,118.684 109.23,114.504 105.91,113.634 C103.2,112.774 101.11,111.913 99.14,109.824 C98.4,109.694 97.91,110.314 97.04,110.064 C94.58,107.604 87.93,106.254 89.41,101.204 C86.58,98.124 85.35,94.554 84.73,90.614 C84.24,90.244 83.99,89.634 83.5,89.634 C81.9,92.464 83.87,95.174 84.12,98.004 C81.53,94.554 83.25,89.384 80.3,86.184 C79.68,81.994 80.79,78.054 84.12,76.084 L84.36,76.334 C85.47,75.714 83.5,74.854 84.98,74.364 C83.13,73.374 84.73,71.044 84.36,69.314 C85.22,67.344 86.46,65.134 85.59,62.794 C83.25,60.944 81.53,64.264 79.07,64.024 C81.41,64.024 81.16,61.194 82.89,60.454 C94.3,53.674 109.55,51.044 123.31,53.884 C124.54,54.144 125.76,54.444 126.96,54.784 C128.81,55.894 128.69,58.114 130.78,58.974 M114.53,77.814 C113.05,79.654 112.19,76.704 110.96,76.084 C110.34,76.214 109.85,77.194 109.23,76.334 C109.48,76.084 109.97,75.714 109.85,75.224 C108.86,74.984 108.12,75.714 107.14,74.854 L107.14,76.334 C107.76,77.074 109.11,76.084 109.48,77.314 C109.85,78.054 108.86,78.304 108.62,78.794 C109.36,79.414 108.37,80.884 109.48,81.134 C109.11,79.534 109.97,78.304 110.96,77.564 C112.68,77.814 113.3,79.654 113.3,81.134 C113.91,80.764 113.54,80.154 113.66,79.654 C114.16,79.284 114.4,78.424 115.14,78.794 L115.14,78.184 C114.9,78.054 114.77,77.814 114.53,77.814 M115.14,66.604 C116.87,62.424 110.83,64.884 110.34,62.544 C109.23,64.144 107.02,63.654 106.28,65.504 C105.66,68.824 110.22,68.334 112.43,69.564 C113.3,70.424 113.42,71.904 114.77,71.904 C115.02,70.674 115.39,69.564 116.62,68.704 C116.74,67.714 115.63,67.344 115.14,66.604" id="Fill-31" fill="#FFFFFF"></path>
            <path d="M148.26,126.074 C151.95,125.083 155.03,127.554 158.6,127.793 C158.6,132.843 154.17,136.904 153.19,141.953 C149.12,147.373 142.97,150.824 138.78,156.484 C137.43,157.964 135.09,158.453 133.12,158.203 C133.24,158.703 133.36,159.064 133.73,159.433 C132.13,161.404 129.42,160.673 127.82,162.644 C125.73,162.144 125.73,164.854 124.01,165.343 C123.76,167.074 119.94,166.214 121.67,168.304 C121.52,168.453 121.38,168.534 121.24,168.564 C120.23,168.784 119.47,166.384 118.71,168.543 C117.97,168.423 116.62,168.913 116.87,167.683 C117.48,165.964 119.94,164.484 120.19,162.394 C123.88,159.564 123.51,155.123 125.73,151.683 L125.73,147.253 C119.33,146.013 118.96,138.384 114.77,134.564 C117.48,133.214 113.42,131.243 116,129.894 C116.87,126.933 120.93,124.843 118.96,121.024 C118.58,119.593 118.12,119.024 117.61,118.904 L117.71,118.593 L117.72,118.593 L117.75,118.484 C119.75,119.123 121.48,120.043 122.53,116.224 L125.48,115.114 C125.61,115.974 124.99,117.203 126.1,117.703 C126.35,117.453 126.84,117.083 126.59,116.593 L126.35,116.224 C128.19,113.763 129.67,117.333 132.01,116.593 C137.67,113.884 139.27,122.623 144.94,120.654 C147.4,121.884 146.29,124.593 148.26,126.074" id="Fill-32" fill="#FFFFFF"></path>
            <path d="M114.53,201.054 C114.4,201.423 113.91,201.423 113.66,201.423 C114.28,200.564 113.66,199.574 112.8,199.324 C113.05,198.964 113.66,198.964 113.91,198.464 L113.91,197.484 C114.65,198.464 115.51,197.234 115.76,196.623 C116.13,196.993 116.13,197.484 116.62,197.854 L117.48,197.854 C117.36,198.593 117.48,199.453 118.34,199.574 L117.24,200.804 L117.48,201.054 C116.99,201.423 115.63,201.423 115.39,202.534 C115.14,202.034 115.14,201.423 114.53,201.054" id="Fill-33" fill="#FFFFFF"></path>
            <path d="M154.66,54.174 C154.79,58.114 153.43,61.564 153.56,65.504 L155.03,65.504 C160.7,62.294 166.73,59.834 172.39,56.884 C169.44,63.163 164.88,68.824 161.56,74.854 L173.01,75.223 C171.78,78.674 169.31,81.754 167.47,84.953 L165.07,86.114 C164.89,85.723 164.7,85.334 164.51,84.953 C158.11,71.534 144.2,60.203 130.78,55.404 C128.33,54.584 125.87,53.924 123.4,53.434 C114.73,51.674 106,51.874 97.74,53.844 L97.04,50.973 C99.26,47.524 100,43.584 101.85,40.013 C104.55,42.964 106.28,46.533 109.23,49.243 C111.82,42.964 113.54,36.324 116,30.044 C117.73,36.324 119.57,43.214 121.3,49.743 L129.3,42.104 C130.53,45.434 131.64,49.374 132.87,53.064 L133.49,53.064 L144.69,43.334 C144.94,47.774 144.32,53.314 143.83,58.114 L144.32,58.604 L154.66,54.174" id="Fill-34" fill="#FFFFFF"></path>
            <path d="M120.44,104.774 C121.05,105.144 119.7,105.024 119.21,105.024 C117.85,103.294 115.76,103.054 113.91,102.434 C116.37,102.554 118.71,103.054 120.44,104.774" id="Fill-35" fill="#FFFFFF"></path>
            <path d="M157.99,186.034 C158.11,185.543 158.85,185.173 158.6,184.554 L156.76,183.324 C157.49,183.074 158.48,183.324 158.85,182.463 C158.73,181.963 158.48,181.603 158.6,180.984 C158.97,181.353 159.71,181.103 160.08,181.603 L161.19,179.503 C161.8,179.873 161.31,180.864 161.8,181.234 L163.9,181.234 C163.65,181.843 163.04,182.333 163.28,183.074 C163.9,183.324 164.51,183.694 165.01,183.933 C164.76,184.804 162.05,184.433 163.28,186.034 L163.28,186.644 C162.23,185.364 161.08,186.503 160.64,187.564 C160.75,186.763 158.89,185.353 157.99,186.034" id="Fill-36" fill="#FFFFFF"></path>
            <path d="M207.6,125.704 C208.1,125.214 208.71,126.195 209.33,126.074 L210.31,124.224 L211.79,126.324 C211.91,125.824 212.53,126.074 212.9,126.074 C212.04,127.054 213.14,128.294 214.13,128.654 C214.01,129.154 211.17,129.524 212.65,131.365 C211.3,129.764 210.19,131.734 209.7,132.474 C210.07,130.754 207.97,130.624 207.36,130.754 C208.96,129.524 206.87,128.534 206.13,128.044 C206.62,127.924 208.71,127.554 207.85,126.074 L207.6,125.704" id="Fill-37" fill="#FFFFFF"></path>
            <path d="M52.23,176.304 C52.97,175.324 53.34,175.194 54.2,174.453 C55.43,175.074 55.06,175.694 56.05,176.554 C55.8,176.423 55.55,176.673 55.43,176.794 C56.17,178.394 53.83,177.534 53.95,178.024 C52.97,177.294 52.97,177.163 52.23,176.304" id="Fill-38" fill="#FFFFFF"></path>
            <path d="M30.07,105.634 C36.72,103.784 43.49,102.554 50.14,100.583 L42.38,92.953 C45.58,90.984 50.01,91.103 53.34,89.134 L43.36,78.183 C47.92,77.933 53.34,78.554 58.38,78.793 L60.7,80.444 C51.18,96.024 49.65,117.913 57.15,134.324 C57.38,134.873 57.62,135.423 57.87,135.974 L55.18,136.904 L54.57,136.413 L39.42,135.183 C43.36,131.734 47.8,128.534 51,124.843 C47.55,123.364 44.1,121.884 40.66,120.413 L49.52,113.263 L48.04,112.163 C42.01,109.944 35.85,108.223 30.07,105.634" id="Fill-39" fill="#FFFFFF"></path>
            <path d="M106.28,204.374 C105.29,203.514 105.29,203.144 104.43,202.284 C105.29,201.294 105.29,201.294 106.28,200.434 C107.39,201.054 107.26,201.544 108,202.534 C107.63,203.764 106.4,203.024 106.28,204.374" id="Fill-40" fill="#FFFFFF"></path>
            <path d="M191.97,167.684 L190.74,166.824 C191.48,167.074 191.72,166.214 192.21,165.964 C191.84,165.714 191.97,165.344 191.97,164.974 C192.71,165.714 193.81,164.974 194.06,164.114 C194.18,164.974 194.8,165.594 195.78,165.344 C195.42,166.583 196.4,166.704 197.02,167.444 C196.52,167.684 195.91,167.684 195.54,168.304 L195.78,169.163 C194.92,168.544 193.94,169.163 193.69,170.024 C193.57,170.264 193,168.234 191.76,168.824 C192.14,168.544 191.85,168.014 191.97,167.684" id="Fill-41" fill="#FFFFFF"></path>
            <path d="M68.48,167.934 C68.23,164.484 68.85,159.684 68.97,156.114 C62.69,158.454 56.78,162.024 50.75,164.974 L50.75,164.114 L61.34,147.253 L60.72,146.753 L49.52,146.384 L55.18,136.904 L57.87,135.974 C65.67,152.904 83.21,165.944 100.98,169.163 C101.29,169.214 101.6,169.264 101.91,169.304 L101.48,172.124 C98.52,174.333 96.06,177.904 92.98,179.753 C92.37,175.934 90.76,172.484 89.66,168.913 L78.21,178.274 C77.96,173.844 78.58,168.423 78.82,163.503 C75.38,164.114 71.93,166.454 68.48,167.934" id="Fill-42" fill="#FFFFFF"></path>
            <path d="M134.35,59.594 C134.96,59.344 135.33,59.953 135.83,60.083 C135.58,60.694 134.47,59.833 134.35,59.594" id="Fill-43" fill="#FFFFFF"></path>
            <path d="M92.98,19.704 C93.84,20.314 94.09,20.684 94.7,21.674 C94.21,22.534 93.47,22.534 92.61,23.144 L91.5,22.284 L91.75,22.034 L91.13,21.424 C92,20.804 91.87,20.194 92.98,19.704" id="Fill-44" fill="#FFFFFF"></path>
            <path d="M160.64,187.564 C160.63,187.634 160.61,187.694 160.57,187.753 C160.59,187.694 160.61,187.634 160.64,187.564" id="Fill-45" fill="#FFFFFF"></path>
            <path d="M170.42,193.413 L171.28,192.554 L170.91,192.184 C171.41,192.184 172.27,192.314 172.15,191.574 C173.13,192.314 173.62,192.184 174.24,193.413 C173.62,194.524 173.13,194.404 172.15,195.144 C171.16,194.404 171.16,194.284 170.42,193.413" id="Fill-46" fill="#FFFFFF"></path>
            <path d="M68.97,40.384 C68.6,40.993 68.36,42.603 69.59,42.723 C69.96,42.723 70.33,42.603 70.45,42.964 C69.34,43.464 68.11,44.203 68.97,45.674 C68.23,45.924 67.99,45.064 67.25,45.304 L66.39,46.784 C65.77,46.784 65.4,44.324 63.68,45.674 C64.29,44.814 64.05,43.214 62.82,42.964 L62.2,42.964 L64.29,41.864 L63.68,40.384 C64.42,40.754 66.02,40.993 66.02,39.763 L66.39,38.904 C67,39.643 67.37,41.493 68.97,40.384" id="Fill-47" fill="#FFFFFF"></path>
            <path d="M134.96,189.843 C136.2,190.464 135.83,191.083 136.69,191.944 C136.2,192.923 135.33,192.804 134.59,193.663 C134.23,192.314 133.12,192.804 133.12,191.324 C133.86,190.714 134.1,190.583 134.96,189.843" id="Fill-48" fill="#FFFFFF"></path>
            <path d="M189.63,139.614 C189.75,139.243 190.12,139.373 190.49,139.373 C189.75,140.104 190.49,141.093 191.35,141.343 C190.37,141.583 190,142.944 190.12,143.433 C190,142.944 189.38,143.314 189.01,143.183 L188.4,144.044 L187.17,142.814 C187.04,143.183 186.67,143.183 186.3,143.183 C187.17,142.444 186.18,141.343 185.44,141.093 C186.55,141.214 186.67,139.984 186.67,139.003 C186.8,139.614 187.41,139.243 187.78,139.373 L188.64,138.134 C188.4,138.873 189.26,139.123 189.63,139.614" id="Fill-49" fill="#FFFFFF"></path>
            <path d="M18.74,77.564 C17.58,78.504 18.61,79.984 19.77,80.244 C18.34,80.074 18.01,82.033 18.25,82.854 C17.63,82.734 17.14,81.994 16.4,82.244 L15.54,84.094 C14.8,83.594 15.79,82.364 14.68,81.994 L13.2,82.244 C14.19,81.014 12.71,80.024 11.72,79.654 C12.09,79.044 13.08,79.533 13.45,79.044 L13.45,76.944 C14.06,77.194 14.43,77.814 15.29,77.564 L16.16,75.844 C16.28,76.334 16.89,78.674 18.25,77.564 L18.74,77.564" id="Fill-50" fill="#FFFFFF"></path>
            <path d="M113.66,79.654 C113.54,80.154 113.91,80.764 113.3,81.134 C113.3,79.654 112.68,77.814 110.96,77.564 C109.97,78.304 109.11,79.533 109.48,81.134 C108.37,80.884 109.36,79.414 108.62,78.794 C108.86,78.304 109.85,78.054 109.48,77.314 C109.11,76.084 107.76,77.074 107.14,76.334 L107.14,74.854 C108.12,75.714 108.86,74.984 109.85,75.224 C109.97,75.714 109.48,76.084 109.23,76.334 C109.85,77.194 110.34,76.214 110.96,76.084 C112.19,76.703 113.05,79.654 114.53,77.814 C114.77,77.814 114.9,78.054 115.14,78.184 L115.14,78.794 C114.4,78.424 114.16,79.283 113.66,79.654" id="Fill-51" fill="#0A0A08"></path>
            <path d="M136.93,110.314 L137.3,111.173 L136.93,111.294 L136.69,110.314 L136.93,110.314" id="Fill-52" fill="#FFFFFF"></path>
            <path d="M42.08,62.664 C41.87,63.314 42.76,63.554 43,64.024 C43.24,63.654 43.61,63.654 43.86,63.654 C42.87,64.764 44.47,65.004 44.84,65.744 C44.35,65.994 43.61,65.864 43.61,66.604 L43.61,67.464 C42.5,66.484 42.26,68.084 41.52,68.454 C41.27,67.964 41.39,67.224 40.66,67.224 L39.79,67.224 C40.78,66.114 39.18,65.864 38.93,65.134 C39.42,65.374 39.669,64.884 40.04,64.514 L40.04,63.404 C40.74,64.104 41.77,63.374 42.08,62.664" id="Fill-53" fill="#FFFFFF"></path>
            <path d="M142.35,29.674 L142.6,29.424 C143.21,29.674 142.6,31.144 143.83,31.144 L142.6,32.624 L142.84,32.993 C142.23,32.993 141.24,33.364 140.87,34.473 C140.5,33.984 140.5,33.364 139.89,32.993 L139.03,33.243 C139.03,32.624 139.15,31.884 138.41,31.513 L138.17,31.513 L139.4,30.044 L139.03,29.674 C139.64,29.184 140.5,29.794 140.87,28.564 L142.35,29.674" id="Fill-54" fill="#FFFFFF"></path>
            <g id="Group-58">
                <mask id="mask-2" fill="white">
                    <use xlink:href="#path-1"></use>
                </mask>
                <g id="Clip-56"></g>
                <path d="M193.08,96.524 C193.94,96.033 193.81,95.544 194.92,95.294 C196.28,96.154 196.03,95.784 196.65,97.384 L194.55,98.864 C194.18,97.514 193.2,98.004 193.08,96.524" id="Fill-55" fill="#FFFFFF" mask="url(#mask-2)"></path>
                <path d="M190.49,139.374 C190.12,139.374 189.75,139.243 189.63,139.614 C189.26,139.124 188.4,138.874 188.64,138.134 L187.78,139.374 C187.41,139.243 186.8,139.614 186.67,139.003 C186.67,139.984 186.55,141.214 185.44,141.094 C186.18,141.344 187.17,142.444 186.3,143.184 C186.67,143.184 187.04,143.184 187.17,142.814 L188.4,144.044 L189.01,143.184 C189.38,143.314 190,142.944 190.12,143.434 C190,142.944 190.37,141.583 191.35,141.344 C190.49,141.094 189.75,140.104 190.49,139.374 L190.49,139.374 Z M173.01,108.594 C175.96,105.754 179.53,104.154 182.24,101.204 L171.53,96.774 C174.85,92.834 179.41,90.004 182.73,86.434 L167.96,85.564 L167.47,84.954 C169.31,81.754 171.78,78.674 173.01,75.224 L161.56,74.854 C164.88,68.824 169.44,63.164 172.39,56.884 C166.73,59.834 160.7,62.294 155.03,65.504 L153.56,65.504 C153.43,61.564 154.79,58.114 154.66,54.174 L144.32,58.604 L143.83,58.114 C144.32,53.314 144.94,47.774 144.69,43.334 L133.49,53.064 L132.87,53.064 C131.64,49.374 130.53,45.434 129.3,42.104 L121.3,49.744 C119.57,43.214 117.73,36.324 116,30.044 C113.54,36.324 111.82,42.964 109.23,49.244 C106.28,46.534 104.55,42.964 101.85,40.014 C100,43.584 99.26,47.524 97.04,50.974 L87.07,39.764 C86.09,44.564 86.46,49.984 85.59,54.784 C82.02,53.434 78.95,51.094 75.5,49.494 L75.5,60.084 L74.88,60.694 L57.15,49.744 C59.99,55.774 62.69,61.924 65.77,67.834 L65.77,68.704 C61.83,68.824 58.02,67.344 54.57,67.834 C55.8,71.404 58.02,75.104 58.38,78.794 C53.34,78.554 47.92,77.934 43.36,78.184 L53.34,89.134 C50.01,91.104 45.58,90.984 42.38,92.954 L50.14,100.584 C43.49,102.554 36.72,103.784 30.07,105.634 C35.85,108.224 42.01,109.944 48.04,112.163 L49.52,113.264 L40.66,120.413 C44.1,121.884 47.55,123.364 51,124.844 C47.8,128.534 43.36,131.734 39.42,135.184 L54.57,136.413 L55.18,136.904 L49.52,146.384 L60.72,146.753 L61.34,147.253 L50.75,164.114 L50.75,164.974 C56.78,162.024 62.69,158.454 68.97,156.114 C68.85,159.684 68.23,164.484 68.48,167.934 C71.93,166.454 75.38,164.114 78.82,163.503 C78.58,168.423 77.96,173.844 78.21,178.274 L89.66,168.913 C90.76,172.484 92.37,175.934 92.98,179.753 C96.06,177.904 98.52,174.333 101.48,172.124 C103.69,178.394 104.43,185.544 106.52,191.574 C109.36,185.544 110.34,178.644 113.66,172.984 C116.13,176.064 118.59,179.134 121.05,182.214 C122.65,178.524 123.76,174.824 125.48,171.253 C128.81,174.333 132.5,178.394 135.46,182.214 L136.07,182.214 L136.69,168.913 L137.55,167.074 C140.87,169.284 144.2,171.134 147.65,172.984 L147.65,161.534 C153.8,164.243 159.1,169.044 165.01,172.124 C162.67,165.714 159.34,159.684 156.51,153.524 L157.13,152.913 L167.96,154.394 C167.47,150.454 164.51,147.003 164.51,143.184 C169.31,143.554 174.49,144.294 179.29,144.044 C176.33,140.104 172.15,136.663 169.44,132.474 C173.01,130.874 177.07,130.384 180.76,129.024 L172.76,121.024 L172.76,120.413 C179.41,118.934 186.43,117.454 192.83,115.974 C186.18,113.514 179.41,111.544 173.01,108.594 L173.01,108.594 Z M118.34,199.574 C117.48,199.454 117.36,198.594 117.48,197.854 L116.62,197.854 C116.13,197.484 116.13,196.993 115.76,196.624 C115.51,197.234 114.65,198.464 113.91,197.484 L113.91,198.464 C113.66,198.964 113.05,198.964 112.8,199.324 C113.66,199.574 114.28,200.564 113.66,201.423 C113.91,201.423 114.4,201.423 114.53,201.054 C115.14,201.423 115.14,202.034 115.39,202.534 C115.63,201.423 116.99,201.423 117.48,201.054 L117.24,200.804 L118.34,199.574 L118.34,199.574 Z M86.7,187.503 L86.46,186.644 C86.83,186.034 87.44,186.034 87.93,185.663 C86.33,183.934 86.21,184.304 84.98,182.464 L84.36,183.694 C84.01,183.583 83.46,183.894 83.28,183.423 C83.67,184.673 82.26,184.694 82.02,185.413 C82.52,185.413 82.76,186.034 83.25,186.274 C82.89,186.524 82.89,186.894 82.89,187.144 L83.75,187.144 C84.24,187.503 84.24,188.003 84.73,188.374 C84.98,187.503 85.96,186.774 86.7,187.503 L86.7,187.503 Z M66.02,39.764 C66.02,40.994 64.42,40.754 63.68,40.384 L64.29,41.864 L62.2,42.964 L62.82,42.964 C64.05,43.214 64.29,44.814 63.68,45.674 C65.4,44.324 65.77,46.784 66.39,46.784 L67.25,45.304 C67.99,45.064 68.23,45.924 68.97,45.674 C68.11,44.204 69.34,43.464 70.45,42.964 C70.33,42.604 69.96,42.724 69.59,42.724 C68.36,42.604 68.6,40.994 68.97,40.384 C67.37,41.494 67,39.644 66.39,38.904 L66.02,39.764 L66.02,39.764 Z M170.42,39.394 C170.42,40.014 170.3,40.754 170.67,41.244 C170.3,42.354 169.07,41.364 168.58,42.104 C169.81,42.354 170.91,43.834 170.05,45.064 C171.53,43.834 172.27,45.924 172.76,46.534 C173.01,45.924 173.38,45.304 173.62,44.814 C174.24,44.564 174.61,45.184 175.1,45.304 C174.98,44.814 175.1,42.354 176.82,42.724 C176.21,42.354 174.12,41.244 175.72,40.014 C175.22,40.134 174.49,39.764 174.24,40.384 C173.38,39.894 173.5,38.904 173.01,38.294 L171.9,40.014 C171.16,40.264 170.91,39.644 170.42,39.394 L170.42,39.394 Z M148.26,208.804 C147.65,208.444 147.65,207.824 147.28,207.333 C147.03,208.074 146.17,208.804 145.31,208.444 L145.55,208.804 C145.8,209.673 144.57,210.044 144.32,210.284 C145.43,210.284 145.18,211.514 145.31,212.253 C146.41,211.024 146.78,213.614 147.03,213.243 C147.28,211.764 148.63,212.374 149.12,212.014 L148.75,211.764 L149.98,210.284 L149.74,210.284 C149,209.913 149.12,209.173 149.12,208.444 C148.75,208.444 148.38,208.444 148.26,208.804 L148.26,208.804 Z M75.5,14.894 C75.38,15.264 75.74,15.884 75.25,16.124 L76.36,16.124 C76.85,16.374 76.85,16.994 77.34,17.234 L78.21,16.124 C78.45,16.124 78.95,16.004 79.07,16.374 L79.31,14.894 C79.93,15.144 80.05,14.524 80.55,14.654 L79.31,13.794 C79.44,13.294 79.07,12.804 79.68,12.554 C78.7,12.684 77.47,12.554 77.59,11.324 C77.34,12.194 76.36,12.924 75.5,12.314 L75.87,13.174 C75.5,13.794 74.88,13.794 74.39,14.034 L75.5,14.894 L75.5,14.894 Z M94.7,21.674 C94.09,20.684 93.84,20.314 92.98,19.704 C91.87,20.194 92,20.804 91.13,21.424 L91.75,22.034 L91.5,22.284 L92.61,23.144 C93.47,22.534 94.21,22.534 94.7,21.674 L94.7,21.674 Z M92.61,209.304 C91.63,209.794 91.38,210.654 91.13,211.144 C91.38,212.253 92,212.014 92.61,212.874 C93.6,212.134 94.09,212.253 94.7,211.144 C94.09,209.913 93.6,210.044 92.61,209.304 L92.61,209.304 Z M171.28,161.163 C170.3,160.054 170.79,159.934 169.81,159.064 C168.7,159.804 168.33,160.054 167.71,160.913 L168.33,161.534 L167.96,161.774 C168.21,162.144 169.19,162.274 169.19,163.003 C170.05,162.024 170.67,162.394 171.28,161.163 L171.28,161.163 Z M130.16,7.514 C129.05,7.144 130.04,6.034 129.3,5.414 C129.05,6.774 127.58,7.884 126.35,6.894 C127.33,8.374 125.85,9.484 124.87,9.604 C125.48,9.854 126.1,10.214 126.59,10.464 C126.84,11.204 126.22,11.454 126.1,11.944 C126.96,11.574 128.69,12.434 128.69,14.034 L129.55,12.314 C130.16,12.314 130.9,12.194 131.39,12.554 C131.52,11.944 131.27,11.574 131.02,11.084 C131.52,10.214 132.5,10.464 133.12,10.214 L131.39,8.984 C131.39,8.374 131.76,7.264 131.64,7.264 L130.16,7.514 L130.16,7.514 Z M171.28,192.554 L170.42,193.413 C171.16,194.284 171.16,194.404 172.15,195.144 C173.13,194.404 173.62,194.524 174.24,193.413 C173.62,192.184 173.13,192.314 172.15,191.574 C172.27,192.314 171.41,192.184 170.91,192.184 L171.28,192.554 L171.28,192.554 Z M179.78,74.614 L179.78,75.474 C179.9,76.214 179.04,76.084 178.67,76.334 C178.92,77.074 180.52,77.314 179.53,78.424 C180.52,78.054 181.5,79.044 181.63,79.654 L181.63,79.284 C182.12,78.924 182.73,77.934 183.35,78.794 C182.86,77.444 184.21,77.444 184.58,76.704 C184.09,76.704 183.72,76.084 183.35,75.844 C183.72,75.594 183.72,75.224 183.72,74.854 C182.36,75.474 182.36,73.994 181.63,73.744 C181.63,74.614 180.52,75.344 179.78,74.614 L179.78,74.614 Z M200.46,177.413 C172.27,214.104 128.32,229.493 83.5,218.534 C48.41,210.413 12.95,177.534 4.58,141.954 C-7.85,99.974 5.69,57.254 37.09,28.564 C66.51,2.344 111.2,-7.386 149.12,7.264 C173.62,15.394 197.88,36.694 209.94,60.454 C229.89,95.044 224.96,146.514 200.46,177.413 L200.46,177.413 Z M30.93,170.644 C31.05,170.274 30.68,169.654 31.18,169.413 C30.31,169.534 29.08,169.413 29.08,168.304 C28.96,168.913 28.1,170.024 27.36,169.163 L27.36,170.024 C27.11,170.514 26.5,170.514 26.13,170.884 C27.24,171.014 26.99,172.243 27.11,172.984 L27.97,172.984 C28.47,173.354 28.47,173.844 28.84,174.214 L29.7,172.984 C30.07,172.984 30.44,172.984 30.56,173.354 C30.07,171.993 31.55,171.993 31.79,171.253 C31.42,171.384 31.18,170.884 30.93,170.644 L30.93,170.644 Z M24.4,124.224 C23.67,123.984 22.68,122.993 23.54,122.134 C23.17,122.134 22.8,122.134 22.68,122.503 C22.31,122.014 21.45,121.764 21.7,121.024 L20.83,122.134 C20.46,122.134 19.85,122.384 19.73,121.884 L19.73,123.114 C19.36,123.364 18.99,123.854 18.49,123.614 C18.74,124.354 20.46,124.594 19.36,125.704 L20.22,125.704 C20.96,125.704 20.83,126.564 21.2,126.934 C21.33,126.074 22.43,125.214 23.17,126.074 L23.17,125.083 C23.17,124.354 24.03,124.594 24.4,124.224 L24.4,124.224 Z M33.51,143.804 C33.76,144.294 33.51,146.753 31.79,146.384 C32.9,146.753 34.25,147.984 33.02,149.094 C34.62,147.493 35.49,150.574 35.61,150.574 L36.47,149.094 C37.33,148.724 38.19,149.714 38.32,149.344 C37.21,148.114 38.81,147.374 39.79,147.003 C39.67,146.634 37.33,145.524 38.56,144.044 L38.32,144.294 C36.47,145.774 36.72,142.944 35.98,142.574 L34.99,144.294 C34.38,144.544 34.01,143.923 33.51,143.804 L33.51,143.804 Z M43.86,63.654 C43.61,63.654 43.24,63.654 43,64.024 C42.76,63.554 41.87,63.314 42.08,62.664 C41.77,63.374 40.74,64.104 40.04,63.404 L40.04,64.514 C39.67,64.884 39.42,65.374 38.93,65.134 C39.18,65.864 40.78,66.114 39.79,67.224 L40.66,67.224 C41.39,67.224 41.27,67.964 41.52,68.454 C42.26,68.084 42.5,66.484 43.61,67.464 L43.61,66.604 C43.61,65.864 44.35,65.994 44.84,65.744 C44.47,65.004 42.87,64.764 43.86,63.654 L43.86,63.654 Z M14.68,81.994 C15.79,82.364 14.8,83.594 15.54,84.094 L16.4,82.244 C17.14,81.994 17.63,82.734 18.25,82.854 C18.01,82.034 18.34,80.074 19.77,80.244 C18.61,79.984 17.58,78.504 18.74,77.564 L18.25,77.564 C16.89,78.674 16.28,76.334 16.16,75.844 L15.29,77.564 C14.43,77.814 14.06,77.194 13.45,76.944 L13.45,79.044 C13.08,79.534 12.09,79.044 11.72,79.654 C12.71,80.024 14.19,81.014 13.2,82.244 L14.68,81.994 L14.68,81.994 Z M64.29,196.374 C62.57,197.724 62.32,195.144 61.59,194.524 L60.48,196.624 C59.99,196.493 59.62,195.753 59,196.003 C60.23,197.484 58.14,198.224 57.52,198.714 C58.14,198.964 58.63,199.324 59.25,199.574 C59.49,200.314 58.88,200.564 58.63,201.054 C59.25,200.923 61.71,201.054 61.34,202.904 L62.82,201.054 C63.19,201.173 63.93,202.163 64.05,201.423 C62.45,199.574 65.53,199.454 65.53,198.964 C64.29,198.714 63.56,197.484 64.29,196.374 L64.29,196.374 Z M53.95,178.024 C53.83,177.534 56.17,178.394 55.43,176.794 C55.55,176.673 55.8,176.423 56.05,176.554 C55.06,175.694 55.43,175.074 54.2,174.454 C53.34,175.194 52.97,175.324 52.23,176.304 C52.97,177.163 52.97,177.294 53.95,178.024 L53.95,178.024 Z M37.09,53.314 C35.98,53.924 36.22,54.544 35.36,55.154 C36.35,55.774 35.85,56.264 36.84,56.884 C37.7,56.264 38.32,56.264 38.93,55.404 C38.19,54.294 37.95,54.044 37.09,53.314 L37.09,53.314 Z M53.34,28.814 C52.72,29.674 52.23,29.424 51.61,30.534 C52.35,31.514 52.48,31.884 53.34,32.624 C54.57,32.014 54.45,31.514 55.18,30.534 C55.18,29.424 53.95,29.424 53.34,28.814 L53.34,28.814 Z M142.6,29.424 L142.35,29.674 L140.87,28.564 C140.5,29.794 139.64,29.184 139.03,29.674 L139.4,30.044 L138.17,31.514 L138.41,31.514 C139.15,31.884 139.03,32.624 139.03,33.244 L139.89,32.994 C140.5,33.364 140.5,33.984 140.87,34.474 C141.24,33.364 142.23,32.994 142.84,32.994 L142.6,32.624 L143.83,31.144 C142.6,31.144 143.21,29.674 142.6,29.424 L142.6,29.424 Z M193.69,53.314 C192.95,54.174 192.09,54.044 191.6,55.154 C192.46,56.024 192.46,56.384 193.45,57.124 C194.31,56.514 194.8,56.144 195.54,55.404 C194.55,54.544 194.92,53.924 193.69,53.314 L193.69,53.314 Z M191.97,167.684 C191.85,168.014 192.14,168.544 191.76,168.824 C193,168.234 193.57,170.264 193.69,170.024 C193.94,169.163 194.92,168.544 195.78,169.163 L195.54,168.304 C195.91,167.684 196.52,167.684 197.02,167.444 C196.4,166.704 195.42,166.583 195.78,165.344 C194.8,165.594 194.18,164.974 194.06,164.114 C193.81,164.974 192.71,165.714 191.97,164.974 C191.97,165.344 191.84,165.714 192.21,165.964 C191.72,166.214 191.48,167.074 190.74,166.824 L191.97,167.684 L191.97,167.684 Z M25.02,137.274 C23.91,137.774 23.67,138.634 23.54,139.003 C23.67,140.234 24.28,139.864 25.02,140.844 C25.76,139.984 26.37,140.104 26.74,139.003 C26.74,137.644 25.76,138.014 25.02,137.274 L25.02,137.274 Z M134.96,189.844 C134.1,190.583 133.86,190.714 133.12,191.324 C133.12,192.804 134.23,192.314 134.59,193.663 C135.33,192.804 136.2,192.923 136.69,191.944 C135.83,191.083 136.2,190.464 134.96,189.844 L134.96,189.844 Z M106.28,200.434 C105.29,201.294 105.29,201.294 104.43,202.284 C105.29,203.144 105.29,203.514 106.28,204.374 C106.4,203.024 107.63,203.764 108,202.534 C107.26,201.544 107.39,201.054 106.28,200.434 L106.28,200.434 Z M157.99,22.034 C157.37,22.904 156.76,22.654 156.14,23.764 C157,24.624 157,24.994 157.99,25.854 C158.85,25.244 159.34,24.744 160.08,24.134 C159.34,23.144 158.97,22.534 157.99,22.034 L157.99,22.034 Z M158.85,182.464 C158.48,183.324 157.49,183.074 156.76,183.324 L158.6,184.554 C158.85,185.173 158.11,185.544 157.99,186.034 C158.89,185.354 160.75,186.764 160.64,187.564 C160.61,187.634 160.59,187.694 160.57,187.753 C160.61,187.694 160.63,187.634 160.64,187.564 C161.08,186.503 162.23,185.364 163.28,186.644 L163.28,186.034 C162.05,184.434 164.76,184.804 165.01,183.934 C164.51,183.694 163.9,183.324 163.28,183.074 C163.04,182.333 163.65,181.844 163.9,181.234 L161.8,181.234 C161.31,180.864 161.8,179.874 161.19,179.503 L160.08,181.604 C159.71,181.104 158.97,181.354 158.6,180.984 C158.48,181.604 158.73,181.964 158.85,182.464 L158.85,182.464 Z M194.92,95.294 C193.81,95.544 193.94,96.034 193.08,96.524 C193.2,98.004 194.18,97.514 194.55,98.864 L196.65,97.384 C196.03,95.784 196.28,96.154 194.92,95.294 L194.92,95.294 Z M204.03,95.044 C203.91,95.414 204.28,95.914 203.79,96.154 L204.9,96.154 C205.39,96.524 205.39,97.014 205.88,97.384 C206.13,96.524 207.11,95.784 207.85,96.524 C206.87,95.294 208.47,95.044 208.84,94.434 L208.47,94.434 C207.73,94.064 207.97,93.324 207.85,92.584 L206.99,92.584 C206.5,92.334 206.5,91.844 206.13,91.474 C205.88,92.334 204.9,92.954 204.03,92.334 C204.03,92.704 204.03,93.074 204.4,93.204 L202.93,94.434 C203.3,94.554 203.79,94.554 204.03,95.044 L204.03,95.044 Z M206.13,150.824 C205.51,149.954 205.02,149.464 204.4,148.724 C203.66,149.583 202.8,149.464 202.31,150.574 C203.05,151.434 203.05,152.054 204.4,152.663 C204.9,151.923 205.39,151.684 206.13,150.824 L206.13,150.824 Z M207.36,130.753 C207.97,130.624 210.07,130.753 209.7,132.474 C210.19,131.734 211.3,129.764 212.65,131.364 C211.17,129.524 214.01,129.154 214.13,128.654 C213.14,128.294 212.04,127.054 212.9,126.074 C212.53,126.074 211.91,125.824 211.79,126.324 L210.31,124.224 L209.33,126.074 C208.71,126.194 208.1,125.214 207.6,125.704 L207.85,126.074 C208.71,127.554 206.62,127.923 206.13,128.044 C206.87,128.534 208.96,129.524 207.36,130.753 L207.36,130.753 Z" id="Fill-57" fill="#0A0A08" mask="url(#mask-2)"></path>
            </g>
            <path d="M25.02,137.274 C25.76,138.014 26.74,137.644 26.74,139.003 C26.37,140.104 25.76,139.984 25.02,140.843 C24.28,139.864 23.67,140.234 23.54,139.003 C23.67,138.634 23.91,137.774 25.02,137.274" id="Fill-59" fill="#FFFFFF"></path>
            <path d="M23.54,122.134 C22.68,122.993 23.67,123.984 24.399,124.224 C24.029,124.593 23.169,124.353 23.169,125.083 L23.169,126.074 C22.43,125.214 21.33,126.074 21.2,126.933 C20.83,126.564 20.96,125.703 20.22,125.703 L19.359,125.703 C20.46,124.593 18.74,124.353 18.49,123.614 C18.99,123.853 19.359,123.364 19.73,123.114 L19.73,121.884 C19.85,122.384 20.46,122.134 20.83,122.134 L21.7,121.024 C21.45,121.763 22.31,122.013 22.68,122.503 C22.799,122.134 23.169,122.134 23.54,122.134" id="Fill-60" fill="#FFFFFF"></path>
            <path d="M156.14,23.764 C156.76,22.654 157.37,22.904 157.99,22.034 C158.97,22.534 159.34,23.144 160.08,24.134 C159.34,24.744 158.85,25.244 157.99,25.854 C157,24.994 157,24.624 156.14,23.764" id="Fill-61" fill="#FFFFFF"></path>
            <path d="M92.61,209.304 C93.6,210.044 94.09,209.913 94.7,211.144 C94.09,212.253 93.6,212.134 92.61,212.873 C92,212.013 91.38,212.253 91.13,211.144 C91.38,210.654 91.63,209.794 92.61,209.304" id="Fill-62" fill="#FFFFFF"></path>
            <path d="M203.79,96.154 C204.279,95.914 203.91,95.414 204.029,95.044 C203.79,94.554 203.299,94.554 202.93,94.434 L204.4,93.203 C204.029,93.074 204.029,92.703 204.029,92.334 C204.9,92.953 205.88,92.334 206.13,91.474 C206.5,91.844 206.5,92.334 206.99,92.584 L207.85,92.584 C207.97,93.324 207.73,94.064 208.47,94.434 L208.839,94.434 C208.47,95.044 206.87,95.294 207.85,96.524 C207.11,95.784 206.13,96.524 205.88,97.384 C205.39,97.013 205.39,96.524 204.9,96.154 L203.79,96.154" id="Fill-63" fill="#FFFFFF"></path>
            <path d="M65.53,198.964 C65.53,199.453 62.45,199.574 64.05,201.423 C63.93,202.163 63.19,201.173 62.82,201.054 L61.34,202.904 C61.71,201.054 59.25,200.923 58.63,201.054 C58.88,200.564 59.49,200.314 59.25,199.574 C58.63,199.324 58.14,198.964 57.52,198.714 C58.14,198.224 60.23,197.484 59,196.003 C59.62,195.753 59.99,196.493 60.48,196.624 L61.59,194.524 C62.32,195.144 62.57,197.724 64.29,196.374 C63.56,197.484 64.29,198.714 65.53,198.964" id="Fill-64" fill="#FFFFFF"></path>
            <path d="M148.26,208.804 C148.38,208.444 148.75,208.444 149.12,208.444 C149.12,209.173 149,209.913 149.74,210.284 L149.98,210.284 L148.75,211.763 L149.12,212.013 C148.63,212.373 147.28,211.763 147.03,213.243 C146.78,213.614 146.41,211.024 145.31,212.253 C145.18,211.513 145.43,210.284 144.32,210.284 C144.57,210.044 145.8,209.673 145.55,208.804 L145.31,208.444 C146.17,208.804 147.03,208.074 147.28,207.333 C147.65,207.824 147.65,208.444 148.26,208.804" id="Fill-65" fill="#FFFFFF"></path>
            <path d="M31.79,146.384 C33.509,146.753 33.759,144.293 33.509,143.804 C34.009,143.923 34.38,144.543 34.99,144.293 L35.98,142.574 C36.72,142.944 36.47,145.774 38.319,144.293 L38.56,144.043 C37.33,145.524 39.669,146.634 39.79,147.003 C38.81,147.373 37.21,148.114 38.319,149.343 C38.189,149.714 37.33,148.724 36.47,149.093 L35.61,150.574 C35.49,150.574 34.62,147.493 33.02,149.093 C34.25,147.984 32.9,146.753 31.79,146.384" id="Fill-66" fill="#FFFFFF"></path>
            <path d="M37.09,53.314 C37.95,54.044 38.19,54.294 38.93,55.404 C38.32,56.264 37.7,56.264 36.84,56.884 C35.85,56.264 36.35,55.774 35.36,55.154 C36.22,54.544 35.98,53.924 37.09,53.314" id="Fill-67" fill="#FFFFFF"></path>
            <path d="M131.39,63.654 L131.02,61.314 C131.39,60.324 129.05,59.714 130.78,58.974 C128.69,58.114 128.81,55.894 126.96,54.783 C125.76,54.444 124.54,54.144 123.31,53.884 L123.4,53.434 C125.87,53.924 128.33,54.584 130.78,55.404 C144.2,60.203 158.11,71.534 164.51,84.953 C164.7,85.334 164.89,85.724 165.07,86.114 C171.44,99.574 172.04,117.214 166.78,131.833 C164.94,136.953 162.38,141.703 159.1,145.774 C149.26,158.694 136.15,166.734 121.34,169.194 L121.24,168.564 C121.38,168.534 121.52,168.453 121.67,168.304 C119.94,166.214 123.76,167.074 124.01,165.343 C125.73,164.854 125.73,162.144 127.82,162.644 C129.42,160.673 132.13,161.404 133.73,159.434 C133.36,159.064 133.24,158.703 133.12,158.203 C135.09,158.453 137.43,157.964 138.78,156.484 C142.97,150.824 149.12,147.374 153.19,141.953 C154.17,136.904 158.6,132.843 158.6,127.794 C155.03,127.554 151.95,125.083 148.26,126.074 C146.29,124.593 147.4,121.884 144.94,120.654 C139.27,122.624 137.67,113.884 132.01,116.593 C129.67,117.333 128.19,113.763 126.35,116.224 L126.59,116.593 C126.84,117.083 126.35,117.453 126.1,117.703 C124.99,117.203 125.61,115.974 125.48,115.114 L122.53,116.224 C121.48,120.044 119.75,119.124 117.75,118.484 C116.46,118.074 115.06,117.774 113.66,118.934 C110.34,117.203 112.8,114.503 112.19,112.163 C111.2,110.684 109.48,109.944 107.76,110.684 C105.54,108.714 108.12,106.374 107.76,104.404 C103.57,102.924 104.8,109.944 100.37,108.344 C98.77,107.114 97.66,105.024 96.8,103.294 C97.91,100.094 96.43,94.434 101.48,94.064 C105.42,96.154 107.14,91.474 110.71,93.574 L110.71,93.814 C114.65,93.203 112.68,98.243 115.76,98.864 C115.63,96.774 114.77,95.044 114.28,93.203 C114.4,90.243 117.85,89.754 119.21,87.904 C118.47,85.934 120.44,84.334 121.05,82.614 C121.91,81.754 124.38,81.993 123.39,79.904 C124.38,79.044 125.48,78.424 126.96,78.794 C128.07,77.934 130.53,77.194 129.92,75.474 C131.15,73.874 132.38,76.214 133.73,75.224 C133.36,73.624 131.64,73.993 130.78,73.134 L131.02,72.884 C129.42,69.074 124.87,69.194 122.78,65.993 C120.07,67.714 118.22,63.774 115.39,64.024 C116.37,62.054 118.59,63.774 120.19,63.654 L120.19,62.794 C118.59,61.804 118.47,59.094 116.25,58.604 C117.6,57.624 118.96,59.834 119.82,59.224 C119.08,57.984 117.11,58.604 116.62,57.124 C119.21,56.513 121.54,58.234 124.01,58.974 C125.24,61.434 128.19,63.894 131.39,63.654 M120.44,104.774 C118.71,103.054 116.37,102.554 113.91,102.434 C115.76,103.054 117.85,103.294 119.21,105.024 C119.7,105.024 121.05,105.144 120.44,104.774 M135.83,60.084 C135.33,59.953 134.96,59.344 134.35,59.594 C134.47,59.834 135.58,60.694 135.83,60.084 M136.93,110.314 L136.69,110.314 L136.93,111.294 L137.3,111.173 L136.93,110.314" id="Fill-68" fill="#0A0A08"></path>
            <path d="M147.65,161.534 L147.65,172.984 C144.2,171.134 140.87,169.284 137.55,167.074 L136.69,168.913 L136.07,182.213 L135.46,182.213 C132.5,178.394 128.81,174.333 125.48,171.253 C123.76,174.824 122.65,178.523 121.05,182.213 C118.59,179.134 116.13,176.064 113.66,172.984 C110.34,178.644 109.36,185.543 106.52,191.574 C104.43,185.543 103.69,178.394 101.48,172.123 L101.91,169.304 C108.61,170.284 115.12,170.234 121.34,169.194 C136.15,166.734 149.26,158.694 159.1,145.773 C162.38,141.703 164.94,136.953 166.78,131.833 L169.44,132.474 C172.15,136.663 176.33,140.103 179.29,144.043 C174.49,144.293 169.31,143.554 164.51,143.183 C164.51,147.003 167.47,150.453 167.96,154.394 L157.13,152.913 L156.51,153.523 C159.34,159.683 162.67,165.713 165.01,172.123 C159.1,169.043 153.8,164.243 147.65,161.534" id="Fill-69" fill="#FFFFFF"></path>
            <path d="M31.18,169.413 C30.68,169.654 31.05,170.274 30.93,170.644 C31.18,170.884 31.42,171.384 31.79,171.253 C31.55,171.993 30.07,171.993 30.56,173.354 C30.44,172.984 30.07,172.984 29.7,172.984 L28.84,174.214 C28.47,173.844 28.47,173.354 27.97,172.984 L27.11,172.984 C26.99,172.243 27.24,171.014 26.13,170.884 C26.5,170.514 27.11,170.514 27.36,170.024 L27.36,169.163 C28.1,170.024 28.96,168.913 29.08,168.304 C29.08,169.413 30.31,169.534 31.18,169.413" id="Fill-70" fill="#FFFFFF"></path>
            <path d="M181.63,79.654 C181.5,79.044 180.52,78.054 179.53,78.424 C180.52,77.314 178.92,77.074 178.67,76.334 C179.04,76.084 179.9,76.214 179.78,75.474 L179.78,74.614 C180.52,75.344 181.63,74.614 181.63,73.743 C182.36,73.993 182.36,75.474 183.72,74.854 C183.72,75.224 183.72,75.594 183.35,75.844 C183.72,76.084 184.09,76.703 184.58,76.703 C184.21,77.444 182.86,77.444 183.35,78.794 C182.73,77.934 182.12,78.924 181.63,79.283 L181.63,79.654" id="Fill-71" fill="#FFFFFF"></path>
            <path d="M84.36,69.314 C84.73,71.044 83.13,73.374 84.98,74.364 C83.5,74.854 85.47,75.714 84.36,76.334 L84.12,76.084 C80.79,78.054 79.68,81.994 80.3,86.184 C83.25,89.384 81.53,94.554 84.12,98.004 C83.87,95.174 81.9,92.464 83.5,89.634 C83.99,89.634 84.24,90.244 84.73,90.614 C85.35,94.554 86.58,98.124 89.41,101.204 C87.93,106.254 94.58,107.604 97.04,110.064 C97.91,110.314 98.4,109.694 99.14,109.824 C101.11,111.913 103.2,112.774 105.91,113.634 C109.23,114.503 108.86,118.684 112.19,119.173 C114.2,121.913 116.14,118.564 117.61,118.904 C118.12,119.024 118.58,119.594 118.96,121.024 C120.93,124.844 116.87,126.934 116,129.894 C113.42,131.243 117.48,133.214 114.77,134.564 C118.96,138.384 119.33,146.014 125.73,147.253 L125.73,151.684 C123.51,155.124 123.88,159.564 120.19,162.394 C119.94,164.484 117.48,165.964 116.87,167.684 C116.62,168.913 117.97,168.423 118.71,168.544 C119.47,166.384 120.23,168.784 121.24,168.564 L121.34,169.194 C115.12,170.234 108.61,170.284 101.91,169.304 C101.6,169.264 101.29,169.214 100.98,169.163 C83.21,165.944 65.67,152.904 57.87,135.974 C57.62,135.423 57.38,134.874 57.15,134.324 C49.65,117.913 51.18,96.024 60.7,80.444 C61.97,78.384 63.37,76.434 64.91,74.614 C73.49,64.014 85.06,56.854 97.74,53.844 C106,51.874 114.73,51.674 123.4,53.434 L123.31,53.884 C109.55,51.044 94.3,53.674 82.89,60.454 C81.16,61.194 81.41,64.024 79.07,64.024 C81.53,64.264 83.25,60.944 85.59,62.794 C86.46,65.134 85.22,67.344 84.36,69.314" id="Fill-72" fill="#0A0A08"></path>
            <path d="M191.6,55.154 C192.09,54.044 192.95,54.174 193.69,53.314 C194.92,53.924 194.55,54.544 195.54,55.404 C194.8,56.144 194.31,56.513 193.45,57.124 C192.46,56.384 192.46,56.024 191.6,55.154" id="Fill-73" fill="#FFFFFF"></path>
            <path d="M115.14,66.604 C115.63,67.344 116.74,67.714 116.62,68.704 C115.39,69.564 115.02,70.674 114.77,71.904 C113.42,71.904 113.3,70.424 112.43,69.564 C110.22,68.334 105.66,68.824 106.28,65.504 C107.02,63.654 109.23,64.144 110.34,62.544 C110.83,64.884 116.87,62.424 115.14,66.604" id="Fill-74" fill="#0A0A08"></path>
            <path d="M77.34,17.234 C76.85,16.993 76.85,16.374 76.36,16.124 L75.25,16.124 C75.74,15.884 75.38,15.263 75.5,14.894 L74.39,14.033 C74.88,13.794 75.5,13.794 75.87,13.174 L75.5,12.314 C76.36,12.924 77.34,12.194 77.59,11.324 C77.47,12.554 78.7,12.684 79.68,12.554 C79.07,12.804 79.44,13.294 79.31,13.794 L80.55,14.654 C80.05,14.524 79.93,15.144 79.31,14.894 L79.07,16.374 C78.95,16.004 78.45,16.124 78.21,16.124 L77.34,17.234" id="Fill-75" fill="#FFFFFF"></path>
            <path d="M86.46,186.644 L86.7,187.503 C85.96,186.774 84.98,187.503 84.73,188.374 C84.24,188.003 84.24,187.503 83.75,187.144 L82.89,187.144 C82.89,186.894 82.89,186.524 83.25,186.274 C82.76,186.034 82.52,185.413 82.02,185.413 C82.26,184.694 83.67,184.674 83.28,183.424 C83.46,183.894 84.01,183.583 84.36,183.694 L84.98,182.464 C86.21,184.304 86.33,183.934 87.93,185.663 C87.44,186.034 86.83,186.034 86.46,186.644" id="Fill-76" fill="#FFFFFF"></path>
        </g>
    </g>
</svg>