<?xml version="1.0" encoding="UTF-8" standalone="no"?>
<svg width="36px" height="36px" viewBox="0 0 36 36" version="1.1" xmlns="http://www.w3.org/2000/svg" xmlns:xlink="http://www.w3.org/1999/xlink" xmlns:sketch="http://www.bohemiancoding.com/sketch/ns">
    <!-- Generator: Sketch 3.3 (11970) - http://www.bohemiancoding.com/sketch -->
    <title>RSS Icon</title>
    <desc>This browser can't display SVG's :(.</desc>
    <defs></defs>
    <g id="Page-1" stroke="none" stroke-width="1" fill="none" fill-rule="evenodd" sketch:type="MSPage">
        <g id="V17---Dhanur" sketch:type="MSArtboardGroup" transform="translate(-247.000000, -4431.000000)">
            <g id="Footer" sketch:type="MSLayerGroup" transform="translate(-1.000000, 4212.000000)">
                <g id="Social-Icons" transform="translate(81.000000, 209.000000)" sketch:type="MSShapeGroup">
                    <g id="RSS-Icon" transform="translate(167.000000, 10.000000)">
                        <circle id="Background" fill="#FFFAF1" cx="18" cy="18" r="18"></circle>
                        <path d="M27.3165854,24.5363462 C27.3165854,16.4668269 20.5,9.65057692 12.4146341,9.625 L12.4146341,12.6175 C18.8207317,12.6430769 24.2939024,18.1421154 24.3063415,24.5363462 L27.3165854,24.5363462 L27.3165854,24.5363462 Z M22.2041463,24.5363462 C22.2041463,19.5872115 17.3778049,14.7531731 12.4146341,14.7531731 L12.4146341,17.7456731 C15.5119512,17.7456731 19.1939024,21.4543269 19.1939024,24.5363462 L22.2041463,24.5363462 L22.2041463,24.5363462 Z M15.387561,23.0784615 C15.387561,22.26 14.7034146,21.5822115 13.882439,21.5822115 C13.0863415,21.5822115 12.4146341,22.2727885 12.4146341,23.0784615 C12.4146341,23.8713462 13.0863415,24.5363462 13.882439,24.5363462 C14.6909756,24.5363462 15.387561,23.8713462 15.387561,23.0784615 L15.387561,23.0784615 Z" fill="#1C3342"></path>
                    </g>
                </g>
            </g>
        </g>
    </g>
</svg>