<?xml version="1.0" encoding="UTF-8" standalone="no"?>
<svg width="36px" height="36px" viewBox="0 0 36 36" version="1.1" xmlns="http://www.w3.org/2000/svg" xmlns:xlink="http://www.w3.org/1999/xlink" xmlns:sketch="http://www.bohemiancoding.com/sketch/ns">
    <!-- Generator: Sketch 3.3 (11970) - http://www.bohemiancoding.com/sketch -->
    <title>Twitter Icon</title>
    <desc>Created with Sketch.</desc>
    <defs></defs>
    <g id="Page-1" stroke="none" stroke-width="1" fill="none" fill-rule="evenodd" sketch:type="MSPage">
        <g id="V17---Dhanur" sketch:type="MSArtboardGroup" transform="translate(-191.000000, -4431.000000)" fill="#FFFAF1">
            <g id="Footer" sketch:type="MSLayerGroup" transform="translate(-1.000000, 4212.000000)">
                <g id="Social-Icons" transform="translate(81.000000, 209.000000)" sketch:type="MSShapeGroup">
                    <path d="M137.284419,24.7334356 C137.291951,24.9004045 137.294462,25.0673734 137.294462,25.2368531 C137.294462,30.3764821 133.383875,36.3019947 126.231831,36.3019947 C124.034872,36.3019947 121.992328,35.6592272 120.271168,34.5544706 C120.574976,34.5908774 120.883805,34.6084531 121.197657,34.6084531 C123.01925,34.6084531 124.696471,33.9870275 126.028456,32.9425303 C124.326126,32.913656 122.889943,31.7888129 122.394058,30.2434091 C122.631329,30.2898591 122.877389,30.3149672 123.127214,30.3149672 C123.479983,30.3149672 123.823964,30.2660064 124.151625,30.1768726 C122.37146,29.8190822 121.030688,28.2473148 121.030688,26.364207 L121.030688,26.3152462 C121.555447,26.6052448 122.156786,26.7810015 122.793277,26.801088 C121.748779,26.1018273 121.062073,24.9129586 121.062073,23.5646534 C121.062073,22.8503278 121.25415,22.1837076 121.589343,21.6074766 C123.507602,23.9613614 126.373692,25.509276 129.605105,25.6724787 C129.538569,25.3887571 129.504673,25.0899707 129.504673,24.7849072 C129.504673,22.6369089 131.24592,20.8969173 133.393918,20.8969173 C134.511229,20.8969173 135.52183,21.370205 136.231134,22.1247036 C137.118706,21.9514577 137.949784,21.6275631 138.701772,21.1806389 C138.410518,22.0882968 137.795369,22.8503278 136.990654,23.331148 C137.777793,23.2407588 138.528526,23.0298507 139.22402,22.7210211 C138.701772,23.5006277 138.045195,24.1848235 137.284419,24.7334356 L137.284419,24.7334356 Z M129,10 C119.059701,10 111,18.0597015 111,28 C111,37.9402985 119.059701,46 129,46 C138.064026,46 145.56005,39.298647 146.812945,30.5823685 C146.933464,29.9885619 146.989957,29.3759241 146.979914,28.7431999 C146.992468,28.4971405 147,28.2498256 147,28 C147,18.0597015 138.942809,10 129,10 L129,10 Z" id="Twitter-Icon"></path>
                </g>
            </g>
        </g>
    </g>
</svg>