<?xml version="1.0" encoding="UTF-8" standalone="no"?>
<svg width="82px" height="76px" viewBox="0 0 82 76" version="1.1" xmlns="http://www.w3.org/2000/svg" xmlns:xlink="http://www.w3.org/1999/xlink" xmlns:sketch="http://www.bohemiancoding.com/sketch/ns">
    <!-- Generator: Sketch 3.3.3 (12072) - http://www.bohemiancoding.com/sketch -->
    <title>domino logo white</title>
    <desc>Created with Sketch.</desc>
    <defs></defs>
    <g id="Page-1" stroke="none" stroke-width="1" fill="none" fill-rule="evenodd" sketch:type="MSPage">
        <g id="Homepage-Copy" sketch:type="MSArtboardGroup" transform="translate(-105.000000, -14.000000)" fill="#FFFFFF">
            <g id="1.-intro" sketch:type="MSLayerGroup" transform="translate(20.000000, -115.000000)">
                <g id="new-navbar" transform="translate(0.000000, 115.000000)" sketch:type="MSShapeGroup">
                    <g id="domino-logo-white" transform="translate(85.000000, 14.000000)">
                        <path d="M63.769419,5.2 L66.4525994,6.15 L65.2238532,8.725 L67.8067278,7.5 L68.759633,10.175 L69.7125382,7.5 L72.2954128,8.725 L71.0666667,6.15 L73.7498471,5.2 L71.0666667,4.25 L72.2954128,1.675 L69.7125382,2.9 L68.759633,0.225 L67.8067278,2.9 L65.2238532,1.675 L66.4525994,4.25 L63.769419,5.2 L63.769419,5.2 Z M55.795107,10.9 C59.8825688,12.3 64.2458716,13.1 68.7847095,13.1 C73.3486239,13.1 77.7119266,12.3 81.7743119,10.9 L55.795107,10.9 L55.795107,10.9 Z M44.0091743,53.7 C48.7486239,49.025 51.9834862,43.025 53.2373089,36.45 C53.8892966,33.075 54.0146789,29.7 53.6134557,26.375 C59.9577982,25.45 65.5749235,21.55 68.6342508,15.925 C68.6844037,15.85 68.6593272,15.75 68.5840979,15.7 C68.5088685,15.65 68.4085627,15.625 68.3333333,15.675 C64.3712538,18.25 59.7571865,19.475 55.017737,19.225 C51.5321101,19.05 48.2470948,18.075 45.212844,16.375 C45.1376147,16.325 45.0373089,16.35 44.987156,16.4 C44.9370031,16.475 44.9119266,16.55 44.9620795,16.65 C48.648318,22.65 50.2782875,29.525 49.6262997,36.55 C48.9743119,43.8 46.0152905,50.425 41.0501529,55.775 C40.9749235,55.85 40.9749235,55.975 41.0501529,56.05 C41.1003058,56.1 41.1504587,56.125 41.2006116,56.125 L52.6856269,56.125 C52.7608563,56.125 52.8110092,56.075 52.8110092,56 C52.8110092,55.95 52.7859327,55.9 52.7357798,55.875 L44.0091743,53.7 L44.0091743,53.7 Z M25.4275229,28.3 C27.9351682,28.175 30.0666667,30.1 30.2171254,32.6 C30.2171254,32.6 30.9192661,41.9 29.3896024,49.925 C28.7125382,53.025 27.2330275,56.575 24.1737003,58.225 C24.0984709,58.275 24.048318,58.35 24.0733945,58.425 C24.0984709,58.5 24.1737003,58.575 24.2489297,58.575 C29.5902141,58.575 34.5804281,55.925 37.5896024,51.5 C42.604893,44.925 45.2629969,37.075 45.2629969,28.8 C45.2629969,25.175 44.7363914,21.6 43.7082569,18.125 C43.0311927,15.925 42.9810398,14.425 42.9810398,14.4 C42.9810398,8.975 47.4195719,4.575 52.8611621,4.575 C52.911315,4.575 52.9614679,4.55 52.9865443,4.525 C53.0116208,4.5 53.0366972,4.45 53.0366972,4.4 C53.0116208,4 52.8611621,3.7 52.5602446,3.45 C51.4067278,2.525 48.5229358,3.05 48.3975535,3.075 C48.3975535,3.075 46.6923547,3.375 44.8868502,2.15 C43.4574924,1.175 41.7522936,0.625 39.8966361,0.625 C37.4892966,0.625 35.3076453,1.575 33.7278287,3.125 C31.4960245,5.25 30.2422018,8.525 30.0165138,12.825 C30.0165138,18.425 23.9229358,21.8 22.7192661,22.4 C18.6318043,24.55 14.9957187,27.975 12.7388379,32.125 C12.688685,32.225 12.7137615,32.325 12.7889908,32.4 C12.8642202,32.475 12.9896024,32.475 13.0648318,32.425 C16.8012232,29.95 21.0391437,28.575 25.4275229,28.3 L25.4275229,28.3 Z M54.5914373,54.475 L53.9896024,54.475 L53.9896024,54.275 L55.4189602,54.275 L55.4189602,54.475 L54.8171254,54.475 L54.8171254,56.1 L54.6165138,56.1 L54.6165138,54.475 L54.5914373,54.475 Z M55.8452599,54.3 L56.0458716,54.3 L56.6978593,55.3 L57.3498471,54.3 L57.5504587,54.3 L57.5504587,56.125 L57.3498471,56.125 L57.3498471,54.65 L56.6978593,55.625 L56.0458716,54.65 L56.0458716,56.125 L55.8452599,56.125 L55.8452599,54.3 L55.8452599,54.3 Z" id="Shape"></path>
                        <g id="XMLID_94_" transform="translate(0.000000, 59.250000)">
                            <path d="M11.4850153,16 C11.4850153,16.325 11.2593272,16.55 10.9584098,16.55 C10.6324159,16.55 10.4067278,16.325 10.4067278,16 L10.4067278,13.925 C9.42874618,15.425 7.97431193,16.75 5.69235474,16.75 C2.93394495,16.75 0.125382263,14.525 0.125382263,10.825 L0.125382263,10.775 C0.125382263,7.075 2.93394495,4.8 5.69235474,4.8 C7.97431193,4.8 9.45382263,6.1 10.4067278,7.525 L10.4067278,0.625 C10.4067278,0.3 10.6324159,0.075 10.9333333,0.075 C11.2342508,0.075 11.4850153,0.3 11.4850153,0.625 L11.4850153,16 L11.4850153,16 Z M1.30397554,10.725 L1.30397554,10.775 C1.30397554,13.775 3.3853211,15.7 5.79266055,15.7 C8.17492355,15.7 10.4568807,13.7 10.4568807,10.8 L10.4568807,10.75 C10.4568807,7.825 8.17492355,5.85 5.79266055,5.85 C3.31009174,5.85 1.30397554,7.65 1.30397554,10.725 L1.30397554,10.725 Z" id="XMLID_347_"></path>
                            <path d="M14.1932722,10.825 L14.1932722,10.775 C14.1932722,7.575 16.675841,4.8 20.0862385,4.8 C23.4715596,4.8 25.929052,7.525 25.929052,10.725 L25.929052,10.775 C25.929052,13.975 23.4464832,16.75 20.0360856,16.75 C16.675841,16.75 14.1932722,14 14.1932722,10.825 L14.1932722,10.825 Z M24.7504587,10.825 L24.7504587,10.775 C24.7504587,8.025 22.6941896,5.825 20.0360856,5.825 C17.3278287,5.825 15.3718654,8.05 15.3718654,10.725 L15.3718654,10.775 C15.3718654,13.525 17.4281346,15.725 20.0862385,15.725 C22.8195719,15.7 24.7504587,13.5 24.7504587,10.825 L24.7504587,10.825 Z" id="XMLID_344_"></path>
                            <path d="M28.4366972,5.525 C28.4366972,5.2 28.6623853,4.975 28.9633028,4.975 C29.2642202,4.975 29.5149847,5.2 29.5149847,5.525 L29.5149847,7.1 C30.2422018,5.925 31.2954128,4.8 33.3266055,4.8 C35.3327217,4.8 36.5614679,5.95 37.1883792,7.25 C37.9155963,5.975 39.169419,4.8 41.3259939,4.8 C44.0342508,4.8 45.7143731,6.7 45.7143731,9.55 L45.7143731,16 C45.7143731,16.325 45.488685,16.55 45.1877676,16.55 C44.8617737,16.55 44.6360856,16.325 44.6360856,16 L44.6360856,9.7 C44.6360856,7.25 43.3571865,5.8 41.2507645,5.8 C39.3198777,5.8 37.6397554,7.275 37.6397554,9.825 L37.6397554,16 C37.6397554,16.325 37.4140673,16.55 37.1131498,16.55 C36.787156,16.55 36.5614679,16.325 36.5614679,16 L36.5614679,9.625 C36.5614679,7.25 35.2574924,5.8 33.2262997,5.8 C31.195107,5.8 29.5651376,7.6 29.5651376,9.9 L29.5651376,16 C29.5651376,16.325 29.3394495,16.55 29.0385321,16.55 C28.7125382,16.55 28.4868502,16.325 28.4868502,16 L28.4868502,5.525 L28.4366972,5.525 Z" id="XMLID_342_"></path>
                            <path d="M49.475841,5.525 C49.475841,5.2 49.7015291,4.975 50.0024465,4.975 C50.3033639,4.975 50.5541284,5.2 50.5541284,5.525 L50.5541284,16 C50.5541284,16.325 50.3284404,16.55 50.0275229,16.55 C49.7015291,16.55 49.475841,16.325 49.475841,16 L49.475841,5.525 L49.475841,5.525 Z" id="XMLID_340_"></path>
                            <path d="M54.6666667,5.525 C54.6666667,5.2 54.8923547,4.975 55.1932722,4.975 C55.4941896,4.975 55.7449541,5.2 55.7449541,5.525 L55.7449541,7.175 C56.4972477,5.825 57.7761468,4.775 59.8825688,4.775 C62.7663609,4.775 64.4464832,6.75 64.4464832,9.475 L64.4464832,15.975 C64.4464832,16.3 64.2207951,16.525 63.9198777,16.525 C63.5938838,16.525 63.3681957,16.3 63.3681957,15.975 L63.3681957,9.675 C63.3681957,7.325 62.0391437,5.775 59.7321101,5.775 C57.5003058,5.775 55.7700306,7.475 55.7700306,9.85 L55.7700306,16 C55.7700306,16.325 55.5443425,16.55 55.2434251,16.55 C54.9174312,16.55 54.6917431,16.325 54.6917431,16 L54.6917431,5.525 L54.6666667,5.525 Z" id="XMLID_338_"></path>
                            <path d="M67.1798165,10.825 L67.1798165,10.775 C67.1798165,7.575 69.6623853,4.8 73.0727829,4.8 C76.458104,4.8 78.9155963,7.525 78.9155963,10.725 L78.9155963,10.775 C78.9155963,13.975 76.4330275,16.75 73.02263,16.75 C69.6623853,16.75 67.1798165,14 67.1798165,10.825 L67.1798165,10.825 Z M77.7620795,10.825 L77.7620795,10.775 C77.7620795,8.025 75.7058104,5.825 73.0477064,5.825 C70.3394495,5.825 68.3834862,8.05 68.3834862,10.725 L68.3834862,10.775 C68.3834862,13.525 70.4397554,15.725 73.0978593,15.725 C75.8061162,15.7 77.7620795,13.5 77.7620795,10.825 L77.7620795,10.825 Z" id="XMLID_334_"></path>
                        </g>
                    </g>
                </g>
            </g>
        </g>
    </g>
</svg>