<?xml version="1.0" encoding="utf-8"?>
<!-- Generated by IcoMoon.io -->
<!DOCTYPE svg PUBLIC "-//W3C//DTD SVG 1.1//EN" "http://www.w3.org/Graphics/SVG/1.1/DTD/svg11.dtd">
<svg version="1.1" xmlns="http://www.w3.org/2000/svg" xmlns:xlink="http://www.w3.org/1999/xlink" width="1024" height="1024" viewBox="0 0 1024 1024">
<path fill="#000" d="M569.6 345.6c16-19.2 16-51.2 0-70.4-22.4-25.6-57.6-25.6-76.8 0l-172.8 198.4c-16 22.4-16 54.4 0 76.8l172.8 198.4c19.2 25.6 54.4 25.6 76.8 0 16-19.2 16-51.2 0-70.4l-96-108.8h499.2c32 0 51.2-25.6 51.2-57.6s-25.6-57.6-54.4-57.6h-489.6l89.6-108.8z"></path>
<path fill="#000" d="M0 512c0-281.6 230.4-512 512-512s512 230.4 512 512c0 281.6-230.4 512-512 512s-512-230.4-512-512zM102.4 512c0 224 182.4 409.6 409.6 409.6 224 0 409.6-185.6 409.6-409.6s-185.6-409.6-409.6-409.6c-224 0-409.6 185.6-409.6 409.6z"></path>
</svg>
