<?xml version="1.0" encoding="utf-8"?>
<!DOCTYPE svg PUBLIC "-//W3C//DTD SVG 1.1//EN" "http://www.w3.org/Graphics/SVG/1.1/DTD/svg11.dtd">
<svg version="1.1" xmlns="http://www.w3.org/2000/svg" xmlns:xlink="http://www.w3.org/1999/xlink" width="37" height="32" viewBox="0 0 37 32">
<path d="M12.571 2.286v27.429h2.286v-6.857h6.857v6.857h2.286v-27.429h-11.429zM17.143 29.714h2.286v-4.571h-2.286v4.571zM14.857 32h-14.857v-18.286c0-1.262 1.023-2.286 2.286-2.286h8v-9.143c0-1.262 1.023-2.286 2.286-2.286h11.429c1.262 0 2.286 1.023 2.286 2.286v17.143h8c1.262 0 2.286 1.023 2.286 2.286v10.286h-21.714zM26.286 29.714h2.286v-2.286h3.429v2.286h2.286v-8h-8v8zM10.286 29.714v-16h-8v16h2.286v-3.429h3.429v3.429h2.286zM29.714 22.857h-2.286v2.286h2.286v-2.286zM3.429 16h2.286v2.286h-2.286v-2.286zM5.714 20.571h-2.286v2.286h2.286v-2.286zM30.857 22.857h2.286v2.286h-2.286v-2.286zM9.143 16h-2.286v2.286h2.286v-2.286zM6.857 20.571h2.286v2.286h-2.286v-2.286zM14.857 4.571h2.286v2.286h-2.286v-2.286zM17.143 8h-2.286v2.286h2.286v-2.286zM14.857 11.429h2.286v2.286h-2.286v-2.286zM17.143 14.857h-2.286v2.286h2.286v-2.286zM14.857 18.286h2.286v2.286h-2.286v-2.286zM21.714 4.571h-2.286v2.286h2.286v-2.286zM19.429 8h2.286v2.286h-2.286v-2.286zM21.714 11.429h-2.286v2.286h2.286v-2.286zM19.429 14.857h2.286v2.286h-2.286v-2.286zM21.714 18.286h-2.286v2.286h2.286v-2.286z"></path>
</svg>
