<!-- Generated by IcoMoon.io -->
<svg version="1.1" xmlns="http://www.w3.org/2000/svg" width="32" height="32" viewBox="0 0 32 32">
<title>i-articles</title>
<path d="M6 11.385h16.667v-1.846h-16.667v1.846zM15.167 22.462h5.833v-1.846h-5.833v1.846zM15.167 18.769h7.5v-1.846h-7.5v1.846zM15.167 15.077h7.5v-1.846h-7.5v1.846zM6 22.462h7.5v-9.231h-7.5v9.231zM26 7.692v-3.692h-23.333v20.308c0 0 0 3.692 3.333 3.692h20.833c0 0 2.5-0.057 2.5-3.692v-16.615h-3.333zM6 26.154c-1.667 0-1.667-1.846-1.667-1.846v-18.462h20v18.462c0 0.85 0.237 1.438 0.563 1.846h-18.897z"></path>
</svg>
