<svg xmlns="http://www.w3.org/2000/svg" width="24" height="24" viewBox="0 0 24 24">
  <path fill="#000000" d="M4.5,8.53846154 L17,8.53846154 L17,7.15384615 L4.5,7.15384615 L4.5,8.53846154 Z M11.375,16.8461538 L15.75,16.8461538 L15.75,15.4615385 L11.375,15.4615385 L11.375,16.8461538 Z M11.375,14.0769231 L17,14.0769231 L17,12.6923077 L11.375,12.6923077 L11.375,14.0769231 Z M11.375,11.3076923 L17,11.3076923 L17,9.92307692 L11.375,9.92307692 L11.375,11.3076923 Z M4.5,16.8461538 L10.125,16.8461538 L10.125,9.92307692 L4.5,9.92307692 L4.5,16.8461538 Z M19.5,5.76923077 L19.5,3 L2,3 L2,18.2307692 C2,18.2307692 2,21 4.5,21 L20.125,21 C20.125,21 22,20.9570769 22,18.2307692 L22,5.76923077 L19.5,5.76923077 Z M4.5,19.6153846 C3.25,19.6153846 3.25,18.2307692 3.25,18.2307692 L3.25,4.38461538 L18.25,4.38461538 L18.25,18.2307692 C18.25,18.8683846 18.4275,19.3093846 18.6725,19.6153846 L4.5,19.6153846 Z"/>
</svg>
