<svg xmlns="http://www.w3.org/2000/svg" width="24" height="24" viewBox="0 0 24 24">
  <path fill="#000000" d="M11.995,2 C6.47,2 2,6.475 2,12 C2,17.525 6.47,22 11.995,22 C17.52,22 22,17.525 22,12 C22,6.475 17.52,2 11.995,2 Z M12,20 C7.58,20 4,16.42 4,12 C4,7.58 7.58,4 12,4 C16.42,4 20,7.58 20,12 C20,16.42 16.42,20 12,20 Z M15.5,11 C16.33,11 17,10.33 17,9.5 C17,8.67 16.33,8 15.5,8 C14.67,8 14,8.67 14,9.5 C14,10.33 14.67,11 15.5,11 Z M8.5,11 C9.33,11 10,10.33 10,9.5 C10,8.67 9.33,8 8.5,8 C7.67,8 7,8.67 7,9.5 C7,10.33 7.67,11 8.5,11 Z M12,17.5 C14.33,17.5 16.305,16.045 17.105,14 L6.895,14 C7.695,16.045 9.67,17.5 12,17.5 Z"/>
</svg>
