<!-- Generated by IcoMoon.io -->
<svg version="1.1" xmlns="http://www.w3.org/2000/svg" width="32" height="32" viewBox="0 0 32 32">
<title>i-benefits</title>
<path d="M15.993 2.667c-7.367 0-13.327 5.967-13.327 13.333s5.96 13.333 13.327 13.333c7.367 0 13.34-5.967 13.34-13.333s-5.973-13.333-13.34-13.333zM16 26.667c-5.893 0-10.667-4.773-10.667-10.667s4.773-10.667 10.667-10.667c5.893 0 10.667 4.773 10.667 10.667s-4.773 10.667-10.667 10.667zM20.667 14.667c1.107 0 2-0.893 2-2s-0.893-2-2-2c-1.107 0-2 0.893-2 2s0.893 2 2 2zM11.333 14.667c1.107 0 2-0.893 2-2s-0.893-2-2-2c-1.107 0-2 0.893-2 2s0.893 2 2 2zM16 23.333c3.107 0 5.74-1.94 6.807-4.667h-13.613c1.067 2.727 3.7 4.667 6.807 4.667z"></path>
</svg>
