<svg width="16px" height="11px" viewBox="0 0 16 11" version="1.1" xmlns="http://www.w3.org/2000/svg" xmlns:xlink="http://www.w3.org/1999/xlink">
    <title>dashboard</title>
    <desc>Created with Sketch.</desc>
    <defs></defs>
    <g id="sign-up-flow" stroke="none" stroke-width="1">
        <g id="Icons" transform="translate(-36.000000, -72.000000)">
            <path d="M51.9619048,81.0250893 C51.9619048,81.0294111 51.9641905,81.0325542 51.9641905,81.0364831 C51.9641905,81.0384476 51.9630476,81.040412 51.9630476,81.0427694 C51.9634286,81.0447338 51.9641905,81.0466983 51.9641905,81.0490556 C51.9641905,81.2659312 51.7939048,81.4419462 51.5832381,81.4419462 C51.5889524,81.4415533 48.1904762,81.4293737 48.1904762,81.4293737 C47.9798095,81.4293737 47.8095238,81.2533587 47.8095238,81.0364831 C47.8095238,80.8192146 47.9798095,80.6435925 48.1904762,80.6435925 L51.2175238,80.6435925 C51.2247619,80.5123671 51.2380952,80.383499 51.2380952,80.250702 C51.2380952,76.1281012 47.9973333,72.7857811 44,72.7857811 C40.0026667,72.7857811 36.7619048,76.1281012 36.7619048,80.250702 C36.7619048,80.383499 36.7752381,80.5123671 36.7820952,80.6435925 L39.8095238,80.6435925 C40.0201905,80.6435925 40.1904762,80.8192146 40.1904762,81.0364831 C40.1904762,81.2533587 40.0201905,81.4293737 39.8095238,81.4293737 C39.8095238,81.4293737 36.4114286,81.4415533 36.4167619,81.4415533 C36.2060952,81.4415533 36.0358095,81.2655383 36.0358095,81.0486627 C36.0358095,81.0463054 36.0365714,81.0443409 36.0369524,81.0423765 C36.0369524,81.0400191 36.0358095,81.0380547 36.0358095,81.0360902 C36.0358095,81.0317684 36.0380952,81.0286253 36.0380952,81.0250893 C36.0148571,80.7697104 36,80.5119742 36,80.250702 C36,75.6935643 39.5817143,72 44,72 C48.4182857,72 52,75.6935643 52,80.250702 C52,80.5119742 51.9851429,80.7697104 51.9619048,81.0250893 L51.9619048,81.0250893 Z M41.5325714,76.3720863 C41.6822857,76.2872219 41.8620952,76.31551 41.9855238,76.4243407 L41.9664762,76.3917308 C45.3089524,78.9140883 45.9958095,80.0742941 46.008381,80.0959031 C46.5542857,81.0219462 46.2297143,82.2061183 45.2849524,82.7404495 C44.3401905,83.2747807 43.1314286,82.957718 42.5859048,82.0316749 C42.5725714,82.0108517 41.8910476,80.8475028 41.3321905,76.7504399 L41.351619,76.7826569 C41.3177143,76.6239291 41.3832381,76.4565577 41.5325714,76.3720863 L41.5325714,76.3720863 Z M43.2708571,81.6450706 C43.4822857,82.0029939 43.8761905,82.2257629 44.2990476,82.2257629 C44.5055238,82.2257629 44.7100952,82.1719369 44.8902857,82.0697853 C45.1645714,81.9145935 45.3607619,81.6647151 45.4426667,81.3649396 C45.5249524,81.0647712 45.4826667,80.7520303 45.3272381,80.4880079 C45.3207619,80.4781856 44.728381,79.550571 42.256,77.601048 C42.744,80.6714878 43.2666667,81.6372128 43.2708571,81.6450706 L43.2708571,81.6450706 Z" id="dashboard"></path>
        </g>
    </g>
</svg>
