<!-- Generated by IcoMoon.io -->
<svg version="1.1" xmlns="http://www.w3.org/2000/svg" width="32" height="32" viewBox="0 0 32 32">
<title>i-logout</title>
<path d="M6.407 3.475c-1.33 0-2.407 1.052-2.407 2.351v21.157c0 1.299 1.078 2.351 2.407 2.351h11.6c1.33 0 2.407-1.052 2.407-2.351v-3.633c0-0.59-0.49-1.068-1.094-1.068v0c-0.604 0-1.094 0.478-1.094 1.068v2.457c0 0.649-0.539 1.176-1.204 1.176h-9.63c-0.665 0-1.204-0.526-1.204-1.176v-18.806c0-0.649 0.539-1.176 1.204-1.176h9.63c0.665 0 1.204 0.526 1.204 1.176v2.457c0 0.59 0.49 1.068 1.094 1.068v0c0.604 0 1.094-0.478 1.094-1.068v-3.633c0-1.299-1.078-2.351-2.407-2.351l-11.6 0.001zM21.811 13c-0.397-0.427-0.397-1.078 0-1.505v0c0.454-0.488 1.241-0.488 1.695 0l3.833 4.117c0.417 0.448 0.417 1.133 0 1.581l-3.833 4.117c-0.454 0.488-1.241 0.488-1.695 0v0c-0.397-0.427-0.397-1.078 0-1.505l2.073-2.227h-11.021c-0.665 0-1.202-0.526-1.202-1.174v0c0-0.649 0.539-1.174 1.202-1.174h11.025l-2.077-2.231z"></path>
</svg>
