<svg version="1.1" xmlns="http://www.w3.org/2000/svg" xmlns:xlink="http://www.w3.org/1999/xlink" width="29" height="32" viewBox="0 0 29 32">
<path d="M2.909 0c-1.607 0-2.909 1.302-2.909 2.909v26.182c0 1.607 1.302 2.909 2.909 2.909h14.017c1.607 0 2.909-1.302 2.909-2.909v-4.496c0-0.73-0.592-1.322-1.322-1.322v0c-0.73 0-1.322 0.592-1.322 1.322v3.041c0 0.803-0.651 1.455-1.455 1.455h-11.636c-0.803 0-1.455-0.651-1.455-1.455v-23.273c0-0.803 0.651-1.455 1.455-1.455h11.636c0.803 0 1.455 0.651 1.455 1.455v3.041c0 0.73 0.592 1.322 1.322 1.322v0c0.73 0 1.322-0.592 1.322-1.322v-4.496c0-1.607-1.303-2.909-2.909-2.909h-14.017zM21.522 11.788c-0.48-0.528-0.48-1.334 0-1.862v0c0.549-0.604 1.499-0.604 2.048 0l4.632 5.095c0.504 0.555 0.504 1.402 0 1.957l-4.632 5.095c-0.549 0.604-1.499 0.604-2.048 0v0c-0.48-0.528-0.48-1.334 0-1.862l2.505-2.756h-13.317c-0.803 0-1.453-0.651-1.453-1.453v0c0-0.803 0.651-1.453 1.453-1.453h13.322l-2.51-2.761z"></path>
</svg>
