<svg width="28" height="20" viewBox="0 0 28 20" version="1.1" xmlns="http://www.w3.org/2000/svg" xmlns:xlink="http://www.w3.org/1999/xlink" xmlns:figma="http://www.figma.com/figma/ns">
<title>i-membership</title>
<desc>Created using Figma</desc>
<g id="Canvas" transform="translate(-618 -77)" figma:type="canvas">
<g id="i-membership" style="mix-blend-mode:normal;" figma:type="vector">
<use xlink:href="#path0_fill" transform="translate(618 77)" style="mix-blend-mode:normal;"/>
<use xlink:href="#path1_fill" transform="translate(618 77)" style="mix-blend-mode:normal;"/>
<use xlink:href="#path2_fill" transform="translate(618 77)" style="mix-blend-mode:normal;"/>
<use xlink:href="#path3_fill" transform="translate(618 77)" style="mix-blend-mode:normal;"/>
<use xlink:href="#path4_fill" transform="translate(618 77)" style="mix-blend-mode:normal;"/>
</g>
</g>
<defs>
<path id="path0_fill" fill-rule="evenodd" d="M 0 2.72727C 0 1.22104 1.17525 0 2.625 0L 25.375 0C 26.8247 0 28 1.22104 28 2.72727L 28 17.2727C 28 18.779 26.8247 20 25.375 20L 2.625 20C 1.17525 20 0 18.779 0 17.2727L 0 2.72727ZM 2.625 1.81818C 2.14175 1.81818 1.75 2.2252 1.75 2.72727L 1.75 17.2727C 1.75 17.7748 2.14175 18.1818 2.625 18.1818L 25.375 18.1818C 25.8582 18.1818 26.25 17.7748 26.25 17.2727L 26.25 2.72727C 26.25 2.2252 25.8582 1.81818 25.375 1.81818L 2.625 1.81818Z"/>
<path id="path1_fill" fill-rule="evenodd" d="M 5.09649 8.9094C 5.09649 6.76604 6.80402 5 8.94518 5C 11.0863 5 12.7939 6.76604 12.7939 8.9094C 12.7939 9.80562 12.4964 10.6336 11.9946 11.2947C 13.1338 11.8972 14 12.8822 14 14.1667C 14 14.6269 13.6269 15 13.1667 15C 12.7064 15 12.3333 14.6269 12.3333 14.1667C 12.3333 13.5675 11.6928 12.7508 10.2305 12.401C 9.89853 12.3215 9.64855 12.0476 9.59968 11.7098C 9.55081 11.3719 9.71294 11.0385 10.0088 10.8682C 10.6729 10.4861 11.1272 9.75535 11.1272 8.9094C 11.1272 7.65503 10.1347 6.66667 8.94518 6.66667C 7.75566 6.66667 6.76316 7.65503 6.76316 8.9094C 6.76316 9.76556 7.22848 10.5036 7.90552 10.8818C 8.20339 11.0482 8.36976 11.3793 8.32543 11.7176C 8.2811 12.0559 8.03503 12.333 7.70435 12.417C 6.28373 12.7779 5.66667 13.5772 5.66667 14.1667C 5.66667 14.6269 5.29357 15 4.83333 15C 4.3731 15 4 14.6269 4 14.1667C 4 12.9114 4.82889 11.9416 5.92781 11.3364C 5.40661 10.6685 5.09649 9.82452 5.09649 8.9094Z"/>
<path id="path2_fill" d="M 16 6C 16 5.44771 16.4477 5 17 5L 23 5C 23.5523 5 24 5.44772 24 6C 24 6.55229 23.5523 7 23 7L 17 7C 16.4477 7 16 6.55228 16 6Z"/>
<path id="path3_fill" d="M 16 10C 16 9.44772 16.4477 9 17 9L 23 9C 23.5523 9 24 9.44772 24 10C 24 10.5523 23.5523 11 23 11L 17 11C 16.4477 11 16 10.5523 16 10Z"/>
<path id="path4_fill" d="M 16 14C 16 13.4477 16.4477 13 17 13L 23 13C 23.5523 13 24 13.4477 24 14C 24 14.5523 23.5523 15 23 15L 17 15C 16.4477 15 16 14.5523 16 14Z"/>
</defs>
</svg>
