<svg xmlns="http://www.w3.org/2000/svg" viewBox="0 0 32 32"><path fill="#c1c1c1" d="M16 32c8.837 0 16-7.163 16-16s-7.163-16-16-16c-8.837 0-16 7.163-16 16s7.163 16 16 16zM20.7 10.659c0.092 0.201 0.166 0.439 0.219 0.712s0.081 0.554 0.081 0.842c0 0.288-0.023 0.569-0.069 0.842s-0.116 0.518-0.208 0.734c-0.169 0.389-0.373 0.73-0.612 1.025s-0.504 0.579-0.797 0.853c-0.092 0.086-0.181 0.173-0.266 0.259s-0.173 0.166-0.266 0.237c-0.077 0.058-0.139 0.115-0.185 0.173s-0.1 0.115-0.162 0.173l-0.37 0.345c-0.123 0.115-0.231 0.238-0.323 0.367-0.169 0.201-0.304 0.414-0.404 0.637s-0.189 0.479-0.266 0.766c-0.062 0.201-0.081 0.417-0.058 0.648s-0.027 0.41-0.15 0.54c-0.046 0.058-0.108 0.094-0.185 0.108s-0.154 0.036-0.231 0.065c-0.031 0-0.073-0.004-0.127-0.011s-0.096-0.004-0.127 0.011c-0.046 0.014-0.1 0.018-0.162 0.011s-0.108-0.011-0.139-0.011h-0.254c-0.092-0.029-0.177-0.054-0.254-0.076s-0.139-0.061-0.185-0.119c-0.077-0.101-0.116-0.223-0.116-0.367s0.008-0.295 0.023-0.453c0-0.302 0.035-0.583 0.104-0.842s0.158-0.497 0.266-0.712c0.2-0.432 0.462-0.813 0.785-1.144s0.655-0.648 0.993-0.95l0.231-0.216c0.077-0.072 0.154-0.151 0.231-0.238l0.162-0.151c0.077-0.086 0.154-0.169 0.231-0.248s0.154-0.169 0.231-0.27c0.046-0.058 0.085-0.119 0.116-0.184s0.069-0.133 0.116-0.205c0.185-0.288 0.308-0.666 0.37-1.133s0.023-0.903-0.116-1.306c-0.062-0.173-0.131-0.331-0.208-0.475s-0.169-0.288-0.277-0.432c-0.154-0.187-0.346-0.342-0.578-0.464s-0.477-0.227-0.739-0.313c-0.077-0.029-0.158-0.043-0.243-0.043s-0.173-0.007-0.266-0.022c-0.108-0.029-0.262-0.043-0.462-0.043s-0.354 0.014-0.462 0.043c-0.108 0.029-0.216 0.050-0.323 0.065s-0.208 0.043-0.3 0.086c-0.354 0.13-0.651 0.299-0.889 0.507s-0.45 0.457-0.635 0.745c-0.108 0.158-0.193 0.331-0.254 0.518s-0.116 0.381-0.162 0.583c-0.046 0.158-0.077 0.309-0.092 0.453s-0.062 0.273-0.139 0.389c-0.046 0.058-0.146 0.101-0.3 0.13s-0.32 0.047-0.497 0.054c-0.177 0.007-0.343-0.004-0.497-0.032s-0.262-0.065-0.323-0.108c-0.062-0.043-0.112-0.13-0.15-0.259s-0.042-0.252-0.012-0.367l0.069-0.453c0.046-0.158 0.089-0.313 0.127-0.464s0.089-0.291 0.15-0.421c0.046-0.115 0.085-0.223 0.116-0.324s0.085-0.201 0.162-0.302c0.077-0.115 0.154-0.234 0.231-0.356s0.162-0.241 0.254-0.356c0.262-0.317 0.57-0.59 0.924-0.82s0.747-0.425 1.178-0.583c0.169-0.072 0.354-0.122 0.554-0.151s0.4-0.065 0.601-0.108c0.108-0.014 0.212-0.025 0.312-0.032s0.204-0.011 0.312-0.011c1.063-0.029 1.952 0.13 2.668 0.475s1.274 0.82 1.675 1.425c0.077 0.115 0.139 0.234 0.185 0.356s0.1 0.255 0.162 0.399zM16.982 22.627c0.012 0.060 0.018 0.127 0.018 0.199v0.199c0 0.169-0.006 0.343-0.018 0.524s-0.072 0.307-0.181 0.38c-0.084 0.048-0.187 0.072-0.307 0.072h-0.912c-0.187 0-0.328-0.036-0.424-0.108-0.048-0.036-0.084-0.102-0.108-0.199s-0.039-0.202-0.045-0.316c-0.006-0.114-0.006-0.229 0-0.343s0.009-0.22 0.009-0.316c0-0.084 0.003-0.163 0.009-0.235s0.021-0.139 0.045-0.199c0.048-0.133 0.15-0.217 0.307-0.253 0.036 0 0.078 0.003 0.126 0.009s0.084-0.003 0.108-0.027c0.096 0 0.208-0.003 0.334-0.009s0.253-0.003 0.379 0.009c0.126 0.012 0.241 0.030 0.343 0.054s0.172 0.060 0.208 0.108c0.036 0.036 0.060 0.078 0.072 0.127s0.024 0.102 0.036 0.163v0.163z"/></svg>