<svg version="1.1" xmlns="http://www.w3.org/2000/svg" xmlns:xlink="http://www.w3.org/1999/xlink" width="32" height="32" viewBox="0 0 32 32">
<path d="M16 2.133c-7.658 0-13.867 6.208-13.867 13.867s6.208 13.867 13.867 13.867c7.658 0 13.867-6.208 13.867-13.867s-6.208-13.867-13.867-13.867zM0 16c0-8.837 7.163-16 16-16s16 7.163 16 16c0 8.837-7.163 16-16 16s-16-7.163-16-16z"></path>
<path d="M25.143 10.286c0.446 0.446 0.446 1.17 0 1.616l-10.62 10.62c-0.446 0.446-1.17 0.446-1.616 0l-6.049-6.049c-0.446-0.446-0.446-1.17 0-1.616s1.17-0.446 1.616 0l5.241 5.241 9.812-9.812c0.446-0.446 1.17-0.446 1.616 0z"></path>
</svg>
