<!-- Generated by IcoMoon.io -->
<svg version="1.1" xmlns="http://www.w3.org/2000/svg" width="32" height="32" viewBox="0 0 32 32">
<title>i-user</title>
<path d="M2.667 16c0-7.363 5.97-13.333 13.333-13.333s13.333 5.97 13.333 13.333c0 7.363-5.97 13.333-13.333 13.333s-13.333-5.97-13.333-13.333zM16 5.091c-6.024 0-10.909 4.885-10.909 10.909s4.885 10.909 10.909 10.909c6.024 0 10.909-4.885 10.909-10.909s-4.885-10.909-10.909-10.909v0z"></path>
<path d="M9.43 16.521c0-3.613 2.873-6.582 6.473-6.582s6.477 2.97 6.477 6.582c0 1.614-0.573 3.096-1.527 4.242 2.066 1.011 3.633 2.72 3.633 4.933 0 0.669-0.543 1.212-1.212 1.212s-1.212-0.543-1.212-1.212c0-1.216-1.264-2.698-3.854-3.317-0.485-0.115-0.848-0.514-0.919-1.006-0.073-0.491 0.163-0.976 0.594-1.224 1.232-0.709 2.073-2.063 2.073-3.628 0-2.319-1.835-4.157-4.048-4.157-2.216 0-4.051 1.839-4.051 4.157 0 1.583 0.861 2.952 2.115 3.653 0.434 0.242 0.675 0.723 0.611 1.216-0.067 0.492-0.424 0.897-0.906 1.018-2.52 0.64-3.736 2.093-3.736 3.288 0 0.669-0.543 1.212-1.213 1.212s-1.213-0.543-1.213-1.212c0-2.166 1.503-3.85 3.497-4.866-0.988-1.157-1.583-2.667-1.583-4.31l0.004-0.001z"></path>
</svg>
