<svg width="123" height="87" viewBox="0 0 123 87" version="2.0" xmlns="http://www.w3.org/2000/svg" xmlns:xlink="http://www.w3.org/1999/xlink" xmlns:figma="http://www.figma.com/figma/ns">
<title>windmill &#38; solar panel</title>
<desc>Created using Figma (9000)</desc>
<g id="Canvas" transform="translate(-83 230)" figma:type="canvas">
<g id="windmill &#38; solar panel" style="mix-blend-mode:normal;" fill="#00CCFF" figma:type="vector">
<use xlink:href="#path0_fill" transform="translate(83.5948 -230)" style="mix-blend-mode:normal;"/>
<use xlink:href="#path1_fill" transform="translate(83.5948 -230)" style="mix-blend-mode:normal;"/>
<use xlink:href="#path2_fill" transform="translate(83.5948 -230)" style="mix-blend-mode:normal;"/>
<use xlink:href="#path3_fill" transform="translate(83.5948 -230)" style="mix-blend-mode:normal;"/>
<use xlink:href="#path4_fill" transform="translate(83.5948 -230)" style="mix-blend-mode:normal;"/>
<use xlink:href="#path5_fill" transform="translate(83.5948 -230)" style="mix-blend-mode:normal;"/>
<use xlink:href="#path6_fill" transform="translate(83.5948 -230)" style="mix-blend-mode:normal;"/>
<use xlink:href="#path7_fill" transform="translate(83.5948 -230)" style="mix-blend-mode:normal;"/>
<use xlink:href="#path8_fill" transform="translate(83.5948 -230)" style="mix-blend-mode:normal;"/>
<use xlink:href="#path9_fill" transform="translate(83.5948 -230)" style="mix-blend-mode:normal;"/>
<use xlink:href="#path10_fill" transform="translate(83.5948 -230)" style="mix-blend-mode:normal;"/>
<use xlink:href="#path11_fill" transform="translate(83.5948 -230)" style="mix-blend-mode:normal;"/>
<use xlink:href="#path12_fill" transform="translate(83.5948 -230)" style="mix-blend-mode:normal;"/>
<use xlink:href="#path13_fill" transform="translate(83.5948 -230)" style="mix-blend-mode:normal;"/>
<use xlink:href="#path14_fill" transform="translate(83.5948 -230)" style="mix-blend-mode:normal;"/>
<use xlink:href="#path15_fill" transform="translate(83.5948 -230)" style="mix-blend-mode:normal;"/>
</g>
</g>
<defs>
<path id="path0_fill" d="
M 93.4052 28
L 93.4052 31.814
C 93.4052 32.9185 94.3007 33.814 95.4052 33.814
C 96.5098 33.814 97.4052 32.9185 97.4052 31.814
L 97.4052 28
C 97.4052 26.8954 96.5098 26 95.4052 26
C 94.3007 26 93.4052 26.8954 93.4052 28
Z
M 96.4052 28
L 96.4052 31.814
C 96.4052 32.3662 95.9575 32.814 95.4052 32.814
C 94.853 32.814 94.4052 32.3662 94.4052 31.814
L 94.4052 28
C 94.4052 27.4477 94.853 27 95.4052 27
C 95.9575 27 96.4052 27.4477 96.4052 28
Z"/>
<path id="path1_fill" d="
M 114.405 36.172
L 111.577 38.9347
C 110.796 39.6976 110.796 40.9344 111.577 41.6973
C 112.358 42.4602 113.624 42.4602 114.405 41.6973
L 117.234 38.9347
C 118.015 38.1718 118.015 36.9349 117.234 36.172
C 116.453 35.4091 115.186 35.4091 114.405 36.172
Z
M 116.518 38.2359
L 113.69 40.9986
C 113.304 41.3756 112.678 41.3756 112.292 40.9986
C 111.906 40.6216 111.906 40.0104 112.292 39.6334
L 115.121 36.8708
C 115.507 36.4938 116.132 36.4938 116.518 36.8708
C 116.904 37.2478 116.904 37.859 116.518 38.2359
Z"/>
<path id="path2_fill" d="
M 76.4052 41.6973
L 73.5768 38.9347
C 72.7958 38.1718 72.7958 36.9349 73.5768 36.172
C 74.3579 35.4091 75.6242 35.4091 76.4052 36.172
L 79.2337 38.9347
C 80.0147 39.6976 80.0147 40.9344 79.2337 41.6973
C 78.4526 42.4602 77.1863 42.4602 76.4052 41.6973
Z
M 78.5183 39.6334
L 75.6899 36.8708
C 75.3039 36.4938 74.6781 36.4938 74.2922 36.8708
C 73.9062 37.2478 73.9062 37.859 74.2922 38.2359
L 77.1206 40.9986
C 77.5066 41.3756 78.1323 41.3756 78.5183 40.9986
C 78.9042 40.6216 78.9042 40.0104 78.5183 39.6334
Z"/>
<path id="path3_fill" d="
M 110.405 72.6973
L 107.577 69.9347
C 106.796 69.1718 106.796 67.9349 107.577 67.172
C 108.358 66.4091 109.624 66.4091 110.405 67.172
L 113.234 69.9347
C 114.015 70.6975 114.015 71.9344 113.234 72.6973
C 112.453 73.4602 111.186 73.4602 110.405 72.6973
Z
M 112.518 70.6334
L 109.69 67.8707
C 109.304 67.4938 108.678 67.4938 108.292 67.8707
C 107.906 68.2477 107.906 68.8589 108.292 69.2359
L 111.121 71.9986
C 111.507 72.3756 112.132 72.3756 112.518 71.9986
C 112.904 71.6216 112.904 71.0104 112.518 70.6334
Z"/>
<path id="path4_fill" d="
M 120.452 52.4419
L 116.359 52.4419
C 115.28 52.4419 114.405 53.3165 114.405 54.3954
C 114.405 55.4742 115.28 56.3488 116.359 56.3488
L 120.452 56.3488
C 121.531 56.3488 122.405 55.4742 122.405 54.3954
C 122.405 53.3165 121.531 52.4419 120.452 52.4419
Z
M 120.452 55.3488
L 116.359 55.3488
C 115.832 55.3488 115.405 54.922 115.405 54.3954
C 115.405 53.8688 115.832 53.4419 116.359 53.4419
L 120.452 53.4419
C 120.978 53.4419 121.405 53.8688 121.405 54.3954
C 121.405 54.922 120.978 55.3488 120.452 55.3488
Z"/>
<path id="path5_fill" d="
M 95.4052 37.7675
C 103.458 37.7675 109.905 44.1316 109.905 51.8837
C 109.905 58.6446 105.001 64.3499 98.4052 65.6983
L 98.4052 67.7343
C 106.086 66.3563 111.905 59.7838 111.905 51.8837
C 111.905 42.983 104.518 35.7675 95.4052 35.7675
C 86.5961 35.7675 79.3993 42.5102 78.9296 51
L 80.9333 51
C 81.4011 43.6538 87.6607 37.7675 95.4052 37.7675
Z"/>
<path id="path6_fill" d="
M 32.2227 43.2303
C 35.3676 43.2303 37.917 40.6336 37.917 37.4303
C 37.917 34.2271 35.3676 31.6304 32.2227 31.6304
C 29.0778 31.6304 26.5284 34.2271 26.5284 37.4303
C 26.5284 40.6336 29.0778 43.2303 32.2227 43.2303
Z
M 32.2227 41.2303
C 32.1423 41.2303 32.0624 41.2277 31.9831 41.2224
C 31.8497 41.2135 31.718 41.1973 31.5883 41.174
C 31.018 41.0718 30.4886 40.8341 30.036 40.4924
C 29.1276 39.8065 28.5284 38.7013 28.5284 37.4303
C 28.5284 37.4039 28.5286 37.3775 28.5292 37.3512
C 28.5433 36.6328 28.749 35.9695 29.0932 35.4081
C 29.1292 35.3495 29.1666 35.292 29.2055 35.2357
C 29.5853 34.6855 30.1032 34.2462 30.7028 33.9673
C 31.1689 33.7504 31.6844 33.6304 32.2227 33.6304
C 32.7679 33.6304 33.2896 33.7535 33.7604 33.9756
C 34.4209 34.2873 34.9811 34.794 35.3649 35.429
C 35.4037 35.4933 35.4407 35.5589 35.4759 35.6257
C 35.7566 36.1595 35.917 36.7727 35.917 37.4303
C 35.917 37.5366 35.9128 37.6416 35.9046 37.7454
C 35.7954 39.1265 34.9746 40.2763 33.8414 40.8456
C 33.3497 41.0926 32.7993 41.2303 32.2227 41.2303
Z"/>
<path id="path7_fill" d="
M 30.3877 32.8904
C 29.4546 29.4889 28.8909 24.8591 28.8946 19.575
C 28.8909 14.2909 29.4546 9.66108 30.3877 6.2596
C 30.8372 4.59877 31.293 3.44734 31.8359 2.62209
C 32.0147 2.3375 32.1146 2.19843 32.233 2.09313
C 32.3513 2.19843 32.4512 2.3375 32.63 2.62209
C 33.173 3.44734 33.6288 4.59877 34.0782 6.2596
C 35.0113 9.66108 35.575 14.2909 35.5714 19.575
C 35.575 24.8591 35.0113 29.4889 34.0782 32.8904
C 33.973 33.2793 33.8674 33.6402 33.7604 33.9756
C 34.4209 34.2873 34.9811 34.794 35.3649 35.429
C 36.7019 31.8716 37.5714 26.0956 37.5714 19.575
C 37.5714 8.76402 35.1813 0 32.233 0
C 29.2846 0 26.8946 8.76402 26.8946 19.575
C 26.8946 25.9899 27.7361 31.6842 29.0364 35.2543
C 25.2942 35.6896 19.7533 37.7961 14.0308 41.1759
C 4.84874 46.5989 -1.32417 53.2463 0.243189 56.0234
C 1.81055 58.8005 10.5246 56.6556 19.7067 51.2326
C 25.0895 48.0535 29.4382 44.4535 31.7995 41.4592
C 34.1067 44.5061 38.556 48.2296 44.1038 51.5062
C 53.2858 56.9292 61.9999 59.0741 63.5673 56.297
C 65.1346 53.5199 58.9617 46.8725 49.7797 41.4495
C 44.4049 38.2751 39.1904 36.2239 35.4759 35.6257
C 35.7566 36.1595 35.917 36.7727 35.917 37.4303
C 35.917 37.5366 35.9128 37.6416 35.9046 37.7454
C 36.1712 37.8017 36.4506 37.8663 36.744 37.9392
C 40.1157 38.7627 44.3224 40.5435 48.7967 43.1912
C 52.0056 45.0828 54.7691 47.0751 56.9547 49
C 57.7239 49.6775 58.4215 50.3466 59.0417 51
C 59.1188 51.0812 59.1947 51.1621 59.2693 51.2428
C 60.0297 52.058 60.6027 52.7637 61.0226 53.4108
C 61.2463 53.7557 61.4266 54.0839 61.5686 54.4032
C 61.7626 54.815 61.8158 54.9782 61.8251 55.2284
C 61.8283 55.2469 61.8316 55.2618 61.8349 55.2738
C 61.8231 55.2769 61.8088 55.2815 61.7915 55.2879
C 61.5751 55.4047 61.4103 55.4393 60.9646 55.4733
C 60.9319 55.4765 60.8988 55.4795 60.8656 55.4822
C 60.3412 55.5248 59.7538 55.4999 59.0716 55.4048
C 58.5002 55.3251 57.8624 55.1962 57.1395 55.0165
C 55.6721 54.6581 54.0465 54.1184 52.3096 53.4048
C 50.753 52.7653 49.107 51.9862 47.4052 51.0728
C 46.8191 50.7582 46.2263 50.4276 45.6282 50.0814
C 45.4482 49.9771 45.2677 49.8715 45.0868 49.7644
C 40.6081 47.1245 36.9972 44.2881 34.6142 41.7129
C 34.3312 41.4095 34.0742 41.1213 33.8414 40.8456
C 33.3497 41.0926 32.7993 41.2303 32.2227 41.2303
C 32.1423 41.2303 32.0624 41.2277 31.9831 41.2224
C 31.8497 41.2135 31.718 41.1973 31.5883 41.174
C 31.018 41.0718 30.4886 40.8341 30.036 40.4924
C 29.7858 40.7921 29.5067 41.1066 29.1963 41.4393
C 26.8133 44.0146 23.2023 46.8509 18.7236 49.4909
C 14.2493 52.1386 10.0426 53.9194 6.67099 54.7429
C 5.03036 55.1507 3.82777 55.297 2.84582 55.1997
C 2.4002 55.1657 2.23539 55.1312 2.01894 55.0143
C 2.00169 55.0079 1.98737 55.0034 1.97557 55.0003
C 1.97886 54.9883 1.98216 54.9733 1.98535 54.9548
C 1.99467 54.7046 2.04785 54.5414 2.24186 54.1296
C 2.65047 53.211 3.3756 52.2188 4.54115 50.9692
C 6.92414 48.394 10.5351 45.5577 15.0138 42.9177
C 19.4881 40.27 23.6948 38.4891 27.0665 37.6656
C 27.5974 37.5336 28.0826 37.429 28.5292 37.3512
C 28.5433 36.6328 28.749 35.9695 29.0932 35.4081
C 29.1292 35.3495 29.1666 35.292 29.2055 35.2357
C 29.5853 34.6855 30.1032 34.2462 30.7028 33.9673
C 30.5968 33.6342 30.492 33.2761 30.3877 32.8904
Z"/>
<path id="path8_fill" d="
M 36.6288 87
C 37.7333 87 38.5441 86.1086 38.4396 85.009
L 34.5472 44.041
C 34.4427 42.9414 33.4626 42.05 32.3581 42.05
L 32.0873 42.05
C 30.9828 42.05 30.0026 42.9414 29.8982 44.041
L 26.0058 85.009
C 25.9013 86.1086 26.712 87 27.8166 87
L 36.6288 87
Z
M 32.0873 44.05
L 32.3581 44.05
C 32.4313 44.05 32.5493 44.1573 32.5562 44.2302
L 36.4298 85
L 28.0156 85
L 31.8892 44.2302
C 31.8961 44.1573 32.014 44.05 32.0873 44.05
Z"/>
<path id="path9_fill" d="
M 98.4052 84
L 47.4052 84
L 47.4052 51.0728
C 46.8191 50.7582 46.2263 50.4276 45.6282 50.0814
C 45.4857 50.3564 45.4052 50.6688 45.4052 51
L 45.4052 84
C 45.4052 85.1046 46.3007 86 47.4052 86
L 98.4052 86
C 99.5098 86 100.405 85.1046 100.405 84
L 100.405 51
C 100.405 49.8954 99.5098 49 98.4052 49
L 56.9547 49
C 57.7239 49.6775 58.4215 50.3466 59.0417 51
L 78.9296 51
L 80.9333 51
L 98.4052 51
L 98.4052 65.6983
L 98.4052 67.7343
L 98.4052 84
Z"/>
<path id="path10_fill" d="
M 68.3576 64.619
C 68.3559 64.6173 68.3574 64.619 68.3574 64.619
L 68.3576 64.619
Z
M 68.3576 55.4048
C 68.3594 55.403 68.3576 55.4045 68.3576 55.4045
L 68.3576 55.4048
Z
M 79.4529 64.619
L 79.4529 55.4048
C 79.4529 54.3002 78.5574 53.4048 77.4529 53.4048
L 68.3576 53.4048
C 67.253 53.4048 66.3576 54.3002 66.3576 55.4048
L 66.3576 64.619
C 66.3576 65.7236 67.253 66.619 68.3576 66.619
L 77.4529 66.619
C 78.5574 66.619 79.4529 65.7236 79.4529 64.619
Z
M 77.4529 64.619
C 77.4511 64.6208 77.4529 64.6193 77.4529 64.6193
L 77.4529 64.619
Z
M 77.4529 64.619
L 68.3576 64.619
L 68.3574 64.619
C 68.3574 64.619 68.3559 64.6173 68.3576 64.619
L 68.3576 55.4048
L 68.3576 55.4045
C 68.3576 55.4045 68.3594 55.403 68.3576 55.4048
L 77.4529 55.4048
L 77.4529 64.619
L 77.4529 64.6193
C 77.4529 64.6193 77.4511 64.6208 77.4529 64.619
Z"/>
<path id="path11_fill" d="
M 84.9449 64.619
C 84.9432 64.6173 84.9447 64.619 84.9447 64.619
L 84.9449 64.619
Z
M 84.9449 55.4048
C 84.9467 55.403 84.9449 55.4045 84.9449 55.4045
L 84.9449 55.4048
Z
M 96.0402 64.619
L 96.0402 55.4048
C 96.0402 54.3002 95.1447 53.4048 94.0402 53.4048
L 84.9449 53.4048
C 83.8404 53.4048 82.9449 54.3002 82.9449 55.4048
L 82.9449 64.619
C 82.9449 65.7236 83.8404 66.619 84.9449 66.619
L 94.0402 66.619
C 95.1447 66.619 96.0402 65.7236 96.0402 64.619
Z
M 94.0402 64.619
C 94.0384 64.6208 94.0402 64.6193 94.0402 64.6193
L 94.0402 64.619
Z
M 94.0402 64.619
L 84.9449 64.619
L 84.9447 64.619
C 84.9447 64.619 84.9432 64.6173 84.9449 64.619
L 84.9449 55.4048
L 84.9449 55.4045
C 84.9449 55.4045 84.9467 55.403 84.9449 55.4048
L 94.0402 55.4048
L 94.0402 64.619
L 94.0402 64.6193
C 94.0402 64.6193 94.0384 64.6208 94.0402 64.619
Z"/>
<path id="path12_fill" d="
M 51.7703 79.5952
C 51.7686 79.5935 51.7701 79.5952 51.7701 79.5952
L 51.7703 79.5952
Z
M 51.7703 70.381
C 51.7721 70.3792 51.7703 70.3807 51.7703 70.3807
L 51.7703 70.381
Z
M 62.8656 79.5952
L 62.8656 70.381
C 62.8656 69.2764 61.9701 68.381 60.8656 68.381
L 51.7703 68.381
C 50.6657 68.381 49.7703 69.2764 49.7703 70.381
L 49.7703 79.5952
C 49.7703 80.6998 50.6657 81.5952 51.7703 81.5952
L 60.8656 81.5952
C 61.9701 81.5952 62.8656 80.6998 62.8656 79.5952
Z
M 60.8656 79.5952
C 60.8638 79.597 60.8656 79.5955 60.8656 79.5955
L 60.8656 79.5952
Z
M 60.8656 79.5952
L 51.7703 79.5952
L 51.7701 79.5952
C 51.7701 79.5952 51.7686 79.5935 51.7703 79.5952
L 51.7703 70.381
L 51.7703 70.3807
C 51.7703 70.3807 51.7721 70.3792 51.7703 70.381
L 60.8656 70.381
L 60.8656 79.5952
L 60.8656 79.5955
C 60.8656 79.5955 60.8638 79.597 60.8656 79.5952
Z"/>
<path id="path13_fill" d="
M 68.3576 79.5952
C 68.3559 79.5935 68.3574 79.5952 68.3574 79.5952
L 68.3576 79.5952
Z
M 68.3576 70.381
C 68.3594 70.3792 68.3576 70.3807 68.3576 70.3807
L 68.3576 70.381
Z
M 79.4529 79.5952
L 79.4529 70.381
C 79.4529 69.2764 78.5574 68.381 77.4529 68.381
L 68.3576 68.381
C 67.253 68.381 66.3576 69.2764 66.3576 70.381
L 66.3576 79.5952
C 66.3576 80.6998 67.253 81.5952 68.3576 81.5952
L 77.4529 81.5952
C 78.5574 81.5952 79.4529 80.6998 79.4529 79.5952
Z
M 77.4529 79.5952
C 77.4511 79.597 77.4529 79.5955 77.4529 79.5955
L 77.4529 79.5952
Z
M 77.4529 79.5952
L 68.3576 79.5952
L 68.3574 79.5952
C 68.3574 79.5952 68.3559 79.5935 68.3576 79.5952
L 68.3576 70.381
L 68.3576 70.3807
C 68.3576 70.3807 68.3594 70.3792 68.3576 70.381
L 77.4529 70.381
L 77.4529 79.5952
L 77.4529 79.5955
C 77.4529 79.5955 77.4511 79.597 77.4529 79.5952
Z"/>
<path id="path14_fill" d="
M 84.9449 79.5952
C 84.9432 79.5935 84.9447 79.5952 84.9447 79.5952
L 84.9449 79.5952
Z
M 84.9449 70.381
C 84.9467 70.3792 84.9449 70.3807 84.9449 70.3807
L 84.9449 70.381
Z
M 96.0402 79.5952
L 96.0402 70.381
C 96.0402 69.2764 95.1447 68.381 94.0402 68.381
L 84.9449 68.381
C 83.8404 68.381 82.9449 69.2764 82.9449 70.381
L 82.9449 79.5952
C 82.9449 80.6998 83.8404 81.5952 84.9449 81.5952
L 94.0402 81.5952
C 95.1447 81.5952 96.0402 80.6998 96.0402 79.5952
Z
M 94.0402 79.5952
C 94.0384 79.597 94.0402 79.5955 94.0402 79.5955
L 94.0402 79.5952
Z
M 94.0402 79.5952
L 84.9449 79.5952
L 84.9447 79.5952
C 84.9447 79.5952 84.9432 79.5935 84.9449 79.5952
L 84.9449 70.381
L 84.9449 70.3807
C 84.9449 70.3807 84.9467 70.3792 84.9449 70.381
L 94.0402 70.381
L 94.0402 79.5952
L 94.0402 79.5955
C 94.0402 79.5955 94.0384 79.597 94.0402 79.5952
Z"/>
<path id="path15_fill" d="
M 60.8656 64.619
L 51.7703 64.619
L 51.7703 55.4048
L 59.0716 55.4048
C 58.5002 55.3251 57.8624 55.1962 57.1395 55.0165
C 55.6721 54.6581 54.0465 54.1184 52.3096 53.4048
L 51.7703 53.4048
C 50.6657 53.4048 49.7703 54.3002 49.7703 55.4048
L 49.7703 64.619
C 49.7703 65.7236 50.6657 66.619 51.7703 66.619
L 60.8656 66.619
C 61.9701 66.619 62.8656 65.7236 62.8656 64.619
L 62.8656 55.4048
C 62.8656 54.353 62.0537 53.4909 61.0226 53.4108
C 61.2463 53.7557 61.4266 54.0839 61.5686 54.4032
C 61.7626 54.815 61.8158 54.9782 61.8251 55.2284
C 61.8283 55.2469 61.8316 55.2618 61.8349 55.2738
C 61.8231 55.2769 61.8088 55.2815 61.7915 55.2879
C 61.5751 55.4047 61.4103 55.4393 60.9646 55.4733
C 60.9319 55.4765 60.8988 55.4795 60.8656 55.4822
L 60.8656 64.619
Z"/>
</defs>
</svg>
